{
    "accessors" : [
        {
            "bufferView" : 0, 
            "componentType" : 5123, 
            "count" : 14688, 
            "max" : [
                3283
            ], 
            "min" : [
                0
            ], 
            "type" : "SCALAR"
        }, 
        {
            "bufferView" : 1, 
            "componentType" : 5126, 
            "count" : 3284, 
            "max" : [
                0.2213057279586792, 
                -1.271069049835205e-05, 
                0.5271426439285278
            ], 
            "min" : [
                -0.17867779731750488, 
                -0.13001270592212677, 
                -0.04465299844741821
            ], 
            "type" : "VEC3"
        }, 
        {
            "bufferView" : 2, 
            "componentType" : 5126, 
            "count" : 3284, 
            "max" : [
                1.0, 
                1.0, 
                0.99993896484375
            ], 
            "min" : [
                -1.0, 
                -1.0, 
                -0.99993896484375
            ], 
            "type" : "VEC3"
        }, 
        {
            "bufferView" : 3, 
            "componentType" : 5123, 
            "count" : 8220, 
            "max" : [
                1804
            ], 
            "min" : [
                0
            ], 
            "type" : "SCALAR"
        }, 
        {
            "bufferView" : 4, 
            "componentType" : 5126, 
            "count" : 1805, 
            "max" : [
                0.4631526470184326, 
                0.06499999761581421, 
                0.015011092647910118
            ], 
            "min" : [
                -0.0010783728212118149, 
                -0.06499999761581421, 
                -0.5568071603775024
            ], 
            "type" : "VEC3"
        }, 
        {
            "bufferView" : 5, 
            "componentType" : 5126, 
            "count" : 1805, 
            "max" : [
                0.999969482421875, 
                1.0, 
                0.999969482421875
            ], 
            "min" : [
                -0.999969482421875, 
                -1.0, 
                -0.999969482421875
            ], 
            "type" : "VEC3"
        }, 
        {
            "bufferView" : 6, 
            "componentType" : 5123, 
            "count" : 25368, 
            "max" : [
                5688
            ], 
            "min" : [
                0
            ], 
            "type" : "SCALAR"
        }, 
        {
            "bufferView" : 7, 
            "componentType" : 5126, 
            "count" : 5689, 
            "max" : [
                0.20073199272155762, 
                0.0650000050663948, 
                0.2141028642654419
            ], 
            "min" : [
                -0.20775675773620605, 
                -0.06499999016523361, 
                -0.21837836503982544
            ], 
            "type" : "VEC3"
        }, 
        {
            "bufferView" : 8, 
            "componentType" : 5126, 
            "count" : 5689, 
            "max" : [
                0.999969482421875, 
                1.0, 
                0.999969482421875
            ], 
            "min" : [
                -0.999969482421875, 
                -1.0, 
                -1.0
            ], 
            "type" : "VEC3"
        }, 
        {
            "bufferView" : 9, 
            "componentType" : 5123, 
            "count" : 8220, 
            "max" : [
                1804
            ], 
            "min" : [
                0
            ], 
            "type" : "SCALAR"
        }, 
        {
            "bufferView" : 10, 
            "componentType" : 5126, 
            "count" : 1805, 
            "max" : [
                0.4631526470184326, 
                0.06499999761581421, 
                0.015011092647910118
            ], 
            "min" : [
                -0.0010783728212118149, 
                -0.06499999761581421, 
                -0.5568071603775024
            ], 
            "type" : "VEC3"
        }, 
        {
            "bufferView" : 11, 
            "componentType" : 5126, 
            "count" : 1805, 
            "max" : [
                0.999969482421875, 
                1.0, 
                0.999969482421875
            ], 
            "min" : [
                -0.999969482421875, 
                -1.0, 
                -0.999969482421875
            ], 
            "type" : "VEC3"
        }, 
        {
            "bufferView" : 12, 
            "componentType" : 5123, 
            "count" : 8220, 
            "max" : [
                1821
            ], 
            "min" : [
                0
            ], 
            "type" : "SCALAR"
        }, 
        {
            "bufferView" : 13, 
            "componentType" : 5126, 
            "count" : 1822, 
            "max" : [
                0.41593316197395325, 
                0.06499999761581421, 
                -0.18546439707279205
            ], 
            "min" : [
                0.06549099087715149, 
                -0.06499999761581421, 
                -0.2804798483848572
            ], 
            "type" : "VEC3"
        }, 
        {
            "bufferView" : 14, 
            "componentType" : 5126, 
            "count" : 1822, 
            "max" : [
                1.0, 
                1.0, 
                0.99993896484375
            ], 
            "min" : [
                -1.0, 
                -1.0, 
                -0.99993896484375
            ], 
            "type" : "VEC3"
        }, 
        {
            "bufferView" : 15, 
            "componentType" : 5126, 
            "count" : 96, 
            "max" : [
                3.9583333333333335
            ], 
            "min" : [
                0.0
            ], 
            "type" : "SCALAR"
        }, 
        {
            "bufferView" : 16, 
            "componentType" : 5126, 
            "count" : 96, 
            "max" : [
                1.4382749795913696, 
                0.5254237651824951, 
                0.17880874872207642
            ], 
            "min" : [
                1.4382749795913696, 
                0.5254237651824951, 
                0.17880874872207642
            ], 
            "type" : "VEC3"
        }, 
        {
            "bufferView" : 17, 
            "componentType" : 5126, 
            "count" : 96, 
            "max" : [
                3.9583333333333335
            ], 
            "min" : [
                0.0
            ], 
            "type" : "SCALAR"
        }, 
        {
            "bufferView" : 18, 
            "componentType" : 5126, 
            "count" : 96, 
            "max" : [
                0.7071067690849304, 
                0.1245977059006691, 
                0.12459773570299149, 
                0.7071067690849304
            ], 
            "min" : [
                0.6864055395126343, 
                -0.16984523832798004, 
                -0.16984526813030243, 
                0.6864055395126343
            ], 
            "type" : "VEC4"
        }, 
        {
            "bufferView" : 19, 
            "componentType" : 5126, 
            "count" : 7, 
            "max" : [
                3.9583333333333335
            ], 
            "min" : [
                0.0
            ], 
            "type" : "SCALAR"
        }, 
        {
            "bufferView" : 20, 
            "componentType" : 5126, 
            "count" : 21, 
            "max" : [
                1.0, 
                1.0, 
                1.0
            ], 
            "min" : [
                0.0, 
                0.0, 
                0.0
            ], 
            "type" : "VEC3"
        }, 
        {
            "bufferView" : 21, 
            "componentType" : 5126, 
            "count" : 96, 
            "max" : [
                3.9583333333333335
            ], 
            "min" : [
                0.0
            ], 
            "type" : "SCALAR"
        }, 
        {
            "bufferView" : 22, 
            "componentType" : 5126, 
            "count" : 96, 
            "max" : [
                2.850741386413574, 
                0.46970558166503906, 
                0.11379604786634445
            ], 
            "min" : [
                2.0224671363830566, 
                0.19820988178253174, 
                0.11379601806402206
            ], 
            "type" : "VEC3"
        }, 
        {
            "bufferView" : 23, 
            "componentType" : 5126, 
            "count" : 96, 
            "max" : [
                3.9583333333333335
            ], 
            "min" : [
                0.0
            ], 
            "type" : "SCALAR"
        }, 
        {
            "bufferView" : 24, 
            "componentType" : 5126, 
            "count" : 96, 
            "max" : [
                0.7071067690849304, 
                0.0, 
                -0.0, 
                0.7071067690849304
            ], 
            "min" : [
                0.7071067690849304, 
                0.0, 
                -0.0, 
                0.7071067690849304
            ], 
            "type" : "VEC4"
        }, 
        {
            "bufferView" : 25, 
            "componentType" : 5126, 
            "count" : 4, 
            "max" : [
                3.9583333333333335
            ], 
            "min" : [
                0.0
            ], 
            "type" : "SCALAR"
        }, 
        {
            "bufferView" : 26, 
            "componentType" : 5126, 
            "count" : 12, 
            "max" : [
                1.0, 
                1.0, 
                1.0
            ], 
            "min" : [
                0.0, 
                0.0, 
                0.0
            ], 
            "type" : "VEC3"
        }
    ], 
    "animations" : [
        {
            "channels" : [
                {
                    "sampler" : 0, 
                    "target" : {
                        "node" : 3, 
                        "path" : "translation"
                    }
                }, 
                {
                    "sampler" : 1, 
                    "target" : {
                        "node" : 3, 
                        "path" : "rotation"
                    }
                }, 
                {
                    "sampler" : 2, 
                    "target" : {
                        "node" : 3, 
                        "path" : "scale"
                    }
                }, 
                {
                    "sampler" : 3, 
                    "target" : {
                        "node" : 4, 
                        "path" : "translation"
                    }
                }, 
                {
                    "sampler" : 4, 
                    "target" : {
                        "node" : 4, 
                        "path" : "rotation"
                    }
                }, 
                {
                    "sampler" : 5, 
                    "target" : {
                        "node" : 4, 
                        "path" : "scale"
                    }
                }
            ], 
            "samplers" : [
                {
                    "input" : 15, 
                    "interpolation" : "LINEAR", 
                    "output" : 16
                }, 
                {
                    "input" : 17, 
                    "interpolation" : "LINEAR", 
                    "output" : 18
                }, 
                {
                    "input" : 19, 
                    "interpolation" : "CUBICSPLINE", 
                    "output" : 20
                }, 
                {
                    "input" : 21, 
                    "interpolation" : "LINEAR", 
                    "output" : 22
                }, 
                {
                    "input" : 23, 
                    "interpolation" : "LINEAR", 
                    "output" : 24
                }, 
                {
                    "input" : 25, 
                    "interpolation" : "CUBICSPLINE", 
                    "output" : 26
                }
            ]
        }
    ], 
    "asset" : {
        "generator" : "Khronos Blender glTF 2.0 exporter", 
        "version" : "2.0"
    }, 
    "bufferViews" : [
        {
            "buffer" : 0, 
            "byteLength" : 29376, 
            "byteOffset" : 0, 
            "target" : 34963
        }, 
        {
            "buffer" : 0, 
            "byteLength" : 39408, 
            "byteOffset" : 29376, 
            "target" : 34962
        }, 
        {
            "buffer" : 0, 
            "byteLength" : 39408, 
            "byteOffset" : 68784, 
            "target" : 34962
        }, 
        {
            "buffer" : 0, 
            "byteLength" : 16440, 
            "byteOffset" : 108192, 
            "target" : 34963
        }, 
        {
            "buffer" : 0, 
            "byteLength" : 21660, 
            "byteOffset" : 124632, 
            "target" : 34962
        }, 
        {
            "buffer" : 0, 
            "byteLength" : 21660, 
            "byteOffset" : 146292, 
            "target" : 34962
        }, 
        {
            "buffer" : 0, 
            "byteLength" : 50736, 
            "byteOffset" : 167952, 
            "target" : 34963
        }, 
        {
            "buffer" : 0, 
            "byteLength" : 68268, 
            "byteOffset" : 218688, 
            "target" : 34962
        }, 
        {
            "buffer" : 0, 
            "byteLength" : 68268, 
            "byteOffset" : 286956, 
            "target" : 34962
        }, 
        {
            "buffer" : 0, 
            "byteLength" : 16440, 
            "byteOffset" : 355224, 
            "target" : 34963
        }, 
        {
            "buffer" : 0, 
            "byteLength" : 21660, 
            "byteOffset" : 371664, 
            "target" : 34962
        }, 
        {
            "buffer" : 0, 
            "byteLength" : 21660, 
            "byteOffset" : 393324, 
            "target" : 34962
        }, 
        {
            "buffer" : 0, 
            "byteLength" : 16440, 
            "byteOffset" : 414984, 
            "target" : 34963
        }, 
        {
            "buffer" : 0, 
            "byteLength" : 21864, 
            "byteOffset" : 431424, 
            "target" : 34962
        }, 
        {
            "buffer" : 0, 
            "byteLength" : 21864, 
            "byteOffset" : 453288, 
            "target" : 34962
        }, 
        {
            "buffer" : 0, 
            "byteLength" : 384, 
            "byteOffset" : 475152
        }, 
        {
            "buffer" : 0, 
            "byteLength" : 1152, 
            "byteOffset" : 475536
        }, 
        {
            "buffer" : 0, 
            "byteLength" : 384, 
            "byteOffset" : 476688
        }, 
        {
            "buffer" : 0, 
            "byteLength" : 1536, 
            "byteOffset" : 477072
        }, 
        {
            "buffer" : 0, 
            "byteLength" : 28, 
            "byteOffset" : 478608
        }, 
        {
            "buffer" : 0, 
            "byteLength" : 252, 
            "byteOffset" : 478636
        }, 
        {
            "buffer" : 0, 
            "byteLength" : 384, 
            "byteOffset" : 478888
        }, 
        {
            "buffer" : 0, 
            "byteLength" : 1152, 
            "byteOffset" : 479272
        }, 
        {
            "buffer" : 0, 
            "byteLength" : 384, 
            "byteOffset" : 480424
        }, 
        {
            "buffer" : 0, 
            "byteLength" : 1536, 
            "byteOffset" : 480808
        }, 
        {
            "buffer" : 0, 
            "byteLength" : 16, 
            "byteOffset" : 482344
        }, 
        {
            "buffer" : 0, 
            "byteLength" : 144, 
            "byteOffset" : 482360
        }
    ], 
    "buffers" : [
        {
            "byteLength" : 482504, 
            "uri" : "-le.bin"
        }
    ], 
    "materials" : [
        {
            "name" : "Material.001", 
            "pbrMetallicRoughness" : {
                "baseColorFactor" : [
                    0.04177363279124546, 
                    0.04177363279124546, 
                    0.04177363279124546, 
                    1.0
                ], 
                "metallicFactor" : 0.0
            }
        }
    ], 
    "meshes" : [
        {
            "name" : "ble", 
            "primitives" : [
                {
                    "attributes" : {
                        "NORMAL" : 2, 
                        "POSITION" : 1
                    }, 
                    "indices" : 0, 
                    "material" : 0
                }
            ]
        }, 
        {
            "name" : "CUText.003", 
            "primitives" : [
                {
                    "attributes" : {
                        "NORMAL" : 5, 
                        "POSITION" : 4
                    }, 
                    "indices" : 3, 
                    "material" : 0
                }
            ]
        }, 
        {
            "name" : "ble.003", 
            "primitives" : [
                {
                    "attributes" : {
                        "NORMAL" : 8, 
                        "POSITION" : 7
                    }, 
                    "indices" : 6, 
                    "material" : 0
                }
            ]
        }, 
        {
            "name" : "CUText.001", 
            "primitives" : [
                {
                    "attributes" : {
                        "NORMAL" : 11, 
                        "POSITION" : 10
                    }, 
                    "indices" : 9, 
                    "material" : 0
                }
            ]
        }, 
        {
            "name" : "CUText.004", 
            "primitives" : [
                {
                    "attributes" : {
                        "NORMAL" : 14, 
                        "POSITION" : 13
                    }, 
                    "indices" : 12, 
                    "material" : 0
                }
            ]
        }
    ], 
    "nodes" : [
        {
            "mesh" : 3, 
            "name" : "Text.001", 
            "rotation" : [
                0.7010574340820312, 
                0.09229595214128494, 
                0.09229597449302673, 
                0.7010574340820312
            ], 
            "scale" : [
                0.9999999403953552, 
                1.0, 
                0.9999999403953552
            ], 
            "translation" : [
                0.36592912673950195, 
                0.0, 
                -0.04813317582011223
            ]
        }, 
        {
            "mesh" : 1, 
            "name" : "Text.002", 
            "rotation" : [
                0.7010574340820312, 
                0.09229595214128494, 
                0.09229597449302673, 
                0.7010574340820312
            ], 
            "scale" : [
                0.9999999403953552, 
                1.0, 
                0.9999999403953552
            ], 
            "translation" : [
                2.3647677898406982, 
                0.0, 
                -0.04813317582011223
            ]
        }, 
        {
            "mesh" : 4, 
            "name" : "Text.003", 
            "rotation" : [
                0.7071068286895752, 
                0.0, 
                -0.0, 
                0.7071068286895752
            ], 
            "translation" : [
                0.6347563862800598, 
                0.005411624908447266, 
                0.11379601061344147
            ]
        }, 
        {
            "mesh" : 0, 
            "name" : "Text.004", 
            "rotation" : [
                0.7071068286895752, 
                0.0, 
                -0.0, 
                0.7071068286895752
            ], 
            "translation" : [
                1.4382749795913696, 
                0.5254237651824951, 
                0.17880874872207642
            ]
        }, 
        {
            "mesh" : 2, 
            "name" : "Text.008", 
            "rotation" : [
                0.7071068286895752, 
                0.0, 
                -0.0, 
                0.7071068286895752
            ], 
            "translation" : [
                2.0224671363830566, 
                0.19820988178253174, 
                0.11379601806402206
            ]
        }
    ], 
    "scene" : 0, 
    "scenes" : [
        {
            "name" : "Scene", 
            "nodes" : [
                1, 
                0, 
                2, 
                3, 
                4
            ]
        }
    ]
}
