{
    "accessors" : [
        {
            "bufferView" : 0, 
            "componentType" : 5123, 
            "count" : 24852, 
            "max" : [
                5537
            ], 
            "min" : [
                0
            ], 
            "type" : "SCALAR"
        }, 
        {
            "bufferView" : 1, 
            "componentType" : 5126, 
            "count" : 5538, 
            "max" : [
                1.891945242881775, 
                0.06499999761581421, 
                0.022741474211215973
            ], 
            "min" : [
                1.4671927690505981, 
                -0.06499999761581421, 
                -0.5645420551300049
            ], 
            "type" : "VEC3"
        }, 
        {
            "bufferView" : 2, 
            "componentType" : 5126, 
            "count" : 5538, 
            "max" : [
                0.999969482421875, 
                1.0, 
                0.999969482421875
            ], 
            "min" : [
                -0.999969482421875, 
                -1.0, 
                -0.999969482421875
            ], 
            "type" : "VEC3"
        }, 
        {
            "bufferView" : 3, 
            "componentType" : 5123, 
            "count" : 26292, 
            "max" : [
                5822
            ], 
            "min" : [
                0
            ], 
            "type" : "SCALAR"
        }, 
        {
            "bufferView" : 4, 
            "componentType" : 5126, 
            "count" : 5823, 
            "max" : [
                0.910510778427124, 
                0.06499999761581421, 
                0.022742411121726036
            ], 
            "min" : [
                0.5182797312736511, 
                -0.06499999761581421, 
                -0.4097393751144409
            ], 
            "type" : "VEC3"
        }, 
        {
            "bufferView" : 5, 
            "componentType" : 5126, 
            "count" : 5823, 
            "max" : [
                1.0, 
                1.0, 
                1.0
            ], 
            "min" : [
                -1.0, 
                -1.0, 
                -1.0
            ], 
            "type" : "VEC3"
        }, 
        {
            "bufferView" : 6, 
            "componentType" : 5123, 
            "count" : 25368, 
            "max" : [
                5674
            ], 
            "min" : [
                0
            ], 
            "type" : "SCALAR"
        }, 
        {
            "bufferView" : 7, 
            "componentType" : 5126, 
            "count" : 5675, 
            "max" : [
                1.4066442251205444, 
                0.06499999761581421, 
                0.022741610184311867
            ], 
            "min" : [
                0.9981555938720703, 
                -0.06499999761581421, 
                -0.40973961353302
            ], 
            "type" : "VEC3"
        }, 
        {
            "bufferView" : 8, 
            "componentType" : 5126, 
            "count" : 5675, 
            "max" : [
                0.999969482421875, 
                1.0, 
                0.999969482421875
            ], 
            "min" : [
                -0.999969482421875, 
                -1.0, 
                -1.0
            ], 
            "type" : "VEC3"
        }, 
        {
            "bufferView" : 9, 
            "componentType" : 5123, 
            "count" : 34356, 
            "max" : [
                7625
            ], 
            "min" : [
                0
            ], 
            "type" : "SCALAR"
        }, 
        {
            "bufferView" : 10, 
            "componentType" : 5126, 
            "count" : 7626, 
            "max" : [
                0.41825076937675476, 
                0.06499999761581421, 
                0.1775415539741516
            ], 
            "min" : [
                0.02756744995713234, 
                -0.06499999761581421, 
                -0.4097388684749603
            ], 
            "type" : "VEC3"
        }, 
        {
            "bufferView" : 11, 
            "componentType" : 5126, 
            "count" : 7626, 
            "max" : [
                1.0, 
                1.0, 
                0.999969482421875
            ], 
            "min" : [
                -1.0, 
                -1.0, 
                -0.999969482421875
            ], 
            "type" : "VEC3"
        }, 
        {
            "bufferView" : 12, 
            "componentType" : 5126, 
            "count" : 4, 
            "max" : [
                5.416666666666667
            ], 
            "min" : [
                0.0
            ], 
            "type" : "SCALAR"
        }, 
        {
            "bufferView" : 13, 
            "componentType" : 5126, 
            "count" : 12, 
            "max" : [
                0.0, 
                0.0, 
                -0.0
            ], 
            "min" : [
                0.0, 
                0.0, 
                -0.0
            ], 
            "type" : "VEC3"
        }, 
        {
            "bufferView" : 14, 
            "componentType" : 5126, 
            "count" : 131, 
            "max" : [
                5.416666666666667
            ], 
            "min" : [
                0.0
            ], 
            "type" : "SCALAR"
        }, 
        {
            "bufferView" : 15, 
            "componentType" : 5126, 
            "count" : 131, 
            "max" : [
                0.7071067690849304, 
                0.0, 
                -0.0, 
                0.7071067690849304
            ], 
            "min" : [
                0.7071067690849304, 
                0.0, 
                -0.0, 
                0.7071067690849304
            ], 
            "type" : "VEC4"
        }, 
        {
            "bufferView" : 16, 
            "componentType" : 5126, 
            "count" : 4, 
            "max" : [
                5.416666666666667
            ], 
            "min" : [
                0.0
            ], 
            "type" : "SCALAR"
        }, 
        {
            "bufferView" : 17, 
            "componentType" : 5126, 
            "count" : 12, 
            "max" : [
                1.0, 
                1.0, 
                1.0
            ], 
            "min" : [
                0.0, 
                0.0, 
                0.0
            ], 
            "type" : "VEC3"
        }, 
        {
            "bufferView" : 18, 
            "componentType" : 5126, 
            "count" : 141, 
            "max" : [
                5.833333333333333
            ], 
            "min" : [
                0.0
            ], 
            "type" : "SCALAR"
        }, 
        {
            "bufferView" : 19, 
            "componentType" : 5126, 
            "count" : 141, 
            "max" : [
                0.9986770153045654, 
                0.7125694751739502, 
                -0.0
            ], 
            "min" : [
                0.0, 
                0.0, 
                -0.0
            ], 
            "type" : "VEC3"
        }, 
        {
            "bufferView" : 20, 
            "componentType" : 5126, 
            "count" : 141, 
            "max" : [
                5.833333333333333
            ], 
            "min" : [
                0.0
            ], 
            "type" : "SCALAR"
        }, 
        {
            "bufferView" : 21, 
            "componentType" : 5126, 
            "count" : 141, 
            "max" : [
                1.0, 
                1.0, 
                1.2769943475723267
            ], 
            "min" : [
                1.0, 
                1.0, 
                0.7401978373527527
            ], 
            "type" : "VEC3"
        }, 
        {
            "bufferView" : 22, 
            "componentType" : 5126, 
            "count" : 4, 
            "max" : [
                5.416666666666667
            ], 
            "min" : [
                0.0
            ], 
            "type" : "SCALAR"
        }, 
        {
            "bufferView" : 23, 
            "componentType" : 5126, 
            "count" : 12, 
            "max" : [
                0.0, 
                0.0, 
                -0.0
            ], 
            "min" : [
                0.0, 
                0.0, 
                -0.0
            ], 
            "type" : "VEC3"
        }, 
        {
            "bufferView" : 24, 
            "componentType" : 5126, 
            "count" : 131, 
            "max" : [
                5.416666666666667
            ], 
            "min" : [
                0.0
            ], 
            "type" : "SCALAR"
        }, 
        {
            "bufferView" : 25, 
            "componentType" : 5126, 
            "count" : 131, 
            "max" : [
                0.7071067690849304, 
                0.0, 
                -0.0, 
                0.7071067690849304
            ], 
            "min" : [
                0.7071067690849304, 
                0.0, 
                -0.0, 
                0.7071067690849304
            ], 
            "type" : "VEC4"
        }, 
        {
            "bufferView" : 26, 
            "componentType" : 5126, 
            "count" : 4, 
            "max" : [
                5.416666666666667
            ], 
            "min" : [
                0.0
            ], 
            "type" : "SCALAR"
        }, 
        {
            "bufferView" : 27, 
            "componentType" : 5126, 
            "count" : 12, 
            "max" : [
                1.0, 
                1.0, 
                1.0
            ], 
            "min" : [
                0.0, 
                0.0, 
                0.0
            ], 
            "type" : "VEC3"
        }, 
        {
            "bufferView" : 28, 
            "componentType" : 5126, 
            "count" : 6, 
            "max" : [
                5.833333333333333
            ], 
            "min" : [
                0.0
            ], 
            "type" : "SCALAR"
        }, 
        {
            "bufferView" : 29, 
            "componentType" : 5126, 
            "count" : 18, 
            "max" : [
                0.0, 
                0.0, 
                -0.0
            ], 
            "min" : [
                -0.46560871601104736, 
                0.0, 
                -0.0
            ], 
            "type" : "VEC3"
        }, 
        {
            "bufferView" : 30, 
            "componentType" : 5126, 
            "count" : 141, 
            "max" : [
                5.833333333333333
            ], 
            "min" : [
                0.0
            ], 
            "type" : "SCALAR"
        }, 
        {
            "bufferView" : 31, 
            "componentType" : 5126, 
            "count" : 141, 
            "max" : [
                0.7071067690849304, 
                0.0, 
                -0.0, 
                0.7071067690849304
            ], 
            "min" : [
                0.7071067690849304, 
                0.0, 
                -0.0, 
                0.7071067690849304
            ], 
            "type" : "VEC4"
        }, 
        {
            "bufferView" : 32, 
            "componentType" : 5126, 
            "count" : 6, 
            "max" : [
                5.833333333333333
            ], 
            "min" : [
                0.0
            ], 
            "type" : "SCALAR"
        }, 
        {
            "bufferView" : 33, 
            "componentType" : 5126, 
            "count" : 18, 
            "max" : [
                1.0, 
                1.0, 
                1.0
            ], 
            "min" : [
                0.0, 
                0.0, 
                0.0
            ], 
            "type" : "VEC3"
        }
    ], 
    "animations" : [
        {
            "channels" : [
                {
                    "sampler" : 0, 
                    "target" : {
                        "node" : 0, 
                        "path" : "translation"
                    }
                }, 
                {
                    "sampler" : 1, 
                    "target" : {
                        "node" : 0, 
                        "path" : "rotation"
                    }
                }, 
                {
                    "sampler" : 2, 
                    "target" : {
                        "node" : 0, 
                        "path" : "scale"
                    }
                }, 
                {
                    "sampler" : 3, 
                    "target" : {
                        "node" : 1, 
                        "path" : "translation"
                    }
                }, 
                {
                    "sampler" : 4, 
                    "target" : {
                        "node" : 1, 
                        "path" : "scale"
                    }
                }, 
                {
                    "sampler" : 5, 
                    "target" : {
                        "node" : 2, 
                        "path" : "translation"
                    }
                }, 
                {
                    "sampler" : 6, 
                    "target" : {
                        "node" : 2, 
                        "path" : "rotation"
                    }
                }, 
                {
                    "sampler" : 7, 
                    "target" : {
                        "node" : 2, 
                        "path" : "scale"
                    }
                }, 
                {
                    "sampler" : 8, 
                    "target" : {
                        "node" : 3, 
                        "path" : "translation"
                    }
                }, 
                {
                    "sampler" : 9, 
                    "target" : {
                        "node" : 3, 
                        "path" : "rotation"
                    }
                }, 
                {
                    "sampler" : 10, 
                    "target" : {
                        "node" : 3, 
                        "path" : "scale"
                    }
                }
            ], 
            "samplers" : [
                {
                    "input" : 12, 
                    "interpolation" : "CUBICSPLINE", 
                    "output" : 13
                }, 
                {
                    "input" : 14, 
                    "interpolation" : "LINEAR", 
                    "output" : 15
                }, 
                {
                    "input" : 16, 
                    "interpolation" : "CUBICSPLINE", 
                    "output" : 17
                }, 
                {
                    "input" : 18, 
                    "interpolation" : "LINEAR", 
                    "output" : 19
                }, 
                {
                    "input" : 20, 
                    "interpolation" : "LINEAR", 
                    "output" : 21
                }, 
                {
                    "input" : 22, 
                    "interpolation" : "CUBICSPLINE", 
                    "output" : 23
                }, 
                {
                    "input" : 24, 
                    "interpolation" : "LINEAR", 
                    "output" : 25
                }, 
                {
                    "input" : 26, 
                    "interpolation" : "CUBICSPLINE", 
                    "output" : 27
                }, 
                {
                    "input" : 28, 
                    "interpolation" : "CUBICSPLINE", 
                    "output" : 29
                }, 
                {
                    "input" : 30, 
                    "interpolation" : "LINEAR", 
                    "output" : 31
                }, 
                {
                    "input" : 32, 
                    "interpolation" : "CUBICSPLINE", 
                    "output" : 33
                }
            ]
        }
    ], 
    "asset" : {
        "generator" : "Khronos Blender glTF 2.0 exporter", 
        "version" : "2.0"
    }, 
    "bufferViews" : [
        {
            "buffer" : 0, 
            "byteLength" : 49704, 
            "byteOffset" : 0, 
            "target" : 34963
        }, 
        {
            "buffer" : 0, 
            "byteLength" : 66456, 
            "byteOffset" : 49704, 
            "target" : 34962
        }, 
        {
            "buffer" : 0, 
            "byteLength" : 66456, 
            "byteOffset" : 116160, 
            "target" : 34962
        }, 
        {
            "buffer" : 0, 
            "byteLength" : 52584, 
            "byteOffset" : 182616, 
            "target" : 34963
        }, 
        {
            "buffer" : 0, 
            "byteLength" : 69876, 
            "byteOffset" : 235200, 
            "target" : 34962
        }, 
        {
            "buffer" : 0, 
            "byteLength" : 69876, 
            "byteOffset" : 305076, 
            "target" : 34962
        }, 
        {
            "buffer" : 0, 
            "byteLength" : 50736, 
            "byteOffset" : 374952, 
            "target" : 34963
        }, 
        {
            "buffer" : 0, 
            "byteLength" : 68100, 
            "byteOffset" : 425688, 
            "target" : 34962
        }, 
        {
            "buffer" : 0, 
            "byteLength" : 68100, 
            "byteOffset" : 493788, 
            "target" : 34962
        }, 
        {
            "buffer" : 0, 
            "byteLength" : 68712, 
            "byteOffset" : 561888, 
            "target" : 34963
        }, 
        {
            "buffer" : 0, 
            "byteLength" : 91512, 
            "byteOffset" : 630600, 
            "target" : 34962
        }, 
        {
            "buffer" : 0, 
            "byteLength" : 91512, 
            "byteOffset" : 722112, 
            "target" : 34962
        }, 
        {
            "buffer" : 0, 
            "byteLength" : 16, 
            "byteOffset" : 813624
        }, 
        {
            "buffer" : 0, 
            "byteLength" : 144, 
            "byteOffset" : 813640
        }, 
        {
            "buffer" : 0, 
            "byteLength" : 524, 
            "byteOffset" : 813784
        }, 
        {
            "buffer" : 0, 
            "byteLength" : 2096, 
            "byteOffset" : 814308
        }, 
        {
            "buffer" : 0, 
            "byteLength" : 16, 
            "byteOffset" : 816404
        }, 
        {
            "buffer" : 0, 
            "byteLength" : 144, 
            "byteOffset" : 816420
        }, 
        {
            "buffer" : 0, 
            "byteLength" : 564, 
            "byteOffset" : 816564
        }, 
        {
            "buffer" : 0, 
            "byteLength" : 1692, 
            "byteOffset" : 817128
        }, 
        {
            "buffer" : 0, 
            "byteLength" : 564, 
            "byteOffset" : 818820
        }, 
        {
            "buffer" : 0, 
            "byteLength" : 1692, 
            "byteOffset" : 819384
        }, 
        {
            "buffer" : 0, 
            "byteLength" : 16, 
            "byteOffset" : 821076
        }, 
        {
            "buffer" : 0, 
            "byteLength" : 144, 
            "byteOffset" : 821092
        }, 
        {
            "buffer" : 0, 
            "byteLength" : 524, 
            "byteOffset" : 821236
        }, 
        {
            "buffer" : 0, 
            "byteLength" : 2096, 
            "byteOffset" : 821760
        }, 
        {
            "buffer" : 0, 
            "byteLength" : 16, 
            "byteOffset" : 823856
        }, 
        {
            "buffer" : 0, 
            "byteLength" : 144, 
            "byteOffset" : 823872
        }, 
        {
            "buffer" : 0, 
            "byteLength" : 24, 
            "byteOffset" : 824016
        }, 
        {
            "buffer" : 0, 
            "byteLength" : 216, 
            "byteOffset" : 824040
        }, 
        {
            "buffer" : 0, 
            "byteLength" : 564, 
            "byteOffset" : 824256
        }, 
        {
            "buffer" : 0, 
            "byteLength" : 2256, 
            "byteOffset" : 824820
        }, 
        {
            "buffer" : 0, 
            "byteLength" : 24, 
            "byteOffset" : 827076
        }, 
        {
            "buffer" : 0, 
            "byteLength" : 216, 
            "byteOffset" : 827100
        }
    ], 
    "buffers" : [
        {
            "byteLength" : 827316, 
            "uri" : "silentEHop.bin"
        }
    ], 
    "materials" : [
        {
            "name" : "Material.001", 
            "pbrMetallicRoughness" : {
                "baseColorFactor" : [
                    0.08081239582318656, 
                    0.640000066757203, 
                    0.0679629395598611, 
                    1.0
                ], 
                "metallicFactor" : 0.0
            }
        }, 
        {
            "name" : "Material.004", 
            "pbrMetallicRoughness" : {
                "baseColorFactor" : [
                    0.041773775842395056, 
                    0.041773775842395056, 
                    0.041773775842395056, 
                    1.0
                ], 
                "metallicFactor" : 0.0
            }
        }
    ], 
    "meshes" : [
        {
            "name" : "CUText", 
            "primitives" : [
                {
                    "attributes" : {
                        "NORMAL" : 2, 
                        "POSITION" : 1
                    }, 
                    "indices" : 0, 
                    "material" : 1
                }
            ]
        }, 
        {
            "name" : "CUText.002", 
            "primitives" : [
                {
                    "attributes" : {
                        "NORMAL" : 5, 
                        "POSITION" : 4
                    }, 
                    "indices" : 3, 
                    "material" : 0
                }
            ]
        }, 
        {
            "name" : "CUText.003", 
            "primitives" : [
                {
                    "attributes" : {
                        "NORMAL" : 8, 
                        "POSITION" : 7
                    }, 
                    "indices" : 6, 
                    "material" : 0
                }
            ]
        }, 
        {
            "name" : "CUText.001", 
            "primitives" : [
                {
                    "attributes" : {
                        "NORMAL" : 11, 
                        "POSITION" : 10
                    }, 
                    "indices" : 9, 
                    "material" : 1
                }
            ]
        }
    ], 
    "nodes" : [
        {
            "mesh" : 1, 
            "name" : "a", 
            "rotation" : [
                0.7071068286895752, 
                0.0, 
                -0.0, 
                0.7071068286895752
            ]
        }, 
        {
            "mesh" : 2, 
            "name" : "e", 
            "rotation" : [
                0.7071068286895752, 
                0.0, 
                -0.0, 
                0.7071068286895752
            ]
        }, 
        {
            "mesh" : 3, 
            "name" : "g", 
            "rotation" : [
                0.7071068286895752, 
                0.0, 
                -0.0, 
                0.7071068286895752
            ]
        }, 
        {
            "mesh" : 0, 
            "name" : "t", 
            "rotation" : [
                0.7071068286895752, 
                0.0, 
                -0.0, 
                0.7071068286895752
            ]
        }
    ], 
    "scene" : 0, 
    "scenes" : [
        {
            "name" : "Scene", 
            "nodes" : [
                1, 
                0, 
                2, 
                3
            ]
        }
    ]
}
