{
    "accessors" : [
        {
            "bufferView" : 0, 
            "componentType" : 5123, 
            "count" : 16452, 
            "max" : [
                3671
            ], 
            "min" : [
                0
            ], 
            "type" : "SCALAR"
        }, 
        {
            "bufferView" : 1, 
            "componentType" : 5126, 
            "count" : 3672, 
            "max" : [
                -0.3940722942352295, 
                0.06499998271465302, 
                0.1946791112422943
            ], 
            "min" : [
                -0.7878574132919312, 
                -0.0650000125169754, 
                -0.22232432663440704
            ], 
            "type" : "VEC3"
        }, 
        {
            "bufferView" : 2, 
            "componentType" : 5126, 
            "count" : 3672, 
            "max" : [
                0.999969482421875, 
                1.0, 
                1.0
            ], 
            "min" : [
                -0.999969482421875, 
                -1.0, 
                -1.0
            ], 
            "type" : "VEC3"
        }, 
        {
            "bufferView" : 3, 
            "componentType" : 5123, 
            "count" : 8220, 
            "max" : [
                1820
            ], 
            "min" : [
                0
            ], 
            "type" : "SCALAR"
        }, 
        {
            "bufferView" : 4, 
            "componentType" : 5126, 
            "count" : 1821, 
            "max" : [
                0.2321000099182129, 
                0.06499999761581421, 
                0.285703182220459
            ], 
            "min" : [
                -0.2321310043334961, 
                -0.06499999761581421, 
                -0.2861150801181793
            ], 
            "type" : "VEC3"
        }, 
        {
            "bufferView" : 5, 
            "componentType" : 5126, 
            "count" : 1821, 
            "max" : [
                0.999969482421875, 
                1.0, 
                0.999969482421875
            ], 
            "min" : [
                -0.999969482421875, 
                -1.0, 
                -0.999969482421875
            ], 
            "type" : "VEC3"
        }, 
        {
            "bufferView" : 6, 
            "componentType" : 5123, 
            "count" : 16452, 
            "max" : [
                3648
            ], 
            "min" : [
                0
            ], 
            "type" : "SCALAR"
        }, 
        {
            "bufferView" : 7, 
            "componentType" : 5126, 
            "count" : 3649, 
            "max" : [
                1.6004537343978882, 
                0.06499999761581421, 
                0.015003792941570282
            ], 
            "min" : [
                1.206668734550476, 
                -0.06499999761581421, 
                -0.40199965238571167
            ], 
            "type" : "VEC3"
        }, 
        {
            "bufferView" : 8, 
            "componentType" : 5126, 
            "count" : 3649, 
            "max" : [
                0.999969482421875, 
                1.0, 
                1.0
            ], 
            "min" : [
                -0.999969482421875, 
                -1.0, 
                -1.0
            ], 
            "type" : "VEC3"
        }, 
        {
            "bufferView" : 9, 
            "componentType" : 5123, 
            "count" : 16452, 
            "max" : [
                3671
            ], 
            "min" : [
                0
            ], 
            "type" : "SCALAR"
        }, 
        {
            "bufferView" : 10, 
            "componentType" : 5126, 
            "count" : 3672, 
            "max" : [
                -0.3940722942352295, 
                0.06499998271465302, 
                0.1946791112422943
            ], 
            "min" : [
                -0.7878574132919312, 
                -0.0650000125169754, 
                -0.22232432663440704
            ], 
            "type" : "VEC3"
        }, 
        {
            "bufferView" : 11, 
            "componentType" : 5126, 
            "count" : 3672, 
            "max" : [
                0.999969482421875, 
                1.0, 
                1.0
            ], 
            "min" : [
                -0.999969482421875, 
                -1.0, 
                -1.0
            ], 
            "type" : "VEC3"
        }, 
        {
            "bufferView" : 12, 
            "componentType" : 5126, 
            "count" : 101, 
            "max" : [
                4.166666666666667
            ], 
            "min" : [
                0.0
            ], 
            "type" : "SCALAR"
        }, 
        {
            "bufferView" : 13, 
            "componentType" : 5126, 
            "count" : 101, 
            "max" : [
                0.8356920480728149, 
                0.522508978843689, 
                -0.0
            ], 
            "min" : [
                0.8356920480728149, 
                0.10436436533927917, 
                -0.0
            ], 
            "type" : "VEC3"
        }, 
        {
            "bufferView" : 14, 
            "componentType" : 5126, 
            "count" : 56, 
            "max" : [
                2.2916666666666665
            ], 
            "min" : [
                0.0
            ], 
            "type" : "SCALAR"
        }, 
        {
            "bufferView" : 15, 
            "componentType" : 5126, 
            "count" : 56, 
            "max" : [
                0.7071067690849304, 
                0.0, 
                -0.0, 
                0.7071067690849304
            ], 
            "min" : [
                0.7071067690849304, 
                0.0, 
                -0.0, 
                0.7071067690849304
            ], 
            "type" : "VEC4"
        }, 
        {
            "bufferView" : 16, 
            "componentType" : 5126, 
            "count" : 101, 
            "max" : [
                4.166666666666667
            ], 
            "min" : [
                0.0
            ], 
            "type" : "SCALAR"
        }, 
        {
            "bufferView" : 17, 
            "componentType" : 5126, 
            "count" : 101, 
            "max" : [
                1.0, 
                1.0, 
                1.196179986000061
            ], 
            "min" : [
                0.0, 
                0.0, 
                0.0
            ], 
            "type" : "VEC3"
        }, 
        {
            "bufferView" : 18, 
            "componentType" : 5126, 
            "count" : 101, 
            "max" : [
                4.166666666666667
            ], 
            "min" : [
                0.0
            ], 
            "type" : "SCALAR"
        }, 
        {
            "bufferView" : 19, 
            "componentType" : 5126, 
            "count" : 101, 
            "max" : [
                0.8329595327377319, 
                0.522508978843689, 
                -0.0
            ], 
            "min" : [
                0.8329595327377319, 
                0.10436436533927917, 
                -0.0
            ], 
            "type" : "VEC3"
        }, 
        {
            "bufferView" : 20, 
            "componentType" : 5126, 
            "count" : 101, 
            "max" : [
                4.166666666666667
            ], 
            "min" : [
                0.0
            ], 
            "type" : "SCALAR"
        }, 
        {
            "bufferView" : 21, 
            "componentType" : 5126, 
            "count" : 101, 
            "max" : [
                0.7071067690849304, 
                0.0, 
                -0.0, 
                0.7071067690849304
            ], 
            "min" : [
                0.7071067690849304, 
                0.0, 
                -0.0, 
                0.7071067690849304
            ], 
            "type" : "VEC4"
        }, 
        {
            "bufferView" : 22, 
            "componentType" : 5126, 
            "count" : 101, 
            "max" : [
                4.166666666666667
            ], 
            "min" : [
                0.0
            ], 
            "type" : "SCALAR"
        }, 
        {
            "bufferView" : 23, 
            "componentType" : 5126, 
            "count" : 101, 
            "max" : [
                1.0, 
                1.0, 
                1.3861773014068604
            ], 
            "min" : [
                0.0, 
                0.0, 
                0.0
            ], 
            "type" : "VEC3"
        }
    ], 
    "animations" : [
        {
            "channels" : [
                {
                    "sampler" : 0, 
                    "target" : {
                        "node" : 2, 
                        "path" : "translation"
                    }
                }, 
                {
                    "sampler" : 1, 
                    "target" : {
                        "node" : 2, 
                        "path" : "rotation"
                    }
                }, 
                {
                    "sampler" : 2, 
                    "target" : {
                        "node" : 2, 
                        "path" : "scale"
                    }
                }, 
                {
                    "sampler" : 3, 
                    "target" : {
                        "node" : 3, 
                        "path" : "translation"
                    }
                }, 
                {
                    "sampler" : 4, 
                    "target" : {
                        "node" : 3, 
                        "path" : "rotation"
                    }
                }, 
                {
                    "sampler" : 5, 
                    "target" : {
                        "node" : 3, 
                        "path" : "scale"
                    }
                }
            ], 
            "samplers" : [
                {
                    "input" : 12, 
                    "interpolation" : "LINEAR", 
                    "output" : 13
                }, 
                {
                    "input" : 14, 
                    "interpolation" : "LINEAR", 
                    "output" : 15
                }, 
                {
                    "input" : 16, 
                    "interpolation" : "LINEAR", 
                    "output" : 17
                }, 
                {
                    "input" : 18, 
                    "interpolation" : "LINEAR", 
                    "output" : 19
                }, 
                {
                    "input" : 20, 
                    "interpolation" : "LINEAR", 
                    "output" : 21
                }, 
                {
                    "input" : 22, 
                    "interpolation" : "LINEAR", 
                    "output" : 23
                }
            ]
        }
    ], 
    "asset" : {
        "generator" : "Khronos Blender glTF 2.0 exporter", 
        "version" : "2.0"
    }, 
    "bufferViews" : [
        {
            "buffer" : 0, 
            "byteLength" : 32904, 
            "byteOffset" : 0, 
            "target" : 34963
        }, 
        {
            "buffer" : 0, 
            "byteLength" : 44064, 
            "byteOffset" : 32904, 
            "target" : 34962
        }, 
        {
            "buffer" : 0, 
            "byteLength" : 44064, 
            "byteOffset" : 76968, 
            "target" : 34962
        }, 
        {
            "buffer" : 0, 
            "byteLength" : 16440, 
            "byteOffset" : 121032, 
            "target" : 34963
        }, 
        {
            "buffer" : 0, 
            "byteLength" : 21852, 
            "byteOffset" : 137472, 
            "target" : 34962
        }, 
        {
            "buffer" : 0, 
            "byteLength" : 21852, 
            "byteOffset" : 159324, 
            "target" : 34962
        }, 
        {
            "buffer" : 0, 
            "byteLength" : 32904, 
            "byteOffset" : 181176, 
            "target" : 34963
        }, 
        {
            "buffer" : 0, 
            "byteLength" : 43788, 
            "byteOffset" : 214080, 
            "target" : 34962
        }, 
        {
            "buffer" : 0, 
            "byteLength" : 43788, 
            "byteOffset" : 257868, 
            "target" : 34962
        }, 
        {
            "buffer" : 0, 
            "byteLength" : 32904, 
            "byteOffset" : 301656, 
            "target" : 34963
        }, 
        {
            "buffer" : 0, 
            "byteLength" : 44064, 
            "byteOffset" : 334560, 
            "target" : 34962
        }, 
        {
            "buffer" : 0, 
            "byteLength" : 44064, 
            "byteOffset" : 378624, 
            "target" : 34962
        }, 
        {
            "buffer" : 0, 
            "byteLength" : 404, 
            "byteOffset" : 422688
        }, 
        {
            "buffer" : 0, 
            "byteLength" : 1212, 
            "byteOffset" : 423092
        }, 
        {
            "buffer" : 0, 
            "byteLength" : 224, 
            "byteOffset" : 424304
        }, 
        {
            "buffer" : 0, 
            "byteLength" : 896, 
            "byteOffset" : 424528
        }, 
        {
            "buffer" : 0, 
            "byteLength" : 404, 
            "byteOffset" : 425424
        }, 
        {
            "buffer" : 0, 
            "byteLength" : 1212, 
            "byteOffset" : 425828
        }, 
        {
            "buffer" : 0, 
            "byteLength" : 404, 
            "byteOffset" : 427040
        }, 
        {
            "buffer" : 0, 
            "byteLength" : 1212, 
            "byteOffset" : 427444
        }, 
        {
            "buffer" : 0, 
            "byteLength" : 404, 
            "byteOffset" : 428656
        }, 
        {
            "buffer" : 0, 
            "byteLength" : 1616, 
            "byteOffset" : 429060
        }, 
        {
            "buffer" : 0, 
            "byteLength" : 404, 
            "byteOffset" : 430676
        }, 
        {
            "buffer" : 0, 
            "byteLength" : 1212, 
            "byteOffset" : 431080
        }
    ], 
    "buffers" : [
        {
            "byteLength" : 432292, 
            "uri" : "v-vSpell.bin"
        }
    ], 
    "materials" : [
        {
            "name" : "Material", 
            "pbrMetallicRoughness" : {
                "baseColorFactor" : [
                    0.04177363279124546, 
                    0.04177363279124546, 
                    0.04177363279124546, 
                    1.0
                ], 
                "metallicFactor" : 0.0
            }
        }, 
        {
            "name" : "Material.005", 
            "pbrMetallicRoughness" : {
                "baseColorFactor" : [
                    0.015953080593840485, 
                    0.37375867923734596, 
                    0.02371328359415059, 
                    1.0
                ], 
                "metallicFactor" : 0.0
            }
        }, 
        {
            "name" : "Material.007", 
            "pbrMetallicRoughness" : {
                "baseColorFactor" : [
                    0.640000066757203, 
                    0.01893110303478096, 
                    0.012593503484033097, 
                    1.0
                ], 
                "metallicFactor" : 0.0
            }
        }
    ], 
    "meshes" : [
        {
            "name" : "v1.001", 
            "primitives" : [
                {
                    "attributes" : {
                        "NORMAL" : 2, 
                        "POSITION" : 1
                    }, 
                    "indices" : 0, 
                    "material" : 1
                }
            ]
        }, 
        {
            "name" : "CUText.001", 
            "primitives" : [
                {
                    "attributes" : {
                        "NORMAL" : 5, 
                        "POSITION" : 4
                    }, 
                    "indices" : 3, 
                    "material" : 0
                }
            ]
        }, 
        {
            "name" : "CUText", 
            "primitives" : [
                {
                    "attributes" : {
                        "NORMAL" : 8, 
                        "POSITION" : 7
                    }, 
                    "indices" : 6, 
                    "material" : 2
                }
            ]
        }, 
        {
            "name" : "v2", 
            "primitives" : [
                {
                    "attributes" : {
                        "NORMAL" : 11, 
                        "POSITION" : 10
                    }, 
                    "indices" : 9, 
                    "material" : 2
                }
            ]
        }
    ], 
    "nodes" : [
        {
            "mesh" : 2, 
            "name" : "Text", 
            "rotation" : [
                0.7071068286895752, 
                0.0, 
                -0.0, 
                0.7071068286895752
            ]
        }, 
        {
            "mesh" : 1, 
            "name" : "Text.001", 
            "rotation" : [
                0.7010574340820312, 
                0.09229595959186554, 
                0.09229595959186554, 
                0.7010574340820312
            ], 
            "scale" : [
                0.9999999403953552, 
                1.0, 
                0.9999999403953552
            ], 
            "translation" : [
                0.8109288215637207, 
                0.2706920802593231, 
                1.2922036773943546e-08
            ]
        }, 
        {
            "mesh" : 3, 
            "name" : "vgreenswap", 
            "scale" : [
                0.0, 
                0.0, 
                0.0
            ], 
            "translation" : [
                0.8356920480728149, 
                0.18501000106334686, 
                -0.0
            ]
        }, 
        {
            "mesh" : 0, 
            "name" : "vredswap", 
            "rotation" : [
                0.7071068286895752, 
                0.0, 
                -0.0, 
                0.7071068286895752
            ], 
            "translation" : [
                0.8329595327377319, 
                0.18501000106334686, 
                -0.0
            ]
        }
    ], 
    "scene" : 0, 
    "scenes" : [
        {
            "name" : "Scene", 
            "nodes" : [
                1, 
                0, 
                2, 
                3
            ]
        }
    ]
}
