{
    "accessors" : [
        {
            "bufferView" : 0, 
            "componentType" : 5121, 
            "count" : 960, 
            "max" : [
                161
            ], 
            "min" : [
                0
            ], 
            "type" : "SCALAR"
        }, 
        {
            "bufferView" : 1, 
            "componentType" : 5126, 
            "count" : 162, 
            "max" : [
                0.9629845023155212, 
                0.029442375525832176, 
                1.286770224571228
            ], 
            "min" : [
                -1.075296401977539, 
                -0.09315972030162811, 
                -1.3103712797164917
            ], 
            "type" : "VEC3"
        }, 
        {
            "bufferView" : 2, 
            "componentType" : 5126, 
            "count" : 162, 
            "max" : [
                0.9892879724502563, 
                0.999969482421875, 
                0.9941709637641907
            ], 
            "min" : [
                -0.9960631132125854, 
                -0.99993896484375, 
                -0.9951781034469604
            ], 
            "type" : "VEC3"
        }, 
        {
            "bufferView" : 3, 
            "componentType" : 5123, 
            "count" : 12348, 
            "max" : [
                2274
            ], 
            "min" : [
                0
            ], 
            "type" : "SCALAR"
        }, 
        {
            "bufferView" : 4, 
            "componentType" : 5126, 
            "count" : 2275, 
            "max" : [
                1.008522391319275, 
                0.15609030425548553, 
                1.0080043077468872
            ], 
            "min" : [
                -1.008522391319275, 
                -0.15609030425548553, 
                -1.0080043077468872
            ], 
            "type" : "VEC3"
        }, 
        {
            "bufferView" : 5, 
            "componentType" : 5126, 
            "count" : 2275, 
            "max" : [
                0.999969482421875, 
                1.0, 
                0.999481201171875
            ], 
            "min" : [
                -0.999969482421875, 
                -1.0, 
                -0.999481201171875
            ], 
            "type" : "VEC3"
        }, 
        {
            "bufferView" : 6, 
            "componentType" : 5126, 
            "count" : 2275, 
            "max" : [
                1.0, 
                0.01598166860640049, 
                1.0, 
                1.0
            ], 
            "min" : [
                -1.0, 
                -0.015981776639819145, 
                -1.0, 
                1.0
            ], 
            "type" : "VEC4"
        }, 
        {
            "bufferView" : 7, 
            "componentType" : 5126, 
            "count" : 2275, 
            "max" : [
                1.0, 
                1.0
            ], 
            "min" : [
                0.0, 
                0.0
            ], 
            "type" : "VEC2"
        }, 
        {
            "bufferView" : 8, 
            "componentType" : 5123, 
            "count" : 2496, 
            "max" : [
                428
            ], 
            "min" : [
                0
            ], 
            "type" : "SCALAR"
        }, 
        {
            "bufferView" : 9, 
            "componentType" : 5126, 
            "count" : 429, 
            "max" : [
                0.11980286240577698, 
                0.6801300048828125, 
                0.2151230275630951
            ], 
            "min" : [
                -0.11980286240577698, 
                0.3287879526615143, 
                -0.15584583580493927
            ], 
            "type" : "VEC3"
        }, 
        {
            "bufferView" : 10, 
            "componentType" : 5126, 
            "count" : 429, 
            "max" : [
                0.9990233778953552, 
                1.0, 
                0.999725341796875
            ], 
            "min" : [
                -0.9990233778953552, 
                -0.5972472429275513, 
                -0.9929196834564209
            ], 
            "type" : "VEC3"
        }, 
        {
            "bufferView" : 11, 
            "componentType" : 5123, 
            "count" : 3984, 
            "max" : [
                676
            ], 
            "min" : [
                0
            ], 
            "type" : "SCALAR"
        }, 
        {
            "bufferView" : 12, 
            "componentType" : 5126, 
            "count" : 677, 
            "max" : [
                0.6819052696228027, 
                0.4471873641014099, 
                0.7889745831489563
            ], 
            "min" : [
                -0.6819052696228027, 
                -0.6203960180282593, 
                -0.463999480009079
            ], 
            "type" : "VEC3"
        }, 
        {
            "bufferView" : 13, 
            "componentType" : 5126, 
            "count" : 677, 
            "max" : [
                0.9989623427391052, 
                0.999298095703125, 
                0.999267578125
            ], 
            "min" : [
                -0.9989623427391052, 
                -0.999969482421875, 
                -0.999969482421875
            ], 
            "type" : "VEC3"
        }, 
        {
            "bufferView" : 14, 
            "componentType" : 5123, 
            "count" : 12348, 
            "max" : [
                2157
            ], 
            "min" : [
                0
            ], 
            "type" : "SCALAR"
        }, 
        {
            "bufferView" : 15, 
            "componentType" : 5126, 
            "count" : 2158, 
            "max" : [
                0.8999999761581421, 
                0.18000000715255737, 
                0.8995376229286194
            ], 
            "min" : [
                -0.8999999761581421, 
                -0.18000000715255737, 
                -0.8995376229286194
            ], 
            "type" : "VEC3"
        }, 
        {
            "bufferView" : 16, 
            "componentType" : 5126, 
            "count" : 2158, 
            "max" : [
                1.0, 
                1.0, 
                0.999481201171875
            ], 
            "min" : [
                -1.0, 
                -1.0, 
                -0.999481201171875
            ], 
            "type" : "VEC3"
        }, 
        {
            "bufferView" : 17, 
            "componentType" : 5126, 
            "count" : 2158, 
            "max" : [
                0.992209792137146, 
                0.9995288848876953, 
                0.8722600340843201, 
                1.0
            ], 
            "min" : [
                -0.9997493624687195, 
                -0.9995289444923401, 
                -0.7701333165168762, 
                1.0
            ], 
            "type" : "VEC4"
        }, 
        {
            "bufferView" : 18, 
            "componentType" : 5126, 
            "count" : 2158, 
            "max" : [
                0.8900224566459656, 
                0.9793637320399284
            ], 
            "min" : [
                0.03449087217450142, 
                0.10760033130645752
            ], 
            "type" : "VEC2"
        }, 
        {
            "bufferView" : 19, 
            "componentType" : 5126, 
            "count" : 2158, 
            "max" : [
                0.75, 
                0.7498714923858643
            ], 
            "min" : [
                0.25, 
                0.25012844800949097
            ], 
            "type" : "VEC2"
        }, 
        {
            "bufferView" : 20, 
            "componentType" : 5126, 
            "count" : 2158, 
            "max" : [
                0.75, 
                0.7498714923858643
            ], 
            "min" : [
                0.25, 
                0.25012844800949097
            ], 
            "type" : "VEC2"
        }, 
        {
            "bufferView" : 21, 
            "componentType" : 5126, 
            "count" : 2158, 
            "max" : [
                1.0, 
                1.0, 
                1.0, 
                1.0
            ], 
            "min" : [
                1.0, 
                1.0, 
                1.0, 
                1.0
            ], 
            "type" : "VEC4"
        }
    ], 
    "asset" : {
        "generator" : "Khronos Blender glTF 2.0 exporter", 
        "version" : "2.0"
    }, 
    "bufferViews" : [
        {
            "buffer" : 0, 
            "byteLength" : 960, 
            "byteOffset" : 0, 
            "target" : 34963
        }, 
        {
            "buffer" : 0, 
            "byteLength" : 1944, 
            "byteOffset" : 960, 
            "target" : 34962
        }, 
        {
            "buffer" : 0, 
            "byteLength" : 1944, 
            "byteOffset" : 2904, 
            "target" : 34962
        }, 
        {
            "buffer" : 0, 
            "byteLength" : 24696, 
            "byteOffset" : 4848, 
            "target" : 34963
        }, 
        {
            "buffer" : 0, 
            "byteLength" : 27300, 
            "byteOffset" : 29544, 
            "target" : 34962
        }, 
        {
            "buffer" : 0, 
            "byteLength" : 27300, 
            "byteOffset" : 56844, 
            "target" : 34962
        }, 
        {
            "buffer" : 0, 
            "byteLength" : 36400, 
            "byteOffset" : 84144, 
            "target" : 34962
        }, 
        {
            "buffer" : 0, 
            "byteLength" : 18200, 
            "byteOffset" : 120544, 
            "target" : 34962
        }, 
        {
            "buffer" : 0, 
            "byteLength" : 4992, 
            "byteOffset" : 138744, 
            "target" : 34963
        }, 
        {
            "buffer" : 0, 
            "byteLength" : 5148, 
            "byteOffset" : 143736, 
            "target" : 34962
        }, 
        {
            "buffer" : 0, 
            "byteLength" : 5148, 
            "byteOffset" : 148884, 
            "target" : 34962
        }, 
        {
            "buffer" : 0, 
            "byteLength" : 7968, 
            "byteOffset" : 154032, 
            "target" : 34963
        }, 
        {
            "buffer" : 0, 
            "byteLength" : 8124, 
            "byteOffset" : 162000, 
            "target" : 34962
        }, 
        {
            "buffer" : 0, 
            "byteLength" : 8124, 
            "byteOffset" : 170124, 
            "target" : 34962
        }, 
        {
            "buffer" : 0, 
            "byteLength" : 24696, 
            "byteOffset" : 178248, 
            "target" : 34963
        }, 
        {
            "buffer" : 0, 
            "byteLength" : 25896, 
            "byteOffset" : 202944, 
            "target" : 34962
        }, 
        {
            "buffer" : 0, 
            "byteLength" : 25896, 
            "byteOffset" : 228840, 
            "target" : 34962
        }, 
        {
            "buffer" : 0, 
            "byteLength" : 34528, 
            "byteOffset" : 254736, 
            "target" : 34962
        }, 
        {
            "buffer" : 0, 
            "byteLength" : 17264, 
            "byteOffset" : 289264, 
            "target" : 34962
        }, 
        {
            "buffer" : 0, 
            "byteLength" : 17264, 
            "byteOffset" : 306528, 
            "target" : 34962
        }, 
        {
            "buffer" : 0, 
            "byteLength" : 17264, 
            "byteOffset" : 323792, 
            "target" : 34962
        }, 
        {
            "buffer" : 0, 
            "byteLength" : 34528, 
            "byteOffset" : 341056, 
            "target" : 34962
        }
    ], 
    "buffers" : [
        {
            "byteLength" : 375584, 
            "uri" : "apple.bin"
        }
    ], 
    "images" : [
        {
            "uri" : "a.png"
        }
    ], 
    "materials" : [
        {
            "name" : "Material", 
            "pbrMetallicRoughness" : {
                "baseColorFactor" : [
                    0.640000066757203, 
                    0.02426099366338541, 
                    0.016852060211480557, 
                    1.0
                ], 
                "metallicFactor" : 0.0
            }
        }, 
        {
            "name" : "Material.003", 
            "pbrMetallicRoughness" : {
                "baseColorFactor" : [
                    0.18641107360141085, 
                    0.05696261013988568, 
                    0.02866083426268151, 
                    1.0
                ], 
                "metallicFactor" : 0.0
            }
        }, 
        {
            "name" : "Material.006", 
            "pbrMetallicRoughness" : {
                "baseColorFactor" : [
                    0.12185896816639552, 
                    0.07652928347184185, 
                    0.03349298884709162, 
                    1.0
                ], 
                "metallicFactor" : 0.0
            }
        }, 
        {
            "name" : "Material.007", 
            "pbrMetallicRoughness" : {
                "baseColorFactor" : [
                    0.05857973782091941, 
                    0.640000066757203, 
                    0.0379543369703641, 
                    1.0
                ], 
                "metallicFactor" : 0.0
            }
        }, 
        {
            "name" : "Material.009", 
            "pbrMetallicRoughness" : {
                "baseColorFactor" : [
                    0.6400000190734865, 
                    0.6400000190734865, 
                    0.6400000190734865, 
                    1.0
                ], 
                "metallicFactor" : 0.0
            }
        }, 
        {
            "name" : "Material.010", 
            "pbrMetallicRoughness" : {
                "baseColorFactor" : [
                    0.6400000190734865, 
                    0.6400000190734865, 
                    0.6400000190734865, 
                    1.0
                ], 
                "baseColorTexture" : {
                    "index" : 0
                }, 
                "metallicFactor" : 0.0
            }
        }, 
        {
            "name" : "Material.015", 
            "pbrMetallicRoughness" : {
                "baseColorFactor" : [
                    0.3215822983023866, 
                    0.3928166686418155, 
                    0.09563077234671669, 
                    1.0
                ], 
                "metallicFactor" : 0.0
            }
        }
    ], 
    "meshes" : [
        {
            "name" : "Plane", 
            "primitives" : [
                {
                    "attributes" : {
                        "NORMAL" : 2, 
                        "POSITION" : 1
                    }, 
                    "indices" : 0, 
                    "material" : 3
                }
            ]
        }, 
        {
            "name" : "Untitled.002", 
            "primitives" : [
                {
                    "attributes" : {
                        "NORMAL" : 5, 
                        "POSITION" : 4, 
                        "TANGENT" : 6, 
                        "TEXCOORD_0" : 7
                    }, 
                    "indices" : 3, 
                    "material" : 6
                }
            ]
        }, 
        {
            "name" : "Cube", 
            "primitives" : [
                {
                    "attributes" : {
                        "NORMAL" : 10, 
                        "POSITION" : 9
                    }, 
                    "indices" : 8, 
                    "material" : 2
                }, 
                {
                    "attributes" : {
                        "NORMAL" : 13, 
                        "POSITION" : 12
                    }, 
                    "indices" : 11, 
                    "material" : 0
                }
            ]
        }, 
        {
            "name" : "Untitled.004", 
            "primitives" : [
                {
                    "attributes" : {
                        "COLOR_0" : 21, 
                        "NORMAL" : 16, 
                        "POSITION" : 15, 
                        "TANGENT" : 17, 
                        "TEXCOORD_0" : 18, 
                        "TEXCOORD_1" : 19, 
                        "TEXCOORD_2" : 20
                    }, 
                    "indices" : 14, 
                    "material" : 5
                }
            ]
        }
    ], 
    "nodes" : [
        {
            "mesh" : 2, 
            "name" : "Cube", 
            "scale" : [
                0.8084165453910828, 
                1.0, 
                0.5120806694030762
            ], 
            "translation" : [
                0.01007180567830801, 
                -0.14321278035640717, 
                -0.004240741021931171
            ]
        }, 
        {
            "mesh" : 1, 
            "name" : "Cylinder.001", 
            "rotation" : [
                0.7071067094802856, 
                0.00030880520353093743, 
                -0.0003088052326347679, 
                0.7071067094802856
            ], 
            "scale" : [
                1.2676385641098022, 
                1.2676385641098022, 
                1.2676388025283813
            ], 
            "translation" : [
                0.010862343944609165, 
                -0.16068744659423828, 
                -0.34860435128211975
            ]
        }, 
        {
            "mesh" : 3, 
            "name" : "Cylinder_2", 
            "rotation" : [
                0.7071067094802856, 
                0.000308805174427107, 
                -0.00030880520353093743, 
                0.7071067094802856
            ], 
            "scale" : [
                1.267638921737671, 
                1.621588110923767, 
                1.2676388025283813
            ], 
            "translation" : [
                0.010862343944609165, 
                -0.16068744659423828, 
                -0.34860435128211975
            ]
        }, 
        {
            "mesh" : 0, 
            "name" : "Plane", 
            "rotation" : [
                0.6669262647628784, 
                -0.2140868902206421, 
                -0.2082393318414688, 
                0.682651162147522
            ], 
            "scale" : [
                0.0974833071231842, 
                0.17794476449489594, 
                0.12017451971769333
            ], 
            "translation" : [
                0.2061905562877655, 
                0.36760199069976807, 
                0.009163844399154186
            ]
        }, 
        {
            "name" : "Text", 
            "rotation" : [
                -8.429371689544496e-08, 
                0.7071068286895752, 
                -0.7071068286895752, 
                -1.4611097753913782e-07
            ], 
            "scale" : [
                1.1494126319885254, 
                1.1494126319885254, 
                1.1494126319885254
            ], 
            "translation" : [
                0.8223168849945068, 
                -0.4307994246482849, 
                -0.32886677980422974
            ]
        }
    ], 
    "samplers" : [
        {}
    ], 
    "scene" : 0, 
    "scenes" : [
        {
            "name" : "Scene", 
            "nodes" : [
                4, 
                2, 
                1, 
                0, 
                3
            ]
        }
    ], 
    "textures" : [
        {
            "sampler" : 0, 
            "source" : 0
        }
    ]
}
