{
    "accessors" : [
        {
            "bufferView" : 0, 
            "componentType" : 5123, 
            "count" : 24576, 
            "max" : [
                4095
            ], 
            "min" : [
                0
            ], 
            "type" : "SCALAR"
        }, 
        {
            "bufferView" : 1, 
            "componentType" : 5126, 
            "count" : 4096, 
            "max" : [
                0.8950263261795044, 
                0.9939406514167786, 
                -0.7710921168327332
            ], 
            "min" : [
                -0.8950263261795044, 
                -0.8014403581619263, 
                -2.4963364601135254
            ], 
            "type" : "VEC3"
        }, 
        {
            "bufferView" : 2, 
            "componentType" : 5126, 
            "count" : 4096, 
            "max" : [
                1.0, 
                1.0, 
                1.0
            ], 
            "min" : [
                -1.0, 
                -1.0, 
                -1.0
            ], 
            "type" : "VEC3"
        }, 
        {
            "bufferView" : 3, 
            "componentType" : 5123, 
            "count" : 12348, 
            "max" : [
                2274
            ], 
            "min" : [
                0
            ], 
            "type" : "SCALAR"
        }, 
        {
            "bufferView" : 4, 
            "componentType" : 5126, 
            "count" : 2275, 
            "max" : [
                1.008522391319275, 
                0.15609030425548553, 
                1.0080043077468872
            ], 
            "min" : [
                -1.008522391319275, 
                -0.15609030425548553, 
                -1.0080043077468872
            ], 
            "type" : "VEC3"
        }, 
        {
            "bufferView" : 5, 
            "componentType" : 5126, 
            "count" : 2275, 
            "max" : [
                0.999969482421875, 
                1.0, 
                0.999481201171875
            ], 
            "min" : [
                -0.999969482421875, 
                -1.0, 
                -0.999481201171875
            ], 
            "type" : "VEC3"
        }, 
        {
            "bufferView" : 6, 
            "componentType" : 5126, 
            "count" : 2275, 
            "max" : [
                1.0, 
                0.01598166860640049, 
                1.0, 
                1.0
            ], 
            "min" : [
                -1.0, 
                -0.015981776639819145, 
                -1.0, 
                1.0
            ], 
            "type" : "VEC4"
        }, 
        {
            "bufferView" : 7, 
            "componentType" : 5126, 
            "count" : 2275, 
            "max" : [
                1.0, 
                1.0
            ], 
            "min" : [
                0.0, 
                0.0
            ], 
            "type" : "VEC2"
        }, 
        {
            "bufferView" : 8, 
            "componentType" : 5123, 
            "count" : 12348, 
            "max" : [
                2157
            ], 
            "min" : [
                0
            ], 
            "type" : "SCALAR"
        }, 
        {
            "bufferView" : 9, 
            "componentType" : 5126, 
            "count" : 2158, 
            "max" : [
                0.8999999761581421, 
                0.18000000715255737, 
                0.8995376229286194
            ], 
            "min" : [
                -0.8999999761581421, 
                -0.18000000715255737, 
                -0.8995376229286194
            ], 
            "type" : "VEC3"
        }, 
        {
            "bufferView" : 10, 
            "componentType" : 5126, 
            "count" : 2158, 
            "max" : [
                1.0, 
                1.0, 
                0.999481201171875
            ], 
            "min" : [
                -1.0, 
                -1.0, 
                -0.999481201171875
            ], 
            "type" : "VEC3"
        }, 
        {
            "bufferView" : 11, 
            "componentType" : 5126, 
            "count" : 2158, 
            "max" : [
                0.992209792137146, 
                0.9995288848876953, 
                0.8722600340843201, 
                1.0
            ], 
            "min" : [
                -0.9997493624687195, 
                -0.9995289444923401, 
                -0.7701333165168762, 
                1.0
            ], 
            "type" : "VEC4"
        }, 
        {
            "bufferView" : 12, 
            "componentType" : 5126, 
            "count" : 2158, 
            "max" : [
                0.8900224566459656, 
                0.9793637320399284
            ], 
            "min" : [
                0.03449087217450142, 
                0.10760033130645752
            ], 
            "type" : "VEC2"
        }, 
        {
            "bufferView" : 13, 
            "componentType" : 5126, 
            "count" : 2158, 
            "max" : [
                0.75, 
                0.7498714923858643
            ], 
            "min" : [
                0.25, 
                0.25012844800949097
            ], 
            "type" : "VEC2"
        }, 
        {
            "bufferView" : 14, 
            "componentType" : 5126, 
            "count" : 2158, 
            "max" : [
                0.75, 
                0.7498714923858643
            ], 
            "min" : [
                0.25, 
                0.25012844800949097
            ], 
            "type" : "VEC2"
        }, 
        {
            "bufferView" : 15, 
            "componentType" : 5123, 
            "count" : 24576, 
            "max" : [
                4095
            ], 
            "min" : [
                0
            ], 
            "type" : "SCALAR"
        }, 
        {
            "bufferView" : 16, 
            "componentType" : 5126, 
            "count" : 4096, 
            "max" : [
                0.9939954280853271, 
                0.9971823692321777, 
                0.9929741621017456
            ], 
            "min" : [
                -0.9939954280853271, 
                -0.8006143569946289, 
                -0.9607743620872498
            ], 
            "type" : "VEC3"
        }, 
        {
            "bufferView" : 17, 
            "componentType" : 5126, 
            "count" : 4096, 
            "max" : [
                1.0, 
                1.0, 
                1.0
            ], 
            "min" : [
                -1.0, 
                -1.0, 
                -1.0
            ], 
            "type" : "VEC3"
        }
    ], 
    "asset" : {
        "generator" : "Khronos Blender glTF 2.0 exporter", 
        "version" : "2.0"
    }, 
    "bufferViews" : [
        {
            "buffer" : 0, 
            "byteLength" : 49152, 
            "byteOffset" : 0, 
            "target" : 34963
        }, 
        {
            "buffer" : 0, 
            "byteLength" : 49152, 
            "byteOffset" : 49152, 
            "target" : 34962
        }, 
        {
            "buffer" : 0, 
            "byteLength" : 49152, 
            "byteOffset" : 98304, 
            "target" : 34962
        }, 
        {
            "buffer" : 0, 
            "byteLength" : 24696, 
            "byteOffset" : 147456, 
            "target" : 34963
        }, 
        {
            "buffer" : 0, 
            "byteLength" : 27300, 
            "byteOffset" : 172152, 
            "target" : 34962
        }, 
        {
            "buffer" : 0, 
            "byteLength" : 27300, 
            "byteOffset" : 199452, 
            "target" : 34962
        }, 
        {
            "buffer" : 0, 
            "byteLength" : 36400, 
            "byteOffset" : 226752, 
            "target" : 34962
        }, 
        {
            "buffer" : 0, 
            "byteLength" : 18200, 
            "byteOffset" : 263152, 
            "target" : 34962
        }, 
        {
            "buffer" : 0, 
            "byteLength" : 24696, 
            "byteOffset" : 281352, 
            "target" : 34963
        }, 
        {
            "buffer" : 0, 
            "byteLength" : 25896, 
            "byteOffset" : 306048, 
            "target" : 34962
        }, 
        {
            "buffer" : 0, 
            "byteLength" : 25896, 
            "byteOffset" : 331944, 
            "target" : 34962
        }, 
        {
            "buffer" : 0, 
            "byteLength" : 34528, 
            "byteOffset" : 357840, 
            "target" : 34962
        }, 
        {
            "buffer" : 0, 
            "byteLength" : 17264, 
            "byteOffset" : 392368, 
            "target" : 34962
        }, 
        {
            "buffer" : 0, 
            "byteLength" : 17264, 
            "byteOffset" : 409632, 
            "target" : 34962
        }, 
        {
            "buffer" : 0, 
            "byteLength" : 17264, 
            "byteOffset" : 426896, 
            "target" : 34962
        }, 
        {
            "buffer" : 0, 
            "byteLength" : 49152, 
            "byteOffset" : 444160, 
            "target" : 34963
        }, 
        {
            "buffer" : 0, 
            "byteLength" : 49152, 
            "byteOffset" : 493312, 
            "target" : 34962
        }, 
        {
            "buffer" : 0, 
            "byteLength" : 49152, 
            "byteOffset" : 542464, 
            "target" : 34962
        }
    ], 
    "buffers" : [
        {
            "byteLength" : 591616, 
            "uri" : "eight.bin"
        }
    ], 
    "images" : [
        {
            "uri" : "ae.png"
        }
    ], 
    "materials" : [
        {
            "name" : "Material.000", 
            "pbrMetallicRoughness" : {
                "baseColorFactor" : [
                    0.031636989588096576, 
                    0.043584228211406284, 
                    0.04490279622231119, 
                    1.0
                ], 
                "metallicFactor" : 0.0
            }
        }, 
        {
            "name" : "Material.009", 
            "pbrMetallicRoughness" : {
                "baseColorFactor" : [
                    0.6400000190734865, 
                    0.6400000190734865, 
                    0.6400000190734865, 
                    1.0
                ], 
                "metallicFactor" : 0.0
            }
        }, 
        {
            "name" : "Material.010", 
            "pbrMetallicRoughness" : {
                "baseColorFactor" : [
                    0.6400000190734865, 
                    0.6400000190734865, 
                    0.6400000190734865, 
                    1.0
                ], 
                "baseColorTexture" : {
                    "index" : 0
                }, 
                "metallicFactor" : 0.0
            }
        }, 
        {
            "name" : "Material.015", 
            "pbrMetallicRoughness" : {
                "baseColorFactor" : [
                    0.3215822983023866, 
                    0.3928166686418155, 
                    0.09563077234671669, 
                    1.0
                ], 
                "metallicFactor" : 0.0
            }
        }
    ], 
    "meshes" : [
        {
            "name" : "Cylinder", 
            "primitives" : [
                {
                    "attributes" : {
                        "NORMAL" : 2, 
                        "POSITION" : 1
                    }, 
                    "indices" : 0, 
                    "material" : 0
                }
            ]
        }, 
        {
            "name" : "Untitled.002", 
            "primitives" : [
                {
                    "attributes" : {
                        "NORMAL" : 5, 
                        "POSITION" : 4, 
                        "TANGENT" : 6, 
                        "TEXCOORD_0" : 7
                    }, 
                    "indices" : 3, 
                    "material" : 3
                }
            ]
        }, 
        {
            "name" : "Untitled.004", 
            "primitives" : [
                {
                    "attributes" : {
                        "NORMAL" : 10, 
                        "POSITION" : 9, 
                        "TANGENT" : 11, 
                        "TEXCOORD_0" : 12, 
                        "TEXCOORD_1" : 13, 
                        "TEXCOORD_2" : 14
                    }, 
                    "indices" : 8, 
                    "material" : 2
                }
            ]
        }, 
        {
            "name" : "Cylinder.002", 
            "primitives" : [
                {
                    "attributes" : {
                        "NORMAL" : 17, 
                        "POSITION" : 16
                    }, 
                    "indices" : 15, 
                    "material" : 0
                }
            ]
        }
    ], 
    "nodes" : [
        {
            "mesh" : 0, 
            "name" : "Cylinder", 
            "rotation" : [
                0.7071068286895752, 
                0.0, 
                -0.0, 
                0.7071068286895752
            ], 
            "scale" : [
                0.4633179306983948, 
                0.19831660389900208, 
                0.41302138566970825
            ], 
            "translation" : [
                0.0012077363207936287, 
                -0.4789036810398102, 
                -0.1415143609046936
            ]
        }, 
        {
            "mesh" : 3, 
            "name" : "Cylinder.000", 
            "rotation" : [
                0.7071068286895752, 
                0.0, 
                -0.0, 
                0.7071068286895752
            ], 
            "scale" : [
                0.4633179306983948, 
                0.1974925845861435, 
                0.41302138566970825
            ], 
            "translation" : [
                0.009624900296330452, 
                -0.42311426997184753, 
                -0.1461068093776703
            ]
        }, 
        {
            "mesh" : 1, 
            "name" : "Cylinder.001", 
            "rotation" : [
                0.7071067094802856, 
                0.00030880520353093743, 
                -0.0003088052326347679, 
                0.7071067094802856
            ], 
            "scale" : [
                1.2676385641098022, 
                1.2676385641098022, 
                1.2676388025283813
            ], 
            "translation" : [
                0.010862343944609165, 
                -0.16068744659423828, 
                -0.34860435128211975
            ]
        }, 
        {
            "mesh" : 2, 
            "name" : "Cylinder_2", 
            "rotation" : [
                0.7071067094802856, 
                0.000308805174427107, 
                -0.00030880520353093743, 
                0.7071067094802856
            ], 
            "scale" : [
                1.267638921737671, 
                1.621588110923767, 
                1.2676388025283813
            ], 
            "translation" : [
                0.010862343944609165, 
                -0.16068744659423828, 
                -0.34860435128211975
            ]
        }, 
        {
            "name" : "Text", 
            "rotation" : [
                -8.429371689544496e-08, 
                0.7071068286895752, 
                -0.7071068286895752, 
                -1.4611097753913782e-07
            ], 
            "scale" : [
                1.1494126319885254, 
                1.1494126319885254, 
                1.1494126319885254
            ], 
            "translation" : [
                0.8223168849945068, 
                -0.4307994246482849, 
                -0.32886677980422974
            ]
        }
    ], 
    "samplers" : [
        {}
    ], 
    "scene" : 0, 
    "scenes" : [
        {
            "name" : "Scene", 
            "nodes" : [
                4, 
                3, 
                2, 
                1, 
                0
            ]
        }
    ], 
    "textures" : [
        {
            "sampler" : 0, 
            "source" : 0
        }
    ]
}
