{
    "accessors" : [
        {
            "bufferView" : 0, 
            "componentType" : 5123, 
            "count" : 12348, 
            "max" : [
                2157
            ], 
            "min" : [
                0
            ], 
            "type" : "SCALAR"
        }, 
        {
            "bufferView" : 1, 
            "componentType" : 5126, 
            "count" : 2158, 
            "max" : [
                0.8999999761581421, 
                0.18000000715255737, 
                0.8995376229286194
            ], 
            "min" : [
                -0.8999999761581421, 
                -0.18000000715255737, 
                -0.8995376229286194
            ], 
            "type" : "VEC3"
        }, 
        {
            "bufferView" : 2, 
            "componentType" : 5126, 
            "count" : 2158, 
            "max" : [
                1.0, 
                1.0, 
                0.999481201171875
            ], 
            "min" : [
                -1.0, 
                -1.0, 
                -0.999481201171875
            ], 
            "type" : "VEC3"
        }, 
        {
            "bufferView" : 3, 
            "componentType" : 5126, 
            "count" : 2158, 
            "max" : [
                0.992209792137146, 
                0.9995288848876953, 
                0.8722600340843201, 
                1.0
            ], 
            "min" : [
                -0.9997493624687195, 
                -0.9995289444923401, 
                -0.7701333165168762, 
                1.0
            ], 
            "type" : "VEC4"
        }, 
        {
            "bufferView" : 4, 
            "componentType" : 5126, 
            "count" : 2158, 
            "max" : [
                0.8900224566459656, 
                0.9793637320399284
            ], 
            "min" : [
                0.03449087217450142, 
                0.10760033130645752
            ], 
            "type" : "VEC2"
        }, 
        {
            "bufferView" : 5, 
            "componentType" : 5126, 
            "count" : 2158, 
            "max" : [
                0.75, 
                0.7498714923858643
            ], 
            "min" : [
                0.25, 
                0.25012844800949097
            ], 
            "type" : "VEC2"
        }, 
        {
            "bufferView" : 6, 
            "componentType" : 5126, 
            "count" : 2158, 
            "max" : [
                0.75, 
                0.7498714923858643
            ], 
            "min" : [
                0.25, 
                0.25012844800949097
            ], 
            "type" : "VEC2"
        }, 
        {
            "bufferView" : 7, 
            "componentType" : 5123, 
            "count" : 12348, 
            "max" : [
                2274
            ], 
            "min" : [
                0
            ], 
            "type" : "SCALAR"
        }, 
        {
            "bufferView" : 8, 
            "componentType" : 5126, 
            "count" : 2275, 
            "max" : [
                1.008522391319275, 
                0.15609030425548553, 
                1.0080043077468872
            ], 
            "min" : [
                -1.008522391319275, 
                -0.15609030425548553, 
                -1.0080043077468872
            ], 
            "type" : "VEC3"
        }, 
        {
            "bufferView" : 9, 
            "componentType" : 5126, 
            "count" : 2275, 
            "max" : [
                0.999969482421875, 
                1.0, 
                0.999481201171875
            ], 
            "min" : [
                -0.999969482421875, 
                -1.0, 
                -0.999481201171875
            ], 
            "type" : "VEC3"
        }, 
        {
            "bufferView" : 10, 
            "componentType" : 5126, 
            "count" : 2275, 
            "max" : [
                1.0, 
                0.01598166860640049, 
                1.0, 
                1.0
            ], 
            "min" : [
                -1.0, 
                -0.015981776639819145, 
                -1.0, 
                1.0
            ], 
            "type" : "VEC4"
        }, 
        {
            "bufferView" : 11, 
            "componentType" : 5126, 
            "count" : 2275, 
            "max" : [
                1.0, 
                1.0
            ], 
            "min" : [
                0.0, 
                0.0
            ], 
            "type" : "VEC2"
        }
    ], 
    "asset" : {
        "generator" : "Khronos Blender glTF 2.0 exporter", 
        "version" : "2.0"
    }, 
    "bufferViews" : [
        {
            "buffer" : 0, 
            "byteLength" : 24696, 
            "byteOffset" : 0, 
            "target" : 34963
        }, 
        {
            "buffer" : 0, 
            "byteLength" : 25896, 
            "byteOffset" : 24696, 
            "target" : 34962
        }, 
        {
            "buffer" : 0, 
            "byteLength" : 25896, 
            "byteOffset" : 50592, 
            "target" : 34962
        }, 
        {
            "buffer" : 0, 
            "byteLength" : 34528, 
            "byteOffset" : 76488, 
            "target" : 34962
        }, 
        {
            "buffer" : 0, 
            "byteLength" : 17264, 
            "byteOffset" : 111016, 
            "target" : 34962
        }, 
        {
            "buffer" : 0, 
            "byteLength" : 17264, 
            "byteOffset" : 128280, 
            "target" : 34962
        }, 
        {
            "buffer" : 0, 
            "byteLength" : 17264, 
            "byteOffset" : 145544, 
            "target" : 34962
        }, 
        {
            "buffer" : 0, 
            "byteLength" : 24696, 
            "byteOffset" : 162808, 
            "target" : 34963
        }, 
        {
            "buffer" : 0, 
            "byteLength" : 27300, 
            "byteOffset" : 187504, 
            "target" : 34962
        }, 
        {
            "buffer" : 0, 
            "byteLength" : 27300, 
            "byteOffset" : 214804, 
            "target" : 34962
        }, 
        {
            "buffer" : 0, 
            "byteLength" : 36400, 
            "byteOffset" : 242104, 
            "target" : 34962
        }, 
        {
            "buffer" : 0, 
            "byteLength" : 18200, 
            "byteOffset" : 278504, 
            "target" : 34962
        }
    ], 
    "buffers" : [
        {
            "byteLength" : 296704, 
            "uri" : "blankCoin.bin"
        }
    ], 
    "images" : [
        {
            "uri" : "ee.png"
        }
    ], 
    "materials" : [
        {
            "name" : "Material.003", 
            "pbrMetallicRoughness" : {
                "baseColorFactor" : [
                    0.3215822983023866, 
                    0.3928166686418155, 
                    0.09563077234671669, 
                    1.0
                ], 
                "metallicFactor" : 0.0
            }
        }, 
        {
            "name" : "Material.004", 
            "pbrMetallicRoughness" : {
                "baseColorFactor" : [
                    0.6400000190734865, 
                    0.6400000190734865, 
                    0.6400000190734865, 
                    1.0
                ], 
                "baseColorTexture" : {
                    "index" : 0
                }, 
                "metallicFactor" : 0.0
            }
        }, 
        {
            "name" : "Material.005", 
            "pbrMetallicRoughness" : {
                "baseColorFactor" : [
                    0.6400000190734865, 
                    0.6400000190734865, 
                    0.6400000190734865, 
                    1.0
                ], 
                "metallicFactor" : 0.0
            }
        }
    ], 
    "meshes" : [
        {
            "name" : "Untitled.004", 
            "primitives" : [
                {
                    "attributes" : {
                        "NORMAL" : 2, 
                        "POSITION" : 1, 
                        "TANGENT" : 3, 
                        "TEXCOORD_0" : 4, 
                        "TEXCOORD_1" : 5, 
                        "TEXCOORD_2" : 6
                    }, 
                    "indices" : 0, 
                    "material" : 1
                }
            ]
        }, 
        {
            "name" : "Untitled.002", 
            "primitives" : [
                {
                    "attributes" : {
                        "NORMAL" : 9, 
                        "POSITION" : 8, 
                        "TANGENT" : 10, 
                        "TEXCOORD_0" : 11
                    }, 
                    "indices" : 7, 
                    "material" : 0
                }
            ]
        }
    ], 
    "nodes" : [
        {
            "mesh" : 1, 
            "name" : "Cylinder.001", 
            "rotation" : [
                0.7071067094802856, 
                0.000308805174427107, 
                -0.00030880520353093743, 
                0.7071067094802856
            ], 
            "scale" : [
                1.3063513040542603, 
                1.3063513040542603, 
                1.3063515424728394
            ], 
            "translation" : [
                0.07946435362100601, 
                -0.09780227392911911, 
                -0.2993119955062866
            ]
        }, 
        {
            "mesh" : 0, 
            "name" : "Cylinder_2", 
            "rotation" : [
                0.7071067690849304, 
                0.000308805174427107, 
                -0.0003088052326347679, 
                0.7071067094802856
            ], 
            "scale" : [
                1.306351661682129, 
                1.6711102724075317, 
                1.3063515424728394
            ], 
            "translation" : [
                0.07946435362100601, 
                -0.09780227392911911, 
                -0.2993119955062866
            ]
        }
    ], 
    "samplers" : [
        {}
    ], 
    "scene" : 0, 
    "scenes" : [
        {
            "name" : "Scene", 
            "nodes" : [
                0, 
                1
            ]
        }
    ], 
    "textures" : [
        {
            "sampler" : 0, 
            "source" : 0
        }
    ]
}
