{
    "accessors" : [
        {
            "bufferView" : 0, 
            "componentType" : 5123, 
            "count" : 11760, 
            "max" : [
                2078
            ], 
            "min" : [
                0
            ], 
            "type" : "SCALAR"
        }, 
        {
            "bufferView" : 1, 
            "componentType" : 5126, 
            "count" : 2079, 
            "max" : [
                1.008522391319275, 
                0.15537889301776886, 
                1.0080043077468872
            ], 
            "min" : [
                -1.008522391319275, 
                -0.15537889301776886, 
                -1.0080043077468872
            ], 
            "type" : "VEC3"
        }, 
        {
            "bufferView" : 2, 
            "componentType" : 5126, 
            "count" : 2079, 
            "max" : [
                0.999969482421875, 
                0.99908447265625, 
                0.999481201171875
            ], 
            "min" : [
                -0.999969482421875, 
                -0.99908447265625, 
                -0.999481201171875
            ], 
            "type" : "VEC3"
        }, 
        {
            "bufferView" : 3, 
            "componentType" : 5126, 
            "count" : 2079, 
            "max" : [
                0.9994864463806152, 
                0.016039293259382248, 
                1.0, 
                1.0
            ], 
            "min" : [
                -0.9994864463806152, 
                -0.08700048178434372, 
                -1.0, 
                1.0
            ], 
            "type" : "VEC4"
        }, 
        {
            "bufferView" : 4, 
            "componentType" : 5126, 
            "count" : 2079, 
            "max" : [
                1.0, 
                0.5997029542922974
            ], 
            "min" : [
                0.0, 
                0.40029698610305786
            ], 
            "type" : "VEC2"
        }, 
        {
            "bufferView" : 5, 
            "componentType" : 5121, 
            "count" : 294, 
            "max" : [
                98
            ], 
            "min" : [
                0
            ], 
            "type" : "SCALAR"
        }, 
        {
            "bufferView" : 6, 
            "componentType" : 5126, 
            "count" : 99, 
            "max" : [
                0.854191780090332, 
                -0.24128520488739014, 
                0.8536840677261353
            ], 
            "min" : [
                -0.8540539741516113, 
                -0.24128520488739014, 
                -0.8536840677261353
            ], 
            "type" : "VEC3"
        }, 
        {
            "bufferView" : 7, 
            "componentType" : 5126, 
            "count" : 99, 
            "max" : [
                0.1988586038351059, 
                -0.9800103902816772, 
                0.1987060159444809
            ], 
            "min" : [
                -0.1987670511007309, 
                -1.0, 
                -0.1987060159444809
            ], 
            "type" : "VEC3"
        }, 
        {
            "bufferView" : 8, 
            "componentType" : 5126, 
            "count" : 99, 
            "max" : [
                -0.980024516582489, 
                0.19876956939697266, 
                0.01996801048517227, 
                1.0
            ], 
            "min" : [
                -1.0, 
                -0.19887684285640717, 
                -0.01996978372335434, 
                1.0
            ], 
            "type" : "VEC4"
        }, 
        {
            "bufferView" : 9, 
            "componentType" : 5126, 
            "count" : 99, 
            "max" : [
                0.8531333208084106, 
                0.8280467391014099
            ], 
            "min" : [
                0.13973265886306763, 
                0.11501216888427734
            ], 
            "type" : "VEC2"
        }, 
        {
            "bufferView" : 10, 
            "componentType" : 5123, 
            "count" : 3822, 
            "max" : [
                1478
            ], 
            "min" : [
                0
            ], 
            "type" : "SCALAR"
        }, 
        {
            "bufferView" : 11, 
            "componentType" : 5126, 
            "count" : 1479, 
            "max" : [
                0.8936941623687744, 
                0.24128520488739014, 
                0.8931950330734253
            ], 
            "min" : [
                -0.8936941623687744, 
                -0.24128520488739014, 
                -0.8931950330734253
            ], 
            "type" : "VEC3"
        }, 
        {
            "bufferView" : 12, 
            "componentType" : 5126, 
            "count" : 1479, 
            "max" : [
                0.9810479879379272, 
                1.0, 
                0.9804071187973022
            ], 
            "min" : [
                -0.9810479879379272, 
                -0.9800409078598022, 
                -0.9804071187973022
            ], 
            "type" : "VEC3"
        }, 
        {
            "bufferView" : 13, 
            "componentType" : 5126, 
            "count" : 1479, 
            "max" : [
                1.0, 
                0.9810489416122437, 
                0.9997459650039673, 
                1.0
            ], 
            "min" : [
                -1.0, 
                -0.9808124899864197, 
                -1.0, 
                -1.0
            ], 
            "type" : "VEC4"
        }, 
        {
            "bufferView" : 14, 
            "componentType" : 5126, 
            "count" : 1479, 
            "max" : [
                1.0, 
                1.0
            ], 
            "min" : [
                0.0, 
                0.38258957862854004
            ], 
            "type" : "VEC2"
        }, 
        {
            "bufferView" : 15, 
            "componentType" : 5123, 
            "count" : 4128, 
            "max" : [
                700
            ], 
            "min" : [
                0
            ], 
            "type" : "SCALAR"
        }, 
        {
            "bufferView" : 16, 
            "componentType" : 5126, 
            "count" : 701, 
            "max" : [
                0.6819052696228027, 
                0.4471873641014099, 
                0.7889745831489563
            ], 
            "min" : [
                -0.6819052696228027, 
                -0.6203960180282593, 
                -0.463999480009079
            ], 
            "type" : "VEC3"
        }, 
        {
            "bufferView" : 17, 
            "componentType" : 5126, 
            "count" : 701, 
            "max" : [
                0.9989623427391052, 
                0.999176025390625, 
                0.999237060546875
            ], 
            "min" : [
                -0.9989623427391052, 
                -0.999969482421875, 
                -0.999969482421875
            ], 
            "type" : "VEC3"
        }, 
        {
            "bufferView" : 18, 
            "componentType" : 5123, 
            "count" : 2352, 
            "max" : [
                404
            ], 
            "min" : [
                0
            ], 
            "type" : "SCALAR"
        }, 
        {
            "bufferView" : 19, 
            "componentType" : 5126, 
            "count" : 405, 
            "max" : [
                0.11980286240577698, 
                0.6801300048828125, 
                0.2151230275630951
            ], 
            "min" : [
                -0.11980286240577698, 
                0.3287879526615143, 
                -0.15584583580493927
            ], 
            "type" : "VEC3"
        }, 
        {
            "bufferView" : 20, 
            "componentType" : 5126, 
            "count" : 405, 
            "max" : [
                0.9989928603172302, 
                0.999969482421875, 
                0.9996337890625
            ], 
            "min" : [
                -0.9989928603172302, 
                -0.5972777605056763, 
                -0.9930417537689209
            ], 
            "type" : "VEC3"
        }, 
        {
            "bufferView" : 21, 
            "componentType" : 5121, 
            "count" : 960, 
            "max" : [
                161
            ], 
            "min" : [
                0
            ], 
            "type" : "SCALAR"
        }, 
        {
            "bufferView" : 22, 
            "componentType" : 5126, 
            "count" : 162, 
            "max" : [
                0.47523462772369385, 
                0.6218168139457703, 
                0.05126374214887619
            ], 
            "min" : [
                0.07180067896842957, 
                0.43702465295791626, 
                -0.009828530251979828
            ], 
            "type" : "VEC3"
        }, 
        {
            "bufferView" : 23, 
            "componentType" : 5126, 
            "count" : 162, 
            "max" : [
                0.9507736563682556, 
                0.9975890517234802, 
                0.9982299208641052
            ], 
            "min" : [
                -0.9877926111221313, 
                -0.9974669814109802, 
                -0.99951171875
            ], 
            "type" : "VEC3"
        }, 
        {
            "bufferView" : 24, 
            "componentType" : 5126, 
            "count" : 81, 
            "max" : [
                3.3333333333333335
            ], 
            "min" : [
                0.0
            ], 
            "type" : "SCALAR"
        }, 
        {
            "bufferView" : 25, 
            "componentType" : 5126, 
            "count" : 81, 
            "max" : [
                0.6878104209899902, 
                -0.10801898688077927, 
                0.20298904180526733
            ], 
            "min" : [
                0.02365170419216156, 
                -0.16009646654129028, 
                -0.00331720057874918
            ], 
            "type" : "VEC3"
        }, 
        {
            "bufferView" : 26, 
            "componentType" : 5126, 
            "count" : 81, 
            "max" : [
                3.3333333333333335
            ], 
            "min" : [
                0.0
            ], 
            "type" : "SCALAR"
        }, 
        {
            "bufferView" : 27, 
            "componentType" : 5126, 
            "count" : 81, 
            "max" : [
                1.213281564105273e-08, 
                9.009868762177575e-08, 
                0.17671379446983337, 
                1.0
            ], 
            "min" : [
                -4.586622637248183e-08, 
                0.0, 
                -0.46672239899635315, 
                0.8844038844108582
            ], 
            "type" : "VEC4"
        }, 
        {
            "bufferView" : 28, 
            "componentType" : 5126, 
            "count" : 3, 
            "max" : [
                3.3333333333333335
            ], 
            "min" : [
                0.0
            ], 
            "type" : "SCALAR"
        }, 
        {
            "bufferView" : 29, 
            "componentType" : 5126, 
            "count" : 9, 
            "max" : [
                0.8747575283050537, 
                1.082062840461731, 
                0.41262805461883545
            ], 
            "min" : [
                0.0, 
                0.0, 
                0.0
            ], 
            "type" : "VEC3"
        }
    ], 
    "animations" : [
        {
            "channels" : [
                {
                    "sampler" : 0, 
                    "target" : {
                        "node" : 0, 
                        "path" : "translation"
                    }
                }, 
                {
                    "sampler" : 1, 
                    "target" : {
                        "node" : 0, 
                        "path" : "rotation"
                    }
                }, 
                {
                    "sampler" : 2, 
                    "target" : {
                        "node" : 0, 
                        "path" : "scale"
                    }
                }
            ], 
            "samplers" : [
                {
                    "input" : 24, 
                    "interpolation" : "LINEAR", 
                    "output" : 25
                }, 
                {
                    "input" : 26, 
                    "interpolation" : "LINEAR", 
                    "output" : 27
                }, 
                {
                    "input" : 28, 
                    "interpolation" : "CUBICSPLINE", 
                    "output" : 29
                }
            ]
        }
    ], 
    "asset" : {
        "generator" : "Khronos Blender glTF 2.0 exporter", 
        "version" : "2.0"
    }, 
    "bufferViews" : [
        {
            "buffer" : 0, 
            "byteLength" : 23520, 
            "byteOffset" : 0, 
            "target" : 34963
        }, 
        {
            "buffer" : 0, 
            "byteLength" : 24948, 
            "byteOffset" : 23520, 
            "target" : 34962
        }, 
        {
            "buffer" : 0, 
            "byteLength" : 24948, 
            "byteOffset" : 48468, 
            "target" : 34962
        }, 
        {
            "buffer" : 0, 
            "byteLength" : 33264, 
            "byteOffset" : 73416, 
            "target" : 34962
        }, 
        {
            "buffer" : 0, 
            "byteLength" : 16632, 
            "byteOffset" : 106680, 
            "target" : 34962
        }, 
        {
            "buffer" : 0, 
            "byteLength" : 294, 
            "byteOffset" : 123312, 
            "target" : 34963
        }, 
        {
            "buffer" : 0, 
            "byteLength" : 1188, 
            "byteOffset" : 123608, 
            "target" : 34962
        }, 
        {
            "buffer" : 0, 
            "byteLength" : 1188, 
            "byteOffset" : 124796, 
            "target" : 34962
        }, 
        {
            "buffer" : 0, 
            "byteLength" : 1584, 
            "byteOffset" : 125984, 
            "target" : 34962
        }, 
        {
            "buffer" : 0, 
            "byteLength" : 792, 
            "byteOffset" : 127568, 
            "target" : 34962
        }, 
        {
            "buffer" : 0, 
            "byteLength" : 7644, 
            "byteOffset" : 128360, 
            "target" : 34963
        }, 
        {
            "buffer" : 0, 
            "byteLength" : 17748, 
            "byteOffset" : 136004, 
            "target" : 34962
        }, 
        {
            "buffer" : 0, 
            "byteLength" : 17748, 
            "byteOffset" : 153752, 
            "target" : 34962
        }, 
        {
            "buffer" : 0, 
            "byteLength" : 23664, 
            "byteOffset" : 171500, 
            "target" : 34962
        }, 
        {
            "buffer" : 0, 
            "byteLength" : 11832, 
            "byteOffset" : 195164, 
            "target" : 34962
        }, 
        {
            "buffer" : 0, 
            "byteLength" : 8256, 
            "byteOffset" : 206996, 
            "target" : 34963
        }, 
        {
            "buffer" : 0, 
            "byteLength" : 8412, 
            "byteOffset" : 215252, 
            "target" : 34962
        }, 
        {
            "buffer" : 0, 
            "byteLength" : 8412, 
            "byteOffset" : 223664, 
            "target" : 34962
        }, 
        {
            "buffer" : 0, 
            "byteLength" : 4704, 
            "byteOffset" : 232076, 
            "target" : 34963
        }, 
        {
            "buffer" : 0, 
            "byteLength" : 4860, 
            "byteOffset" : 236780, 
            "target" : 34962
        }, 
        {
            "buffer" : 0, 
            "byteLength" : 4860, 
            "byteOffset" : 241640, 
            "target" : 34962
        }, 
        {
            "buffer" : 0, 
            "byteLength" : 960, 
            "byteOffset" : 246500, 
            "target" : 34963
        }, 
        {
            "buffer" : 0, 
            "byteLength" : 1944, 
            "byteOffset" : 247460, 
            "target" : 34962
        }, 
        {
            "buffer" : 0, 
            "byteLength" : 1944, 
            "byteOffset" : 249404, 
            "target" : 34962
        }, 
        {
            "buffer" : 0, 
            "byteLength" : 324, 
            "byteOffset" : 251348
        }, 
        {
            "buffer" : 0, 
            "byteLength" : 972, 
            "byteOffset" : 251672
        }, 
        {
            "buffer" : 0, 
            "byteLength" : 324, 
            "byteOffset" : 252644
        }, 
        {
            "buffer" : 0, 
            "byteLength" : 1296, 
            "byteOffset" : 252968
        }, 
        {
            "buffer" : 0, 
            "byteLength" : 12, 
            "byteOffset" : 254264
        }, 
        {
            "buffer" : 0, 
            "byteLength" : 108, 
            "byteOffset" : 254276
        }
    ], 
    "buffers" : [
        {
            "byteLength" : 254384, 
            "uri" : "apple10.bin"
        }
    ], 
    "images" : [
        {
            "uri" : "a.png"
        }
    ], 
    "materials" : [
        {
            "name" : "letter", 
            "pbrMetallicRoughness" : {
                "baseColorFactor" : [
                    0.6400000190734865, 
                    0.6400000190734865, 
                    0.6400000190734865, 
                    1.0
                ], 
                "baseColorTexture" : {
                    "index" : 0
                }, 
                "metallicFactor" : 0.0
            }
        }, 
        {
            "name" : "Material", 
            "pbrMetallicRoughness" : {
                "baseColorFactor" : [
                    0.640000066757203, 
                    0.02426099366338541, 
                    0.016852060211480557, 
                    1.0
                ], 
                "metallicFactor" : 0.0
            }
        }, 
        {
            "name" : "Material.003", 
            "pbrMetallicRoughness" : {
                "baseColorFactor" : [
                    0.18641107360141085, 
                    0.05696261013988568, 
                    0.02866083426268151, 
                    1.0
                ], 
                "metallicFactor" : 0.0
            }
        }, 
        {
            "name" : "Material.006", 
            "pbrMetallicRoughness" : {
                "baseColorFactor" : [
                    0.12185896816639552, 
                    0.07652928347184185, 
                    0.03349298884709162, 
                    1.0
                ], 
                "metallicFactor" : 0.0
            }
        }, 
        {
            "name" : "Material.007", 
            "pbrMetallicRoughness" : {
                "baseColorFactor" : [
                    0.05857973782091941, 
                    0.640000066757203, 
                    0.0379543369703641, 
                    1.0
                ], 
                "metallicFactor" : 0.0
            }
        }, 
        {
            "name" : "Material.015", 
            "pbrMetallicRoughness" : {
                "baseColorFactor" : [
                    0.3215822983023866, 
                    0.3928166686418155, 
                    0.09563077234671669, 
                    1.0
                ], 
                "metallicFactor" : 0.0
            }
        }, 
        {
            "name" : "white", 
            "pbrMetallicRoughness" : {
                "baseColorFactor" : [
                    0.6400000190734865, 
                    0.6400000190734865, 
                    0.6400000190734865, 
                    1.0
                ], 
                "metallicFactor" : 0.0
            }
        }
    ], 
    "meshes" : [
        {
            "name" : "Untitled.002", 
            "primitives" : [
                {
                    "attributes" : {
                        "NORMAL" : 2, 
                        "POSITION" : 1, 
                        "TANGENT" : 3, 
                        "TEXCOORD_0" : 4
                    }, 
                    "indices" : 0, 
                    "material" : 5
                }, 
                {
                    "attributes" : {
                        "NORMAL" : 7, 
                        "POSITION" : 6, 
                        "TANGENT" : 8, 
                        "TEXCOORD_0" : 9
                    }, 
                    "indices" : 5, 
                    "material" : 0
                }, 
                {
                    "attributes" : {
                        "NORMAL" : 12, 
                        "POSITION" : 11, 
                        "TANGENT" : 13, 
                        "TEXCOORD_0" : 14
                    }, 
                    "indices" : 10, 
                    "material" : 6
                }
            ]
        }, 
        {
            "name" : "Cube", 
            "primitives" : [
                {
                    "attributes" : {
                        "NORMAL" : 17, 
                        "POSITION" : 16
                    }, 
                    "indices" : 15, 
                    "material" : 1
                }, 
                {
                    "attributes" : {
                        "NORMAL" : 20, 
                        "POSITION" : 19
                    }, 
                    "indices" : 18, 
                    "material" : 3
                }, 
                {
                    "attributes" : {
                        "NORMAL" : 23, 
                        "POSITION" : 22
                    }, 
                    "indices" : 21, 
                    "material" : 4
                }
            ]
        }
    ], 
    "nodes" : [
        {
            "mesh" : 1, 
            "name" : "Cube", 
            "scale" : [
                0.0, 
                0.0, 
                0.0
            ], 
            "translation" : [
                0.6878104209899902, 
                -0.10801898688077927, 
                -0.00331720057874918
            ]
        }, 
        {
            "mesh" : 0, 
            "name" : "Cylinder.001", 
            "rotation" : [
                0.7071067094802856, 
                0.000308805174427107, 
                -0.00030880520353093743, 
                0.7071067094802856
            ], 
            "scale" : [
                1.2676383256912231, 
                1.0621931552886963, 
                1.2676388025283813
            ], 
            "translation" : [
                0.010862343944609165, 
                -0.16068744659423828, 
                -0.34860435128211975
            ]
        }
    ], 
    "samplers" : [
        {}
    ], 
    "scene" : 0, 
    "scenes" : [
        {
            "name" : "Scene", 
            "nodes" : [
                1, 
                0
            ]
        }
    ], 
    "textures" : [
        {
            "sampler" : 0, 
            "source" : 0
        }
    ]
}
