{
    "accessors" : [
        {
            "bufferView" : 0, 
            "componentType" : 5121, 
            "count" : 120, 
            "max" : [
                23
            ], 
            "min" : [
                0
            ], 
            "type" : "SCALAR"
        }, 
        {
            "bufferView" : 1, 
            "componentType" : 5126, 
            "count" : 24, 
            "max" : [
                2.126323938369751, 
                3.1662375926971436, 
                1.4927449226379395
            ], 
            "min" : [
                -2.008222818374634, 
                2.0785341262817383, 
                -2.9275524616241455
            ], 
            "type" : "VEC3"
        }, 
        {
            "bufferView" : 2, 
            "componentType" : 5126, 
            "count" : 24, 
            "max" : [
                0.807977557182312, 
                0.9521775245666504, 
                0.7443464398384094
            ], 
            "min" : [
                -0.7407452464103699, 
                -0.7000945806503296, 
                -0.7997985482215881
            ], 
            "type" : "VEC3"
        }, 
        {
            "bufferView" : 3, 
            "componentType" : 5121, 
            "count" : 30, 
            "max" : [
                7
            ], 
            "min" : [
                0
            ], 
            "type" : "SCALAR"
        }, 
        {
            "bufferView" : 4, 
            "componentType" : 5126, 
            "count" : 8, 
            "max" : [
                1.4295008182525635, 
                2.503061056137085, 
                0.37861305475234985
            ], 
            "min" : [
                -1.2614301443099976, 
                0.7215354442596436, 
                -1.9429664611816406
            ], 
            "type" : "VEC3"
        }, 
        {
            "bufferView" : 5, 
            "componentType" : 5126, 
            "count" : 8, 
            "max" : [
                0.5772576332092285, 
                0.9521775245666504, 
                0.5771965980529785
            ], 
            "min" : [
                -0.5773797035217285, 
                0.5773491859436035, 
                -0.5773186683654785
            ], 
            "type" : "VEC3"
        }, 
        {
            "bufferView" : 6, 
            "componentType" : 5121, 
            "count" : 30, 
            "max" : [
                7
            ], 
            "min" : [
                0
            ], 
            "type" : "SCALAR"
        }, 
        {
            "bufferView" : 7, 
            "componentType" : 5126, 
            "count" : 8, 
            "max" : [
                1.4477870464324951, 
                2.4831440448760986, 
                0.40115201473236084
            ], 
            "min" : [
                -1.279178500175476, 
                0.7019153833389282, 
                -1.9701569080352783
            ], 
            "type" : "VEC3"
        }, 
        {
            "bufferView" : 8, 
            "componentType" : 5126, 
            "count" : 8, 
            "max" : [
                0.5847956538200378, 
                -0.3032624423503876, 
                0.7181921005249023
            ], 
            "min" : [
                -0.6006348133087158, 
                -0.5767692923545837, 
                -0.7495651245117188
            ], 
            "type" : "VEC3"
        }, 
        {
            "bufferView" : 9, 
            "componentType" : 5123, 
            "count" : 11760, 
            "max" : [
                2078
            ], 
            "min" : [
                0
            ], 
            "type" : "SCALAR"
        }, 
        {
            "bufferView" : 10, 
            "componentType" : 5126, 
            "count" : 2079, 
            "max" : [
                1.008522391319275, 
                0.15537889301776886, 
                1.0080043077468872
            ], 
            "min" : [
                -1.008522391319275, 
                -0.15537889301776886, 
                -1.0080043077468872
            ], 
            "type" : "VEC3"
        }, 
        {
            "bufferView" : 11, 
            "componentType" : 5126, 
            "count" : 2079, 
            "max" : [
                0.999969482421875, 
                0.99908447265625, 
                0.999481201171875
            ], 
            "min" : [
                -0.999969482421875, 
                -0.99908447265625, 
                -0.999481201171875
            ], 
            "type" : "VEC3"
        }, 
        {
            "bufferView" : 12, 
            "componentType" : 5126, 
            "count" : 2079, 
            "max" : [
                0.9994864463806152, 
                0.016039293259382248, 
                1.0, 
                1.0
            ], 
            "min" : [
                -0.9994864463806152, 
                -0.08700048178434372, 
                -1.0, 
                1.0
            ], 
            "type" : "VEC4"
        }, 
        {
            "bufferView" : 13, 
            "componentType" : 5126, 
            "count" : 2079, 
            "max" : [
                1.0, 
                0.5997029542922974
            ], 
            "min" : [
                0.0, 
                0.40029698610305786
            ], 
            "type" : "VEC2"
        }, 
        {
            "bufferView" : 14, 
            "componentType" : 5121, 
            "count" : 294, 
            "max" : [
                98
            ], 
            "min" : [
                0
            ], 
            "type" : "SCALAR"
        }, 
        {
            "bufferView" : 15, 
            "componentType" : 5126, 
            "count" : 99, 
            "max" : [
                0.854191780090332, 
                -0.24128520488739014, 
                0.8536840677261353
            ], 
            "min" : [
                -0.8540539741516113, 
                -0.24128520488739014, 
                -0.8536840677261353
            ], 
            "type" : "VEC3"
        }, 
        {
            "bufferView" : 16, 
            "componentType" : 5126, 
            "count" : 99, 
            "max" : [
                0.1988586038351059, 
                -0.9800103902816772, 
                0.1987060159444809
            ], 
            "min" : [
                -0.1987670511007309, 
                -1.0, 
                -0.1987060159444809
            ], 
            "type" : "VEC3"
        }, 
        {
            "bufferView" : 17, 
            "componentType" : 5126, 
            "count" : 99, 
            "max" : [
                -0.980024516582489, 
                0.19876956939697266, 
                0.019967397674918175, 
                1.0
            ], 
            "min" : [
                -1.0, 
                -0.19887684285640717, 
                -0.0199691504240036, 
                1.0
            ], 
            "type" : "VEC4"
        }, 
        {
            "bufferView" : 18, 
            "componentType" : 5126, 
            "count" : 99, 
            "max" : [
                0.7673406004905701, 
                0.7649075090885162
            ], 
            "min" : [
                0.19560980796813965, 
                0.19347012042999268
            ], 
            "type" : "VEC2"
        }, 
        {
            "bufferView" : 19, 
            "componentType" : 5123, 
            "count" : 3822, 
            "max" : [
                1478
            ], 
            "min" : [
                0
            ], 
            "type" : "SCALAR"
        }, 
        {
            "bufferView" : 20, 
            "componentType" : 5126, 
            "count" : 1479, 
            "max" : [
                0.8936941623687744, 
                0.24128520488739014, 
                0.8931950330734253
            ], 
            "min" : [
                -0.8936941623687744, 
                -0.24128520488739014, 
                -0.8931950330734253
            ], 
            "type" : "VEC3"
        }, 
        {
            "bufferView" : 21, 
            "componentType" : 5126, 
            "count" : 1479, 
            "max" : [
                0.9810479879379272, 
                1.0, 
                0.9804071187973022
            ], 
            "min" : [
                -0.9810479879379272, 
                -0.9800409078598022, 
                -0.9804071187973022
            ], 
            "type" : "VEC3"
        }, 
        {
            "bufferView" : 22, 
            "componentType" : 5126, 
            "count" : 1479, 
            "max" : [
                1.0, 
                0.9810489416122437, 
                0.9997459650039673, 
                1.0
            ], 
            "min" : [
                -1.0, 
                -0.9808124899864197, 
                -1.0, 
                -1.0
            ], 
            "type" : "VEC4"
        }, 
        {
            "bufferView" : 23, 
            "componentType" : 5126, 
            "count" : 1479, 
            "max" : [
                1.0, 
                1.0
            ], 
            "min" : [
                0.0, 
                0.38258957862854004
            ], 
            "type" : "VEC2"
        }, 
        {
            "bufferView" : 24, 
            "componentType" : 5126, 
            "count" : 81, 
            "max" : [
                3.3333333333333335
            ], 
            "min" : [
                0.0
            ], 
            "type" : "SCALAR"
        }, 
        {
            "bufferView" : 25, 
            "componentType" : 5126, 
            "count" : 81, 
            "max" : [
                0.19883570075035095, 
                -0.45046430826187134, 
                1.5555100440979004
            ], 
            "min" : [
                -2.384185791015625e-07, 
                -0.7678382396697998, 
                1.1785112619400024
            ], 
            "type" : "VEC3"
        }, 
        {
            "bufferView" : 26, 
            "componentType" : 5126, 
            "count" : 81, 
            "max" : [
                3.3333333333333335
            ], 
            "min" : [
                0.0
            ], 
            "type" : "SCALAR"
        }, 
        {
            "bufferView" : 27, 
            "componentType" : 5126, 
            "count" : 81, 
            "max" : [
                0.19811822474002838, 
                0.0051612816751003265, 
                0.06840353459119797, 
                1.0
            ], 
            "min" : [
                -0.05358504876494408, 
                -0.18539100885391235, 
                -0.07396281510591507, 
                0.9624859690666199
            ], 
            "type" : "VEC4"
        }
    ], 
    "animations" : [
        {
            "channels" : [
                {
                    "sampler" : 0, 
                    "target" : {
                        "node" : 1, 
                        "path" : "translation"
                    }
                }, 
                {
                    "sampler" : 1, 
                    "target" : {
                        "node" : 1, 
                        "path" : "rotation"
                    }
                }
            ], 
            "samplers" : [
                {
                    "input" : 24, 
                    "interpolation" : "LINEAR", 
                    "output" : 25
                }, 
                {
                    "input" : 26, 
                    "interpolation" : "LINEAR", 
                    "output" : 27
                }
            ]
        }
    ], 
    "asset" : {
        "generator" : "Khronos Blender glTF 2.0 exporter", 
        "version" : "2.0"
    }, 
    "bufferViews" : [
        {
            "buffer" : 0, 
            "byteLength" : 120, 
            "byteOffset" : 0, 
            "target" : 34963
        }, 
        {
            "buffer" : 0, 
            "byteLength" : 288, 
            "byteOffset" : 120, 
            "target" : 34962
        }, 
        {
            "buffer" : 0, 
            "byteLength" : 288, 
            "byteOffset" : 408, 
            "target" : 34962
        }, 
        {
            "buffer" : 0, 
            "byteLength" : 30, 
            "byteOffset" : 696, 
            "target" : 34963
        }, 
        {
            "buffer" : 0, 
            "byteLength" : 96, 
            "byteOffset" : 728, 
            "target" : 34962
        }, 
        {
            "buffer" : 0, 
            "byteLength" : 96, 
            "byteOffset" : 824, 
            "target" : 34962
        }, 
        {
            "buffer" : 0, 
            "byteLength" : 30, 
            "byteOffset" : 920, 
            "target" : 34963
        }, 
        {
            "buffer" : 0, 
            "byteLength" : 96, 
            "byteOffset" : 952, 
            "target" : 34962
        }, 
        {
            "buffer" : 0, 
            "byteLength" : 96, 
            "byteOffset" : 1048, 
            "target" : 34962
        }, 
        {
            "buffer" : 0, 
            "byteLength" : 23520, 
            "byteOffset" : 1144, 
            "target" : 34963
        }, 
        {
            "buffer" : 0, 
            "byteLength" : 24948, 
            "byteOffset" : 24664, 
            "target" : 34962
        }, 
        {
            "buffer" : 0, 
            "byteLength" : 24948, 
            "byteOffset" : 49612, 
            "target" : 34962
        }, 
        {
            "buffer" : 0, 
            "byteLength" : 33264, 
            "byteOffset" : 74560, 
            "target" : 34962
        }, 
        {
            "buffer" : 0, 
            "byteLength" : 16632, 
            "byteOffset" : 107824, 
            "target" : 34962
        }, 
        {
            "buffer" : 0, 
            "byteLength" : 294, 
            "byteOffset" : 124456, 
            "target" : 34963
        }, 
        {
            "buffer" : 0, 
            "byteLength" : 1188, 
            "byteOffset" : 124752, 
            "target" : 34962
        }, 
        {
            "buffer" : 0, 
            "byteLength" : 1188, 
            "byteOffset" : 125940, 
            "target" : 34962
        }, 
        {
            "buffer" : 0, 
            "byteLength" : 1584, 
            "byteOffset" : 127128, 
            "target" : 34962
        }, 
        {
            "buffer" : 0, 
            "byteLength" : 792, 
            "byteOffset" : 128712, 
            "target" : 34962
        }, 
        {
            "buffer" : 0, 
            "byteLength" : 7644, 
            "byteOffset" : 129504, 
            "target" : 34963
        }, 
        {
            "buffer" : 0, 
            "byteLength" : 17748, 
            "byteOffset" : 137148, 
            "target" : 34962
        }, 
        {
            "buffer" : 0, 
            "byteLength" : 17748, 
            "byteOffset" : 154896, 
            "target" : 34962
        }, 
        {
            "buffer" : 0, 
            "byteLength" : 23664, 
            "byteOffset" : 172644, 
            "target" : 34962
        }, 
        {
            "buffer" : 0, 
            "byteLength" : 11832, 
            "byteOffset" : 196308, 
            "target" : 34962
        }, 
        {
            "buffer" : 0, 
            "byteLength" : 324, 
            "byteOffset" : 208140
        }, 
        {
            "buffer" : 0, 
            "byteLength" : 972, 
            "byteOffset" : 208464
        }, 
        {
            "buffer" : 0, 
            "byteLength" : 324, 
            "byteOffset" : 209436
        }, 
        {
            "buffer" : 0, 
            "byteLength" : 1296, 
            "byteOffset" : 209760
        }
    ], 
    "buffers" : [
        {
            "byteLength" : 211056, 
            "uri" : "box2.bin"
        }
    ], 
    "images" : [
        {
            "uri" : "o.png"
        }
    ], 
    "materials" : [
        {
            "name" : "letter.000", 
            "pbrMetallicRoughness" : {
                "baseColorFactor" : [
                    0.6400000190734865, 
                    0.6400000190734865, 
                    0.6400000190734865, 
                    1.0
                ], 
                "baseColorTexture" : {
                    "index" : 0
                }, 
                "metallicFactor" : 0.0
            }
        }, 
        {
            "name" : "Material", 
            "pbrMetallicRoughness" : {
                "baseColorFactor" : [
                    0.24757516753040498, 
                    0.18157271417338716, 
                    0.07624597663053834, 
                    1.0
                ], 
                "metallicFactor" : 0.0
            }
        }, 
        {
            "name" : "Material.002", 
            "pbrMetallicRoughness" : {
                "baseColorFactor" : [
                    0.13011217311191814, 
                    0.09635628009373365, 
                    0.041877833632794514, 
                    1.0
                ], 
                "metallicFactor" : 0.0
            }
        }, 
        {
            "name" : "Material.003", 
            "pbrMetallicRoughness" : {
                "baseColorFactor" : [
                    0.050975663229460455, 
                    0.03927354573120989, 
                    0.015065491423986721, 
                    1.0
                ], 
                "metallicFactor" : 0.0
            }
        }, 
        {
            "name" : "Material.004", 
            "pbrMetallicRoughness" : {
                "baseColorFactor" : [
                    0.3215822983023866, 
                    0.3928166686418155, 
                    0.09563077234671669, 
                    1.0
                ], 
                "metallicFactor" : 0.0
            }
        }, 
        {
            "name" : "white.000", 
            "pbrMetallicRoughness" : {
                "baseColorFactor" : [
                    0.6400000190734865, 
                    0.6400000190734865, 
                    0.6400000190734865, 
                    1.0
                ], 
                "metallicFactor" : 0.0
            }
        }
    ], 
    "meshes" : [
        {
            "name" : "Plane", 
            "primitives" : [
                {
                    "attributes" : {
                        "NORMAL" : 2, 
                        "POSITION" : 1
                    }, 
                    "indices" : 0, 
                    "material" : 2
                }, 
                {
                    "attributes" : {
                        "NORMAL" : 5, 
                        "POSITION" : 4
                    }, 
                    "indices" : 3, 
                    "material" : 3
                }, 
                {
                    "attributes" : {
                        "NORMAL" : 8, 
                        "POSITION" : 7
                    }, 
                    "indices" : 6, 
                    "material" : 1
                }
            ]
        }, 
        {
            "name" : "Untitled.001", 
            "primitives" : [
                {
                    "attributes" : {
                        "NORMAL" : 11, 
                        "POSITION" : 10, 
                        "TANGENT" : 12, 
                        "TEXCOORD_0" : 13
                    }, 
                    "indices" : 9, 
                    "material" : 4
                }, 
                {
                    "attributes" : {
                        "NORMAL" : 16, 
                        "POSITION" : 15, 
                        "TANGENT" : 17, 
                        "TEXCOORD_0" : 18
                    }, 
                    "indices" : 14, 
                    "material" : 0
                }, 
                {
                    "attributes" : {
                        "NORMAL" : 21, 
                        "POSITION" : 20, 
                        "TANGENT" : 22, 
                        "TEXCOORD_0" : 23
                    }, 
                    "indices" : 19, 
                    "material" : 5
                }
            ]
        }
    ], 
    "nodes" : [
        {
            "mesh" : 1, 
            "name" : "coin", 
            "rotation" : [
                0.7071067094802856, 
                0.000308805174427107, 
                -0.00030880520353093743, 
                0.7071067094802856
            ], 
            "scale" : [
                1.2676383256912231, 
                1.0621931552886963, 
                1.2676388025283813
            ], 
            "translation" : [
                0.010862343944609165, 
                -0.16068744659423828, 
                -0.34860435128211975
            ]
        }, 
        {
            "mesh" : 0, 
            "name" : "Plane", 
            "scale" : [
                0.3265884518623352, 
                0.3265884518623352, 
                0.3265884518623352
            ], 
            "translation" : [
                -2.384185791015625e-07, 
                -0.7678382396697998, 
                1.4773191213607788
            ]
        }
    ], 
    "samplers" : [
        {}
    ], 
    "scene" : 0, 
    "scenes" : [
        {
            "name" : "Scene", 
            "nodes" : [
                1, 
                0
            ]
        }
    ], 
    "textures" : [
        {
            "sampler" : 0, 
            "source" : 0
        }
    ]
}
