{
    "accessors" : [
        {
            "bufferView" : 0, 
            "componentType" : 5123, 
            "count" : 23424, 
            "max" : [
                4863
            ], 
            "min" : [
                0
            ], 
            "type" : "SCALAR"
        }, 
        {
            "bufferView" : 1, 
            "componentType" : 5126, 
            "count" : 4864, 
            "max" : [
                2.0686309337615967, 
                1.0865652561187744, 
                3.3161516189575195
            ], 
            "min" : [
                -1.2516820430755615, 
                -1.0541057586669922, 
                0.8127875924110413
            ], 
            "type" : "VEC3"
        }, 
        {
            "bufferView" : 2, 
            "componentType" : 5126, 
            "count" : 4864, 
            "max" : [
                0.999908447265625, 
                1.0, 
                0.999481201171875
            ], 
            "min" : [
                -0.999481201171875, 
                -1.0, 
                -0.999481201171875
            ], 
            "type" : "VEC3"
        }, 
        {
            "bufferView" : 3, 
            "componentType" : 5123, 
            "count" : 1920, 
            "max" : [
                1010
            ], 
            "min" : [
                0
            ], 
            "type" : "SCALAR"
        }, 
        {
            "bufferView" : 4, 
            "componentType" : 5126, 
            "count" : 1011, 
            "max" : [
                1.1210026741027832, 
                0.8532666563987732, 
                3.185472249984741
            ], 
            "min" : [
                -1.121002435684204, 
                0.7427991628646851, 
                0.9434669613838196
            ], 
            "type" : "VEC3"
        }, 
        {
            "bufferView" : 5, 
            "componentType" : 5126, 
            "count" : 1011, 
            "max" : [
                0.9747490882873535, 
                1.0, 
                0.974748969078064
            ], 
            "min" : [
                -0.9747492074966431, 
                0.21796542406082153, 
                -0.9747490286827087
            ], 
            "type" : "VEC3"
        }, 
        {
            "bufferView" : 6, 
            "componentType" : 5123, 
            "count" : 11760, 
            "max" : [
                2078
            ], 
            "min" : [
                0
            ], 
            "type" : "SCALAR"
        }, 
        {
            "bufferView" : 7, 
            "componentType" : 5126, 
            "count" : 2079, 
            "max" : [
                1.008522391319275, 
                0.15537889301776886, 
                1.0080043077468872
            ], 
            "min" : [
                -1.008522391319275, 
                -0.15537889301776886, 
                -1.0080043077468872
            ], 
            "type" : "VEC3"
        }, 
        {
            "bufferView" : 8, 
            "componentType" : 5126, 
            "count" : 2079, 
            "max" : [
                0.999969482421875, 
                0.99908447265625, 
                0.999481201171875
            ], 
            "min" : [
                -0.999969482421875, 
                -0.99908447265625, 
                -0.999481201171875
            ], 
            "type" : "VEC3"
        }, 
        {
            "bufferView" : 9, 
            "componentType" : 5126, 
            "count" : 2079, 
            "max" : [
                0.9994864463806152, 
                0.016039293259382248, 
                1.0, 
                1.0
            ], 
            "min" : [
                -0.9994864463806152, 
                -0.08700048178434372, 
                -1.0, 
                1.0
            ], 
            "type" : "VEC4"
        }, 
        {
            "bufferView" : 10, 
            "componentType" : 5126, 
            "count" : 2079, 
            "max" : [
                1.0, 
                0.5997029542922974
            ], 
            "min" : [
                0.0, 
                0.40029698610305786
            ], 
            "type" : "VEC2"
        }, 
        {
            "bufferView" : 11, 
            "componentType" : 5121, 
            "count" : 294, 
            "max" : [
                98
            ], 
            "min" : [
                0
            ], 
            "type" : "SCALAR"
        }, 
        {
            "bufferView" : 12, 
            "componentType" : 5126, 
            "count" : 99, 
            "max" : [
                0.854191780090332, 
                -0.24128520488739014, 
                0.8536840677261353
            ], 
            "min" : [
                -0.8540539741516113, 
                -0.24128520488739014, 
                -0.8536840677261353
            ], 
            "type" : "VEC3"
        }, 
        {
            "bufferView" : 13, 
            "componentType" : 5126, 
            "count" : 99, 
            "max" : [
                0.1988586038351059, 
                -0.9800103902816772, 
                0.1987060159444809
            ], 
            "min" : [
                -0.1987670511007309, 
                -1.0, 
                -0.1987060159444809
            ], 
            "type" : "VEC3"
        }, 
        {
            "bufferView" : 14, 
            "componentType" : 5126, 
            "count" : 99, 
            "max" : [
                -0.980024516582489, 
                0.19876956939697266, 
                0.019968323409557343, 
                1.0
            ], 
            "min" : [
                -1.0, 
                -0.19887684285640717, 
                -0.019970756024122238, 
                1.0
            ], 
            "type" : "VEC4"
        }, 
        {
            "bufferView" : 15, 
            "componentType" : 5126, 
            "count" : 99, 
            "max" : [
                0.8168429732322693, 
                0.8036409020423889
            ], 
            "min" : [
                0.15227897465229034, 
                0.13941800594329834
            ], 
            "type" : "VEC2"
        }, 
        {
            "bufferView" : 16, 
            "componentType" : 5123, 
            "count" : 3822, 
            "max" : [
                1478
            ], 
            "min" : [
                0
            ], 
            "type" : "SCALAR"
        }, 
        {
            "bufferView" : 17, 
            "componentType" : 5126, 
            "count" : 1479, 
            "max" : [
                0.8936941623687744, 
                0.24128520488739014, 
                0.8931950330734253
            ], 
            "min" : [
                -0.8936941623687744, 
                -0.24128520488739014, 
                -0.8931950330734253
            ], 
            "type" : "VEC3"
        }, 
        {
            "bufferView" : 18, 
            "componentType" : 5126, 
            "count" : 1479, 
            "max" : [
                0.9810479879379272, 
                1.0, 
                0.9804071187973022
            ], 
            "min" : [
                -0.9810479879379272, 
                -0.9800409078598022, 
                -0.9804071187973022
            ], 
            "type" : "VEC3"
        }, 
        {
            "bufferView" : 19, 
            "componentType" : 5126, 
            "count" : 1479, 
            "max" : [
                1.0, 
                0.9810489416122437, 
                0.9997459650039673, 
                1.0
            ], 
            "min" : [
                -1.0, 
                -0.9808124899864197, 
                -1.0, 
                -1.0
            ], 
            "type" : "VEC4"
        }, 
        {
            "bufferView" : 20, 
            "componentType" : 5126, 
            "count" : 1479, 
            "max" : [
                1.0, 
                1.0
            ], 
            "min" : [
                0.0, 
                0.38258957862854004
            ], 
            "type" : "VEC2"
        }, 
        {
            "bufferView" : 21, 
            "componentType" : 5123, 
            "count" : 16128, 
            "max" : [
                2689
            ], 
            "min" : [
                0
            ], 
            "type" : "SCALAR"
        }, 
        {
            "bufferView" : 22, 
            "componentType" : 5126, 
            "count" : 2690, 
            "max" : [
                0.9433108568191528, 
                1.0280901193618774, 
                4.1837873458862305
            ], 
            "min" : [
                -0.9433110356330872, 
                -1.0283478498458862, 
                -4.183787822723389
            ], 
            "type" : "VEC3"
        }, 
        {
            "bufferView" : 23, 
            "componentType" : 5126, 
            "count" : 2690, 
            "max" : [
                0.999267578125, 
                0.999969482421875, 
                0.9862361550331116
            ], 
            "min" : [
                -0.999267578125, 
                -1.0, 
                -0.9862361550331116
            ], 
            "type" : "VEC3"
        }, 
        {
            "bufferView" : 24, 
            "componentType" : 5126, 
            "count" : 7, 
            "max" : [
                4.166666666666667
            ], 
            "min" : [
                0.0
            ], 
            "type" : "SCALAR"
        }, 
        {
            "bufferView" : 25, 
            "componentType" : 5126, 
            "count" : 21, 
            "max" : [
                0.0, 
                0.15948200225830078, 
                0.001587989623658359
            ], 
            "min" : [
                -0.0018601601477712393, 
                -0.2764670252799988, 
                -0.0
            ], 
            "type" : "VEC3"
        }, 
        {
            "bufferView" : 26, 
            "componentType" : 5126, 
            "count" : 101, 
            "max" : [
                4.166666666666667
            ], 
            "min" : [
                0.0
            ], 
            "type" : "SCALAR"
        }, 
        {
            "bufferView" : 27, 
            "componentType" : 5126, 
            "count" : 101, 
            "max" : [
                0.0, 
                0.0, 
                0.258819043636322, 
                1.0
            ], 
            "min" : [
                0.0, 
                0.0, 
                -7.450581485102248e-09, 
                0.9659258127212524
            ], 
            "type" : "VEC4"
        }
    ], 
    "animations" : [
        {
            "channels" : [
                {
                    "sampler" : 0, 
                    "target" : {
                        "node" : 1, 
                        "path" : "translation"
                    }
                }, 
                {
                    "sampler" : 1, 
                    "target" : {
                        "node" : 1, 
                        "path" : "rotation"
                    }
                }
            ], 
            "samplers" : [
                {
                    "input" : 24, 
                    "interpolation" : "CUBICSPLINE", 
                    "output" : 25
                }, 
                {
                    "input" : 26, 
                    "interpolation" : "LINEAR", 
                    "output" : 27
                }
            ]
        }
    ], 
    "asset" : {
        "generator" : "Khronos Blender glTF 2.0 exporter", 
        "version" : "2.0"
    }, 
    "bufferViews" : [
        {
            "buffer" : 0, 
            "byteLength" : 46848, 
            "byteOffset" : 0, 
            "target" : 34963
        }, 
        {
            "buffer" : 0, 
            "byteLength" : 58368, 
            "byteOffset" : 46848, 
            "target" : 34962
        }, 
        {
            "buffer" : 0, 
            "byteLength" : 58368, 
            "byteOffset" : 105216, 
            "target" : 34962
        }, 
        {
            "buffer" : 0, 
            "byteLength" : 3840, 
            "byteOffset" : 163584, 
            "target" : 34963
        }, 
        {
            "buffer" : 0, 
            "byteLength" : 12132, 
            "byteOffset" : 167424, 
            "target" : 34962
        }, 
        {
            "buffer" : 0, 
            "byteLength" : 12132, 
            "byteOffset" : 179556, 
            "target" : 34962
        }, 
        {
            "buffer" : 0, 
            "byteLength" : 23520, 
            "byteOffset" : 191688, 
            "target" : 34963
        }, 
        {
            "buffer" : 0, 
            "byteLength" : 24948, 
            "byteOffset" : 215208, 
            "target" : 34962
        }, 
        {
            "buffer" : 0, 
            "byteLength" : 24948, 
            "byteOffset" : 240156, 
            "target" : 34962
        }, 
        {
            "buffer" : 0, 
            "byteLength" : 33264, 
            "byteOffset" : 265104, 
            "target" : 34962
        }, 
        {
            "buffer" : 0, 
            "byteLength" : 16632, 
            "byteOffset" : 298368, 
            "target" : 34962
        }, 
        {
            "buffer" : 0, 
            "byteLength" : 294, 
            "byteOffset" : 315000, 
            "target" : 34963
        }, 
        {
            "buffer" : 0, 
            "byteLength" : 1188, 
            "byteOffset" : 315296, 
            "target" : 34962
        }, 
        {
            "buffer" : 0, 
            "byteLength" : 1188, 
            "byteOffset" : 316484, 
            "target" : 34962
        }, 
        {
            "buffer" : 0, 
            "byteLength" : 1584, 
            "byteOffset" : 317672, 
            "target" : 34962
        }, 
        {
            "buffer" : 0, 
            "byteLength" : 792, 
            "byteOffset" : 319256, 
            "target" : 34962
        }, 
        {
            "buffer" : 0, 
            "byteLength" : 7644, 
            "byteOffset" : 320048, 
            "target" : 34963
        }, 
        {
            "buffer" : 0, 
            "byteLength" : 17748, 
            "byteOffset" : 327692, 
            "target" : 34962
        }, 
        {
            "buffer" : 0, 
            "byteLength" : 17748, 
            "byteOffset" : 345440, 
            "target" : 34962
        }, 
        {
            "buffer" : 0, 
            "byteLength" : 23664, 
            "byteOffset" : 363188, 
            "target" : 34962
        }, 
        {
            "buffer" : 0, 
            "byteLength" : 11832, 
            "byteOffset" : 386852, 
            "target" : 34962
        }, 
        {
            "buffer" : 0, 
            "byteLength" : 32256, 
            "byteOffset" : 398684, 
            "target" : 34963
        }, 
        {
            "buffer" : 0, 
            "byteLength" : 32280, 
            "byteOffset" : 430940, 
            "target" : 34962
        }, 
        {
            "buffer" : 0, 
            "byteLength" : 32280, 
            "byteOffset" : 463220, 
            "target" : 34962
        }, 
        {
            "buffer" : 0, 
            "byteLength" : 28, 
            "byteOffset" : 495500
        }, 
        {
            "buffer" : 0, 
            "byteLength" : 252, 
            "byteOffset" : 495528
        }, 
        {
            "buffer" : 0, 
            "byteLength" : 404, 
            "byteOffset" : 495780
        }, 
        {
            "buffer" : 0, 
            "byteLength" : 1616, 
            "byteOffset" : 496184
        }
    ], 
    "buffers" : [
        {
            "byteLength" : 497800, 
            "uri" : "cup2.bin"
        }
    ], 
    "images" : [
        {
            "uri" : "u.png"
        }
    ], 
    "materials" : [
        {
            "name" : "letter.000", 
            "pbrMetallicRoughness" : {
                "baseColorFactor" : [
                    0.6400000190734865, 
                    0.6400000190734865, 
                    0.6400000190734865, 
                    1.0
                ], 
                "baseColorTexture" : {
                    "index" : 0
                }, 
                "metallicFactor" : 0.0
            }
        }, 
        {
            "name" : "Material", 
            "pbrMetallicRoughness" : {
                "baseColorFactor" : [
                    0.16633166322606296, 
                    0.07278478850103598, 
                    0.030847451550475524, 
                    1.0
                ], 
                "metallicFactor" : 0.0
            }
        }, 
        {
            "name" : "Material.002", 
            "pbrMetallicRoughness" : {
                "baseColorFactor" : [
                    0.3215822983023866, 
                    0.3928166686418155, 
                    0.09563077234671669, 
                    1.0
                ], 
                "metallicFactor" : 0.0
            }
        }, 
        {
            "name" : "Material.003", 
            "pbrMetallicRoughness" : {
                "baseColorFactor" : [
                    0.3215726423497891, 
                    0.3200927305235375, 
                    0.23690693731467327, 
                    1.0
                ], 
                "metallicFactor" : 0.0
            }
        }, 
        {
            "name" : "Material.004", 
            "pbrMetallicRoughness" : {
                "baseColorFactor" : [
                    0.11716523345060992, 
                    0.12274517003812146, 
                    0.13011236384678426, 
                    1.0
                ], 
                "metallicFactor" : 0.0
            }
        }, 
        {
            "name" : "white.000", 
            "pbrMetallicRoughness" : {
                "baseColorFactor" : [
                    0.6400000190734865, 
                    0.6400000190734865, 
                    0.6400000190734865, 
                    1.0
                ], 
                "metallicFactor" : 0.0
            }
        }
    ], 
    "meshes" : [
        {
            "name" : "Cylinder.002", 
            "primitives" : [
                {
                    "attributes" : {
                        "NORMAL" : 2, 
                        "POSITION" : 1
                    }, 
                    "indices" : 0, 
                    "material" : 4
                }, 
                {
                    "attributes" : {
                        "NORMAL" : 5, 
                        "POSITION" : 4
                    }, 
                    "indices" : 3, 
                    "material" : 1
                }
            ]
        }, 
        {
            "name" : "Untitled.001", 
            "primitives" : [
                {
                    "attributes" : {
                        "NORMAL" : 8, 
                        "POSITION" : 7, 
                        "TANGENT" : 9, 
                        "TEXCOORD_0" : 10
                    }, 
                    "indices" : 6, 
                    "material" : 2
                }, 
                {
                    "attributes" : {
                        "NORMAL" : 13, 
                        "POSITION" : 12, 
                        "TANGENT" : 14, 
                        "TEXCOORD_0" : 15
                    }, 
                    "indices" : 11, 
                    "material" : 0
                }, 
                {
                    "attributes" : {
                        "NORMAL" : 18, 
                        "POSITION" : 17, 
                        "TANGENT" : 19, 
                        "TEXCOORD_0" : 20
                    }, 
                    "indices" : 16, 
                    "material" : 5
                }
            ]
        }, 
        {
            "name" : "Cylinder.000", 
            "primitives" : [
                {
                    "attributes" : {
                        "NORMAL" : 23, 
                        "POSITION" : 22
                    }, 
                    "indices" : 21, 
                    "material" : 3
                }
            ]
        }
    ], 
    "nodes" : [
        {
            "mesh" : 1, 
            "name" : "coin", 
            "rotation" : [
                0.7071067094802856, 
                0.000308805174427107, 
                -0.00030880520353093743, 
                0.7071067094802856
            ], 
            "scale" : [
                1.2676383256912231, 
                1.0621931552886963, 
                1.2676388025283813
            ], 
            "translation" : [
                0.010862343944609165, 
                -0.16068744659423828, 
                -0.34860435128211975
            ]
        }, 
        {
            "mesh" : 0, 
            "name" : "Cylinder", 
            "scale" : [
                0.37927260994911194, 
                0.37927260994911194, 
                0.37927260994911194
            ], 
            "translation" : [
                -0.0018601601477712393, 
                -0.2764670252799988, 
                0.001587989623658359
            ]
        }, 
        {
            "mesh" : 2, 
            "name" : "Cylinder.007", 
            "scale" : [
                0.8253708481788635, 
                0.09980891644954681, 
                0.1704433709383011
            ], 
            "translation" : [
                -0.004133325070142746, 
                -0.6826141476631165, 
                0.7694956064224243
            ]
        }
    ], 
    "samplers" : [
        {}
    ], 
    "scene" : 0, 
    "scenes" : [
        {
            "name" : "Scene", 
            "nodes" : [
                2, 
                1, 
                0
            ]
        }
    ], 
    "textures" : [
        {
            "sampler" : 0, 
            "source" : 0
        }
    ]
}
