{
    "accessors" : [
        {
            "bufferView" : 0, 
            "componentType" : 5123, 
            "count" : 14178, 
            "max" : [
                2368
            ], 
            "min" : [
                0
            ], 
            "type" : "SCALAR"
        }, 
        {
            "bufferView" : 1, 
            "componentType" : 5126, 
            "count" : 2369, 
            "max" : [
                25.280132293701172, 
                5.838510513305664, 
                66.84782409667969
            ], 
            "min" : [
                -64.3998031616211, 
                -36.73045349121094, 
                56.38373947143555
            ], 
            "type" : "VEC3"
        }, 
        {
            "bufferView" : 2, 
            "componentType" : 5126, 
            "count" : 2369, 
            "max" : [
                0.9950864911079407, 
                0.9851374626159668, 
                0.9998779296875
            ], 
            "min" : [
                -0.9843440055847168, 
                -0.9809869527816772, 
                -0.99981689453125
            ], 
            "type" : "VEC3"
        }, 
        {
            "bufferView" : 3, 
            "componentType" : 5123, 
            "count" : 25344, 
            "max" : [
                4225
            ], 
            "min" : [
                0
            ], 
            "type" : "SCALAR"
        }, 
        {
            "bufferView" : 4, 
            "componentType" : 5126, 
            "count" : 4226, 
            "max" : [
                1.2120752334594727, 
                1.0305074453353882, 
                2.562056541442871
            ], 
            "min" : [
                -1.2120749950408936, 
                -1.0608314275741577, 
                0.298348069190979
            ], 
            "type" : "VEC3"
        }, 
        {
            "bufferView" : 5, 
            "componentType" : 5126, 
            "count" : 4226, 
            "max" : [
                0.999969482421875, 
                0.99993896484375, 
                0.999969482421875
            ], 
            "min" : [
                -1.0, 
                -0.999969482421875, 
                -1.0
            ], 
            "type" : "VEC3"
        }, 
        {
            "bufferView" : 6, 
            "componentType" : 5123, 
            "count" : 11760, 
            "max" : [
                2078
            ], 
            "min" : [
                0
            ], 
            "type" : "SCALAR"
        }, 
        {
            "bufferView" : 7, 
            "componentType" : 5126, 
            "count" : 2079, 
            "max" : [
                1.008522391319275, 
                0.15537889301776886, 
                1.0080043077468872
            ], 
            "min" : [
                -1.008522391319275, 
                -0.15537889301776886, 
                -1.0080043077468872
            ], 
            "type" : "VEC3"
        }, 
        {
            "bufferView" : 8, 
            "componentType" : 5126, 
            "count" : 2079, 
            "max" : [
                0.999969482421875, 
                0.99908447265625, 
                0.999481201171875
            ], 
            "min" : [
                -0.999969482421875, 
                -0.99908447265625, 
                -0.999481201171875
            ], 
            "type" : "VEC3"
        }, 
        {
            "bufferView" : 9, 
            "componentType" : 5126, 
            "count" : 2079, 
            "max" : [
                0.9994864463806152, 
                0.016039293259382248, 
                1.0, 
                1.0
            ], 
            "min" : [
                -0.9994864463806152, 
                -0.08700048178434372, 
                -1.0, 
                1.0
            ], 
            "type" : "VEC4"
        }, 
        {
            "bufferView" : 10, 
            "componentType" : 5126, 
            "count" : 2079, 
            "max" : [
                1.0, 
                0.5997029542922974
            ], 
            "min" : [
                0.0, 
                0.40029698610305786
            ], 
            "type" : "VEC2"
        }, 
        {
            "bufferView" : 11, 
            "componentType" : 5121, 
            "count" : 294, 
            "max" : [
                98
            ], 
            "min" : [
                0
            ], 
            "type" : "SCALAR"
        }, 
        {
            "bufferView" : 12, 
            "componentType" : 5126, 
            "count" : 99, 
            "max" : [
                0.854191780090332, 
                -0.24128520488739014, 
                0.8536840677261353
            ], 
            "min" : [
                -0.8540539741516113, 
                -0.24128520488739014, 
                -0.8536840677261353
            ], 
            "type" : "VEC3"
        }, 
        {
            "bufferView" : 13, 
            "componentType" : 5126, 
            "count" : 99, 
            "max" : [
                0.1988586038351059, 
                -0.9800103902816772, 
                0.1987060159444809
            ], 
            "min" : [
                -0.1987670511007309, 
                -1.0, 
                -0.1987060159444809
            ], 
            "type" : "VEC3"
        }, 
        {
            "bufferView" : 14, 
            "componentType" : 5126, 
            "count" : 99, 
            "max" : [
                -0.980024516582489, 
                0.19876956939697266, 
                0.01996801048517227, 
                1.0
            ], 
            "min" : [
                -1.0, 
                -0.19887684285640717, 
                -0.01996978372335434, 
                1.0
            ], 
            "type" : "VEC4"
        }, 
        {
            "bufferView" : 15, 
            "componentType" : 5126, 
            "count" : 99, 
            "max" : [
                0.8531333208084106, 
                0.8280467391014099
            ], 
            "min" : [
                0.13973265886306763, 
                0.11501216888427734
            ], 
            "type" : "VEC2"
        }, 
        {
            "bufferView" : 16, 
            "componentType" : 5123, 
            "count" : 3822, 
            "max" : [
                1478
            ], 
            "min" : [
                0
            ], 
            "type" : "SCALAR"
        }, 
        {
            "bufferView" : 17, 
            "componentType" : 5126, 
            "count" : 1479, 
            "max" : [
                0.8936941623687744, 
                0.24128520488739014, 
                0.8931950330734253
            ], 
            "min" : [
                -0.8936941623687744, 
                -0.24128520488739014, 
                -0.8931950330734253
            ], 
            "type" : "VEC3"
        }, 
        {
            "bufferView" : 18, 
            "componentType" : 5126, 
            "count" : 1479, 
            "max" : [
                0.9810479879379272, 
                1.0, 
                0.9804071187973022
            ], 
            "min" : [
                -0.9810479879379272, 
                -0.9800409078598022, 
                -0.9804071187973022
            ], 
            "type" : "VEC3"
        }, 
        {
            "bufferView" : 19, 
            "componentType" : 5126, 
            "count" : 1479, 
            "max" : [
                1.0, 
                0.9810489416122437, 
                0.9997459650039673, 
                1.0
            ], 
            "min" : [
                -1.0, 
                -0.9808124899864197, 
                -1.0, 
                -1.0
            ], 
            "type" : "VEC4"
        }, 
        {
            "bufferView" : 20, 
            "componentType" : 5126, 
            "count" : 1479, 
            "max" : [
                1.0, 
                1.0
            ], 
            "min" : [
                0.0, 
                0.38258957862854004
            ], 
            "type" : "VEC2"
        }, 
        {
            "bufferView" : 21, 
            "componentType" : 5126, 
            "count" : 96, 
            "max" : [
                3.9583333333333335
            ], 
            "min" : [
                0.0
            ], 
            "type" : "SCALAR"
        }, 
        {
            "bufferView" : 22, 
            "componentType" : 5126, 
            "count" : 96, 
            "max" : [
                0.5367633700370789, 
                0.5052762627601624, 
                0.39945223927497864
            ], 
            "min" : [
                0.3215232789516449, 
                0.4056878387928009, 
                0.32072141766548157
            ], 
            "type" : "VEC3"
        }
    ], 
    "animations" : [
        {
            "channels" : [
                {
                    "sampler" : 0, 
                    "target" : {
                        "node" : 2, 
                        "path" : "scale"
                    }
                }
            ], 
            "samplers" : [
                {
                    "input" : 21, 
                    "interpolation" : "LINEAR", 
                    "output" : 22
                }
            ]
        }
    ], 
    "asset" : {
        "generator" : "Khronos Blender glTF 2.0 exporter", 
        "version" : "2.0"
    }, 
    "bufferViews" : [
        {
            "buffer" : 0, 
            "byteLength" : 28356, 
            "byteOffset" : 0, 
            "target" : 34963
        }, 
        {
            "buffer" : 0, 
            "byteLength" : 28428, 
            "byteOffset" : 28356, 
            "target" : 34962
        }, 
        {
            "buffer" : 0, 
            "byteLength" : 28428, 
            "byteOffset" : 56784, 
            "target" : 34962
        }, 
        {
            "buffer" : 0, 
            "byteLength" : 50688, 
            "byteOffset" : 85212, 
            "target" : 34963
        }, 
        {
            "buffer" : 0, 
            "byteLength" : 50712, 
            "byteOffset" : 135900, 
            "target" : 34962
        }, 
        {
            "buffer" : 0, 
            "byteLength" : 50712, 
            "byteOffset" : 186612, 
            "target" : 34962
        }, 
        {
            "buffer" : 0, 
            "byteLength" : 23520, 
            "byteOffset" : 237324, 
            "target" : 34963
        }, 
        {
            "buffer" : 0, 
            "byteLength" : 24948, 
            "byteOffset" : 260844, 
            "target" : 34962
        }, 
        {
            "buffer" : 0, 
            "byteLength" : 24948, 
            "byteOffset" : 285792, 
            "target" : 34962
        }, 
        {
            "buffer" : 0, 
            "byteLength" : 33264, 
            "byteOffset" : 310740, 
            "target" : 34962
        }, 
        {
            "buffer" : 0, 
            "byteLength" : 16632, 
            "byteOffset" : 344004, 
            "target" : 34962
        }, 
        {
            "buffer" : 0, 
            "byteLength" : 294, 
            "byteOffset" : 360636, 
            "target" : 34963
        }, 
        {
            "buffer" : 0, 
            "byteLength" : 1188, 
            "byteOffset" : 360932, 
            "target" : 34962
        }, 
        {
            "buffer" : 0, 
            "byteLength" : 1188, 
            "byteOffset" : 362120, 
            "target" : 34962
        }, 
        {
            "buffer" : 0, 
            "byteLength" : 1584, 
            "byteOffset" : 363308, 
            "target" : 34962
        }, 
        {
            "buffer" : 0, 
            "byteLength" : 792, 
            "byteOffset" : 364892, 
            "target" : 34962
        }, 
        {
            "buffer" : 0, 
            "byteLength" : 7644, 
            "byteOffset" : 365684, 
            "target" : 34963
        }, 
        {
            "buffer" : 0, 
            "byteLength" : 17748, 
            "byteOffset" : 373328, 
            "target" : 34962
        }, 
        {
            "buffer" : 0, 
            "byteLength" : 17748, 
            "byteOffset" : 391076, 
            "target" : 34962
        }, 
        {
            "buffer" : 0, 
            "byteLength" : 23664, 
            "byteOffset" : 408824, 
            "target" : 34962
        }, 
        {
            "buffer" : 0, 
            "byteLength" : 11832, 
            "byteOffset" : 432488, 
            "target" : 34962
        }, 
        {
            "buffer" : 0, 
            "byteLength" : 384, 
            "byteOffset" : 444320
        }, 
        {
            "buffer" : 0, 
            "byteLength" : 1152, 
            "byteOffset" : 444704
        }
    ], 
    "buffers" : [
        {
            "byteLength" : 445856, 
            "uri" : "orange3.bin"
        }
    ], 
    "images" : [
        {
            "uri" : "or.png"
        }
    ], 
    "materials" : [
        {
            "name" : "letter.000", 
            "pbrMetallicRoughness" : {
                "baseColorFactor" : [
                    0.6400000190734865, 
                    0.6400000190734865, 
                    0.6400000190734865, 
                    1.0
                ], 
                "baseColorTexture" : {
                    "index" : 0
                }, 
                "metallicFactor" : 0.0
            }
        }, 
        {
            "name" : "Material.001", 
            "pbrMetallicRoughness" : {
                "baseColorFactor" : [
                    0.02973617061579481, 
                    0.13435803852018768, 
                    0.021059497014574657, 
                    1.0
                ], 
                "metallicFactor" : 0.0
            }
        }, 
        {
            "name" : "Material.003", 
            "pbrMetallicRoughness" : {
                "baseColorFactor" : [
                    0.640000066757203, 
                    0.24995522871546783, 
                    0.016045801580634733, 
                    1.0
                ], 
                "metallicFactor" : 0.0
            }
        }, 
        {
            "name" : "Material.004", 
            "pbrMetallicRoughness" : {
                "baseColorFactor" : [
                    0.3215822983023866, 
                    0.3928166686418155, 
                    0.09563077234671669, 
                    1.0
                ], 
                "metallicFactor" : 0.0
            }
        }, 
        {
            "name" : "white.000", 
            "pbrMetallicRoughness" : {
                "baseColorFactor" : [
                    0.6400000190734865, 
                    0.6400000190734865, 
                    0.6400000190734865, 
                    1.0
                ], 
                "metallicFactor" : 0.0
            }
        }
    ], 
    "meshes" : [
        {
            "name" : "Cylinder.001", 
            "primitives" : [
                {
                    "attributes" : {
                        "NORMAL" : 2, 
                        "POSITION" : 1
                    }, 
                    "indices" : 0, 
                    "material" : 1
                }
            ]
        }, 
        {
            "name" : "Sphere", 
            "primitives" : [
                {
                    "attributes" : {
                        "NORMAL" : 5, 
                        "POSITION" : 4
                    }, 
                    "indices" : 3, 
                    "material" : 2
                }
            ]
        }, 
        {
            "name" : "Untitled.001", 
            "primitives" : [
                {
                    "attributes" : {
                        "NORMAL" : 8, 
                        "POSITION" : 7, 
                        "TANGENT" : 9, 
                        "TEXCOORD_0" : 10
                    }, 
                    "indices" : 6, 
                    "material" : 3
                }, 
                {
                    "attributes" : {
                        "NORMAL" : 13, 
                        "POSITION" : 12, 
                        "TANGENT" : 14, 
                        "TEXCOORD_0" : 15
                    }, 
                    "indices" : 11, 
                    "material" : 0
                }, 
                {
                    "attributes" : {
                        "NORMAL" : 18, 
                        "POSITION" : 17, 
                        "TANGENT" : 19, 
                        "TEXCOORD_0" : 20
                    }, 
                    "indices" : 16, 
                    "material" : 4
                }
            ]
        }
    ], 
    "nodes" : [
        {
            "mesh" : 2, 
            "name" : "coin", 
            "rotation" : [
                0.7071067094802856, 
                0.000308805174427107, 
                -0.00030880520353093743, 
                0.7071067094802856
            ], 
            "scale" : [
                1.2676383256912231, 
                1.0621931552886963, 
                1.2676388025283813
            ], 
            "translation" : [
                0.010862343944609165, 
                -0.16068744659423828, 
                -0.34860435128211975
            ]
        }, 
        {
            "mesh" : 0, 
            "name" : "Cylinder.002", 
            "rotation" : [
                -0.0015656553441658616, 
                -0.02344615012407303, 
                0.9746541380882263, 
                0.2224798947572708
            ], 
            "scale" : [
                0.007380783092230558, 
                0.00868196226656437, 
                0.007876635529100895
            ], 
            "translation" : [
                -0.19124765694141388, 
                0.34825238585472107, 
                0.024645375087857246
            ]
        }, 
        {
            "mesh" : 1, 
            "name" : "Sphere", 
            "scale" : [
                0.48723676800727844, 
                0.4586549401283264, 
                0.3625951409339905
            ], 
            "translation" : [
                0.021346263587474823, 
                -0.22673025727272034, 
                0.022345883771777153
            ]
        }
    ], 
    "samplers" : [
        {}
    ], 
    "scene" : 0, 
    "scenes" : [
        {
            "name" : "Scene", 
            "nodes" : [
                1, 
                2, 
                0
            ]
        }
    ], 
    "textures" : [
        {
            "sampler" : 0, 
            "source" : 0
        }
    ]
}
