{
    "accessors" : [
        {
            "bufferView" : 0, 
            "componentType" : 5121, 
            "count" : 288, 
            "max" : [
                127
            ], 
            "min" : [
                0
            ], 
            "type" : "SCALAR"
        }, 
        {
            "bufferView" : 1, 
            "componentType" : 5126, 
            "count" : 128, 
            "max" : [
                -0.06939184665679932, 
                -4.461629867553711, 
                1.4639768600463867
            ], 
            "min" : [
                -2.2962183952331543, 
                -4.686848163604736, 
                -1.6681116819381714
            ], 
            "type" : "VEC3"
        }, 
        {
            "bufferView" : 2, 
            "componentType" : 5126, 
            "count" : 128, 
            "max" : [
                0.9909807443618774, 
                1.0, 
                0.9810397624969482
            ], 
            "min" : [
                -0.9909807443618774, 
                -1.0, 
                -0.9810396432876587
            ], 
            "type" : "VEC3"
        }, 
        {
            "bufferView" : 3, 
            "componentType" : 5123, 
            "count" : 74112, 
            "max" : [
                12353
            ], 
            "min" : [
                0
            ], 
            "type" : "SCALAR"
        }, 
        {
            "bufferView" : 4, 
            "componentType" : 5126, 
            "count" : 12354, 
            "max" : [
                2.9781646728515625, 
                0.982396125793457, 
                0.9115702509880066
            ], 
            "min" : [
                0.9930422902107239, 
                -1.0692222118377686, 
                -0.8112196326255798
            ], 
            "type" : "VEC3"
        }, 
        {
            "bufferView" : 5, 
            "componentType" : 5126, 
            "count" : 12354, 
            "max" : [
                0.99993896484375, 
                0.999969482421875, 
                0.999969482421875
            ], 
            "min" : [
                -0.99993896484375, 
                -1.0, 
                -0.999969482421875
            ], 
            "type" : "VEC3"
        }, 
        {
            "bufferView" : 6, 
            "componentType" : 5123, 
            "count" : 3822, 
            "max" : [
                1478
            ], 
            "min" : [
                0
            ], 
            "type" : "SCALAR"
        }, 
        {
            "bufferView" : 7, 
            "componentType" : 5126, 
            "count" : 1479, 
            "max" : [
                0.8936941623687744, 
                0.24128520488739014, 
                0.8931950330734253
            ], 
            "min" : [
                -0.8936941623687744, 
                -0.24128520488739014, 
                -0.8931950330734253
            ], 
            "type" : "VEC3"
        }, 
        {
            "bufferView" : 8, 
            "componentType" : 5126, 
            "count" : 1479, 
            "max" : [
                0.9810479879379272, 
                1.0, 
                0.9804071187973022
            ], 
            "min" : [
                -0.9810479879379272, 
                -0.9800409078598022, 
                -0.9804071187973022
            ], 
            "type" : "VEC3"
        }, 
        {
            "bufferView" : 9, 
            "componentType" : 5126, 
            "count" : 1479, 
            "max" : [
                1.0, 
                0.9810489416122437, 
                0.9997459650039673, 
                1.0
            ], 
            "min" : [
                -1.0, 
                -0.9808124899864197, 
                -1.0, 
                -1.0
            ], 
            "type" : "VEC4"
        }, 
        {
            "bufferView" : 10, 
            "componentType" : 5126, 
            "count" : 1479, 
            "max" : [
                1.0, 
                1.0
            ], 
            "min" : [
                0.0, 
                0.38258957862854004
            ], 
            "type" : "VEC2"
        }, 
        {
            "bufferView" : 11, 
            "componentType" : 5121, 
            "count" : 294, 
            "max" : [
                98
            ], 
            "min" : [
                0
            ], 
            "type" : "SCALAR"
        }, 
        {
            "bufferView" : 12, 
            "componentType" : 5126, 
            "count" : 99, 
            "max" : [
                0.854191780090332, 
                -0.24128520488739014, 
                0.8536840677261353
            ], 
            "min" : [
                -0.8540539741516113, 
                -0.24128520488739014, 
                -0.8536840677261353
            ], 
            "type" : "VEC3"
        }, 
        {
            "bufferView" : 13, 
            "componentType" : 5126, 
            "count" : 99, 
            "max" : [
                0.1988586038351059, 
                -0.9800103902816772, 
                0.1987060159444809
            ], 
            "min" : [
                -0.1987670511007309, 
                -1.0, 
                -0.1987060159444809
            ], 
            "type" : "VEC3"
        }, 
        {
            "bufferView" : 14, 
            "componentType" : 5126, 
            "count" : 99, 
            "max" : [
                -0.980024516582489, 
                0.19876956939697266, 
                0.01996801048517227, 
                1.0
            ], 
            "min" : [
                -1.0, 
                -0.19887684285640717, 
                -0.01996978372335434, 
                1.0
            ], 
            "type" : "VEC4"
        }, 
        {
            "bufferView" : 15, 
            "componentType" : 5126, 
            "count" : 99, 
            "max" : [
                0.8531333208084106, 
                0.8280467391014099
            ], 
            "min" : [
                0.13973265886306763, 
                0.11501216888427734
            ], 
            "type" : "VEC2"
        }, 
        {
            "bufferView" : 16, 
            "componentType" : 5123, 
            "count" : 11760, 
            "max" : [
                2078
            ], 
            "min" : [
                0
            ], 
            "type" : "SCALAR"
        }, 
        {
            "bufferView" : 17, 
            "componentType" : 5126, 
            "count" : 2079, 
            "max" : [
                1.008522391319275, 
                0.15537889301776886, 
                1.0080043077468872
            ], 
            "min" : [
                -1.008522391319275, 
                -0.15537889301776886, 
                -1.0080043077468872
            ], 
            "type" : "VEC3"
        }, 
        {
            "bufferView" : 18, 
            "componentType" : 5126, 
            "count" : 2079, 
            "max" : [
                0.999969482421875, 
                0.99908447265625, 
                0.999481201171875
            ], 
            "min" : [
                -0.999969482421875, 
                -0.99908447265625, 
                -0.999481201171875
            ], 
            "type" : "VEC3"
        }, 
        {
            "bufferView" : 19, 
            "componentType" : 5126, 
            "count" : 2079, 
            "max" : [
                0.9994864463806152, 
                0.016039293259382248, 
                1.0, 
                1.0
            ], 
            "min" : [
                -0.9994864463806152, 
                -0.08700048178434372, 
                -1.0, 
                1.0
            ], 
            "type" : "VEC4"
        }, 
        {
            "bufferView" : 20, 
            "componentType" : 5126, 
            "count" : 2079, 
            "max" : [
                1.0, 
                0.5997029542922974
            ], 
            "min" : [
                0.0, 
                0.40029698610305786
            ], 
            "type" : "VEC2"
        }, 
        {
            "bufferView" : 21, 
            "componentType" : 5126, 
            "count" : 8, 
            "max" : [
                4.666666666666667
            ], 
            "min" : [
                0.0
            ], 
            "type" : "SCALAR"
        }, 
        {
            "bufferView" : 22, 
            "componentType" : 5126, 
            "count" : 24, 
            "max" : [
                0.08476422727108002, 
                0.0, 
                -0.0
            ], 
            "min" : [
                0.0, 
                -0.06461648643016815, 
                -0.008103609085083008
            ], 
            "type" : "VEC3"
        }, 
        {
            "bufferView" : 23, 
            "componentType" : 5126, 
            "count" : 121, 
            "max" : [
                4.666666666666667
            ], 
            "min" : [
                0.6666666666666666
            ], 
            "type" : "SCALAR"
        }, 
        {
            "bufferView" : 24, 
            "componentType" : 5126, 
            "count" : 121, 
            "max" : [
                0.06012565270066261, 
                0.6898694634437561, 
                0.06309539079666138, 
                -0.721183717250824
            ], 
            "min" : [
                -0.06012563034892082, 
                0.6872391700744629, 
                -0.06309539824724197, 
                -0.7239386439323425
            ], 
            "type" : "VEC4"
        }, 
        {
            "bufferView" : 25, 
            "componentType" : 5126, 
            "count" : 9, 
            "max" : [
                4.666666666666667
            ], 
            "min" : [
                0.0
            ], 
            "type" : "SCALAR"
        }, 
        {
            "bufferView" : 26, 
            "componentType" : 5126, 
            "count" : 27, 
            "max" : [
                0.3657592535018921, 
                0.841120719909668, 
                0.6808841824531555
            ], 
            "min" : [
                0.0, 
                0.0, 
                0.0
            ], 
            "type" : "VEC3"
        }, 
        {
            "bufferView" : 27, 
            "componentType" : 5126, 
            "count" : 2, 
            "max" : [
                4.133333333333334
            ], 
            "min" : [
                0.0
            ], 
            "type" : "SCALAR"
        }, 
        {
            "bufferView" : 28, 
            "componentType" : 5126, 
            "count" : 6, 
            "max" : [
                0.630646288394928, 
                0.6071520447731018, 
                0.3471675217151642
            ], 
            "min" : [
                0.0, 
                0.0, 
                -0.0
            ], 
            "type" : "VEC3"
        }, 
        {
            "bufferView" : 29, 
            "componentType" : 5126, 
            "count" : 125, 
            "max" : [
                4.133333333333334
            ], 
            "min" : [
                0.0
            ], 
            "type" : "SCALAR"
        }, 
        {
            "bufferView" : 30, 
            "componentType" : 5126, 
            "count" : 125, 
            "max" : [
                -0.7017122507095337, 
                0.0871778056025505, 
                0.0871778056025505, 
                0.7017121911048889
            ], 
            "min" : [
                -0.7017122507095337, 
                0.0871778056025505, 
                0.0871778056025505, 
                0.7017121911048889
            ], 
            "type" : "VEC4"
        }, 
        {
            "bufferView" : 31, 
            "componentType" : 5126, 
            "count" : 7, 
            "max" : [
                4.666666666666667
            ], 
            "min" : [
                0.0
            ], 
            "type" : "SCALAR"
        }, 
        {
            "bufferView" : 32, 
            "componentType" : 5126, 
            "count" : 21, 
            "max" : [
                0.22355498373508453, 
                0.22355498373508453, 
                0.22355502843856812
            ], 
            "min" : [
                0.0, 
                0.0, 
                0.0
            ], 
            "type" : "VEC3"
        }
    ], 
    "animations" : [
        {
            "channels" : [
                {
                    "sampler" : 0, 
                    "target" : {
                        "node" : 1, 
                        "path" : "translation"
                    }
                }, 
                {
                    "sampler" : 1, 
                    "target" : {
                        "node" : 1, 
                        "path" : "rotation"
                    }
                }, 
                {
                    "sampler" : 2, 
                    "target" : {
                        "node" : 1, 
                        "path" : "scale"
                    }
                }, 
                {
                    "sampler" : 3, 
                    "target" : {
                        "node" : 2, 
                        "path" : "translation"
                    }
                }, 
                {
                    "sampler" : 4, 
                    "target" : {
                        "node" : 2, 
                        "path" : "rotation"
                    }
                }, 
                {
                    "sampler" : 5, 
                    "target" : {
                        "node" : 2, 
                        "path" : "scale"
                    }
                }
            ], 
            "samplers" : [
                {
                    "input" : 21, 
                    "interpolation" : "CUBICSPLINE", 
                    "output" : 22
                }, 
                {
                    "input" : 23, 
                    "interpolation" : "LINEAR", 
                    "output" : 24
                }, 
                {
                    "input" : 25, 
                    "interpolation" : "CUBICSPLINE", 
                    "output" : 26
                }, 
                {
                    "input" : 27, 
                    "interpolation" : "CUBICSPLINE", 
                    "output" : 28
                }, 
                {
                    "input" : 29, 
                    "interpolation" : "LINEAR", 
                    "output" : 30
                }, 
                {
                    "input" : 31, 
                    "interpolation" : "CUBICSPLINE", 
                    "output" : 32
                }
            ]
        }
    ], 
    "asset" : {
        "generator" : "Khronos Blender glTF 2.0 exporter", 
        "version" : "2.0"
    }, 
    "bufferViews" : [
        {
            "buffer" : 0, 
            "byteLength" : 288, 
            "byteOffset" : 0, 
            "target" : 34963
        }, 
        {
            "buffer" : 0, 
            "byteLength" : 1536, 
            "byteOffset" : 288, 
            "target" : 34962
        }, 
        {
            "buffer" : 0, 
            "byteLength" : 1536, 
            "byteOffset" : 1824, 
            "target" : 34962
        }, 
        {
            "buffer" : 0, 
            "byteLength" : 148224, 
            "byteOffset" : 3360, 
            "target" : 34963
        }, 
        {
            "buffer" : 0, 
            "byteLength" : 148248, 
            "byteOffset" : 151584, 
            "target" : 34962
        }, 
        {
            "buffer" : 0, 
            "byteLength" : 148248, 
            "byteOffset" : 299832, 
            "target" : 34962
        }, 
        {
            "buffer" : 0, 
            "byteLength" : 7644, 
            "byteOffset" : 448080, 
            "target" : 34963
        }, 
        {
            "buffer" : 0, 
            "byteLength" : 17748, 
            "byteOffset" : 455724, 
            "target" : 34962
        }, 
        {
            "buffer" : 0, 
            "byteLength" : 17748, 
            "byteOffset" : 473472, 
            "target" : 34962
        }, 
        {
            "buffer" : 0, 
            "byteLength" : 23664, 
            "byteOffset" : 491220, 
            "target" : 34962
        }, 
        {
            "buffer" : 0, 
            "byteLength" : 11832, 
            "byteOffset" : 514884, 
            "target" : 34962
        }, 
        {
            "buffer" : 0, 
            "byteLength" : 294, 
            "byteOffset" : 526716, 
            "target" : 34963
        }, 
        {
            "buffer" : 0, 
            "byteLength" : 1188, 
            "byteOffset" : 527012, 
            "target" : 34962
        }, 
        {
            "buffer" : 0, 
            "byteLength" : 1188, 
            "byteOffset" : 528200, 
            "target" : 34962
        }, 
        {
            "buffer" : 0, 
            "byteLength" : 1584, 
            "byteOffset" : 529388, 
            "target" : 34962
        }, 
        {
            "buffer" : 0, 
            "byteLength" : 792, 
            "byteOffset" : 530972, 
            "target" : 34962
        }, 
        {
            "buffer" : 0, 
            "byteLength" : 23520, 
            "byteOffset" : 531764, 
            "target" : 34963
        }, 
        {
            "buffer" : 0, 
            "byteLength" : 24948, 
            "byteOffset" : 555284, 
            "target" : 34962
        }, 
        {
            "buffer" : 0, 
            "byteLength" : 24948, 
            "byteOffset" : 580232, 
            "target" : 34962
        }, 
        {
            "buffer" : 0, 
            "byteLength" : 33264, 
            "byteOffset" : 605180, 
            "target" : 34962
        }, 
        {
            "buffer" : 0, 
            "byteLength" : 16632, 
            "byteOffset" : 638444, 
            "target" : 34962
        }, 
        {
            "buffer" : 0, 
            "byteLength" : 32, 
            "byteOffset" : 655076
        }, 
        {
            "buffer" : 0, 
            "byteLength" : 288, 
            "byteOffset" : 655108
        }, 
        {
            "buffer" : 0, 
            "byteLength" : 484, 
            "byteOffset" : 655396
        }, 
        {
            "buffer" : 0, 
            "byteLength" : 1936, 
            "byteOffset" : 655880
        }, 
        {
            "buffer" : 0, 
            "byteLength" : 36, 
            "byteOffset" : 657816
        }, 
        {
            "buffer" : 0, 
            "byteLength" : 324, 
            "byteOffset" : 657852
        }, 
        {
            "buffer" : 0, 
            "byteLength" : 8, 
            "byteOffset" : 658176
        }, 
        {
            "buffer" : 0, 
            "byteLength" : 72, 
            "byteOffset" : 658184
        }, 
        {
            "buffer" : 0, 
            "byteLength" : 500, 
            "byteOffset" : 658256
        }, 
        {
            "buffer" : 0, 
            "byteLength" : 2000, 
            "byteOffset" : 658756
        }, 
        {
            "buffer" : 0, 
            "byteLength" : 28, 
            "byteOffset" : 660756
        }, 
        {
            "buffer" : 0, 
            "byteLength" : 252, 
            "byteOffset" : 660784
        }
    ], 
    "buffers" : [
        {
            "byteLength" : 661036, 
            "uri" : "tooth.bin"
        }
    ], 
    "images" : [
        {
            "uri" : "oo.png"
        }
    ], 
    "materials" : [
        {
            "name" : "letter.000", 
            "pbrMetallicRoughness" : {
                "baseColorFactor" : [
                    0.6400000190734865, 
                    0.6400000190734865, 
                    0.6400000190734865, 
                    1.0
                ], 
                "baseColorTexture" : {
                    "index" : 0
                }, 
                "metallicFactor" : 0.0
            }
        }, 
        {
            "name" : "Material", 
            "pbrMetallicRoughness" : {
                "baseColorFactor" : [
                    0.6400000190734865, 
                    0.6400000190734865, 
                    0.6400000190734865, 
                    1.0
                ], 
                "metallicFactor" : 0.0
            }
        }, 
        {
            "name" : "Material.001", 
            "pbrMetallicRoughness" : {
                "baseColorFactor" : [
                    0.7999791264530884, 
                    0.7650328273331048, 
                    0.4070173801037278, 
                    1.0
                ], 
                "metallicFactor" : 0.0
            }
        }, 
        {
            "name" : "Material.002", 
            "pbrMetallicRoughness" : {
                "baseColorFactor" : [
                    0.3215822983023866, 
                    0.3928166686418155, 
                    0.09563077234671669, 
                    1.0
                ], 
                "metallicFactor" : 0.0
            }
        }, 
        {
            "name" : "white.000", 
            "pbrMetallicRoughness" : {
                "baseColorFactor" : [
                    0.6400000190734865, 
                    0.6400000190734865, 
                    0.6400000190734865, 
                    1.0
                ], 
                "metallicFactor" : 0.0
            }
        }
    ], 
    "meshes" : [
        {
            "name" : "Plane", 
            "primitives" : [
                {
                    "attributes" : {
                        "NORMAL" : 2, 
                        "POSITION" : 1
                    }, 
                    "indices" : 0, 
                    "material" : 2
                }
            ]
        }, 
        {
            "name" : "Cube.001", 
            "primitives" : [
                {
                    "attributes" : {
                        "NORMAL" : 5, 
                        "POSITION" : 4
                    }, 
                    "indices" : 3, 
                    "material" : 1
                }
            ]
        }, 
        {
            "name" : "Untitled.001", 
            "primitives" : [
                {
                    "attributes" : {
                        "NORMAL" : 8, 
                        "POSITION" : 7, 
                        "TANGENT" : 9, 
                        "TEXCOORD_0" : 10
                    }, 
                    "indices" : 6, 
                    "material" : 4
                }, 
                {
                    "attributes" : {
                        "NORMAL" : 13, 
                        "POSITION" : 12, 
                        "TANGENT" : 14, 
                        "TEXCOORD_0" : 15
                    }, 
                    "indices" : 11, 
                    "material" : 0
                }, 
                {
                    "attributes" : {
                        "NORMAL" : 18, 
                        "POSITION" : 17, 
                        "TANGENT" : 19, 
                        "TEXCOORD_0" : 20
                    }, 
                    "indices" : 16, 
                    "material" : 3
                }
            ]
        }
    ], 
    "nodes" : [
        {
            "mesh" : 2, 
            "name" : "coin", 
            "rotation" : [
                0.7071067094802856, 
                0.000308805174427107, 
                -0.00030880520353093743, 
                0.7071067094802856
            ], 
            "scale" : [
                1.2676383256912231, 
                1.0621931552886963, 
                1.2676388025283813
            ], 
            "translation" : [
                0.010862343944609165, 
                -0.16068744659423828, 
                -0.34860435128211975
            ]
        }, 
        {
            "mesh" : 1, 
            "name" : "Cube", 
            "scale" : [
                0.0, 
                0.0, 
                0.0
            ], 
            "translation" : [
                0.08476422727108002, 
                -0.06461648643016815, 
                -0.008103609085083008
            ]
        }, 
        {
            "mesh" : 0, 
            "name" : "Plane", 
            "scale" : [
                0.0, 
                0.0, 
                0.0
            ], 
            "translation" : [
                0.630646288394928, 
                0.6071520447731018, 
                0.3471675217151642
            ]
        }
    ], 
    "samplers" : [
        {}
    ], 
    "scene" : 0, 
    "scenes" : [
        {
            "name" : "Scene", 
            "nodes" : [
                2, 
                1, 
                0
            ]
        }
    ], 
    "textures" : [
        {
            "sampler" : 0, 
            "source" : 0
        }
    ]
}
