{
    "accessors" : [
        {
            "bufferView" : 0, 
            "componentType" : 5123, 
            "count" : 39552, 
            "max" : [
                6609
            ], 
            "min" : [
                0
            ], 
            "type" : "SCALAR"
        }, 
        {
            "bufferView" : 1, 
            "componentType" : 5126, 
            "count" : 6610, 
            "max" : [
                0.9757713079452515, 
                0.4390435814857483, 
                0.0020924806594848633
            ], 
            "min" : [
                -0.9757713079452515, 
                0.27089154720306396, 
                -2.144547700881958
            ], 
            "type" : "VEC3"
        }, 
        {
            "bufferView" : 2, 
            "componentType" : 5126, 
            "count" : 6610, 
            "max" : [
                0.999969482421875, 
                1.0, 
                1.0
            ], 
            "min" : [
                -0.999969482421875, 
                -0.999969482421875, 
                -0.999969482421875
            ], 
            "type" : "VEC3"
        }, 
        {
            "bufferView" : 3, 
            "componentType" : 5123, 
            "count" : 11760, 
            "max" : [
                2078
            ], 
            "min" : [
                0
            ], 
            "type" : "SCALAR"
        }, 
        {
            "bufferView" : 4, 
            "componentType" : 5126, 
            "count" : 2079, 
            "max" : [
                1.008522391319275, 
                0.15537889301776886, 
                1.0080043077468872
            ], 
            "min" : [
                -1.008522391319275, 
                -0.15537889301776886, 
                -1.0080043077468872
            ], 
            "type" : "VEC3"
        }, 
        {
            "bufferView" : 5, 
            "componentType" : 5126, 
            "count" : 2079, 
            "max" : [
                0.999969482421875, 
                0.99908447265625, 
                0.999481201171875
            ], 
            "min" : [
                -0.999969482421875, 
                -0.99908447265625, 
                -0.999481201171875
            ], 
            "type" : "VEC3"
        }, 
        {
            "bufferView" : 6, 
            "componentType" : 5126, 
            "count" : 2079, 
            "max" : [
                0.9994864463806152, 
                0.016039293259382248, 
                1.0, 
                1.0
            ], 
            "min" : [
                -0.9994864463806152, 
                -0.08700048178434372, 
                -1.0, 
                1.0
            ], 
            "type" : "VEC4"
        }, 
        {
            "bufferView" : 7, 
            "componentType" : 5126, 
            "count" : 2079, 
            "max" : [
                1.0, 
                0.5997029542922974
            ], 
            "min" : [
                0.0, 
                0.40029698610305786
            ], 
            "type" : "VEC2"
        }, 
        {
            "bufferView" : 8, 
            "componentType" : 5121, 
            "count" : 294, 
            "max" : [
                98
            ], 
            "min" : [
                0
            ], 
            "type" : "SCALAR"
        }, 
        {
            "bufferView" : 9, 
            "componentType" : 5126, 
            "count" : 99, 
            "max" : [
                0.854191780090332, 
                -0.24128520488739014, 
                0.8536840677261353
            ], 
            "min" : [
                -0.8540539741516113, 
                -0.24128520488739014, 
                -0.8536840677261353
            ], 
            "type" : "VEC3"
        }, 
        {
            "bufferView" : 10, 
            "componentType" : 5126, 
            "count" : 99, 
            "max" : [
                0.1988586038351059, 
                -0.9800103902816772, 
                0.1987060159444809
            ], 
            "min" : [
                -0.1987670511007309, 
                -1.0, 
                -0.1987060159444809
            ], 
            "type" : "VEC3"
        }, 
        {
            "bufferView" : 11, 
            "componentType" : 5126, 
            "count" : 99, 
            "max" : [
                -0.980024516582489, 
                0.19876956939697266, 
                0.01996801048517227, 
                1.0
            ], 
            "min" : [
                -1.0, 
                -0.19887684285640717, 
                -0.01996978372335434, 
                1.0
            ], 
            "type" : "VEC4"
        }, 
        {
            "bufferView" : 12, 
            "componentType" : 5126, 
            "count" : 99, 
            "max" : [
                0.8531333208084106, 
                0.8280467391014099
            ], 
            "min" : [
                0.13973265886306763, 
                0.11501216888427734
            ], 
            "type" : "VEC2"
        }, 
        {
            "bufferView" : 13, 
            "componentType" : 5123, 
            "count" : 3822, 
            "max" : [
                1478
            ], 
            "min" : [
                0
            ], 
            "type" : "SCALAR"
        }, 
        {
            "bufferView" : 14, 
            "componentType" : 5126, 
            "count" : 1479, 
            "max" : [
                0.8936941623687744, 
                0.24128520488739014, 
                0.8931950330734253
            ], 
            "min" : [
                -0.8936941623687744, 
                -0.24128520488739014, 
                -0.8931950330734253
            ], 
            "type" : "VEC3"
        }, 
        {
            "bufferView" : 15, 
            "componentType" : 5126, 
            "count" : 1479, 
            "max" : [
                0.9810479879379272, 
                1.0, 
                0.9804071187973022
            ], 
            "min" : [
                -0.9810479879379272, 
                -0.9800409078598022, 
                -0.9804071187973022
            ], 
            "type" : "VEC3"
        }, 
        {
            "bufferView" : 16, 
            "componentType" : 5126, 
            "count" : 1479, 
            "max" : [
                1.0, 
                0.9810489416122437, 
                0.9997459650039673, 
                1.0
            ], 
            "min" : [
                -1.0, 
                -0.9808124899864197, 
                -1.0, 
                -1.0
            ], 
            "type" : "VEC4"
        }, 
        {
            "bufferView" : 17, 
            "componentType" : 5126, 
            "count" : 1479, 
            "max" : [
                1.0, 
                1.0
            ], 
            "min" : [
                0.0, 
                0.38258957862854004
            ], 
            "type" : "VEC2"
        }, 
        {
            "bufferView" : 18, 
            "componentType" : 5123, 
            "count" : 13056, 
            "max" : [
                2177
            ], 
            "min" : [
                0
            ], 
            "type" : "SCALAR"
        }, 
        {
            "bufferView" : 19, 
            "componentType" : 5126, 
            "count" : 2178, 
            "max" : [
                0.9947413206100464, 
                0.7306602001190186, 
                7.143122673034668
            ], 
            "min" : [
                -1.0210579633712769, 
                -0.9990978240966797, 
                5.143122673034668
            ], 
            "type" : "VEC3"
        }, 
        {
            "bufferView" : 20, 
            "componentType" : 5126, 
            "count" : 2178, 
            "max" : [
                0.999908447265625, 
                0.999969482421875, 
                1.0
            ], 
            "min" : [
                -0.99993896484375, 
                -1.0, 
                -1.0
            ], 
            "type" : "VEC3"
        }, 
        {
            "bufferView" : 21, 
            "componentType" : 5126, 
            "count" : 101, 
            "max" : [
                4.166666666666667
            ], 
            "min" : [
                0.0
            ], 
            "type" : "SCALAR"
        }, 
        {
            "bufferView" : 22, 
            "componentType" : 5126, 
            "count" : 101, 
            "max" : [
                0.61774742603302, 
                0.7828464508056641, 
                0.6744992136955261
            ], 
            "min" : [
                0.02140231430530548, 
                0.027122290804982185, 
                0.02336852252483368
            ], 
            "type" : "VEC3"
        }
    ], 
    "animations" : [
        {
            "channels" : [
                {
                    "sampler" : 0, 
                    "target" : {
                        "node" : 2, 
                        "path" : "scale"
                    }
                }
            ], 
            "samplers" : [
                {
                    "input" : 21, 
                    "interpolation" : "LINEAR", 
                    "output" : 22
                }
            ]
        }
    ], 
    "asset" : {
        "generator" : "Khronos Blender glTF 2.0 exporter", 
        "version" : "2.0"
    }, 
    "bufferViews" : [
        {
            "buffer" : 0, 
            "byteLength" : 79104, 
            "byteOffset" : 0, 
            "target" : 34963
        }, 
        {
            "buffer" : 0, 
            "byteLength" : 79320, 
            "byteOffset" : 79104, 
            "target" : 34962
        }, 
        {
            "buffer" : 0, 
            "byteLength" : 79320, 
            "byteOffset" : 158424, 
            "target" : 34962
        }, 
        {
            "buffer" : 0, 
            "byteLength" : 23520, 
            "byteOffset" : 237744, 
            "target" : 34963
        }, 
        {
            "buffer" : 0, 
            "byteLength" : 24948, 
            "byteOffset" : 261264, 
            "target" : 34962
        }, 
        {
            "buffer" : 0, 
            "byteLength" : 24948, 
            "byteOffset" : 286212, 
            "target" : 34962
        }, 
        {
            "buffer" : 0, 
            "byteLength" : 33264, 
            "byteOffset" : 311160, 
            "target" : 34962
        }, 
        {
            "buffer" : 0, 
            "byteLength" : 16632, 
            "byteOffset" : 344424, 
            "target" : 34962
        }, 
        {
            "buffer" : 0, 
            "byteLength" : 294, 
            "byteOffset" : 361056, 
            "target" : 34963
        }, 
        {
            "buffer" : 0, 
            "byteLength" : 1188, 
            "byteOffset" : 361352, 
            "target" : 34962
        }, 
        {
            "buffer" : 0, 
            "byteLength" : 1188, 
            "byteOffset" : 362540, 
            "target" : 34962
        }, 
        {
            "buffer" : 0, 
            "byteLength" : 1584, 
            "byteOffset" : 363728, 
            "target" : 34962
        }, 
        {
            "buffer" : 0, 
            "byteLength" : 792, 
            "byteOffset" : 365312, 
            "target" : 34962
        }, 
        {
            "buffer" : 0, 
            "byteLength" : 7644, 
            "byteOffset" : 366104, 
            "target" : 34963
        }, 
        {
            "buffer" : 0, 
            "byteLength" : 17748, 
            "byteOffset" : 373748, 
            "target" : 34962
        }, 
        {
            "buffer" : 0, 
            "byteLength" : 17748, 
            "byteOffset" : 391496, 
            "target" : 34962
        }, 
        {
            "buffer" : 0, 
            "byteLength" : 23664, 
            "byteOffset" : 409244, 
            "target" : 34962
        }, 
        {
            "buffer" : 0, 
            "byteLength" : 11832, 
            "byteOffset" : 432908, 
            "target" : 34962
        }, 
        {
            "buffer" : 0, 
            "byteLength" : 26112, 
            "byteOffset" : 444740, 
            "target" : 34963
        }, 
        {
            "buffer" : 0, 
            "byteLength" : 26136, 
            "byteOffset" : 470852, 
            "target" : 34962
        }, 
        {
            "buffer" : 0, 
            "byteLength" : 26136, 
            "byteOffset" : 496988, 
            "target" : 34962
        }, 
        {
            "buffer" : 0, 
            "byteLength" : 404, 
            "byteOffset" : 523124
        }, 
        {
            "buffer" : 0, 
            "byteLength" : 1212, 
            "byteOffset" : 523528
        }
    ], 
    "buffers" : [
        {
            "byteLength" : 524740, 
            "uri" : "turf.bin"
        }
    ], 
    "images" : [
        {
            "uri" : "ur.png"
        }
    ], 
    "materials" : [
        {
            "name" : "letter.000", 
            "pbrMetallicRoughness" : {
                "baseColorFactor" : [
                    0.6400000190734865, 
                    0.6400000190734865, 
                    0.6400000190734865, 
                    1.0
                ], 
                "baseColorTexture" : {
                    "index" : 0
                }, 
                "metallicFactor" : 0.0
            }
        }, 
        {
            "name" : "Material.002", 
            "pbrMetallicRoughness" : {
                "baseColorFactor" : [
                    0.05441534004234283, 
                    0.640000066757203, 
                    0.04869308842261266, 
                    1.0
                ], 
                "metallicFactor" : 0.0
            }
        }, 
        {
            "name" : "Material.003", 
            "pbrMetallicRoughness" : {
                "baseColorFactor" : [
                    0.21906321375166193, 
                    0.11892028032124458, 
                    0.048061902047126015, 
                    1.0
                ], 
                "metallicFactor" : 0.0
            }
        }, 
        {
            "name" : "Material.004", 
            "pbrMetallicRoughness" : {
                "baseColorFactor" : [
                    0.3215822983023866, 
                    0.3928166686418155, 
                    0.09563077234671669, 
                    1.0
                ], 
                "metallicFactor" : 0.0
            }
        }, 
        {
            "name" : "white.000", 
            "pbrMetallicRoughness" : {
                "baseColorFactor" : [
                    0.6400000190734865, 
                    0.6400000190734865, 
                    0.6400000190734865, 
                    1.0
                ], 
                "metallicFactor" : 0.0
            }
        }
    ], 
    "meshes" : [
        {
            "name" : "Plane", 
            "primitives" : [
                {
                    "attributes" : {
                        "NORMAL" : 2, 
                        "POSITION" : 1
                    }, 
                    "indices" : 0, 
                    "material" : 1
                }
            ]
        }, 
        {
            "name" : "Untitled.001", 
            "primitives" : [
                {
                    "attributes" : {
                        "NORMAL" : 5, 
                        "POSITION" : 4, 
                        "TANGENT" : 6, 
                        "TEXCOORD_0" : 7
                    }, 
                    "indices" : 3, 
                    "material" : 3
                }, 
                {
                    "attributes" : {
                        "NORMAL" : 10, 
                        "POSITION" : 9, 
                        "TANGENT" : 11, 
                        "TEXCOORD_0" : 12
                    }, 
                    "indices" : 8, 
                    "material" : 0
                }, 
                {
                    "attributes" : {
                        "NORMAL" : 15, 
                        "POSITION" : 14, 
                        "TANGENT" : 16, 
                        "TEXCOORD_0" : 17
                    }, 
                    "indices" : 13, 
                    "material" : 4
                }
            ]
        }, 
        {
            "name" : "Cube.001", 
            "primitives" : [
                {
                    "attributes" : {
                        "NORMAL" : 20, 
                        "POSITION" : 19
                    }, 
                    "indices" : 18, 
                    "material" : 2
                }
            ]
        }
    ], 
    "nodes" : [
        {
            "mesh" : 1, 
            "name" : "coin", 
            "rotation" : [
                0.7071067094802856, 
                0.000308805174427107, 
                -0.00030880520353093743, 
                0.7071067094802856
            ], 
            "scale" : [
                1.2676383256912231, 
                1.0621931552886963, 
                1.2676388025283813
            ], 
            "translation" : [
                0.010862343944609165, 
                -0.16068744659423828, 
                -0.34860435128211975
            ]
        }, 
        {
            "mesh" : 2, 
            "name" : "Cube", 
            "scale" : [
                0.32122331857681274, 
                0.10572335869073868, 
                0.09233523905277252
            ], 
            "translation" : [
                -0.0031235162168741226, 
                -0.6448023915290833, 
                -0.001187967020086944
            ]
        }, 
        {
            "mesh" : 0, 
            "name" : "Plane", 
            "rotation" : [
                0.7071068286895752, 
                0.0, 
                -0.0, 
                0.7071068286895752
            ], 
            "scale" : [
                0.02140231430530548, 
                0.027122290804982185, 
                0.02336852252483368
            ], 
            "translation" : [
                -0.0031235162168741226, 
                -0.6989229321479797, 
                -0.00036383068072609603
            ]
        }
    ], 
    "samplers" : [
        {}
    ], 
    "scene" : 0, 
    "scenes" : [
        {
            "name" : "Scene", 
            "nodes" : [
                1, 
                2, 
                0
            ]
        }
    ], 
    "textures" : [
        {
            "sampler" : 0, 
            "source" : 0
        }
    ]
}
