{
    "accessors" : [
        {
            "bufferView" : 0, 
            "componentType" : 5121, 
            "count" : 1392, 
            "max" : [
                233
            ], 
            "min" : [
                0
            ], 
            "type" : "SCALAR"
        }, 
        {
            "bufferView" : 1, 
            "componentType" : 5126, 
            "count" : 234, 
            "max" : [
                0.39941132068634033, 
                0.5642542839050293, 
                -0.03211890906095505
            ], 
            "min" : [
                0.013031207025051117, 
                0.37723085284233093, 
                -0.042118921875953674
            ], 
            "type" : "VEC3"
        }, 
        {
            "bufferView" : 2, 
            "componentType" : 5126, 
            "count" : 234, 
            "max" : [
                0.7467268705368042, 
                0.7188329696655273, 
                1.0
            ], 
            "min" : [
                -0.7519760727882385, 
                -0.7161168456077576, 
                -1.0
            ], 
            "type" : "VEC3"
        }, 
        {
            "bufferView" : 3, 
            "componentType" : 5123, 
            "count" : 2496, 
            "max" : [
                428
            ], 
            "min" : [
                0
            ], 
            "type" : "SCALAR"
        }, 
        {
            "bufferView" : 4, 
            "componentType" : 5126, 
            "count" : 429, 
            "max" : [
                0.06371373683214188, 
                0.5413252115249634, 
                -0.016510792076587677
            ], 
            "min" : [
                -0.018606815487146378, 
                0.3460455536842346, 
                -0.06568091362714767
            ], 
            "type" : "VEC3"
        }, 
        {
            "bufferView" : 5, 
            "componentType" : 5126, 
            "count" : 429, 
            "max" : [
                0.999420166015625, 
                0.999969482421875, 
                0.99993896484375
            ], 
            "min" : [
                -0.999969482421875, 
                -0.35978269577026367, 
                -0.99993896484375
            ], 
            "type" : "VEC3"
        }, 
        {
            "bufferView" : 6, 
            "componentType" : 5123, 
            "count" : 9792, 
            "max" : [
                1642
            ], 
            "min" : [
                0
            ], 
            "type" : "SCALAR"
        }, 
        {
            "bufferView" : 7, 
            "componentType" : 5126, 
            "count" : 1643, 
            "max" : [
                0.5394501686096191, 
                0.3817234933376312, 
                -0.0015269061550498009
            ], 
            "min" : [
                -0.5008811950683594, 
                -0.5482803583145142, 
                -0.06568005681037903
            ], 
            "type" : "VEC3"
        }, 
        {
            "bufferView" : 8, 
            "componentType" : 5126, 
            "count" : 1643, 
            "max" : [
                0.9993896484375, 
                0.999969482421875, 
                0.999969482421875
            ], 
            "min" : [
                -0.9993896484375, 
                -0.999969482421875, 
                -0.999969482421875
            ], 
            "type" : "VEC3"
        }, 
        {
            "bufferView" : 9, 
            "componentType" : 5123, 
            "count" : 26292, 
            "max" : [
                5829
            ], 
            "min" : [
                0
            ], 
            "type" : "SCALAR"
        }, 
        {
            "bufferView" : 10, 
            "componentType" : 5126, 
            "count" : 5830, 
            "max" : [
                -0.1574265956878662, 
                -2.436339855194092e-06, 
                0.24124011397361755
            ], 
            "min" : [
                -0.5496577024459839, 
                -0.1300024390220642, 
                -0.19124168157577515
            ], 
            "type" : "VEC3"
        }, 
        {
            "bufferView" : 11, 
            "componentType" : 5126, 
            "count" : 5830, 
            "max" : [
                0.999969482421875, 
                1.0, 
                1.0
            ], 
            "min" : [
                -1.0, 
                -1.0, 
                -0.999969482421875
            ], 
            "type" : "VEC3"
        }, 
        {
            "bufferView" : 12, 
            "componentType" : 5123, 
            "count" : 14688, 
            "max" : [
                3281
            ], 
            "min" : [
                0
            ], 
            "type" : "SCALAR"
        }, 
        {
            "bufferView" : 13, 
            "componentType" : 5126, 
            "count" : 3282, 
            "max" : [
                0.45648956298828125, 
                0.06499849259853363, 
                0.2366330325603485
            ], 
            "min" : [
                0.05650615692138672, 
                -0.06500150263309479, 
                -0.3351626396179199
            ], 
            "type" : "VEC3"
        }, 
        {
            "bufferView" : 14, 
            "componentType" : 5126, 
            "count" : 3282, 
            "max" : [
                1.0, 
                1.0, 
                0.99993896484375
            ], 
            "min" : [
                -1.0, 
                -1.0, 
                -0.99993896484375
            ], 
            "type" : "VEC3"
        }, 
        {
            "bufferView" : 15, 
            "componentType" : 5123, 
            "count" : 28200, 
            "max" : [
                6249
            ], 
            "min" : [
                0
            ], 
            "type" : "SCALAR"
        }, 
        {
            "bufferView" : 16, 
            "componentType" : 5126, 
            "count" : 6250, 
            "max" : [
                0.8140769600868225, 
                0.06499999761581421, 
                0.3481404185295105
            ], 
            "min" : [
                -0.8289281129837036, 
                -0.06499999761581421, 
                -0.39704763889312744
            ], 
            "type" : "VEC3"
        }, 
        {
            "bufferView" : 17, 
            "componentType" : 5126, 
            "count" : 6250, 
            "max" : [
                1.0, 
                1.0, 
                0.999969482421875
            ], 
            "min" : [
                -1.0, 
                -1.0, 
                -0.999969482421875
            ], 
            "type" : "VEC3"
        }, 
        {
            "bufferView" : 18, 
            "componentType" : 5123, 
            "count" : 9504, 
            "max" : [
                2507
            ], 
            "min" : [
                0
            ], 
            "type" : "SCALAR"
        }, 
        {
            "bufferView" : 19, 
            "componentType" : 5126, 
            "count" : 2508, 
            "max" : [
                0.5265227556228638, 
                0.07830408215522766, 
                0.29019179940223694
            ], 
            "min" : [
                -0.5682141780853271, 
                -0.08961009979248047, 
                -0.35083723068237305
            ], 
            "type" : "VEC3"
        }, 
        {
            "bufferView" : 20, 
            "componentType" : 5126, 
            "count" : 2508, 
            "max" : [
                0.9971007108688354, 
                1.0, 
                0.999969482421875
            ], 
            "min" : [
                -0.999969482421875, 
                -1.0, 
                -0.999969482421875
            ], 
            "type" : "VEC3"
        }, 
        {
            "bufferView" : 21, 
            "componentType" : 5123, 
            "count" : 30960, 
            "max" : [
                6923
            ], 
            "min" : [
                0
            ], 
            "type" : "SCALAR"
        }, 
        {
            "bufferView" : 22, 
            "componentType" : 5126, 
            "count" : 6924, 
            "max" : [
                0.36329251527786255, 
                -2.436339855194092e-06, 
                0.20298871397972107
            ], 
            "min" : [
                -0.6142423152923584, 
                -0.1300024390220642, 
                -0.368813693523407
            ], 
            "type" : "VEC3"
        }, 
        {
            "bufferView" : 23, 
            "componentType" : 5126, 
            "count" : 6924, 
            "max" : [
                1.0, 
                1.0, 
                1.0
            ], 
            "min" : [
                -1.0, 
                -1.0, 
                -1.0
            ], 
            "type" : "VEC3"
        }, 
        {
            "bufferView" : 24, 
            "componentType" : 5126, 
            "count" : 116, 
            "max" : [
                4.791666666666667
            ], 
            "min" : [
                0.0
            ], 
            "type" : "SCALAR"
        }, 
        {
            "bufferView" : 25, 
            "componentType" : 5126, 
            "count" : 116, 
            "max" : [
                1.6975247859954834, 
                0.23328112065792084, 
                -0.05494963005185127
            ], 
            "min" : [
                1.3975247144699097, 
                0.23328112065792084, 
                -0.05494963005185127
            ], 
            "type" : "VEC3"
        }, 
        {
            "bufferView" : 26, 
            "componentType" : 5126, 
            "count" : 6, 
            "max" : [
                4.791666666666667
            ], 
            "min" : [
                0.0
            ], 
            "type" : "SCALAR"
        }, 
        {
            "bufferView" : 27, 
            "componentType" : 5126, 
            "count" : 18, 
            "max" : [
                0.6757442951202393, 
                0.1883246749639511, 
                5.387598775996594e-07
            ], 
            "min" : [
                0.0, 
                0.0, 
                -0.0
            ], 
            "type" : "VEC3"
        }, 
        {
            "bufferView" : 28, 
            "componentType" : 5126, 
            "count" : 6, 
            "max" : [
                4.791666666666667
            ], 
            "min" : [
                0.0
            ], 
            "type" : "SCALAR"
        }, 
        {
            "bufferView" : 29, 
            "componentType" : 5126, 
            "count" : 18, 
            "max" : [
                2.0462887287139893, 
                0.22163306176662445, 
                1.513249571871711e-06
            ], 
            "min" : [
                0.0, 
                0.0, 
                -0.0
            ], 
            "type" : "VEC3"
        }, 
        {
            "bufferView" : 30, 
            "componentType" : 5126, 
            "count" : 6, 
            "max" : [
                4.791666666666667
            ], 
            "min" : [
                0.0
            ], 
            "type" : "SCALAR"
        }, 
        {
            "bufferView" : 31, 
            "componentType" : 5126, 
            "count" : 18, 
            "max" : [
                0.8539631366729736, 
                0.0, 
                5.387598775996594e-07
            ], 
            "min" : [
                0.0, 
                -0.32345226407051086, 
                -0.0
            ], 
            "type" : "VEC3"
        }
    ], 
    "animations" : [
        {
            "channels" : [
                {
                    "sampler" : 0, 
                    "target" : {
                        "node" : 0, 
                        "path" : "translation"
                    }
                }, 
                {
                    "sampler" : 1, 
                    "target" : {
                        "node" : 1, 
                        "path" : "translation"
                    }
                }, 
                {
                    "sampler" : 2, 
                    "target" : {
                        "node" : 2, 
                        "path" : "translation"
                    }
                }, 
                {
                    "sampler" : 3, 
                    "target" : {
                        "node" : 3, 
                        "path" : "translation"
                    }
                }
            ], 
            "samplers" : [
                {
                    "input" : 24, 
                    "interpolation" : "LINEAR", 
                    "output" : 25
                }, 
                {
                    "input" : 26, 
                    "interpolation" : "CUBICSPLINE", 
                    "output" : 27
                }, 
                {
                    "input" : 28, 
                    "interpolation" : "CUBICSPLINE", 
                    "output" : 29
                }, 
                {
                    "input" : 30, 
                    "interpolation" : "CUBICSPLINE", 
                    "output" : 31
                }
            ]
        }
    ], 
    "asset" : {
        "generator" : "Khronos Blender glTF 2.0 exporter", 
        "version" : "2.0"
    }, 
    "bufferViews" : [
        {
            "buffer" : 0, 
            "byteLength" : 1392, 
            "byteOffset" : 0, 
            "target" : 34963
        }, 
        {
            "buffer" : 0, 
            "byteLength" : 2808, 
            "byteOffset" : 1392, 
            "target" : 34962
        }, 
        {
            "buffer" : 0, 
            "byteLength" : 2808, 
            "byteOffset" : 4200, 
            "target" : 34962
        }, 
        {
            "buffer" : 0, 
            "byteLength" : 4992, 
            "byteOffset" : 7008, 
            "target" : 34963
        }, 
        {
            "buffer" : 0, 
            "byteLength" : 5148, 
            "byteOffset" : 12000, 
            "target" : 34962
        }, 
        {
            "buffer" : 0, 
            "byteLength" : 5148, 
            "byteOffset" : 17148, 
            "target" : 34962
        }, 
        {
            "buffer" : 0, 
            "byteLength" : 19584, 
            "byteOffset" : 22296, 
            "target" : 34963
        }, 
        {
            "buffer" : 0, 
            "byteLength" : 19716, 
            "byteOffset" : 41880, 
            "target" : 34962
        }, 
        {
            "buffer" : 0, 
            "byteLength" : 19716, 
            "byteOffset" : 61596, 
            "target" : 34962
        }, 
        {
            "buffer" : 0, 
            "byteLength" : 52584, 
            "byteOffset" : 81312, 
            "target" : 34963
        }, 
        {
            "buffer" : 0, 
            "byteLength" : 69960, 
            "byteOffset" : 133896, 
            "target" : 34962
        }, 
        {
            "buffer" : 0, 
            "byteLength" : 69960, 
            "byteOffset" : 203856, 
            "target" : 34962
        }, 
        {
            "buffer" : 0, 
            "byteLength" : 29376, 
            "byteOffset" : 273816, 
            "target" : 34963
        }, 
        {
            "buffer" : 0, 
            "byteLength" : 39384, 
            "byteOffset" : 303192, 
            "target" : 34962
        }, 
        {
            "buffer" : 0, 
            "byteLength" : 39384, 
            "byteOffset" : 342576, 
            "target" : 34962
        }, 
        {
            "buffer" : 0, 
            "byteLength" : 56400, 
            "byteOffset" : 381960, 
            "target" : 34963
        }, 
        {
            "buffer" : 0, 
            "byteLength" : 75000, 
            "byteOffset" : 438360, 
            "target" : 34962
        }, 
        {
            "buffer" : 0, 
            "byteLength" : 75000, 
            "byteOffset" : 513360, 
            "target" : 34962
        }, 
        {
            "buffer" : 0, 
            "byteLength" : 19008, 
            "byteOffset" : 588360, 
            "target" : 34963
        }, 
        {
            "buffer" : 0, 
            "byteLength" : 30096, 
            "byteOffset" : 607368, 
            "target" : 34962
        }, 
        {
            "buffer" : 0, 
            "byteLength" : 30096, 
            "byteOffset" : 637464, 
            "target" : 34962
        }, 
        {
            "buffer" : 0, 
            "byteLength" : 61920, 
            "byteOffset" : 667560, 
            "target" : 34963
        }, 
        {
            "buffer" : 0, 
            "byteLength" : 83088, 
            "byteOffset" : 729480, 
            "target" : 34962
        }, 
        {
            "buffer" : 0, 
            "byteLength" : 83088, 
            "byteOffset" : 812568, 
            "target" : 34962
        }, 
        {
            "buffer" : 0, 
            "byteLength" : 464, 
            "byteOffset" : 895656
        }, 
        {
            "buffer" : 0, 
            "byteLength" : 1392, 
            "byteOffset" : 896120
        }, 
        {
            "buffer" : 0, 
            "byteLength" : 24, 
            "byteOffset" : 897512
        }, 
        {
            "buffer" : 0, 
            "byteLength" : 216, 
            "byteOffset" : 897536
        }, 
        {
            "buffer" : 0, 
            "byteLength" : 24, 
            "byteOffset" : 897752
        }, 
        {
            "buffer" : 0, 
            "byteLength" : 216, 
            "byteOffset" : 897776
        }, 
        {
            "buffer" : 0, 
            "byteLength" : 24, 
            "byteOffset" : 897992
        }, 
        {
            "buffer" : 0, 
            "byteLength" : 216, 
            "byteOffset" : 898016
        }
    ], 
    "buffers" : [
        {
            "byteLength" : 898232, 
            "uri" : "-ial.bin"
        }
    ], 
    "materials" : [
        {
            "name" : "GREEN", 
            "pbrMetallicRoughness" : {
                "baseColorFactor" : [
                    0.03808404860025716, 
                    0.38158934684975954, 
                    0.021287077982531155, 
                    1.0
                ], 
                "metallicFactor" : 0.0
            }
        }, 
        {
            "name" : "Material.001", 
            "pbrMetallicRoughness" : {
                "baseColorFactor" : [
                    0.06681131224053072, 
                    0.3895150481092191, 
                    0.00789228167969408, 
                    1.0
                ], 
                "metallicFactor" : 0.0
            }
        }, 
        {
            "name" : "Material.002", 
            "pbrMetallicRoughness" : {
                "baseColorFactor" : [
                    0.5013270929653508, 
                    0.016020344436471823, 
                    0.016020344436471823, 
                    1.0
                ], 
                "metallicFactor" : 0.0
            }
        }, 
        {
            "name" : "Material.003", 
            "pbrMetallicRoughness" : {
                "baseColorFactor" : [
                    0.04177363279124546, 
                    0.04177363279124546, 
                    0.04177363279124546, 
                    1.0
                ], 
                "metallicFactor" : 0.0
            }
        }, 
        {
            "name" : "Material.005", 
            "pbrMetallicRoughness" : {
                "baseColorFactor" : [
                    0.15214040506095294, 
                    0.04981856718389044, 
                    0.034074214608583064, 
                    1.0
                ], 
                "metallicFactor" : 0.0
            }
        }
    ], 
    "meshes" : [
        {
            "name" : "Vert.001", 
            "primitives" : [
                {
                    "attributes" : {
                        "NORMAL" : 2, 
                        "POSITION" : 1
                    }, 
                    "indices" : 0, 
                    "material" : 1
                }, 
                {
                    "attributes" : {
                        "NORMAL" : 5, 
                        "POSITION" : 4
                    }, 
                    "indices" : 3, 
                    "material" : 4
                }, 
                {
                    "attributes" : {
                        "NORMAL" : 8, 
                        "POSITION" : 7
                    }, 
                    "indices" : 6, 
                    "material" : 2
                }
            ]
        }, 
        {
            "name" : "CUText.001", 
            "primitives" : [
                {
                    "attributes" : {
                        "NORMAL" : 11, 
                        "POSITION" : 10
                    }, 
                    "indices" : 9, 
                    "material" : 2
                }, 
                {
                    "attributes" : {
                        "NORMAL" : 14, 
                        "POSITION" : 13
                    }, 
                    "indices" : 12, 
                    "material" : 3
                }
            ]
        }, 
        {
            "name" : "CUText.011", 
            "primitives" : [
                {
                    "attributes" : {
                        "NORMAL" : 17, 
                        "POSITION" : 16
                    }, 
                    "indices" : 15, 
                    "material" : 1
                }, 
                {
                    "attributes" : {
                        "NORMAL" : 20, 
                        "POSITION" : 19
                    }, 
                    "indices" : 18, 
                    "material" : 0
                }
            ]
        }, 
        {
            "name" : "CUText.013", 
            "primitives" : [
                {
                    "attributes" : {
                        "NORMAL" : 23, 
                        "POSITION" : 22
                    }, 
                    "indices" : 21, 
                    "material" : 3
                }
            ]
        }
    ], 
    "nodes" : [
        {
            "mesh" : 0, 
            "name" : "appl", 
            "scale" : [
                0.638979434967041, 
                0.638979434967041, 
                0.638979434967041
            ], 
            "translation" : [
                1.3975247144699097, 
                0.23328112065792084, 
                -0.05494963005185127
            ]
        }, 
        {
            "mesh" : 3, 
            "name" : "Text", 
            "rotation" : [
                0.7071068286895752, 
                0.0, 
                -0.0, 
                0.7071068286895752
            ], 
            "translation" : [
                0.6757442951202393, 
                0.1883246749639511, 
                5.387598775996594e-07
            ]
        }, 
        {
            "mesh" : 1, 
            "name" : "Text.001", 
            "rotation" : [
                0.7071068286895752, 
                0.0, 
                -0.0, 
                0.7071068286895752
            ], 
            "translation" : [
                1.7462886571884155, 
                0.22163306176662445, 
                1.513249571871711e-06
            ]
        }, 
        {
            "mesh" : 2, 
            "name" : "Text.004", 
            "rotation" : [
                0.7071068286895752, 
                0.0, 
                -0.0, 
                0.7071068286895752
            ], 
            "scale" : [
                0.3952941298484802, 
                0.36149001121520996, 
                0.36149001121520996
            ], 
            "translation" : [
                0.8539631366729736, 
                -0.32345226407051086, 
                5.387598775996594e-07
            ]
        }
    ], 
    "scene" : 0, 
    "scenes" : [
        {
            "name" : "Scene", 
            "nodes" : [
                0, 
                3, 
                2, 
                1
            ]
        }
    ]
}
