{
    "accessors" : [
        {
            "bufferView" : 0, 
            "componentType" : 5123, 
            "count" : 62640, 
            "max" : [
                13838
            ], 
            "min" : [
                0
            ], 
            "type" : "SCALAR"
        }, 
        {
            "bufferView" : 1, 
            "componentType" : 5126, 
            "count" : 13839, 
            "max" : [
                1.5989030599594116, 
                0.06499999761581421, 
                0.02274397388100624
            ], 
            "min" : [
                0.06549099087715149, 
                -0.06499999761581421, 
                -0.4097398817539215
            ], 
            "type" : "VEC3"
        }, 
        {
            "bufferView" : 2, 
            "componentType" : 5126, 
            "count" : 13839, 
            "max" : [
                1.0, 
                1.0, 
                1.0
            ], 
            "min" : [
                -1.0, 
                -1.0, 
                -1.0
            ], 
            "type" : "VEC3"
        }, 
        {
            "bufferView" : 3, 
            "componentType" : 5123, 
            "count" : 56184, 
            "max" : [
                12529
            ], 
            "min" : [
                0
            ], 
            "type" : "SCALAR"
        }, 
        {
            "bufferView" : 4, 
            "componentType" : 5126, 
            "count" : 12530, 
            "max" : [
                0.5189986228942871, 
                0.06499681621789932, 
                0.22339071333408356
            ], 
            "min" : [
                -0.48561787605285645, 
                -0.0650031790137291, 
                -0.2090936154127121
            ], 
            "type" : "VEC3"
        }, 
        {
            "bufferView" : 5, 
            "componentType" : 5126, 
            "count" : 12530, 
            "max" : [
                0.999969482421875, 
                1.0, 
                1.0
            ], 
            "min" : [
                -1.0, 
                -1.0, 
                -1.0
            ], 
            "type" : "VEC3"
        }, 
        {
            "bufferView" : 6, 
            "componentType" : 5126, 
            "count" : 7, 
            "max" : [
                1.625
            ], 
            "min" : [
                0.0
            ], 
            "type" : "SCALAR"
        }, 
        {
            "bufferView" : 7, 
            "componentType" : 5126, 
            "count" : 21, 
            "max" : [
                2.2473981380462646, 
                0.20064909756183624, 
                3.187766424161964e-06
            ], 
            "min" : [
                0.0, 
                0.0, 
                -0.0
            ], 
            "type" : "VEC3"
        }, 
        {
            "bufferView" : 8, 
            "componentType" : 5126, 
            "count" : 40, 
            "max" : [
                1.625
            ], 
            "min" : [
                0.0
            ], 
            "type" : "SCALAR"
        }, 
        {
            "bufferView" : 9, 
            "componentType" : 5126, 
            "count" : 40, 
            "max" : [
                0.7071067690849304, 
                0.03084355965256691, 
                0.030843567103147507, 
                0.7071067690849304
            ], 
            "min" : [
                0.7064337730407715, 
                -0.03084355778992176, 
                -0.030843565240502357, 
                0.7064337730407715
            ], 
            "type" : "VEC4"
        }, 
        {
            "bufferView" : 10, 
            "componentType" : 5126, 
            "count" : 7, 
            "max" : [
                1.625
            ], 
            "min" : [
                0.0
            ], 
            "type" : "SCALAR"
        }, 
        {
            "bufferView" : 11, 
            "componentType" : 5126, 
            "count" : 21, 
            "max" : [
                1.176579236984253, 
                1.176579236984253, 
                1.176579236984253
            ], 
            "min" : [
                0.0, 
                0.0, 
                0.0
            ], 
            "type" : "VEC3"
        }
    ], 
    "animations" : [
        {
            "channels" : [
                {
                    "sampler" : 0, 
                    "target" : {
                        "node" : 2, 
                        "path" : "translation"
                    }
                }, 
                {
                    "sampler" : 1, 
                    "target" : {
                        "node" : 2, 
                        "path" : "rotation"
                    }
                }, 
                {
                    "sampler" : 2, 
                    "target" : {
                        "node" : 2, 
                        "path" : "scale"
                    }
                }
            ], 
            "samplers" : [
                {
                    "input" : 6, 
                    "interpolation" : "CUBICSPLINE", 
                    "output" : 7
                }, 
                {
                    "input" : 8, 
                    "interpolation" : "LINEAR", 
                    "output" : 9
                }, 
                {
                    "input" : 10, 
                    "interpolation" : "CUBICSPLINE", 
                    "output" : 11
                }
            ]
        }
    ], 
    "asset" : {
        "generator" : "Khronos Blender glTF 2.0 exporter", 
        "version" : "2.0"
    }, 
    "bufferViews" : [
        {
            "buffer" : 0, 
            "byteLength" : 125280, 
            "byteOffset" : 0, 
            "target" : 34963
        }, 
        {
            "buffer" : 0, 
            "byteLength" : 166068, 
            "byteOffset" : 125280, 
            "target" : 34962
        }, 
        {
            "buffer" : 0, 
            "byteLength" : 166068, 
            "byteOffset" : 291348, 
            "target" : 34962
        }, 
        {
            "buffer" : 0, 
            "byteLength" : 112368, 
            "byteOffset" : 457416, 
            "target" : 34963
        }, 
        {
            "buffer" : 0, 
            "byteLength" : 150360, 
            "byteOffset" : 569784, 
            "target" : 34962
        }, 
        {
            "buffer" : 0, 
            "byteLength" : 150360, 
            "byteOffset" : 720144, 
            "target" : 34962
        }, 
        {
            "buffer" : 0, 
            "byteLength" : 28, 
            "byteOffset" : 870504
        }, 
        {
            "buffer" : 0, 
            "byteLength" : 252, 
            "byteOffset" : 870532
        }, 
        {
            "buffer" : 0, 
            "byteLength" : 160, 
            "byteOffset" : 870784
        }, 
        {
            "buffer" : 0, 
            "byteLength" : 640, 
            "byteOffset" : 870944
        }, 
        {
            "buffer" : 0, 
            "byteLength" : 28, 
            "byteOffset" : 871584
        }, 
        {
            "buffer" : 0, 
            "byteLength" : 252, 
            "byteOffset" : 871612
        }
    ], 
    "buffers" : [
        {
            "byteLength" : 871864, 
            "uri" : "somee.bin"
        }
    ], 
    "materials" : [
        {
            "name" : "Material.002", 
            "pbrMetallicRoughness" : {
                "baseColorFactor" : [
                    0.05598139846297201, 
                    0.05598139846297201, 
                    0.05598139846297201, 
                    1.0
                ], 
                "metallicFactor" : 0.0
            }
        }
    ], 
    "meshes" : [
        {
            "name" : "CUText", 
            "primitives" : [
                {
                    "attributes" : {
                        "NORMAL" : 2, 
                        "POSITION" : 1
                    }, 
                    "indices" : 0, 
                    "material" : 0
                }
            ]
        }, 
        {
            "name" : "CUText.001", 
            "primitives" : [
                {
                    "attributes" : {
                        "NORMAL" : 5, 
                        "POSITION" : 4
                    }, 
                    "indices" : 3, 
                    "material" : 0
                }
            ]
        }
    ], 
    "nodes" : [
        {
            "name" : "Sun", 
            "translation" : [
                1.7314362525939941, 
                3.7064123153686523, 
                -0.28826141357421875
            ]
        }, 
        {
            "mesh" : 0, 
            "name" : "Text", 
            "rotation" : [
                0.7071068286895752, 
                0.0, 
                -0.0, 
                0.7071068286895752
            ]
        }, 
        {
            "mesh" : 1, 
            "name" : "Text.001", 
            "rotation" : [
                0.7071068286895752, 
                0.0, 
                -0.0, 
                0.7071068286895752
            ], 
            "translation" : [
                2.2473981380462646, 
                0.20064909756183624, 
                3.187766424161964e-06
            ]
        }
    ], 
    "scene" : 0, 
    "scenes" : [
        {
            "name" : "Scene", 
            "nodes" : [
                0, 
                2, 
                1
            ]
        }
    ]
}
