{
    "accessors" : [
        {
            "bufferView" : 0, 
            "componentType" : 5123, 
            "count" : 23424, 
            "max" : [
                4863
            ], 
            "min" : [
                0
            ], 
            "type" : "SCALAR"
        }, 
        {
            "bufferView" : 1, 
            "componentType" : 5126, 
            "count" : 4864, 
            "max" : [
                2.0686309337615967, 
                1.0865652561187744, 
                1.2516820430755615
            ], 
            "min" : [
                -1.2516820430755615, 
                -1.0541057586669922, 
                -1.2516820430755615
            ], 
            "type" : "VEC3"
        }, 
        {
            "bufferView" : 2, 
            "componentType" : 5126, 
            "count" : 4864, 
            "max" : [
                0.999969482421875, 
                1.0, 
                0.999481201171875
            ], 
            "min" : [
                -0.999481201171875, 
                -1.0, 
                -0.999481201171875
            ], 
            "type" : "VEC3"
        }, 
        {
            "bufferView" : 3, 
            "componentType" : 5123, 
            "count" : 1920, 
            "max" : [
                1025
            ], 
            "min" : [
                0
            ], 
            "type" : "SCALAR"
        }, 
        {
            "bufferView" : 4, 
            "componentType" : 5126, 
            "count" : 1026, 
            "max" : [
                1.1210026741027832, 
                0.8532666563987732, 
                1.1210026741027832
            ], 
            "min" : [
                -1.121002435684204, 
                0.7427991628646851, 
                -1.1210026741027832
            ], 
            "type" : "VEC3"
        }, 
        {
            "bufferView" : 5, 
            "componentType" : 5126, 
            "count" : 1026, 
            "max" : [
                0.9747490882873535, 
                1.0, 
                0.974748969078064
            ], 
            "min" : [
                -0.9747492671012878, 
                0.21796657145023346, 
                -0.9747490286827087
            ], 
            "type" : "VEC3"
        }, 
        {
            "bufferView" : 6, 
            "componentType" : 5123, 
            "count" : 12348, 
            "max" : [
                2274
            ], 
            "min" : [
                0
            ], 
            "type" : "SCALAR"
        }, 
        {
            "bufferView" : 7, 
            "componentType" : 5126, 
            "count" : 2275, 
            "max" : [
                1.008522391319275, 
                0.15609030425548553, 
                1.0080043077468872
            ], 
            "min" : [
                -1.008522391319275, 
                -0.15609030425548553, 
                -1.0080043077468872
            ], 
            "type" : "VEC3"
        }, 
        {
            "bufferView" : 8, 
            "componentType" : 5126, 
            "count" : 2275, 
            "max" : [
                0.999969482421875, 
                1.0, 
                0.999481201171875
            ], 
            "min" : [
                -0.999969482421875, 
                -1.0, 
                -0.999481201171875
            ], 
            "type" : "VEC3"
        }, 
        {
            "bufferView" : 9, 
            "componentType" : 5126, 
            "count" : 2275, 
            "max" : [
                1.0, 
                0.01598166860640049, 
                1.0, 
                1.0
            ], 
            "min" : [
                -1.0, 
                -0.015981776639819145, 
                -1.0, 
                1.0
            ], 
            "type" : "VEC4"
        }, 
        {
            "bufferView" : 10, 
            "componentType" : 5126, 
            "count" : 2275, 
            "max" : [
                1.0, 
                1.0
            ], 
            "min" : [
                0.0, 
                0.0
            ], 
            "type" : "VEC2"
        }, 
        {
            "bufferView" : 11, 
            "componentType" : 5123, 
            "count" : 12348, 
            "max" : [
                2157
            ], 
            "min" : [
                0
            ], 
            "type" : "SCALAR"
        }, 
        {
            "bufferView" : 12, 
            "componentType" : 5126, 
            "count" : 2158, 
            "max" : [
                0.8999999761581421, 
                0.18000000715255737, 
                0.8995376229286194
            ], 
            "min" : [
                -0.8999999761581421, 
                -0.18000000715255737, 
                -0.8995376229286194
            ], 
            "type" : "VEC3"
        }, 
        {
            "bufferView" : 13, 
            "componentType" : 5126, 
            "count" : 2158, 
            "max" : [
                1.0, 
                1.0, 
                0.999481201171875
            ], 
            "min" : [
                -1.0, 
                -1.0, 
                -0.999481201171875
            ], 
            "type" : "VEC3"
        }, 
        {
            "bufferView" : 14, 
            "componentType" : 5126, 
            "count" : 2158, 
            "max" : [
                0.992209792137146, 
                0.9995288848876953, 
                0.8722600340843201, 
                1.0
            ], 
            "min" : [
                -0.9997493624687195, 
                -0.9995289444923401, 
                -0.7701333165168762, 
                1.0
            ], 
            "type" : "VEC4"
        }, 
        {
            "bufferView" : 15, 
            "componentType" : 5126, 
            "count" : 2158, 
            "max" : [
                0.8900224566459656, 
                0.9793637320399284
            ], 
            "min" : [
                0.03449087217450142, 
                0.10760033130645752
            ], 
            "type" : "VEC2"
        }, 
        {
            "bufferView" : 16, 
            "componentType" : 5126, 
            "count" : 2158, 
            "max" : [
                0.75, 
                0.7498714923858643
            ], 
            "min" : [
                0.25, 
                0.25012844800949097
            ], 
            "type" : "VEC2"
        }, 
        {
            "bufferView" : 17, 
            "componentType" : 5126, 
            "count" : 2158, 
            "max" : [
                0.75, 
                0.7498714923858643
            ], 
            "min" : [
                0.25, 
                0.25012844800949097
            ], 
            "type" : "VEC2"
        }, 
        {
            "bufferView" : 18, 
            "componentType" : 5123, 
            "count" : 13476, 
            "max" : [
                2320
            ], 
            "min" : [
                0
            ], 
            "type" : "SCALAR"
        }, 
        {
            "bufferView" : 19, 
            "componentType" : 5126, 
            "count" : 2321, 
            "max" : [
                0.9433108568191528, 
                1.0280901193618774, 
                4.1837873458862305
            ], 
            "min" : [
                -0.9433110356330872, 
                -1.0283478498458862, 
                -2.784266710281372
            ], 
            "type" : "VEC3"
        }, 
        {
            "bufferView" : 20, 
            "componentType" : 5126, 
            "count" : 2321, 
            "max" : [
                0.999267578125, 
                0.999969482421875, 
                0.9862361550331116
            ], 
            "min" : [
                -0.999267578125, 
                -1.0, 
                -0.9862361550331116
            ], 
            "type" : "VEC3"
        }, 
        {
            "bufferView" : 21, 
            "componentType" : 5126, 
            "count" : 7, 
            "max" : [
                3.75
            ], 
            "min" : [
                0.0
            ], 
            "type" : "SCALAR"
        }, 
        {
            "bufferView" : 22, 
            "componentType" : 5126, 
            "count" : 21, 
            "max" : [
                0.0, 
                0.15948200225830078, 
                0.001587989623658359
            ], 
            "min" : [
                -0.0018601601477712393, 
                -0.2764670252799988, 
                -0.0
            ], 
            "type" : "VEC3"
        }, 
        {
            "bufferView" : 23, 
            "componentType" : 5126, 
            "count" : 91, 
            "max" : [
                3.75
            ], 
            "min" : [
                0.0
            ], 
            "type" : "SCALAR"
        }, 
        {
            "bufferView" : 24, 
            "componentType" : 5126, 
            "count" : 91, 
            "max" : [
                0.0, 
                0.0, 
                0.258819043636322, 
                1.0
            ], 
            "min" : [
                0.0, 
                0.0, 
                -7.450581485102248e-09, 
                0.9659258127212524
            ], 
            "type" : "VEC4"
        }
    ], 
    "animations" : [
        {
            "channels" : [
                {
                    "sampler" : 0, 
                    "target" : {
                        "node" : 0, 
                        "path" : "translation"
                    }
                }, 
                {
                    "sampler" : 1, 
                    "target" : {
                        "node" : 0, 
                        "path" : "rotation"
                    }
                }
            ], 
            "samplers" : [
                {
                    "input" : 21, 
                    "interpolation" : "CUBICSPLINE", 
                    "output" : 22
                }, 
                {
                    "input" : 23, 
                    "interpolation" : "LINEAR", 
                    "output" : 24
                }
            ]
        }
    ], 
    "asset" : {
        "generator" : "Khronos Blender glTF 2.0 exporter", 
        "version" : "2.0"
    }, 
    "bufferViews" : [
        {
            "buffer" : 0, 
            "byteLength" : 46848, 
            "byteOffset" : 0, 
            "target" : 34963
        }, 
        {
            "buffer" : 0, 
            "byteLength" : 58368, 
            "byteOffset" : 46848, 
            "target" : 34962
        }, 
        {
            "buffer" : 0, 
            "byteLength" : 58368, 
            "byteOffset" : 105216, 
            "target" : 34962
        }, 
        {
            "buffer" : 0, 
            "byteLength" : 3840, 
            "byteOffset" : 163584, 
            "target" : 34963
        }, 
        {
            "buffer" : 0, 
            "byteLength" : 12312, 
            "byteOffset" : 167424, 
            "target" : 34962
        }, 
        {
            "buffer" : 0, 
            "byteLength" : 12312, 
            "byteOffset" : 179736, 
            "target" : 34962
        }, 
        {
            "buffer" : 0, 
            "byteLength" : 24696, 
            "byteOffset" : 192048, 
            "target" : 34963
        }, 
        {
            "buffer" : 0, 
            "byteLength" : 27300, 
            "byteOffset" : 216744, 
            "target" : 34962
        }, 
        {
            "buffer" : 0, 
            "byteLength" : 27300, 
            "byteOffset" : 244044, 
            "target" : 34962
        }, 
        {
            "buffer" : 0, 
            "byteLength" : 36400, 
            "byteOffset" : 271344, 
            "target" : 34962
        }, 
        {
            "buffer" : 0, 
            "byteLength" : 18200, 
            "byteOffset" : 307744, 
            "target" : 34962
        }, 
        {
            "buffer" : 0, 
            "byteLength" : 24696, 
            "byteOffset" : 325944, 
            "target" : 34963
        }, 
        {
            "buffer" : 0, 
            "byteLength" : 25896, 
            "byteOffset" : 350640, 
            "target" : 34962
        }, 
        {
            "buffer" : 0, 
            "byteLength" : 25896, 
            "byteOffset" : 376536, 
            "target" : 34962
        }, 
        {
            "buffer" : 0, 
            "byteLength" : 34528, 
            "byteOffset" : 402432, 
            "target" : 34962
        }, 
        {
            "buffer" : 0, 
            "byteLength" : 17264, 
            "byteOffset" : 436960, 
            "target" : 34962
        }, 
        {
            "buffer" : 0, 
            "byteLength" : 17264, 
            "byteOffset" : 454224, 
            "target" : 34962
        }, 
        {
            "buffer" : 0, 
            "byteLength" : 17264, 
            "byteOffset" : 471488, 
            "target" : 34962
        }, 
        {
            "buffer" : 0, 
            "byteLength" : 26952, 
            "byteOffset" : 488752, 
            "target" : 34963
        }, 
        {
            "buffer" : 0, 
            "byteLength" : 27852, 
            "byteOffset" : 515704, 
            "target" : 34962
        }, 
        {
            "buffer" : 0, 
            "byteLength" : 27852, 
            "byteOffset" : 543556, 
            "target" : 34962
        }, 
        {
            "buffer" : 0, 
            "byteLength" : 28, 
            "byteOffset" : 571408
        }, 
        {
            "buffer" : 0, 
            "byteLength" : 252, 
            "byteOffset" : 571436
        }, 
        {
            "buffer" : 0, 
            "byteLength" : 364, 
            "byteOffset" : 571688
        }, 
        {
            "buffer" : 0, 
            "byteLength" : 1456, 
            "byteOffset" : 572052
        }
    ], 
    "buffers" : [
        {
            "byteLength" : 573508, 
            "uri" : "cup.bin"
        }
    ], 
    "images" : [
        {
            "uri" : "u.png"
        }
    ], 
    "materials" : [
        {
            "name" : "Material", 
            "pbrMetallicRoughness" : {
                "baseColorFactor" : [
                    0.16633166322606296, 
                    0.07278478850103598, 
                    0.030847451550475524, 
                    1.0
                ], 
                "metallicFactor" : 0.0
            }
        }, 
        {
            "name" : "Material.001", 
            "pbrMetallicRoughness" : {
                "baseColorFactor" : [
                    0.3433789781239476, 
                    0.34147654088551604, 
                    0.23646023625821222, 
                    1.0
                ], 
                "metallicFactor" : 0.0
            }
        }, 
        {
            "name" : "Material.004", 
            "pbrMetallicRoughness" : {
                "baseColorFactor" : [
                    0.11716523345060992, 
                    0.12274517003812146, 
                    0.13011236384678426, 
                    1.0
                ], 
                "metallicFactor" : 0.0
            }
        }, 
        {
            "name" : "Material.009", 
            "pbrMetallicRoughness" : {
                "baseColorFactor" : [
                    0.6400000190734865, 
                    0.6400000190734865, 
                    0.6400000190734865, 
                    1.0
                ], 
                "metallicFactor" : 0.0
            }
        }, 
        {
            "name" : "Material.010", 
            "pbrMetallicRoughness" : {
                "baseColorFactor" : [
                    0.6400000190734865, 
                    0.6400000190734865, 
                    0.6400000190734865, 
                    1.0
                ], 
                "baseColorTexture" : {
                    "index" : 0
                }, 
                "metallicFactor" : 0.0
            }
        }, 
        {
            "name" : "Material.015", 
            "pbrMetallicRoughness" : {
                "baseColorFactor" : [
                    0.3215822983023866, 
                    0.3928166686418155, 
                    0.09563077234671669, 
                    1.0
                ], 
                "metallicFactor" : 0.0
            }
        }
    ], 
    "meshes" : [
        {
            "name" : "Cylinder.002", 
            "primitives" : [
                {
                    "attributes" : {
                        "NORMAL" : 2, 
                        "POSITION" : 1
                    }, 
                    "indices" : 0, 
                    "material" : 2
                }, 
                {
                    "attributes" : {
                        "NORMAL" : 5, 
                        "POSITION" : 4
                    }, 
                    "indices" : 3, 
                    "material" : 0
                }
            ]
        }, 
        {
            "name" : "Untitled.002", 
            "primitives" : [
                {
                    "attributes" : {
                        "NORMAL" : 8, 
                        "POSITION" : 7, 
                        "TANGENT" : 9, 
                        "TEXCOORD_0" : 10
                    }, 
                    "indices" : 6, 
                    "material" : 5
                }
            ]
        }, 
        {
            "name" : "Untitled.004", 
            "primitives" : [
                {
                    "attributes" : {
                        "NORMAL" : 13, 
                        "POSITION" : 12, 
                        "TANGENT" : 14, 
                        "TEXCOORD_0" : 15, 
                        "TEXCOORD_1" : 16, 
                        "TEXCOORD_2" : 17
                    }, 
                    "indices" : 11, 
                    "material" : 4
                }
            ]
        }, 
        {
            "name" : "Cylinder.003", 
            "primitives" : [
                {
                    "attributes" : {
                        "NORMAL" : 20, 
                        "POSITION" : 19
                    }, 
                    "indices" : 18, 
                    "material" : 1
                }
            ]
        }
    ], 
    "nodes" : [
        {
            "mesh" : 0, 
            "name" : "Cylinder", 
            "scale" : [
                0.37927260994911194, 
                0.37927260994911194, 
                0.37927260994911194
            ], 
            "translation" : [
                -0.0018601601477712393, 
                -0.2764670252799988, 
                0.001587989623658359
            ]
        }, 
        {
            "mesh" : 1, 
            "name" : "Cylinder.001", 
            "rotation" : [
                0.7071067094802856, 
                0.00030880520353093743, 
                -0.0003088052326347679, 
                0.7071067094802856
            ], 
            "scale" : [
                1.2676385641098022, 
                1.2676385641098022, 
                1.2676388025283813
            ], 
            "translation" : [
                0.010862343944609165, 
                -0.16068744659423828, 
                -0.34860435128211975
            ]
        }, 
        {
            "mesh" : 3, 
            "name" : "Cylinder.007", 
            "scale" : [
                0.8253709077835083, 
                0.09980891644954681, 
                0.18609490990638733
            ], 
            "translation" : [
                -0.004133325070142746, 
                -0.6826141476631165, 
                -0.08305196464061737
            ]
        }, 
        {
            "mesh" : 2, 
            "name" : "Cylinder_2", 
            "rotation" : [
                0.7071067094802856, 
                0.000308805174427107, 
                -0.00030880520353093743, 
                0.7071067094802856
            ], 
            "scale" : [
                1.267638921737671, 
                1.621588110923767, 
                1.2676388025283813
            ], 
            "translation" : [
                0.010862343944609165, 
                -0.16068744659423828, 
                -0.34860435128211975
            ]
        }
    ], 
    "samplers" : [
        {}
    ], 
    "scene" : 0, 
    "scenes" : [
        {
            "name" : "Scene", 
            "nodes" : [
                1, 
                3, 
                2, 
                0
            ]
        }
    ], 
    "textures" : [
        {
            "sampler" : 0, 
            "source" : 0
        }
    ]
}
