{
    "accessors" : [
        {
            "bufferView" : 0, 
            "componentType" : 5123, 
            "count" : 8220, 
            "max" : [
                1821
            ], 
            "min" : [
                0
            ], 
            "type" : "SCALAR"
        }, 
        {
            "bufferView" : 1, 
            "componentType" : 5126, 
            "count" : 1822, 
            "max" : [
                0.41593316197395325, 
                0.06499999761581421, 
                -0.18546439707279205
            ], 
            "min" : [
                0.06549099087715149, 
                -0.06499999761581421, 
                -0.2804798483848572
            ], 
            "type" : "VEC3"
        }, 
        {
            "bufferView" : 2, 
            "componentType" : 5126, 
            "count" : 1822, 
            "max" : [
                1.0, 
                1.0, 
                0.99993896484375
            ], 
            "min" : [
                -1.0, 
                -1.0, 
                -0.99993896484375
            ], 
            "type" : "VEC3"
        }, 
        {
            "bufferView" : 3, 
            "componentType" : 5123, 
            "count" : 14688, 
            "max" : [
                3283
            ], 
            "min" : [
                0
            ], 
            "type" : "SCALAR"
        }, 
        {
            "bufferView" : 4, 
            "componentType" : 5126, 
            "count" : 3284, 
            "max" : [
                0.2213057279586792, 
                -1.271069049835205e-05, 
                0.5271426439285278
            ], 
            "min" : [
                -0.17867779731750488, 
                -0.13001270592212677, 
                -0.04465299844741821
            ], 
            "type" : "VEC3"
        }, 
        {
            "bufferView" : 5, 
            "componentType" : 5126, 
            "count" : 3284, 
            "max" : [
                1.0, 
                1.0, 
                0.99993896484375
            ], 
            "min" : [
                -1.0, 
                -1.0, 
                -0.99993896484375
            ], 
            "type" : "VEC3"
        }, 
        {
            "bufferView" : 6, 
            "componentType" : 5123, 
            "count" : 25368, 
            "max" : [
                5688
            ], 
            "min" : [
                0
            ], 
            "type" : "SCALAR"
        }, 
        {
            "bufferView" : 7, 
            "componentType" : 5126, 
            "count" : 5689, 
            "max" : [
                0.20073199272155762, 
                0.0650000050663948, 
                0.2141028642654419
            ], 
            "min" : [
                -0.20775675773620605, 
                -0.06499999016523361, 
                -0.21837836503982544
            ], 
            "type" : "VEC3"
        }, 
        {
            "bufferView" : 8, 
            "componentType" : 5126, 
            "count" : 5689, 
            "max" : [
                0.999969482421875, 
                1.0, 
                0.999969482421875
            ], 
            "min" : [
                -0.999969482421875, 
                -1.0, 
                -1.0
            ], 
            "type" : "VEC3"
        }, 
        {
            "bufferView" : 9, 
            "componentType" : 5126, 
            "count" : 96, 
            "max" : [
                3.9583333333333335
            ], 
            "min" : [
                0.0
            ], 
            "type" : "SCALAR"
        }, 
        {
            "bufferView" : 10, 
            "componentType" : 5126, 
            "count" : 96, 
            "max" : [
                1.4382749795913696, 
                0.5254237651824951, 
                0.17880874872207642
            ], 
            "min" : [
                1.4382749795913696, 
                0.5254237651824951, 
                0.17880874872207642
            ], 
            "type" : "VEC3"
        }, 
        {
            "bufferView" : 11, 
            "componentType" : 5126, 
            "count" : 96, 
            "max" : [
                3.9583333333333335
            ], 
            "min" : [
                0.0
            ], 
            "type" : "SCALAR"
        }, 
        {
            "bufferView" : 12, 
            "componentType" : 5126, 
            "count" : 96, 
            "max" : [
                0.7071067690849304, 
                0.1245977059006691, 
                0.12459773570299149, 
                0.7071067690849304
            ], 
            "min" : [
                0.6864055395126343, 
                -0.16984523832798004, 
                -0.16984526813030243, 
                0.6864055395126343
            ], 
            "type" : "VEC4"
        }, 
        {
            "bufferView" : 13, 
            "componentType" : 5126, 
            "count" : 7, 
            "max" : [
                3.9583333333333335
            ], 
            "min" : [
                0.0
            ], 
            "type" : "SCALAR"
        }, 
        {
            "bufferView" : 14, 
            "componentType" : 5126, 
            "count" : 21, 
            "max" : [
                1.0, 
                1.0, 
                1.0
            ], 
            "min" : [
                0.0, 
                0.0, 
                0.0
            ], 
            "type" : "VEC3"
        }, 
        {
            "bufferView" : 15, 
            "componentType" : 5126, 
            "count" : 96, 
            "max" : [
                3.9583333333333335
            ], 
            "min" : [
                0.0
            ], 
            "type" : "SCALAR"
        }, 
        {
            "bufferView" : 16, 
            "componentType" : 5126, 
            "count" : 96, 
            "max" : [
                2.850741386413574, 
                0.46970558166503906, 
                0.11379604786634445
            ], 
            "min" : [
                2.0224671363830566, 
                0.19820988178253174, 
                0.11379601806402206
            ], 
            "type" : "VEC3"
        }, 
        {
            "bufferView" : 17, 
            "componentType" : 5126, 
            "count" : 96, 
            "max" : [
                3.9583333333333335
            ], 
            "min" : [
                0.0
            ], 
            "type" : "SCALAR"
        }, 
        {
            "bufferView" : 18, 
            "componentType" : 5126, 
            "count" : 96, 
            "max" : [
                0.7071067690849304, 
                0.0, 
                -0.0, 
                0.7071067690849304
            ], 
            "min" : [
                0.7071067690849304, 
                0.0, 
                -0.0, 
                0.7071067690849304
            ], 
            "type" : "VEC4"
        }, 
        {
            "bufferView" : 19, 
            "componentType" : 5126, 
            "count" : 4, 
            "max" : [
                3.9583333333333335
            ], 
            "min" : [
                0.0
            ], 
            "type" : "SCALAR"
        }, 
        {
            "bufferView" : 20, 
            "componentType" : 5126, 
            "count" : 12, 
            "max" : [
                1.0, 
                1.0, 
                1.0
            ], 
            "min" : [
                0.0, 
                0.0, 
                0.0
            ], 
            "type" : "VEC3"
        }
    ], 
    "animations" : [
        {
            "channels" : [
                {
                    "sampler" : 0, 
                    "target" : {
                        "node" : 1, 
                        "path" : "translation"
                    }
                }, 
                {
                    "sampler" : 1, 
                    "target" : {
                        "node" : 1, 
                        "path" : "rotation"
                    }
                }, 
                {
                    "sampler" : 2, 
                    "target" : {
                        "node" : 1, 
                        "path" : "scale"
                    }
                }, 
                {
                    "sampler" : 3, 
                    "target" : {
                        "node" : 2, 
                        "path" : "translation"
                    }
                }, 
                {
                    "sampler" : 4, 
                    "target" : {
                        "node" : 2, 
                        "path" : "rotation"
                    }
                }, 
                {
                    "sampler" : 5, 
                    "target" : {
                        "node" : 2, 
                        "path" : "scale"
                    }
                }
            ], 
            "samplers" : [
                {
                    "input" : 9, 
                    "interpolation" : "LINEAR", 
                    "output" : 10
                }, 
                {
                    "input" : 11, 
                    "interpolation" : "LINEAR", 
                    "output" : 12
                }, 
                {
                    "input" : 13, 
                    "interpolation" : "CUBICSPLINE", 
                    "output" : 14
                }, 
                {
                    "input" : 15, 
                    "interpolation" : "LINEAR", 
                    "output" : 16
                }, 
                {
                    "input" : 17, 
                    "interpolation" : "LINEAR", 
                    "output" : 18
                }, 
                {
                    "input" : 19, 
                    "interpolation" : "CUBICSPLINE", 
                    "output" : 20
                }
            ]
        }
    ], 
    "asset" : {
        "generator" : "Khronos Blender glTF 2.0 exporter", 
        "version" : "2.0"
    }, 
    "bufferViews" : [
        {
            "buffer" : 0, 
            "byteLength" : 16440, 
            "byteOffset" : 0, 
            "target" : 34963
        }, 
        {
            "buffer" : 0, 
            "byteLength" : 21864, 
            "byteOffset" : 16440, 
            "target" : 34962
        }, 
        {
            "buffer" : 0, 
            "byteLength" : 21864, 
            "byteOffset" : 38304, 
            "target" : 34962
        }, 
        {
            "buffer" : 0, 
            "byteLength" : 29376, 
            "byteOffset" : 60168, 
            "target" : 34963
        }, 
        {
            "buffer" : 0, 
            "byteLength" : 39408, 
            "byteOffset" : 89544, 
            "target" : 34962
        }, 
        {
            "buffer" : 0, 
            "byteLength" : 39408, 
            "byteOffset" : 128952, 
            "target" : 34962
        }, 
        {
            "buffer" : 0, 
            "byteLength" : 50736, 
            "byteOffset" : 168360, 
            "target" : 34963
        }, 
        {
            "buffer" : 0, 
            "byteLength" : 68268, 
            "byteOffset" : 219096, 
            "target" : 34962
        }, 
        {
            "buffer" : 0, 
            "byteLength" : 68268, 
            "byteOffset" : 287364, 
            "target" : 34962
        }, 
        {
            "buffer" : 0, 
            "byteLength" : 384, 
            "byteOffset" : 355632
        }, 
        {
            "buffer" : 0, 
            "byteLength" : 1152, 
            "byteOffset" : 356016
        }, 
        {
            "buffer" : 0, 
            "byteLength" : 384, 
            "byteOffset" : 357168
        }, 
        {
            "buffer" : 0, 
            "byteLength" : 1536, 
            "byteOffset" : 357552
        }, 
        {
            "buffer" : 0, 
            "byteLength" : 28, 
            "byteOffset" : 359088
        }, 
        {
            "buffer" : 0, 
            "byteLength" : 252, 
            "byteOffset" : 359116
        }, 
        {
            "buffer" : 0, 
            "byteLength" : 384, 
            "byteOffset" : 359368
        }, 
        {
            "buffer" : 0, 
            "byteLength" : 1152, 
            "byteOffset" : 359752
        }, 
        {
            "buffer" : 0, 
            "byteLength" : 384, 
            "byteOffset" : 360904
        }, 
        {
            "buffer" : 0, 
            "byteLength" : 1536, 
            "byteOffset" : 361288
        }, 
        {
            "buffer" : 0, 
            "byteLength" : 16, 
            "byteOffset" : 362824
        }, 
        {
            "buffer" : 0, 
            "byteLength" : 144, 
            "byteOffset" : 362840
        }
    ], 
    "buffers" : [
        {
            "byteLength" : 362984, 
            "uri" : "-le.bin"
        }
    ], 
    "materials" : [
        {
            "name" : "BLUE", 
            "pbrMetallicRoughness" : {
                "baseColorFactor" : [
                    0.04516454406327819, 
                    0.18922394796049513, 
                    0.4221725526775799, 
                    1.0
                ], 
                "metallicFactor" : 0.0
            }
        }, 
        {
            "name" : "GREEN", 
            "pbrMetallicRoughness" : {
                "baseColorFactor" : [
                    0.03808404860025716, 
                    0.38158934684975954, 
                    0.021287077982531155, 
                    1.0
                ], 
                "metallicFactor" : 0.0
            }
        }, 
        {
            "name" : "Material.001", 
            "pbrMetallicRoughness" : {
                "baseColorFactor" : [
                    0.04177363279124546, 
                    0.04177363279124546, 
                    0.04177363279124546, 
                    1.0
                ], 
                "metallicFactor" : 0.0
            }
        }
    ], 
    "meshes" : [
        {
            "name" : "CUText.004", 
            "primitives" : [
                {
                    "attributes" : {
                        "NORMAL" : 2, 
                        "POSITION" : 1
                    }, 
                    "indices" : 0, 
                    "material" : 2
                }
            ]
        }, 
        {
            "name" : "ble", 
            "primitives" : [
                {
                    "attributes" : {
                        "NORMAL" : 5, 
                        "POSITION" : 4
                    }, 
                    "indices" : 3, 
                    "material" : 0
                }
            ]
        }, 
        {
            "name" : "ble.003", 
            "primitives" : [
                {
                    "attributes" : {
                        "NORMAL" : 8, 
                        "POSITION" : 7
                    }, 
                    "indices" : 6, 
                    "material" : 1
                }
            ]
        }
    ], 
    "nodes" : [
        {
            "mesh" : 0, 
            "name" : "Text.003", 
            "rotation" : [
                0.7071068286895752, 
                0.0, 
                -0.0, 
                0.7071068286895752
            ], 
            "translation" : [
                0.6347563862800598, 
                0.005411624908447266, 
                0.11379601061344147
            ]
        }, 
        {
            "mesh" : 1, 
            "name" : "Text.004", 
            "rotation" : [
                0.7071068286895752, 
                0.0, 
                -0.0, 
                0.7071068286895752
            ], 
            "translation" : [
                1.4382749795913696, 
                0.5254237651824951, 
                0.17880874872207642
            ]
        }, 
        {
            "mesh" : 2, 
            "name" : "Text.008", 
            "rotation" : [
                0.7071068286895752, 
                0.0, 
                -0.0, 
                0.7071068286895752
            ], 
            "translation" : [
                2.0224671363830566, 
                0.19820988178253174, 
                0.11379601806402206
            ]
        }
    ], 
    "scene" : 0, 
    "scenes" : [
        {
            "name" : "Scene", 
            "nodes" : [
                0, 
                1, 
                2
            ]
        }
    ]
}
