{
    "accessors" : [
        {
            "bufferView" : 0, 
            "componentType" : 5123, 
            "count" : 25368, 
            "max" : [
                5674
            ], 
            "min" : [
                0
            ], 
            "type" : "SCALAR"
        }, 
        {
            "bufferView" : 1, 
            "componentType" : 5126, 
            "count" : 5675, 
            "max" : [
                1.4066442251205444, 
                0.06499999761581421, 
                0.022741610184311867
            ], 
            "min" : [
                0.9981555938720703, 
                -0.06499999761581421, 
                -0.40973961353302
            ], 
            "type" : "VEC3"
        }, 
        {
            "bufferView" : 2, 
            "componentType" : 5126, 
            "count" : 5675, 
            "max" : [
                0.999969482421875, 
                1.0, 
                0.999969482421875
            ], 
            "min" : [
                -0.999969482421875, 
                -1.0, 
                -1.0
            ], 
            "type" : "VEC3"
        }, 
        {
            "bufferView" : 3, 
            "componentType" : 5123, 
            "count" : 34356, 
            "max" : [
                7696
            ], 
            "min" : [
                0
            ], 
            "type" : "SCALAR"
        }, 
        {
            "bufferView" : 4, 
            "componentType" : 5126, 
            "count" : 7697, 
            "max" : [
                0.18498378992080688, 
                0.06499999761581421, 
                0.3634055554866791
            ], 
            "min" : [
                -0.20569950342178345, 
                -0.06499999761581421, 
                -0.2948090434074402
            ], 
            "type" : "VEC3"
        }, 
        {
            "bufferView" : 5, 
            "componentType" : 5126, 
            "count" : 7697, 
            "max" : [
                1.0, 
                1.0, 
                0.999969482421875
            ], 
            "min" : [
                -1.0, 
                -1.0, 
                -0.999969482421875
            ], 
            "type" : "VEC3"
        }, 
        {
            "bufferView" : 6, 
            "componentType" : 5123, 
            "count" : 24852, 
            "max" : [
                5537
            ], 
            "min" : [
                0
            ], 
            "type" : "SCALAR"
        }, 
        {
            "bufferView" : 7, 
            "componentType" : 5126, 
            "count" : 5538, 
            "max" : [
                1.891945242881775, 
                0.06499999761581421, 
                0.022741474211215973
            ], 
            "min" : [
                1.4671927690505981, 
                -0.06499999761581421, 
                -0.5645420551300049
            ], 
            "type" : "VEC3"
        }, 
        {
            "bufferView" : 8, 
            "componentType" : 5126, 
            "count" : 5538, 
            "max" : [
                0.999969482421875, 
                1.0, 
                0.999969482421875
            ], 
            "min" : [
                -0.999969482421875, 
                -1.0, 
                -0.999969482421875
            ], 
            "type" : "VEC3"
        }, 
        {
            "bufferView" : 9, 
            "componentType" : 5123, 
            "count" : 26292, 
            "max" : [
                5829
            ], 
            "min" : [
                0
            ], 
            "type" : "SCALAR"
        }, 
        {
            "bufferView" : 10, 
            "componentType" : 5126, 
            "count" : 5830, 
            "max" : [
                0.1911330223083496, 
                0.06499999761581421, 
                0.25332576036453247
            ], 
            "min" : [
                -0.20109808444976807, 
                -0.06499999761581421, 
                -0.17915603518486023
            ], 
            "type" : "VEC3"
        }, 
        {
            "bufferView" : 11, 
            "componentType" : 5126, 
            "count" : 5830, 
            "max" : [
                0.999969482421875, 
                1.0, 
                0.999969482421875
            ], 
            "min" : [
                -1.0, 
                -1.0, 
                -1.0
            ], 
            "type" : "VEC3"
        }, 
        {
            "bufferView" : 12, 
            "componentType" : 5126, 
            "count" : 141, 
            "max" : [
                5.833333333333333
            ], 
            "min" : [
                0.0
            ], 
            "type" : "SCALAR"
        }, 
        {
            "bufferView" : 13, 
            "componentType" : 5126, 
            "count" : 141, 
            "max" : [
                0.9986770153045654, 
                0.7125694751739502, 
                -0.0
            ], 
            "min" : [
                0.0, 
                0.0, 
                -0.0
            ], 
            "type" : "VEC3"
        }, 
        {
            "bufferView" : 14, 
            "componentType" : 5126, 
            "count" : 141, 
            "max" : [
                5.833333333333333
            ], 
            "min" : [
                0.0
            ], 
            "type" : "SCALAR"
        }, 
        {
            "bufferView" : 15, 
            "componentType" : 5126, 
            "count" : 141, 
            "max" : [
                1.0, 
                1.0, 
                1.2769943475723267
            ], 
            "min" : [
                1.0, 
                1.0, 
                0.7401978373527527
            ], 
            "type" : "VEC3"
        }, 
        {
            "bufferView" : 16, 
            "componentType" : 5126, 
            "count" : 6, 
            "max" : [
                5.833333333333333
            ], 
            "min" : [
                0.0
            ], 
            "type" : "SCALAR"
        }, 
        {
            "bufferView" : 17, 
            "componentType" : 5126, 
            "count" : 18, 
            "max" : [
                0.0, 
                0.0, 
                -0.0
            ], 
            "min" : [
                -0.46560871601104736, 
                0.0, 
                -0.0
            ], 
            "type" : "VEC3"
        }, 
        {
            "bufferView" : 18, 
            "componentType" : 5126, 
            "count" : 141, 
            "max" : [
                5.833333333333333
            ], 
            "min" : [
                0.0
            ], 
            "type" : "SCALAR"
        }, 
        {
            "bufferView" : 19, 
            "componentType" : 5126, 
            "count" : 141, 
            "max" : [
                0.7071067690849304, 
                0.0, 
                -0.0, 
                0.7071067690849304
            ], 
            "min" : [
                0.7071067690849304, 
                0.0, 
                -0.0, 
                0.7071067690849304
            ], 
            "type" : "VEC4"
        }, 
        {
            "bufferView" : 20, 
            "componentType" : 5126, 
            "count" : 6, 
            "max" : [
                5.833333333333333
            ], 
            "min" : [
                0.0
            ], 
            "type" : "SCALAR"
        }, 
        {
            "bufferView" : 21, 
            "componentType" : 5126, 
            "count" : 18, 
            "max" : [
                1.0, 
                1.0, 
                1.0
            ], 
            "min" : [
                0.0, 
                0.0, 
                0.0
            ], 
            "type" : "VEC3"
        }
    ], 
    "animations" : [
        {
            "channels" : [
                {
                    "sampler" : 0, 
                    "target" : {
                        "node" : 0, 
                        "path" : "translation"
                    }
                }, 
                {
                    "sampler" : 1, 
                    "target" : {
                        "node" : 0, 
                        "path" : "scale"
                    }
                }, 
                {
                    "sampler" : 2, 
                    "target" : {
                        "node" : 2, 
                        "path" : "translation"
                    }
                }, 
                {
                    "sampler" : 3, 
                    "target" : {
                        "node" : 2, 
                        "path" : "rotation"
                    }
                }, 
                {
                    "sampler" : 4, 
                    "target" : {
                        "node" : 2, 
                        "path" : "scale"
                    }
                }
            ], 
            "samplers" : [
                {
                    "input" : 12, 
                    "interpolation" : "LINEAR", 
                    "output" : 13
                }, 
                {
                    "input" : 14, 
                    "interpolation" : "LINEAR", 
                    "output" : 15
                }, 
                {
                    "input" : 16, 
                    "interpolation" : "CUBICSPLINE", 
                    "output" : 17
                }, 
                {
                    "input" : 18, 
                    "interpolation" : "LINEAR", 
                    "output" : 19
                }, 
                {
                    "input" : 20, 
                    "interpolation" : "CUBICSPLINE", 
                    "output" : 21
                }
            ]
        }
    ], 
    "asset" : {
        "generator" : "Khronos Blender glTF 2.0 exporter", 
        "version" : "2.0"
    }, 
    "bufferViews" : [
        {
            "buffer" : 0, 
            "byteLength" : 50736, 
            "byteOffset" : 0, 
            "target" : 34963
        }, 
        {
            "buffer" : 0, 
            "byteLength" : 68100, 
            "byteOffset" : 50736, 
            "target" : 34962
        }, 
        {
            "buffer" : 0, 
            "byteLength" : 68100, 
            "byteOffset" : 118836, 
            "target" : 34962
        }, 
        {
            "buffer" : 0, 
            "byteLength" : 68712, 
            "byteOffset" : 186936, 
            "target" : 34963
        }, 
        {
            "buffer" : 0, 
            "byteLength" : 92364, 
            "byteOffset" : 255648, 
            "target" : 34962
        }, 
        {
            "buffer" : 0, 
            "byteLength" : 92364, 
            "byteOffset" : 348012, 
            "target" : 34962
        }, 
        {
            "buffer" : 0, 
            "byteLength" : 49704, 
            "byteOffset" : 440376, 
            "target" : 34963
        }, 
        {
            "buffer" : 0, 
            "byteLength" : 66456, 
            "byteOffset" : 490080, 
            "target" : 34962
        }, 
        {
            "buffer" : 0, 
            "byteLength" : 66456, 
            "byteOffset" : 556536, 
            "target" : 34962
        }, 
        {
            "buffer" : 0, 
            "byteLength" : 52584, 
            "byteOffset" : 622992, 
            "target" : 34963
        }, 
        {
            "buffer" : 0, 
            "byteLength" : 69960, 
            "byteOffset" : 675576, 
            "target" : 34962
        }, 
        {
            "buffer" : 0, 
            "byteLength" : 69960, 
            "byteOffset" : 745536, 
            "target" : 34962
        }, 
        {
            "buffer" : 0, 
            "byteLength" : 564, 
            "byteOffset" : 815496
        }, 
        {
            "buffer" : 0, 
            "byteLength" : 1692, 
            "byteOffset" : 816060
        }, 
        {
            "buffer" : 0, 
            "byteLength" : 564, 
            "byteOffset" : 817752
        }, 
        {
            "buffer" : 0, 
            "byteLength" : 1692, 
            "byteOffset" : 818316
        }, 
        {
            "buffer" : 0, 
            "byteLength" : 24, 
            "byteOffset" : 820008
        }, 
        {
            "buffer" : 0, 
            "byteLength" : 216, 
            "byteOffset" : 820032
        }, 
        {
            "buffer" : 0, 
            "byteLength" : 564, 
            "byteOffset" : 820248
        }, 
        {
            "buffer" : 0, 
            "byteLength" : 2256, 
            "byteOffset" : 820812
        }, 
        {
            "buffer" : 0, 
            "byteLength" : 24, 
            "byteOffset" : 823068
        }, 
        {
            "buffer" : 0, 
            "byteLength" : 216, 
            "byteOffset" : 823092
        }
    ], 
    "buffers" : [
        {
            "byteLength" : 823308, 
            "uri" : "silentEHop.bin"
        }
    ], 
    "materials" : [
        {
            "name" : "Material.001", 
            "pbrMetallicRoughness" : {
                "baseColorFactor" : [
                    0.08081239582318656, 
                    0.640000066757203, 
                    0.0679629395598611, 
                    1.0
                ], 
                "metallicFactor" : 0.0
            }
        }, 
        {
            "name" : "Material.002", 
            "pbrMetallicRoughness" : {
                "baseColorFactor" : [
                    0.04177353444358012, 
                    0.04177353444358012, 
                    0.04177353444358012, 
                    1.0
                ], 
                "metallicFactor" : 0.0
            }
        }, 
        {
            "name" : "Material.004", 
            "pbrMetallicRoughness" : {
                "baseColorFactor" : [
                    0.041773775842395056, 
                    0.041773775842395056, 
                    0.041773775842395056, 
                    1.0
                ], 
                "metallicFactor" : 0.0
            }
        }
    ], 
    "meshes" : [
        {
            "name" : "CUText.003", 
            "primitives" : [
                {
                    "attributes" : {
                        "NORMAL" : 2, 
                        "POSITION" : 1
                    }, 
                    "indices" : 0, 
                    "material" : 0
                }
            ]
        }, 
        {
            "name" : "CUText.004", 
            "primitives" : [
                {
                    "attributes" : {
                        "NORMAL" : 5, 
                        "POSITION" : 4
                    }, 
                    "indices" : 3, 
                    "material" : 1
                }
            ]
        }, 
        {
            "name" : "CUText", 
            "primitives" : [
                {
                    "attributes" : {
                        "NORMAL" : 8, 
                        "POSITION" : 7
                    }, 
                    "indices" : 6, 
                    "material" : 2
                }
            ]
        }, 
        {
            "name" : "CUText.008", 
            "primitives" : [
                {
                    "attributes" : {
                        "NORMAL" : 11, 
                        "POSITION" : 10
                    }, 
                    "indices" : 9, 
                    "material" : 0
                }
            ]
        }
    ], 
    "nodes" : [
        {
            "mesh" : 0, 
            "name" : "e", 
            "rotation" : [
                0.7071068286895752, 
                0.0, 
                -0.0, 
                0.7071068286895752
            ]
        }, 
        {
            "mesh" : 1, 
            "name" : "G", 
            "rotation" : [
                0.7071068286895752, 
                0.0, 
                -0.0, 
                0.7071068286895752
            ], 
            "translation" : [
                0.23277080059051514, 
                0.11492982506752014, 
                5.0476103297114605e-09
            ]
        }, 
        {
            "mesh" : 2, 
            "name" : "t", 
            "rotation" : [
                0.7071068286895752, 
                0.0, 
                -0.0, 
                0.7071068286895752
            ]
        }, 
        {
            "mesh" : 3, 
            "name" : "Text.003", 
            "rotation" : [
                0.7071068286895752, 
                0.0, 
                -0.0, 
                0.7071068286895752
            ], 
            "translation" : [
                0.7192028164863586, 
                0.22997695207595825, 
                1.0213955903282113e-08
            ]
        }
    ], 
    "scene" : 0, 
    "scenes" : [
        {
            "name" : "Scene", 
            "nodes" : [
                3, 
                0, 
                2, 
                1
            ]
        }
    ]
}
