{
    "accessors" : [
        {
            "bufferView" : 0, 
            "componentType" : 5123, 
            "count" : 54480, 
            "max" : [
                12159
            ], 
            "min" : [
                0
            ], 
            "type" : "SCALAR"
        }, 
        {
            "bufferView" : 1, 
            "componentType" : 5126, 
            "count" : 12160, 
            "max" : [
                1.5826470851898193, 
                0.06499999761581421, 
                0.02274327352643013
            ], 
            "min" : [
                0.06549099087715149, 
                -0.06499999761581421, 
                -0.5645370483398438
            ], 
            "type" : "VEC3"
        }, 
        {
            "bufferView" : 2, 
            "componentType" : 5126, 
            "count" : 12160, 
            "max" : [
                1.0, 
                1.0, 
                1.0
            ], 
            "min" : [
                -1.0, 
                -1.0, 
                -1.0
            ], 
            "type" : "VEC3"
        }, 
        {
            "bufferView" : 3, 
            "componentType" : 5123, 
            "count" : 12672, 
            "max" : [
                2820
            ], 
            "min" : [
                0
            ], 
            "type" : "SCALAR"
        }, 
        {
            "bufferView" : 4, 
            "componentType" : 5126, 
            "count" : 2821, 
            "max" : [
                0.212442547082901, 
                0.0650000050663948, 
                0.24515274167060852
            ], 
            "min" : [
                -0.17594872415065765, 
                -0.06499999016523361, 
                -0.3266470432281494
            ], 
            "type" : "VEC3"
        }, 
        {
            "bufferView" : 5, 
            "componentType" : 5126, 
            "count" : 2821, 
            "max" : [
                1.0, 
                1.0, 
                0.999969482421875
            ], 
            "min" : [
                -0.999969482421875, 
                -1.0, 
                -0.999908447265625
            ], 
            "type" : "VEC3"
        }, 
        {
            "bufferView" : 6, 
            "componentType" : 5123, 
            "count" : 14688, 
            "max" : [
                3282
            ], 
            "min" : [
                0
            ], 
            "type" : "SCALAR"
        }, 
        {
            "bufferView" : 7, 
            "componentType" : 5126, 
            "count" : 3283, 
            "max" : [
                0.2144995927810669, 
                0.0650000050663948, 
                0.24596093595027924
            ], 
            "min" : [
                -0.18548381328582764, 
                -0.06499999016523361, 
                -0.325834721326828
            ], 
            "type" : "VEC3"
        }, 
        {
            "bufferView" : 8, 
            "componentType" : 5126, 
            "count" : 3283, 
            "max" : [
                1.0, 
                1.0, 
                0.99993896484375
            ], 
            "min" : [
                -1.0, 
                -1.0, 
                -0.99993896484375
            ], 
            "type" : "VEC3"
        }, 
        {
            "bufferView" : 9, 
            "componentType" : 5126, 
            "count" : 9, 
            "max" : [
                4.166666666666667
            ], 
            "min" : [
                0.0
            ], 
            "type" : "SCALAR"
        }, 
        {
            "bufferView" : 10, 
            "componentType" : 5126, 
            "count" : 27, 
            "max" : [
                1.9882785081863403, 
                0.2309609353542328, 
                3.493787481545496e-09
            ], 
            "min" : [
                0.0, 
                0.0, 
                -0.0
            ], 
            "type" : "VEC3"
        }, 
        {
            "bufferView" : 11, 
            "componentType" : 5126, 
            "count" : 101, 
            "max" : [
                4.166666666666667
            ], 
            "min" : [
                0.0
            ], 
            "type" : "SCALAR"
        }, 
        {
            "bufferView" : 12, 
            "componentType" : 5126, 
            "count" : 101, 
            "max" : [
                0.7082979083061218, 
                0.05752962827682495, 
                0.06528985500335693, 
                0.7081493735313416
            ], 
            "min" : [
                0.7009735703468323, 
                -0.05752963572740555, 
                -0.06528985500335693, 
                0.7009735703468323
            ], 
            "type" : "VEC4"
        }, 
        {
            "bufferView" : 13, 
            "componentType" : 5126, 
            "count" : 9, 
            "max" : [
                4.166666666666667
            ], 
            "min" : [
                0.0
            ], 
            "type" : "SCALAR"
        }, 
        {
            "bufferView" : 14, 
            "componentType" : 5126, 
            "count" : 27, 
            "max" : [
                1.0, 
                1.0, 
                1.0
            ], 
            "min" : [
                0.0, 
                0.0, 
                0.0
            ], 
            "type" : "VEC3"
        }, 
        {
            "bufferView" : 15, 
            "componentType" : 5126, 
            "count" : 9, 
            "max" : [
                4.166666666666667
            ], 
            "min" : [
                0.0
            ], 
            "type" : "SCALAR"
        }, 
        {
            "bufferView" : 16, 
            "componentType" : 5126, 
            "count" : 27, 
            "max" : [
                1.9838625192642212, 
                0.35904523730278015, 
                0.028464073315262794
            ], 
            "min" : [
                0.0, 
                -0.27398228645324707, 
                -0.0
            ], 
            "type" : "VEC3"
        }, 
        {
            "bufferView" : 17, 
            "componentType" : 5126, 
            "count" : 101, 
            "max" : [
                4.166666666666667
            ], 
            "min" : [
                0.0
            ], 
            "type" : "SCALAR"
        }, 
        {
            "bufferView" : 18, 
            "componentType" : 5126, 
            "count" : 101, 
            "max" : [
                0.7071067690849304, 
                0.0, 
                -0.0, 
                0.7071067690849304
            ], 
            "min" : [
                0.7071067690849304, 
                0.0, 
                -0.0, 
                0.7071067690849304
            ], 
            "type" : "VEC4"
        }, 
        {
            "bufferView" : 19, 
            "componentType" : 5126, 
            "count" : 9, 
            "max" : [
                4.166666666666667
            ], 
            "min" : [
                0.0
            ], 
            "type" : "SCALAR"
        }, 
        {
            "bufferView" : 20, 
            "componentType" : 5126, 
            "count" : 27, 
            "max" : [
                1.1793123483657837, 
                1.1793123483657837, 
                1.4461590051651
            ], 
            "min" : [
                0.0, 
                0.0, 
                0.0
            ], 
            "type" : "VEC3"
        }
    ], 
    "animations" : [
        {
            "channels" : [
                {
                    "sampler" : 0, 
                    "target" : {
                        "node" : 1, 
                        "path" : "translation"
                    }
                }, 
                {
                    "sampler" : 1, 
                    "target" : {
                        "node" : 1, 
                        "path" : "rotation"
                    }
                }, 
                {
                    "sampler" : 2, 
                    "target" : {
                        "node" : 1, 
                        "path" : "scale"
                    }
                }, 
                {
                    "sampler" : 3, 
                    "target" : {
                        "node" : 2, 
                        "path" : "translation"
                    }
                }, 
                {
                    "sampler" : 4, 
                    "target" : {
                        "node" : 2, 
                        "path" : "rotation"
                    }
                }, 
                {
                    "sampler" : 5, 
                    "target" : {
                        "node" : 2, 
                        "path" : "scale"
                    }
                }
            ], 
            "samplers" : [
                {
                    "input" : 9, 
                    "interpolation" : "CUBICSPLINE", 
                    "output" : 10
                }, 
                {
                    "input" : 11, 
                    "interpolation" : "LINEAR", 
                    "output" : 12
                }, 
                {
                    "input" : 13, 
                    "interpolation" : "CUBICSPLINE", 
                    "output" : 14
                }, 
                {
                    "input" : 15, 
                    "interpolation" : "CUBICSPLINE", 
                    "output" : 16
                }, 
                {
                    "input" : 17, 
                    "interpolation" : "LINEAR", 
                    "output" : 18
                }, 
                {
                    "input" : 19, 
                    "interpolation" : "CUBICSPLINE", 
                    "output" : 20
                }
            ]
        }
    ], 
    "asset" : {
        "generator" : "Khronos Blender glTF 2.0 exporter", 
        "version" : "2.0"
    }, 
    "bufferViews" : [
        {
            "buffer" : 0, 
            "byteLength" : 108960, 
            "byteOffset" : 0, 
            "target" : 34963
        }, 
        {
            "buffer" : 0, 
            "byteLength" : 145920, 
            "byteOffset" : 108960, 
            "target" : 34962
        }, 
        {
            "buffer" : 0, 
            "byteLength" : 145920, 
            "byteOffset" : 254880, 
            "target" : 34962
        }, 
        {
            "buffer" : 0, 
            "byteLength" : 25344, 
            "byteOffset" : 400800, 
            "target" : 34963
        }, 
        {
            "buffer" : 0, 
            "byteLength" : 33852, 
            "byteOffset" : 426144, 
            "target" : 34962
        }, 
        {
            "buffer" : 0, 
            "byteLength" : 33852, 
            "byteOffset" : 459996, 
            "target" : 34962
        }, 
        {
            "buffer" : 0, 
            "byteLength" : 29376, 
            "byteOffset" : 493848, 
            "target" : 34963
        }, 
        {
            "buffer" : 0, 
            "byteLength" : 39396, 
            "byteOffset" : 523224, 
            "target" : 34962
        }, 
        {
            "buffer" : 0, 
            "byteLength" : 39396, 
            "byteOffset" : 562620, 
            "target" : 34962
        }, 
        {
            "buffer" : 0, 
            "byteLength" : 36, 
            "byteOffset" : 602016
        }, 
        {
            "buffer" : 0, 
            "byteLength" : 324, 
            "byteOffset" : 602052
        }, 
        {
            "buffer" : 0, 
            "byteLength" : 404, 
            "byteOffset" : 602376
        }, 
        {
            "buffer" : 0, 
            "byteLength" : 1616, 
            "byteOffset" : 602780
        }, 
        {
            "buffer" : 0, 
            "byteLength" : 36, 
            "byteOffset" : 604396
        }, 
        {
            "buffer" : 0, 
            "byteLength" : 324, 
            "byteOffset" : 604432
        }, 
        {
            "buffer" : 0, 
            "byteLength" : 36, 
            "byteOffset" : 604756
        }, 
        {
            "buffer" : 0, 
            "byteLength" : 324, 
            "byteOffset" : 604792
        }, 
        {
            "buffer" : 0, 
            "byteLength" : 404, 
            "byteOffset" : 605116
        }, 
        {
            "buffer" : 0, 
            "byteLength" : 1616, 
            "byteOffset" : 605520
        }, 
        {
            "buffer" : 0, 
            "byteLength" : 36, 
            "byteOffset" : 607136
        }, 
        {
            "buffer" : 0, 
            "byteLength" : 324, 
            "byteOffset" : 607172
        }
    ], 
    "buffers" : [
        {
            "byteLength" : 607496, 
            "uri" : "-ful.bin"
        }
    ], 
    "materials" : [
        {
            "name" : "BLUE", 
            "pbrMetallicRoughness" : {
                "baseColorFactor" : [
                    0.04516454406327819, 
                    0.18922394796049513, 
                    0.4221725526775799, 
                    1.0
                ], 
                "metallicFactor" : 0.0
            }
        }, 
        {
            "name" : "Material", 
            "pbrMetallicRoughness" : {
                "baseColorFactor" : [
                    0.04177363279124546, 
                    0.04177363279124546, 
                    0.04177363279124546, 
                    1.0
                ], 
                "metallicFactor" : 0.0
            }
        }
    ], 
    "meshes" : [
        {
            "name" : "CUText", 
            "primitives" : [
                {
                    "attributes" : {
                        "NORMAL" : 2, 
                        "POSITION" : 1
                    }, 
                    "indices" : 0, 
                    "material" : 1
                }
            ]
        }, 
        {
            "name" : "CUText.002", 
            "primitives" : [
                {
                    "attributes" : {
                        "NORMAL" : 5, 
                        "POSITION" : 4
                    }, 
                    "indices" : 3, 
                    "material" : 0
                }
            ]
        }, 
        {
            "name" : "CUText.001", 
            "primitives" : [
                {
                    "attributes" : {
                        "NORMAL" : 8, 
                        "POSITION" : 7
                    }, 
                    "indices" : 6, 
                    "material" : 1
                }
            ]
        }
    ], 
    "nodes" : [
        {
            "mesh" : 0, 
            "name" : "Text", 
            "rotation" : [
                0.7071068286895752, 
                0.0, 
                -0.0, 
                0.7071068286895752
            ]
        }, 
        {
            "mesh" : 2, 
            "name" : "Text.002", 
            "rotation" : [
                0.7071068286895752, 
                0.0, 
                -0.0, 
                0.7071068286895752
            ], 
            "translation" : [
                1.9882785081863403, 
                0.2309609353542328, 
                3.493787481545496e-09
            ]
        }, 
        {
            "mesh" : 1, 
            "name" : "Text.004", 
            "rotation" : [
                0.7071068286895752, 
                0.0, 
                -0.0, 
                0.7071068286895752
            ], 
            "scale" : [
                0.11502891778945923, 
                0.11502891778945923, 
                0.11502891778945923
            ], 
            "translation" : [
                1.9838625192642212, 
                0.22898830473423004, 
                0.028464073315262794
            ]
        }
    ], 
    "scene" : 0, 
    "scenes" : [
        {
            "name" : "Scene", 
            "nodes" : [
                2, 
                1, 
                0
            ]
        }
    ]
}
