{
    "accessors" : [
        {
            "bufferView" : 0, 
            "componentType" : 5123, 
            "count" : 30960, 
            "max" : [
                6923
            ], 
            "min" : [
                0
            ], 
            "type" : "SCALAR"
        }, 
        {
            "bufferView" : 1, 
            "componentType" : 5126, 
            "count" : 6924, 
            "max" : [
                0.36329251527786255, 
                -2.436339855194092e-06, 
                0.20298871397972107
            ], 
            "min" : [
                -0.6142423152923584, 
                -0.1300024390220642, 
                -0.368813693523407
            ], 
            "type" : "VEC3"
        }, 
        {
            "bufferView" : 2, 
            "componentType" : 5126, 
            "count" : 6924, 
            "max" : [
                1.0, 
                1.0, 
                1.0
            ], 
            "min" : [
                -1.0, 
                -1.0, 
                -1.0
            ], 
            "type" : "VEC3"
        }, 
        {
            "bufferView" : 3, 
            "componentType" : 5123, 
            "count" : 46860, 
            "max" : [
                10417
            ], 
            "min" : [
                0
            ], 
            "type" : "SCALAR"
        }, 
        {
            "bufferView" : 4, 
            "componentType" : 5126, 
            "count" : 10418, 
            "max" : [
                0.4147099256515503, 
                -2.436339855194092e-06, 
                0.24124011397361755
            ], 
            "min" : [
                -0.5496577024459839, 
                -0.1300024390220642, 
                -0.19124245643615723
            ], 
            "type" : "VEC3"
        }, 
        {
            "bufferView" : 5, 
            "componentType" : 5126, 
            "count" : 10418, 
            "max" : [
                0.999969482421875, 
                1.0, 
                1.0
            ], 
            "min" : [
                -1.0, 
                -1.0, 
                -1.0
            ], 
            "type" : "VEC3"
        }, 
        {
            "bufferView" : 6, 
            "componentType" : 5123, 
            "count" : 9504, 
            "max" : [
                2491
            ], 
            "min" : [
                0
            ], 
            "type" : "SCALAR"
        }, 
        {
            "bufferView" : 7, 
            "componentType" : 5126, 
            "count" : 2492, 
            "max" : [
                0.4280329644680023, 
                0.07830405980348587, 
                0.2903089225292206
            ], 
            "min" : [
                -0.5144859552383423, 
                -0.08961012214422226, 
                -0.3507201075553894
            ], 
            "type" : "VEC3"
        }, 
        {
            "bufferView" : 8, 
            "componentType" : 5126, 
            "count" : 2492, 
            "max" : [
                0.9978331923484802, 
                1.0, 
                0.999969482421875
            ], 
            "min" : [
                -1.0, 
                -1.0, 
                -0.999969482421875
            ], 
            "type" : "VEC3"
        }, 
        {
            "bufferView" : 9, 
            "componentType" : 5123, 
            "count" : 28200, 
            "max" : [
                6249
            ], 
            "min" : [
                0
            ], 
            "type" : "SCALAR"
        }, 
        {
            "bufferView" : 10, 
            "componentType" : 5126, 
            "count" : 6250, 
            "max" : [
                0.7843203544616699, 
                0.06499999761581421, 
                0.3481404185295105
            ], 
            "min" : [
                -0.8586847186088562, 
                -0.06499999761581421, 
                -0.39704763889312744
            ], 
            "type" : "VEC3"
        }, 
        {
            "bufferView" : 11, 
            "componentType" : 5126, 
            "count" : 6250, 
            "max" : [
                1.0, 
                1.0, 
                0.999969482421875
            ], 
            "min" : [
                -1.0, 
                -1.0, 
                -0.999969482421875
            ], 
            "type" : "VEC3"
        }, 
        {
            "bufferView" : 12, 
            "componentType" : 5126, 
            "count" : 6, 
            "max" : [
                3.9583333333333335
            ], 
            "min" : [
                0.0
            ], 
            "type" : "SCALAR"
        }, 
        {
            "bufferView" : 13, 
            "componentType" : 5126, 
            "count" : 18, 
            "max" : [
                0.6757442951202393, 
                0.1883246749639511, 
                5.387598775996594e-07
            ], 
            "min" : [
                0.0, 
                0.0, 
                -0.0
            ], 
            "type" : "VEC3"
        }, 
        {
            "bufferView" : 14, 
            "componentType" : 5126, 
            "count" : 6, 
            "max" : [
                3.9583333333333335
            ], 
            "min" : [
                0.0
            ], 
            "type" : "SCALAR"
        }, 
        {
            "bufferView" : 15, 
            "componentType" : 5126, 
            "count" : 18, 
            "max" : [
                2.0462887287139893, 
                0.22163306176662445, 
                1.513249571871711e-06
            ], 
            "min" : [
                0.0, 
                0.0, 
                -0.0
            ], 
            "type" : "VEC3"
        }, 
        {
            "bufferView" : 16, 
            "componentType" : 5126, 
            "count" : 96, 
            "max" : [
                3.9583333333333335
            ], 
            "min" : [
                0.0
            ], 
            "type" : "SCALAR"
        }, 
        {
            "bufferView" : 17, 
            "componentType" : 5126, 
            "count" : 96, 
            "max" : [
                0.8539631366729736, 
                -0.39886799454689026, 
                5.387598775996594e-07
            ], 
            "min" : [
                0.5539631247520447, 
                -0.39886799454689026, 
                5.387598775996594e-07
            ], 
            "type" : "VEC3"
        }
    ], 
    "animations" : [
        {
            "channels" : [
                {
                    "sampler" : 0, 
                    "target" : {
                        "node" : 0, 
                        "path" : "translation"
                    }
                }, 
                {
                    "sampler" : 1, 
                    "target" : {
                        "node" : 1, 
                        "path" : "translation"
                    }
                }, 
                {
                    "sampler" : 2, 
                    "target" : {
                        "node" : 2, 
                        "path" : "translation"
                    }
                }
            ], 
            "samplers" : [
                {
                    "input" : 12, 
                    "interpolation" : "CUBICSPLINE", 
                    "output" : 13
                }, 
                {
                    "input" : 14, 
                    "interpolation" : "CUBICSPLINE", 
                    "output" : 15
                }, 
                {
                    "input" : 16, 
                    "interpolation" : "LINEAR", 
                    "output" : 17
                }
            ]
        }
    ], 
    "asset" : {
        "generator" : "Khronos Blender glTF 2.0 exporter", 
        "version" : "2.0"
    }, 
    "bufferViews" : [
        {
            "buffer" : 0, 
            "byteLength" : 61920, 
            "byteOffset" : 0, 
            "target" : 34963
        }, 
        {
            "buffer" : 0, 
            "byteLength" : 83088, 
            "byteOffset" : 61920, 
            "target" : 34962
        }, 
        {
            "buffer" : 0, 
            "byteLength" : 83088, 
            "byteOffset" : 145008, 
            "target" : 34962
        }, 
        {
            "buffer" : 0, 
            "byteLength" : 93720, 
            "byteOffset" : 228096, 
            "target" : 34963
        }, 
        {
            "buffer" : 0, 
            "byteLength" : 125016, 
            "byteOffset" : 321816, 
            "target" : 34962
        }, 
        {
            "buffer" : 0, 
            "byteLength" : 125016, 
            "byteOffset" : 446832, 
            "target" : 34962
        }, 
        {
            "buffer" : 0, 
            "byteLength" : 19008, 
            "byteOffset" : 571848, 
            "target" : 34963
        }, 
        {
            "buffer" : 0, 
            "byteLength" : 29904, 
            "byteOffset" : 590856, 
            "target" : 34962
        }, 
        {
            "buffer" : 0, 
            "byteLength" : 29904, 
            "byteOffset" : 620760, 
            "target" : 34962
        }, 
        {
            "buffer" : 0, 
            "byteLength" : 56400, 
            "byteOffset" : 650664, 
            "target" : 34963
        }, 
        {
            "buffer" : 0, 
            "byteLength" : 75000, 
            "byteOffset" : 707064, 
            "target" : 34962
        }, 
        {
            "buffer" : 0, 
            "byteLength" : 75000, 
            "byteOffset" : 782064, 
            "target" : 34962
        }, 
        {
            "buffer" : 0, 
            "byteLength" : 24, 
            "byteOffset" : 857064
        }, 
        {
            "buffer" : 0, 
            "byteLength" : 216, 
            "byteOffset" : 857088
        }, 
        {
            "buffer" : 0, 
            "byteLength" : 24, 
            "byteOffset" : 857304
        }, 
        {
            "buffer" : 0, 
            "byteLength" : 216, 
            "byteOffset" : 857328
        }, 
        {
            "buffer" : 0, 
            "byteLength" : 384, 
            "byteOffset" : 857544
        }, 
        {
            "buffer" : 0, 
            "byteLength" : 1152, 
            "byteOffset" : 857928
        }
    ], 
    "buffers" : [
        {
            "byteLength" : 859080, 
            "uri" : "-ian.bin"
        }
    ], 
    "materials" : [
        {
            "name" : "GREEN", 
            "pbrMetallicRoughness" : {
                "baseColorFactor" : [
                    0.03808404860025716, 
                    0.38158934684975954, 
                    0.021287077982531155, 
                    1.0
                ], 
                "metallicFactor" : 0.0
            }
        }, 
        {
            "name" : "Material.001", 
            "pbrMetallicRoughness" : {
                "baseColorFactor" : [
                    0.06681131224053072, 
                    0.3895150481092191, 
                    0.00789228167969408, 
                    1.0
                ], 
                "metallicFactor" : 0.0
            }
        }, 
        {
            "name" : "Material.003", 
            "pbrMetallicRoughness" : {
                "baseColorFactor" : [
                    0.04177363279124546, 
                    0.04177363279124546, 
                    0.04177363279124546, 
                    1.0
                ], 
                "metallicFactor" : 0.0
            }
        }
    ], 
    "meshes" : [
        {
            "name" : "CUText.013", 
            "primitives" : [
                {
                    "attributes" : {
                        "NORMAL" : 2, 
                        "POSITION" : 1
                    }, 
                    "indices" : 0, 
                    "material" : 2
                }
            ]
        }, 
        {
            "name" : "CUText", 
            "primitives" : [
                {
                    "attributes" : {
                        "NORMAL" : 5, 
                        "POSITION" : 4
                    }, 
                    "indices" : 3, 
                    "material" : 2
                }
            ]
        }, 
        {
            "name" : "CUText.011", 
            "primitives" : [
                {
                    "attributes" : {
                        "NORMAL" : 8, 
                        "POSITION" : 7
                    }, 
                    "indices" : 6, 
                    "material" : 0
                }, 
                {
                    "attributes" : {
                        "NORMAL" : 11, 
                        "POSITION" : 10
                    }, 
                    "indices" : 9, 
                    "material" : 1
                }
            ]
        }
    ], 
    "nodes" : [
        {
            "mesh" : 0, 
            "name" : "Text", 
            "rotation" : [
                0.7071068286895752, 
                0.0, 
                -0.0, 
                0.7071068286895752
            ], 
            "translation" : [
                0.6757442951202393, 
                0.1883246749639511, 
                5.387598775996594e-07
            ]
        }, 
        {
            "mesh" : 1, 
            "name" : "Text.001", 
            "rotation" : [
                0.7071068286895752, 
                0.0, 
                -0.0, 
                0.7071068286895752
            ], 
            "translation" : [
                1.7462886571884155, 
                0.22163306176662445, 
                1.513249571871711e-06
            ]
        }, 
        {
            "mesh" : 2, 
            "name" : "Text.004", 
            "rotation" : [
                0.7071068286895752, 
                0.0, 
                -0.0, 
                0.7071068286895752
            ], 
            "scale" : [
                0.45913463830947876, 
                0.36149001121520996, 
                0.36149001121520996
            ], 
            "translation" : [
                0.8539631366729736, 
                -0.39886799454689026, 
                5.387598775996594e-07
            ]
        }
    ], 
    "scene" : 0, 
    "scenes" : [
        {
            "name" : "Scene", 
            "nodes" : [
                2, 
                1, 
                0
            ]
        }
    ]
}
