{
    "accessors" : [
        {
            "bufferView" : 0, 
            "componentType" : 5123, 
            "count" : 28200, 
            "max" : [
                6242
            ], 
            "min" : [
                0
            ], 
            "type" : "SCALAR"
        }, 
        {
            "bufferView" : 1, 
            "componentType" : 5126, 
            "count" : 6243, 
            "max" : [
                0.673399031162262, 
                0.06499999761581421, 
                0.3481404185295105
            ], 
            "min" : [
                -0.844115138053894, 
                -0.06499999761581421, 
                -0.39704763889312744
            ], 
            "type" : "VEC3"
        }, 
        {
            "bufferView" : 2, 
            "componentType" : 5126, 
            "count" : 6243, 
            "max" : [
                1.0, 
                1.0, 
                0.999969482421875
            ], 
            "min" : [
                -1.0, 
                -1.0, 
                -0.999969482421875
            ], 
            "type" : "VEC3"
        }, 
        {
            "bufferView" : 3, 
            "componentType" : 5123, 
            "count" : 9504, 
            "max" : [
                2501
            ], 
            "min" : [
                0
            ], 
            "type" : "SCALAR"
        }, 
        {
            "bufferView" : 4, 
            "componentType" : 5126, 
            "count" : 2502, 
            "max" : [
                0.42381322383880615, 
                0.0748596116900444, 
                0.255289226770401
            ], 
            "min" : [
                -0.563119113445282, 
                -0.08649646490812302, 
                -0.36070358753204346
            ], 
            "type" : "VEC3"
        }, 
        {
            "bufferView" : 5, 
            "componentType" : 5126, 
            "count" : 2502, 
            "max" : [
                0.9974364638328552, 
                1.0, 
                0.999969482421875
            ], 
            "min" : [
                -0.999969482421875, 
                -1.0, 
                -0.999969482421875
            ], 
            "type" : "VEC3"
        }, 
        {
            "bufferView" : 6, 
            "componentType" : 5123, 
            "count" : 30960, 
            "max" : [
                6923
            ], 
            "min" : [
                0
            ], 
            "type" : "SCALAR"
        }, 
        {
            "bufferView" : 7, 
            "componentType" : 5126, 
            "count" : 6924, 
            "max" : [
                0.36329251527786255, 
                -2.436339855194092e-06, 
                0.20298871397972107
            ], 
            "min" : [
                -0.6142423152923584, 
                -0.1300024390220642, 
                -0.368813693523407
            ], 
            "type" : "VEC3"
        }, 
        {
            "bufferView" : 8, 
            "componentType" : 5126, 
            "count" : 6924, 
            "max" : [
                1.0, 
                1.0, 
                1.0
            ], 
            "min" : [
                -1.0, 
                -1.0, 
                -1.0
            ], 
            "type" : "VEC3"
        }, 
        {
            "bufferView" : 9, 
            "componentType" : 5123, 
            "count" : 20160, 
            "max" : [
                4461
            ], 
            "min" : [
                0
            ], 
            "type" : "SCALAR"
        }, 
        {
            "bufferView" : 10, 
            "componentType" : 5126, 
            "count" : 4462, 
            "max" : [
                -0.1489105224609375, 
                -2.436339855194092e-06, 
                0.24124068021774292
            ], 
            "min" : [
                -0.5488837957382202, 
                -0.1300024390220642, 
                -0.19124218821525574
            ], 
            "type" : "VEC3"
        }, 
        {
            "bufferView" : 11, 
            "componentType" : 5126, 
            "count" : 4462, 
            "max" : [
                1.0, 
                1.0, 
                1.0
            ], 
            "min" : [
                -1.0, 
                -1.0, 
                -1.0
            ], 
            "type" : "VEC3"
        }, 
        {
            "bufferView" : 12, 
            "componentType" : 5123, 
            "count" : 28200, 
            "max" : [
                6249
            ], 
            "min" : [
                0
            ], 
            "type" : "SCALAR"
        }, 
        {
            "bufferView" : 13, 
            "componentType" : 5126, 
            "count" : 6250, 
            "max" : [
                0.8939546346664429, 
                0.06499999016523361, 
                0.3481403887271881
            ], 
            "min" : [
                -0.7860863208770752, 
                -0.06499999016523361, 
                -0.39704760909080505
            ], 
            "type" : "VEC3"
        }, 
        {
            "bufferView" : 14, 
            "componentType" : 5126, 
            "count" : 6250, 
            "max" : [
                1.0, 
                1.0, 
                0.999969482421875
            ], 
            "min" : [
                -1.0, 
                -1.0, 
                -0.999969482421875
            ], 
            "type" : "VEC3"
        }, 
        {
            "bufferView" : 15, 
            "componentType" : 5123, 
            "count" : 9360, 
            "max" : [
                2474
            ], 
            "min" : [
                0
            ], 
            "type" : "SCALAR"
        }, 
        {
            "bufferView" : 16, 
            "componentType" : 5126, 
            "count" : 2475, 
            "max" : [
                0.6072685718536377, 
                0.09749263525009155, 
                0.2990661859512329
            ], 
            "min" : [
                -0.5824406743049622, 
                -0.10384528338909149, 
                -0.31692665815353394
            ], 
            "type" : "VEC3"
        }, 
        {
            "bufferView" : 17, 
            "componentType" : 5126, 
            "count" : 2475, 
            "max" : [
                0.999969482421875, 
                1.0, 
                0.999969482421875
            ], 
            "min" : [
                -0.999969482421875, 
                -1.0, 
                -0.999969482421875
            ], 
            "type" : "VEC3"
        }, 
        {
            "bufferView" : 18, 
            "componentType" : 5126, 
            "count" : 5, 
            "max" : [
                2.7083333333333335
            ], 
            "min" : [
                0.0
            ], 
            "type" : "SCALAR"
        }, 
        {
            "bufferView" : 19, 
            "componentType" : 5126, 
            "count" : 15, 
            "max" : [
                0.6757442951202393, 
                0.1883246749639511, 
                5.387598775996594e-07
            ], 
            "min" : [
                0.0, 
                0.0, 
                -0.0
            ], 
            "type" : "VEC3"
        }, 
        {
            "bufferView" : 20, 
            "componentType" : 5126, 
            "count" : 5, 
            "max" : [
                2.7083333333333335
            ], 
            "min" : [
                0.0
            ], 
            "type" : "SCALAR"
        }, 
        {
            "bufferView" : 21, 
            "componentType" : 5126, 
            "count" : 15, 
            "max" : [
                2.0462887287139893, 
                0.22163306176662445, 
                1.513249571871711e-06
            ], 
            "min" : [
                0.0, 
                0.0, 
                -0.0
            ], 
            "type" : "VEC3"
        }, 
        {
            "bufferView" : 22, 
            "componentType" : 5126, 
            "count" : 66, 
            "max" : [
                2.7083333333333335
            ], 
            "min" : [
                0.0
            ], 
            "type" : "SCALAR"
        }, 
        {
            "bufferView" : 23, 
            "componentType" : 5126, 
            "count" : 66, 
            "max" : [
                1.727956771850586, 
                -0.32345226407051086, 
                5.387598775996594e-07
            ], 
            "min" : [
                1.4279568195343018, 
                -0.32345226407051086, 
                5.387598775996594e-07
            ], 
            "type" : "VEC3"
        }, 
        {
            "bufferView" : 24, 
            "componentType" : 5126, 
            "count" : 66, 
            "max" : [
                2.7083333333333335
            ], 
            "min" : [
                0.0
            ], 
            "type" : "SCALAR"
        }, 
        {
            "bufferView" : 25, 
            "componentType" : 5126, 
            "count" : 66, 
            "max" : [
                0.8539631366729736, 
                -0.32345226407051086, 
                5.387782948673703e-07
            ], 
            "min" : [
                0.5539631247520447, 
                -0.32345226407051086, 
                5.387782948673703e-07
            ], 
            "type" : "VEC3"
        }
    ], 
    "animations" : [
        {
            "channels" : [
                {
                    "sampler" : 0, 
                    "target" : {
                        "node" : 0, 
                        "path" : "translation"
                    }
                }, 
                {
                    "sampler" : 1, 
                    "target" : {
                        "node" : 1, 
                        "path" : "translation"
                    }
                }, 
                {
                    "sampler" : 2, 
                    "target" : {
                        "node" : 2, 
                        "path" : "translation"
                    }
                }, 
                {
                    "sampler" : 3, 
                    "target" : {
                        "node" : 3, 
                        "path" : "translation"
                    }
                }
            ], 
            "samplers" : [
                {
                    "input" : 18, 
                    "interpolation" : "CUBICSPLINE", 
                    "output" : 19
                }, 
                {
                    "input" : 20, 
                    "interpolation" : "CUBICSPLINE", 
                    "output" : 21
                }, 
                {
                    "input" : 22, 
                    "interpolation" : "LINEAR", 
                    "output" : 23
                }, 
                {
                    "input" : 24, 
                    "interpolation" : "LINEAR", 
                    "output" : 25
                }
            ]
        }
    ], 
    "asset" : {
        "generator" : "Khronos Blender glTF 2.0 exporter", 
        "version" : "2.0"
    }, 
    "bufferViews" : [
        {
            "buffer" : 0, 
            "byteLength" : 56400, 
            "byteOffset" : 0, 
            "target" : 34963
        }, 
        {
            "buffer" : 0, 
            "byteLength" : 74916, 
            "byteOffset" : 56400, 
            "target" : 34962
        }, 
        {
            "buffer" : 0, 
            "byteLength" : 74916, 
            "byteOffset" : 131316, 
            "target" : 34962
        }, 
        {
            "buffer" : 0, 
            "byteLength" : 19008, 
            "byteOffset" : 206232, 
            "target" : 34963
        }, 
        {
            "buffer" : 0, 
            "byteLength" : 30024, 
            "byteOffset" : 225240, 
            "target" : 34962
        }, 
        {
            "buffer" : 0, 
            "byteLength" : 30024, 
            "byteOffset" : 255264, 
            "target" : 34962
        }, 
        {
            "buffer" : 0, 
            "byteLength" : 61920, 
            "byteOffset" : 285288, 
            "target" : 34963
        }, 
        {
            "buffer" : 0, 
            "byteLength" : 83088, 
            "byteOffset" : 347208, 
            "target" : 34962
        }, 
        {
            "buffer" : 0, 
            "byteLength" : 83088, 
            "byteOffset" : 430296, 
            "target" : 34962
        }, 
        {
            "buffer" : 0, 
            "byteLength" : 40320, 
            "byteOffset" : 513384, 
            "target" : 34963
        }, 
        {
            "buffer" : 0, 
            "byteLength" : 53544, 
            "byteOffset" : 553704, 
            "target" : 34962
        }, 
        {
            "buffer" : 0, 
            "byteLength" : 53544, 
            "byteOffset" : 607248, 
            "target" : 34962
        }, 
        {
            "buffer" : 0, 
            "byteLength" : 56400, 
            "byteOffset" : 660792, 
            "target" : 34963
        }, 
        {
            "buffer" : 0, 
            "byteLength" : 75000, 
            "byteOffset" : 717192, 
            "target" : 34962
        }, 
        {
            "buffer" : 0, 
            "byteLength" : 75000, 
            "byteOffset" : 792192, 
            "target" : 34962
        }, 
        {
            "buffer" : 0, 
            "byteLength" : 18720, 
            "byteOffset" : 867192, 
            "target" : 34963
        }, 
        {
            "buffer" : 0, 
            "byteLength" : 29700, 
            "byteOffset" : 885912, 
            "target" : 34962
        }, 
        {
            "buffer" : 0, 
            "byteLength" : 29700, 
            "byteOffset" : 915612, 
            "target" : 34962
        }, 
        {
            "buffer" : 0, 
            "byteLength" : 20, 
            "byteOffset" : 945312
        }, 
        {
            "buffer" : 0, 
            "byteLength" : 180, 
            "byteOffset" : 945332
        }, 
        {
            "buffer" : 0, 
            "byteLength" : 20, 
            "byteOffset" : 945512
        }, 
        {
            "buffer" : 0, 
            "byteLength" : 180, 
            "byteOffset" : 945532
        }, 
        {
            "buffer" : 0, 
            "byteLength" : 264, 
            "byteOffset" : 945712
        }, 
        {
            "buffer" : 0, 
            "byteLength" : 792, 
            "byteOffset" : 945976
        }, 
        {
            "buffer" : 0, 
            "byteLength" : 264, 
            "byteOffset" : 946768
        }, 
        {
            "buffer" : 0, 
            "byteLength" : 792, 
            "byteOffset" : 947032
        }
    ], 
    "buffers" : [
        {
            "byteLength" : 947824, 
            "uri" : "-io.bin"
        }
    ], 
    "materials" : [
        {
            "name" : "GREEN", 
            "pbrMetallicRoughness" : {
                "baseColorFactor" : [
                    0.03808404860025716, 
                    0.38158934684975954, 
                    0.021287077982531155, 
                    1.0
                ], 
                "metallicFactor" : 0.0
            }
        }, 
        {
            "name" : "Material.001", 
            "pbrMetallicRoughness" : {
                "baseColorFactor" : [
                    0.06681131224053072, 
                    0.3895150481092191, 
                    0.00789228167969408, 
                    1.0
                ], 
                "metallicFactor" : 0.0
            }
        }, 
        {
            "name" : "Material.003", 
            "pbrMetallicRoughness" : {
                "baseColorFactor" : [
                    0.04177363279124546, 
                    0.04177363279124546, 
                    0.04177363279124546, 
                    1.0
                ], 
                "metallicFactor" : 0.0
            }
        }
    ], 
    "meshes" : [
        {
            "name" : "CUText.011", 
            "primitives" : [
                {
                    "attributes" : {
                        "NORMAL" : 2, 
                        "POSITION" : 1
                    }, 
                    "indices" : 0, 
                    "material" : 1
                }, 
                {
                    "attributes" : {
                        "NORMAL" : 5, 
                        "POSITION" : 4
                    }, 
                    "indices" : 3, 
                    "material" : 0
                }
            ]
        }, 
        {
            "name" : "CUText.013", 
            "primitives" : [
                {
                    "attributes" : {
                        "NORMAL" : 8, 
                        "POSITION" : 7
                    }, 
                    "indices" : 6, 
                    "material" : 2
                }
            ]
        }, 
        {
            "name" : "CUText", 
            "primitives" : [
                {
                    "attributes" : {
                        "NORMAL" : 11, 
                        "POSITION" : 10
                    }, 
                    "indices" : 9, 
                    "material" : 2
                }
            ]
        }, 
        {
            "name" : "CUText.002", 
            "primitives" : [
                {
                    "attributes" : {
                        "NORMAL" : 14, 
                        "POSITION" : 13
                    }, 
                    "indices" : 12, 
                    "material" : 1
                }, 
                {
                    "attributes" : {
                        "NORMAL" : 17, 
                        "POSITION" : 16
                    }, 
                    "indices" : 15, 
                    "material" : 0
                }
            ]
        }
    ], 
    "nodes" : [
        {
            "mesh" : 1, 
            "name" : "Text", 
            "rotation" : [
                0.7071068286895752, 
                0.0, 
                -0.0, 
                0.7071068286895752
            ], 
            "translation" : [
                0.6757442951202393, 
                0.1883246749639511, 
                5.387598775996594e-07
            ]
        }, 
        {
            "mesh" : 2, 
            "name" : "Text.001", 
            "rotation" : [
                0.7071068286895752, 
                0.0, 
                -0.0, 
                0.7071068286895752
            ], 
            "translation" : [
                1.7462886571884155, 
                0.22163306176662445, 
                1.513249571871711e-06
            ]
        }, 
        {
            "mesh" : 3, 
            "name" : "Text.002", 
            "rotation" : [
                0.7071068286895752, 
                0.0, 
                -0.0, 
                0.7071068286895752
            ], 
            "scale" : [
                0.3533437252044678, 
                0.34676501154899597, 
                0.34676501154899597
            ], 
            "translation" : [
                1.4279568195343018, 
                -0.32345226407051086, 
                5.387598775996594e-07
            ]
        }, 
        {
            "mesh" : 0, 
            "name" : "Text.004", 
            "rotation" : [
                0.7071068286895752, 
                0.0, 
                -0.0, 
                0.7071068286895752
            ], 
            "scale" : [
                0.404184490442276, 
                0.34676501154899597, 
                0.34676501154899597
            ], 
            "translation" : [
                0.8539631366729736, 
                -0.32345226407051086, 
                5.387782948673703e-07
            ]
        }
    ], 
    "scene" : 0, 
    "scenes" : [
        {
            "name" : "Scene", 
            "nodes" : [
                2, 
                3, 
                1, 
                0
            ]
        }
    ]
}
