{
    "accessors" : [
        {
            "bufferView" : 0, 
            "componentType" : 5121, 
            "count" : 72, 
            "max" : [
                45
            ], 
            "min" : [
                0
            ], 
            "type" : "SCALAR"
        }, 
        {
            "bufferView" : 1, 
            "componentType" : 5126, 
            "count" : 46, 
            "max" : [
                1.0, 
                1.0, 
                1.0
            ], 
            "min" : [
                -2.7845098972320557, 
                -2.7845098972320557, 
                -1.0
            ], 
            "type" : "VEC3"
        }, 
        {
            "bufferView" : 2, 
            "componentType" : 5126, 
            "count" : 46, 
            "max" : [
                1.0, 
                1.0, 
                1.0
            ], 
            "min" : [
                -0.7071068286895752, 
                -0.7071068286895752, 
                -1.0
            ], 
            "type" : "VEC3"
        }, 
        {
            "bufferView" : 3, 
            "componentType" : 5123, 
            "count" : 65220, 
            "max" : [
                14517
            ], 
            "min" : [
                0
            ], 
            "type" : "SCALAR"
        }, 
        {
            "bufferView" : 4, 
            "componentType" : 5126, 
            "count" : 14518, 
            "max" : [
                0.595353901386261, 
                0.0650000125169754, 
                0.23023197054862976
            ], 
            "min" : [
                -0.9287739992141724, 
                -0.06499998271465302, 
                -0.3493143916130066
            ], 
            "type" : "VEC3"
        }, 
        {
            "bufferView" : 5, 
            "componentType" : 5126, 
            "count" : 14518, 
            "max" : [
                1.0, 
                1.0, 
                1.0
            ], 
            "min" : [
                -1.0, 
                -1.0, 
                -1.0
            ], 
            "type" : "VEC3"
        }, 
        {
            "bufferView" : 6, 
            "componentType" : 5123, 
            "count" : 30816, 
            "max" : [
                6878
            ], 
            "min" : [
                0
            ], 
            "type" : "SCALAR"
        }, 
        {
            "bufferView" : 7, 
            "componentType" : 5126, 
            "count" : 6879, 
            "max" : [
                0.22677600383758545, 
                0.06499763578176498, 
                0.22442756593227386
            ], 
            "min" : [
                -0.21653687953948975, 
                -0.06500235944986343, 
                -0.2003217339515686
            ], 
            "type" : "VEC3"
        }, 
        {
            "bufferView" : 8, 
            "componentType" : 5126, 
            "count" : 6879, 
            "max" : [
                0.999969482421875, 
                1.0, 
                1.0
            ], 
            "min" : [
                -0.999969482421875, 
                -1.0, 
                -1.0
            ], 
            "type" : "VEC3"
        }, 
        {
            "bufferView" : 9, 
            "componentType" : 5123, 
            "count" : 17220, 
            "max" : [
                4008
            ], 
            "min" : [
                0
            ], 
            "type" : "SCALAR"
        }, 
        {
            "bufferView" : 10, 
            "componentType" : 5126, 
            "count" : 4009, 
            "max" : [
                1.7941519021987915, 
                0.04700000584125519, 
                0.6968578100204468
            ], 
            "min" : [
                -1.8976337909698486, 
                -0.047000009566545486, 
                -1.037205457687378
            ], 
            "type" : "VEC3"
        }, 
        {
            "bufferView" : 11, 
            "componentType" : 5126, 
            "count" : 4009, 
            "max" : [
                1.0, 
                1.0, 
                1.0
            ], 
            "min" : [
                -1.0, 
                -1.0, 
                -1.0
            ], 
            "type" : "VEC3"
        }, 
        {
            "bufferView" : 12, 
            "componentType" : 5126, 
            "count" : 2, 
            "max" : [
                3.5416666666666665
            ], 
            "min" : [
                1.25
            ], 
            "type" : "SCALAR"
        }, 
        {
            "bufferView" : 13, 
            "componentType" : 5126, 
            "count" : 6, 
            "max" : [
                2.610106945037842, 
                0.6844744086265564, 
                -0.0
            ], 
            "min" : [
                0.0, 
                0.0, 
                -0.021127043291926384
            ], 
            "type" : "VEC3"
        }, 
        {
            "bufferView" : 14, 
            "componentType" : 5126, 
            "count" : 56, 
            "max" : [
                3.5416666666666665
            ], 
            "min" : [
                1.25
            ], 
            "type" : "SCALAR"
        }, 
        {
            "bufferView" : 15, 
            "componentType" : 5126, 
            "count" : 56, 
            "max" : [
                -1.4358213284992871e-08, 
                1.4175574847286043e-07, 
                -0.9949677586555481, 
                0.10019587725400925
            ], 
            "min" : [
                -1.4358213284992871e-08, 
                1.4175574847286043e-07, 
                -0.9949677586555481, 
                0.10019587725400925
            ], 
            "type" : "VEC4"
        }, 
        {
            "bufferView" : 16, 
            "componentType" : 5126, 
            "count" : 6, 
            "max" : [
                4.583333333333333
            ], 
            "min" : [
                0.0
            ], 
            "type" : "SCALAR"
        }, 
        {
            "bufferView" : 17, 
            "componentType" : 5126, 
            "count" : 18, 
            "max" : [
                0.08999999612569809, 
                0.08999999612569809, 
                0.007000000216066837
            ], 
            "min" : [
                0.0, 
                0.0, 
                0.0
            ], 
            "type" : "VEC3"
        }, 
        {
            "bufferView" : 18, 
            "componentType" : 5126, 
            "count" : 6, 
            "max" : [
                4.583333333333333
            ], 
            "min" : [
                0.0
            ], 
            "type" : "SCALAR"
        }, 
        {
            "bufferView" : 19, 
            "componentType" : 5126, 
            "count" : 18, 
            "max" : [
                0.9942650198936462, 
                0.20748800039291382, 
                -0.0
            ], 
            "min" : [
                0.0, 
                0.0, 
                -7.523133227493872e-09
            ], 
            "type" : "VEC3"
        }, 
        {
            "bufferView" : 20, 
            "componentType" : 5126, 
            "count" : 6, 
            "max" : [
                4.583333333333333
            ], 
            "min" : [
                0.0
            ], 
            "type" : "SCALAR"
        }, 
        {
            "bufferView" : 21, 
            "componentType" : 5126, 
            "count" : 18, 
            "max" : [
                2.2783169746398926, 
                0.20942097902297974, 
                2.373863480897853e-06
            ], 
            "min" : [
                0.0, 
                0.0, 
                -0.0
            ], 
            "type" : "VEC3"
        }, 
        {
            "bufferView" : 22, 
            "componentType" : 5126, 
            "count" : 2, 
            "max" : [
                3.5416666666666665
            ], 
            "min" : [
                1.25
            ], 
            "type" : "SCALAR"
        }, 
        {
            "bufferView" : 23, 
            "componentType" : 5126, 
            "count" : 6, 
            "max" : [
                2.881899118423462, 
                1.305702567100525, 
                -0.0
            ], 
            "min" : [
                0.0, 
                0.0, 
                -0.03890988230705261
            ], 
            "type" : "VEC3"
        }, 
        {
            "bufferView" : 24, 
            "componentType" : 5126, 
            "count" : 56, 
            "max" : [
                3.5416666666666665
            ], 
            "min" : [
                1.25
            ], 
            "type" : "SCALAR"
        }, 
        {
            "bufferView" : 25, 
            "componentType" : 5126, 
            "count" : 56, 
            "max" : [
                -0.7071067690849304, 
                0.0, 
                0.0, 
                -0.7071067690849304
            ], 
            "min" : [
                -0.7071067690849304, 
                0.0, 
                0.0, 
                -0.7071067690849304
            ], 
            "type" : "VEC4"
        }, 
        {
            "bufferView" : 26, 
            "componentType" : 5126, 
            "count" : 6, 
            "max" : [
                4.583333333333333
            ], 
            "min" : [
                0.0
            ], 
            "type" : "SCALAR"
        }, 
        {
            "bufferView" : 27, 
            "componentType" : 5126, 
            "count" : 18, 
            "max" : [
                0.3175280690193176, 
                0.4112633764743805, 
                0.3175280690193176
            ], 
            "min" : [
                0.0, 
                0.0, 
                0.0
            ], 
            "type" : "VEC3"
        }
    ], 
    "animations" : [
        {
            "channels" : [
                {
                    "sampler" : 0, 
                    "target" : {
                        "node" : 0, 
                        "path" : "translation"
                    }
                }, 
                {
                    "sampler" : 1, 
                    "target" : {
                        "node" : 0, 
                        "path" : "rotation"
                    }
                }, 
                {
                    "sampler" : 2, 
                    "target" : {
                        "node" : 0, 
                        "path" : "scale"
                    }
                }, 
                {
                    "sampler" : 3, 
                    "target" : {
                        "node" : 1, 
                        "path" : "translation"
                    }
                }, 
                {
                    "sampler" : 4, 
                    "target" : {
                        "node" : 2, 
                        "path" : "translation"
                    }
                }, 
                {
                    "sampler" : 5, 
                    "target" : {
                        "node" : 3, 
                        "path" : "translation"
                    }
                }, 
                {
                    "sampler" : 6, 
                    "target" : {
                        "node" : 3, 
                        "path" : "rotation"
                    }
                }, 
                {
                    "sampler" : 7, 
                    "target" : {
                        "node" : 3, 
                        "path" : "scale"
                    }
                }
            ], 
            "samplers" : [
                {
                    "input" : 12, 
                    "interpolation" : "CUBICSPLINE", 
                    "output" : 13
                }, 
                {
                    "input" : 14, 
                    "interpolation" : "LINEAR", 
                    "output" : 15
                }, 
                {
                    "input" : 16, 
                    "interpolation" : "CUBICSPLINE", 
                    "output" : 17
                }, 
                {
                    "input" : 18, 
                    "interpolation" : "CUBICSPLINE", 
                    "output" : 19
                }, 
                {
                    "input" : 20, 
                    "interpolation" : "CUBICSPLINE", 
                    "output" : 21
                }, 
                {
                    "input" : 22, 
                    "interpolation" : "CUBICSPLINE", 
                    "output" : 23
                }, 
                {
                    "input" : 24, 
                    "interpolation" : "LINEAR", 
                    "output" : 25
                }, 
                {
                    "input" : 26, 
                    "interpolation" : "CUBICSPLINE", 
                    "output" : 27
                }
            ]
        }
    ], 
    "asset" : {
        "generator" : "Khronos Blender glTF 2.0 exporter", 
        "version" : "2.0"
    }, 
    "bufferViews" : [
        {
            "buffer" : 0, 
            "byteLength" : 72, 
            "byteOffset" : 0, 
            "target" : 34963
        }, 
        {
            "buffer" : 0, 
            "byteLength" : 552, 
            "byteOffset" : 72, 
            "target" : 34962
        }, 
        {
            "buffer" : 0, 
            "byteLength" : 552, 
            "byteOffset" : 624, 
            "target" : 34962
        }, 
        {
            "buffer" : 0, 
            "byteLength" : 130440, 
            "byteOffset" : 1176, 
            "target" : 34963
        }, 
        {
            "buffer" : 0, 
            "byteLength" : 174216, 
            "byteOffset" : 131616, 
            "target" : 34962
        }, 
        {
            "buffer" : 0, 
            "byteLength" : 174216, 
            "byteOffset" : 305832, 
            "target" : 34962
        }, 
        {
            "buffer" : 0, 
            "byteLength" : 61632, 
            "byteOffset" : 480048, 
            "target" : 34963
        }, 
        {
            "buffer" : 0, 
            "byteLength" : 82548, 
            "byteOffset" : 541680, 
            "target" : 34962
        }, 
        {
            "buffer" : 0, 
            "byteLength" : 82548, 
            "byteOffset" : 624228, 
            "target" : 34962
        }, 
        {
            "buffer" : 0, 
            "byteLength" : 34440, 
            "byteOffset" : 706776, 
            "target" : 34963
        }, 
        {
            "buffer" : 0, 
            "byteLength" : 48108, 
            "byteOffset" : 741216, 
            "target" : 34962
        }, 
        {
            "buffer" : 0, 
            "byteLength" : 48108, 
            "byteOffset" : 789324, 
            "target" : 34962
        }, 
        {
            "buffer" : 0, 
            "byteLength" : 8, 
            "byteOffset" : 837432
        }, 
        {
            "buffer" : 0, 
            "byteLength" : 72, 
            "byteOffset" : 837440
        }, 
        {
            "buffer" : 0, 
            "byteLength" : 224, 
            "byteOffset" : 837512
        }, 
        {
            "buffer" : 0, 
            "byteLength" : 896, 
            "byteOffset" : 837736
        }, 
        {
            "buffer" : 0, 
            "byteLength" : 24, 
            "byteOffset" : 838632
        }, 
        {
            "buffer" : 0, 
            "byteLength" : 216, 
            "byteOffset" : 838656
        }, 
        {
            "buffer" : 0, 
            "byteLength" : 24, 
            "byteOffset" : 838872
        }, 
        {
            "buffer" : 0, 
            "byteLength" : 216, 
            "byteOffset" : 838896
        }, 
        {
            "buffer" : 0, 
            "byteLength" : 24, 
            "byteOffset" : 839112
        }, 
        {
            "buffer" : 0, 
            "byteLength" : 216, 
            "byteOffset" : 839136
        }, 
        {
            "buffer" : 0, 
            "byteLength" : 8, 
            "byteOffset" : 839352
        }, 
        {
            "buffer" : 0, 
            "byteLength" : 72, 
            "byteOffset" : 839360
        }, 
        {
            "buffer" : 0, 
            "byteLength" : 224, 
            "byteOffset" : 839432
        }, 
        {
            "buffer" : 0, 
            "byteLength" : 896, 
            "byteOffset" : 839656
        }, 
        {
            "buffer" : 0, 
            "byteLength" : 24, 
            "byteOffset" : 840552
        }, 
        {
            "buffer" : 0, 
            "byteLength" : 216, 
            "byteOffset" : 840576
        }
    ], 
    "buffers" : [
        {
            "byteLength" : 840792, 
            "uri" : "-ism.bin"
        }
    ], 
    "materials" : [
        {
            "name" : "Material", 
            "pbrMetallicRoughness" : {
                "baseColorFactor" : [
                    0.04177363279124546, 
                    0.04177363279124546, 
                    0.04177363279124546, 
                    1.0
                ], 
                "metallicFactor" : 0.0
            }
        }, 
        {
            "name" : "Material.002", 
            "pbrMetallicRoughness" : {
                "baseColorFactor" : [
                    0.640000066757203, 
                    0.04544352956777109, 
                    0.0379543369703641, 
                    1.0
                ], 
                "metallicFactor" : 0.0
            }
        }, 
        {
            "name" : "Material.004", 
            "pbrMetallicRoughness" : {
                "baseColorFactor" : [
                    0.04177363279124546, 
                    0.04177363279124546, 
                    0.04177363279124546, 
                    1.0
                ], 
                "metallicFactor" : 0.0
            }
        }
    ], 
    "meshes" : [
        {
            "name" : "Cube", 
            "primitives" : [
                {
                    "attributes" : {
                        "NORMAL" : 2, 
                        "POSITION" : 1
                    }, 
                    "indices" : 0, 
                    "material" : 1
                }
            ]
        }, 
        {
            "name" : "CUText.004", 
            "primitives" : [
                {
                    "attributes" : {
                        "NORMAL" : 5, 
                        "POSITION" : 4
                    }, 
                    "indices" : 3, 
                    "material" : 2
                }
            ]
        }, 
        {
            "name" : "CUText.001", 
            "primitives" : [
                {
                    "attributes" : {
                        "NORMAL" : 8, 
                        "POSITION" : 7
                    }, 
                    "indices" : 6, 
                    "material" : 0
                }
            ]
        }, 
        {
            "name" : "CUText.003", 
            "primitives" : [
                {
                    "attributes" : {
                        "NORMAL" : 11, 
                        "POSITION" : 10
                    }, 
                    "indices" : 9, 
                    "material" : 1
                }
            ]
        }
    ], 
    "nodes" : [
        {
            "mesh" : 0, 
            "name" : "arrow", 
            "scale" : [
                0.0, 
                0.0, 
                0.0
            ], 
            "translation" : [
                2.610106945037842, 
                0.6844744086265564, 
                -0.021127043291926384
            ]
        }, 
        {
            "mesh" : 1, 
            "name" : "Text", 
            "rotation" : [
                0.7071068286895752, 
                0.0, 
                -0.0, 
                0.7071068286895752
            ], 
            "translation" : [
                0.9942650198936462, 
                0.20748800039291382, 
                -7.523133227493872e-09
            ]
        }, 
        {
            "mesh" : 2, 
            "name" : "Text.001", 
            "rotation" : [
                0.7071068286895752, 
                0.0, 
                -0.0, 
                0.7071068286895752
            ], 
            "translation" : [
                1.978317141532898, 
                0.20942097902297974, 
                2.373863480897853e-06
            ]
        }, 
        {
            "mesh" : 3, 
            "name" : "Text.004", 
            "scale" : [
                0.0, 
                0.0, 
                0.0
            ], 
            "translation" : [
                2.881899118423462, 
                1.305702567100525, 
                -0.03890988230705261
            ]
        }
    ], 
    "scene" : 0, 
    "scenes" : [
        {
            "name" : "Scene", 
            "nodes" : [
                3, 
                2, 
                0, 
                1
            ]
        }
    ]
}
