{
    "accessors" : [
        {
            "bufferView" : 0, 
            "componentType" : 5123, 
            "count" : 78936, 
            "max" : [
                17630
            ], 
            "min" : [
                0
            ], 
            "type" : "SCALAR"
        }, 
        {
            "bufferView" : 1, 
            "componentType" : 5126, 
            "count" : 17631, 
            "max" : [
                0.8140769600868225, 
                0.06499999761581421, 
                0.3481404185295105
            ], 
            "min" : [
                -0.8289281129837036, 
                -0.06499999761581421, 
                -0.39704763889312744
            ], 
            "type" : "VEC3"
        }, 
        {
            "bufferView" : 2, 
            "componentType" : 5126, 
            "count" : 17631, 
            "max" : [
                1.0, 
                1.0, 
                0.999969482421875
            ], 
            "min" : [
                -1.0, 
                -1.0, 
                -1.0
            ], 
            "type" : "VEC3"
        }, 
        {
            "bufferView" : 3, 
            "componentType" : 5123, 
            "count" : 30960, 
            "max" : [
                6923
            ], 
            "min" : [
                0
            ], 
            "type" : "SCALAR"
        }, 
        {
            "bufferView" : 4, 
            "componentType" : 5126, 
            "count" : 6924, 
            "max" : [
                0.36329251527786255, 
                -2.436339855194092e-06, 
                0.20298871397972107
            ], 
            "min" : [
                -0.6142423152923584, 
                -0.1300024390220642, 
                -0.368813693523407
            ], 
            "type" : "VEC3"
        }, 
        {
            "bufferView" : 5, 
            "componentType" : 5126, 
            "count" : 6924, 
            "max" : [
                1.0, 
                1.0, 
                1.0
            ], 
            "min" : [
                -1.0, 
                -1.0, 
                -1.0
            ], 
            "type" : "VEC3"
        }, 
        {
            "bufferView" : 6, 
            "componentType" : 5123, 
            "count" : 51384, 
            "max" : [
                11446
            ], 
            "min" : [
                0
            ], 
            "type" : "SCALAR"
        }, 
        {
            "bufferView" : 7, 
            "componentType" : 5126, 
            "count" : 11447, 
            "max" : [
                0.4572795629501343, 
                -2.436339855194092e-06, 
                0.2412409633398056
            ], 
            "min" : [
                -0.5202438831329346, 
                -0.1300024390220642, 
                -0.19124501943588257
            ], 
            "type" : "VEC3"
        }, 
        {
            "bufferView" : 8, 
            "componentType" : 5126, 
            "count" : 11447, 
            "max" : [
                0.999969482421875, 
                1.0, 
                1.0
            ], 
            "min" : [
                -0.999969482421875, 
                -1.0, 
                -1.0
            ], 
            "type" : "VEC3"
        }, 
        {
            "bufferView" : 9, 
            "componentType" : 5126, 
            "count" : 6, 
            "max" : [
                4.791666666666667
            ], 
            "min" : [
                0.0
            ], 
            "type" : "SCALAR"
        }, 
        {
            "bufferView" : 10, 
            "componentType" : 5126, 
            "count" : 18, 
            "max" : [
                0.6757442951202393, 
                0.1883246749639511, 
                5.387598775996594e-07
            ], 
            "min" : [
                0.0, 
                0.0, 
                -0.0
            ], 
            "type" : "VEC3"
        }, 
        {
            "bufferView" : 11, 
            "componentType" : 5126, 
            "count" : 6, 
            "max" : [
                4.791666666666667
            ], 
            "min" : [
                0.0
            ], 
            "type" : "SCALAR"
        }, 
        {
            "bufferView" : 12, 
            "componentType" : 5126, 
            "count" : 18, 
            "max" : [
                2.0462887287139893, 
                0.22163306176662445, 
                1.513249571871711e-06
            ], 
            "min" : [
                0.0, 
                0.0, 
                -0.0
            ], 
            "type" : "VEC3"
        }, 
        {
            "bufferView" : 13, 
            "componentType" : 5126, 
            "count" : 6, 
            "max" : [
                4.791666666666667
            ], 
            "min" : [
                0.0
            ], 
            "type" : "SCALAR"
        }, 
        {
            "bufferView" : 14, 
            "componentType" : 5126, 
            "count" : 18, 
            "max" : [
                0.8539631366729736, 
                0.0, 
                5.387598775996594e-07
            ], 
            "min" : [
                0.0, 
                -0.32345226407051086, 
                -0.0
            ], 
            "type" : "VEC3"
        }
    ], 
    "animations" : [
        {
            "channels" : [
                {
                    "sampler" : 0, 
                    "target" : {
                        "node" : 0, 
                        "path" : "translation"
                    }
                }, 
                {
                    "sampler" : 1, 
                    "target" : {
                        "node" : 1, 
                        "path" : "translation"
                    }
                }, 
                {
                    "sampler" : 2, 
                    "target" : {
                        "node" : 2, 
                        "path" : "translation"
                    }
                }
            ], 
            "samplers" : [
                {
                    "input" : 9, 
                    "interpolation" : "CUBICSPLINE", 
                    "output" : 10
                }, 
                {
                    "input" : 11, 
                    "interpolation" : "CUBICSPLINE", 
                    "output" : 12
                }, 
                {
                    "input" : 13, 
                    "interpolation" : "CUBICSPLINE", 
                    "output" : 14
                }
            ]
        }
    ], 
    "asset" : {
        "generator" : "Khronos Blender glTF 2.0 exporter", 
        "version" : "2.0"
    }, 
    "bufferViews" : [
        {
            "buffer" : 0, 
            "byteLength" : 157872, 
            "byteOffset" : 0, 
            "target" : 34963
        }, 
        {
            "buffer" : 0, 
            "byteLength" : 211572, 
            "byteOffset" : 157872, 
            "target" : 34962
        }, 
        {
            "buffer" : 0, 
            "byteLength" : 211572, 
            "byteOffset" : 369444, 
            "target" : 34962
        }, 
        {
            "buffer" : 0, 
            "byteLength" : 61920, 
            "byteOffset" : 581016, 
            "target" : 34963
        }, 
        {
            "buffer" : 0, 
            "byteLength" : 83088, 
            "byteOffset" : 642936, 
            "target" : 34962
        }, 
        {
            "buffer" : 0, 
            "byteLength" : 83088, 
            "byteOffset" : 726024, 
            "target" : 34962
        }, 
        {
            "buffer" : 0, 
            "byteLength" : 102768, 
            "byteOffset" : 809112, 
            "target" : 34963
        }, 
        {
            "buffer" : 0, 
            "byteLength" : 137364, 
            "byteOffset" : 911880, 
            "target" : 34962
        }, 
        {
            "buffer" : 0, 
            "byteLength" : 137364, 
            "byteOffset" : 1049244, 
            "target" : 34962
        }, 
        {
            "buffer" : 0, 
            "byteLength" : 24, 
            "byteOffset" : 1186608
        }, 
        {
            "buffer" : 0, 
            "byteLength" : 216, 
            "byteOffset" : 1186632
        }, 
        {
            "buffer" : 0, 
            "byteLength" : 24, 
            "byteOffset" : 1186848
        }, 
        {
            "buffer" : 0, 
            "byteLength" : 216, 
            "byteOffset" : 1186872
        }, 
        {
            "buffer" : 0, 
            "byteLength" : 24, 
            "byteOffset" : 1187088
        }, 
        {
            "buffer" : 0, 
            "byteLength" : 216, 
            "byteOffset" : 1187112
        }
    ], 
    "buffers" : [
        {
            "byteLength" : 1187328, 
            "uri" : "-ium.bin"
        }
    ], 
    "materials" : [
        {
            "name" : "Material.001", 
            "pbrMetallicRoughness" : {
                "baseColorFactor" : [
                    0.06681131224053072, 
                    0.3895150481092191, 
                    0.00789228167969408, 
                    1.0
                ], 
                "metallicFactor" : 0.0
            }
        }, 
        {
            "name" : "Material.003", 
            "pbrMetallicRoughness" : {
                "baseColorFactor" : [
                    0.04177363279124546, 
                    0.04177363279124546, 
                    0.04177363279124546, 
                    1.0
                ], 
                "metallicFactor" : 0.0
            }
        }
    ], 
    "meshes" : [
        {
            "name" : "CUText.011", 
            "primitives" : [
                {
                    "attributes" : {
                        "NORMAL" : 2, 
                        "POSITION" : 1
                    }, 
                    "indices" : 0, 
                    "material" : 0
                }
            ]
        }, 
        {
            "name" : "CUText.013", 
            "primitives" : [
                {
                    "attributes" : {
                        "NORMAL" : 5, 
                        "POSITION" : 4
                    }, 
                    "indices" : 3, 
                    "material" : 1
                }
            ]
        }, 
        {
            "name" : "CUText.002", 
            "primitives" : [
                {
                    "attributes" : {
                        "NORMAL" : 8, 
                        "POSITION" : 7
                    }, 
                    "indices" : 6, 
                    "material" : 1
                }
            ]
        }
    ], 
    "nodes" : [
        {
            "mesh" : 1, 
            "name" : "Text", 
            "rotation" : [
                0.7071068286895752, 
                0.0, 
                -0.0, 
                0.7071068286895752
            ], 
            "translation" : [
                0.6757442951202393, 
                0.1883246749639511, 
                5.387598775996594e-07
            ]
        }, 
        {
            "mesh" : 2, 
            "name" : "Text.001", 
            "rotation" : [
                0.7071068286895752, 
                0.0, 
                -0.0, 
                0.7071068286895752
            ], 
            "translation" : [
                1.7462886571884155, 
                0.22163306176662445, 
                1.513249571871711e-06
            ]
        }, 
        {
            "mesh" : 0, 
            "name" : "Text.004", 
            "rotation" : [
                0.7071068286895752, 
                0.0, 
                -0.0, 
                0.7071068286895752
            ], 
            "scale" : [
                0.36149001121520996, 
                0.36149001121520996, 
                0.36149001121520996
            ], 
            "translation" : [
                0.8539631366729736, 
                -0.32345226407051086, 
                5.387598775996594e-07
            ]
        }
    ], 
    "scene" : 0, 
    "scenes" : [
        {
            "name" : "Scene", 
            "nodes" : [
                2, 
                1, 
                0
            ]
        }
    ]
}
