{
    "accessors" : [
        {
            "bufferView" : 0, 
            "componentType" : 5123, 
            "count" : 27456, 
            "max" : [
                6126
            ], 
            "min" : [
                0
            ], 
            "type" : "SCALAR"
        }, 
        {
            "bufferView" : 1, 
            "componentType" : 5126, 
            "count" : 6127, 
            "max" : [
                0.199076846241951, 
                0.06499999761581421, 
                0.3029996156692505
            ], 
            "min" : [
                -0.17690259218215942, 
                -0.06499999761581421, 
                -0.2765393555164337
            ], 
            "type" : "VEC3"
        }, 
        {
            "bufferView" : 2, 
            "componentType" : 5126, 
            "count" : 6127, 
            "max" : [
                0.999969482421875, 
                1.0, 
                0.999969482421875
            ], 
            "min" : [
                -0.999969482421875, 
                -1.0, 
                -0.999969482421875
            ], 
            "type" : "VEC3"
        }, 
        {
            "bufferView" : 3, 
            "componentType" : 5123, 
            "count" : 68520, 
            "max" : [
                15253
            ], 
            "min" : [
                0
            ], 
            "type" : "SCALAR"
        }, 
        {
            "bufferView" : 4, 
            "componentType" : 5126, 
            "count" : 15254, 
            "max" : [
                0.47415733337402344, 
                0.06499999761581421, 
                0.2246021032333374
            ], 
            "min" : [
                -0.4700964689254761, 
                -0.06499999761581421, 
                -0.20788004994392395
            ], 
            "type" : "VEC3"
        }, 
        {
            "bufferView" : 5, 
            "componentType" : 5126, 
            "count" : 15254, 
            "max" : [
                0.999969482421875, 
                1.0, 
                0.999969482421875
            ], 
            "min" : [
                -1.0, 
                -1.0, 
                -0.999969482421875
            ], 
            "type" : "VEC3"
        }, 
        {
            "bufferView" : 6, 
            "componentType" : 5123, 
            "count" : 25368, 
            "max" : [
                5674
            ], 
            "min" : [
                0
            ], 
            "type" : "SCALAR"
        }, 
        {
            "bufferView" : 7, 
            "componentType" : 5126, 
            "count" : 5675, 
            "max" : [
                1.6066442728042603, 
                0.06499999761581421, 
                0.022741610184311867
            ], 
            "min" : [
                1.1981556415557861, 
                -0.06499999761581421, 
                -0.40973961353302
            ], 
            "type" : "VEC3"
        }, 
        {
            "bufferView" : 8, 
            "componentType" : 5126, 
            "count" : 5675, 
            "max" : [
                0.999969482421875, 
                1.0, 
                0.999969482421875
            ], 
            "min" : [
                -0.999969482421875, 
                -1.0, 
                -1.0
            ], 
            "type" : "VEC3"
        }, 
        {
            "bufferView" : 9, 
            "componentType" : 5123, 
            "count" : 28788, 
            "max" : [
                6397
            ], 
            "min" : [
                0
            ], 
            "type" : "SCALAR"
        }, 
        {
            "bufferView" : 10, 
            "componentType" : 5126, 
            "count" : 6398, 
            "max" : [
                1.0027709007263184, 
                0.06499999761581421, 
                0.015006584115326405
            ], 
            "min" : [
                0.06549099087715149, 
                -0.06499999761581421, 
                -0.409740149974823
            ], 
            "type" : "VEC3"
        }, 
        {
            "bufferView" : 11, 
            "componentType" : 5126, 
            "count" : 6398, 
            "max" : [
                1.0, 
                1.0, 
                1.0
            ], 
            "min" : [
                -1.0, 
                -1.0, 
                -1.0
            ], 
            "type" : "VEC3"
        }, 
        {
            "bufferView" : 12, 
            "componentType" : 5126, 
            "count" : 7, 
            "max" : [
                4.166666666666667
            ], 
            "min" : [
                0.0
            ], 
            "type" : "SCALAR"
        }, 
        {
            "bufferView" : 13, 
            "componentType" : 5126, 
            "count" : 21, 
            "max" : [
                1.0, 
                1.0, 
                1.3034284114837646
            ], 
            "min" : [
                0.0, 
                0.0, 
                0.0
            ], 
            "type" : "VEC3"
        }, 
        {
            "bufferView" : 14, 
            "componentType" : 5126, 
            "count" : 101, 
            "max" : [
                4.166666666666667
            ], 
            "min" : [
                0.0
            ], 
            "type" : "SCALAR"
        }, 
        {
            "bufferView" : 15, 
            "componentType" : 5126, 
            "count" : 101, 
            "max" : [
                0.7082934379577637, 
                0.05752962827682495, 
                0.06528985500335693, 
                0.7081493735313416
            ], 
            "min" : [
                0.7009735703468323, 
                -0.05752963572740555, 
                -0.06528985500335693, 
                0.7009735703468323
            ], 
            "type" : "VEC4"
        }, 
        {
            "bufferView" : 16, 
            "componentType" : 5126, 
            "count" : 10, 
            "max" : [
                4.166666666666667
            ], 
            "min" : [
                0.0
            ], 
            "type" : "SCALAR"
        }, 
        {
            "bufferView" : 17, 
            "componentType" : 5126, 
            "count" : 30, 
            "max" : [
                1.0, 
                1.0, 
                1.0
            ], 
            "min" : [
                0.0, 
                0.0, 
                0.0
            ], 
            "type" : "VEC3"
        }, 
        {
            "bufferView" : 18, 
            "componentType" : 5126, 
            "count" : 101, 
            "max" : [
                4.166666666666667
            ], 
            "min" : [
                0.0
            ], 
            "type" : "SCALAR"
        }, 
        {
            "bufferView" : 19, 
            "componentType" : 5126, 
            "count" : 101, 
            "max" : [
                2.2759618759155273, 
                0.5043390393257141, 
                0.028464073315262794
            ], 
            "min" : [
                2.2759618759155273, 
                0.22898830473423004, 
                0.028464073315262794
            ], 
            "type" : "VEC3"
        }, 
        {
            "bufferView" : 20, 
            "componentType" : 5126, 
            "count" : 101, 
            "max" : [
                4.166666666666667
            ], 
            "min" : [
                0.0
            ], 
            "type" : "SCALAR"
        }, 
        {
            "bufferView" : 21, 
            "componentType" : 5126, 
            "count" : 101, 
            "max" : [
                0.7071067690849304, 
                0.0, 
                -0.0, 
                0.7071067690849304
            ], 
            "min" : [
                0.7071067690849304, 
                0.0, 
                -0.0, 
                0.7071067690849304
            ], 
            "type" : "VEC4"
        }, 
        {
            "bufferView" : 22, 
            "componentType" : 5126, 
            "count" : 10, 
            "max" : [
                4.166666666666667
            ], 
            "min" : [
                0.0
            ], 
            "type" : "SCALAR"
        }, 
        {
            "bufferView" : 23, 
            "componentType" : 5126, 
            "count" : 30, 
            "max" : [
                1.1793123483657837, 
                1.1793123483657837, 
                1.4461590051651
            ], 
            "min" : [
                0.0, 
                0.0, 
                0.0
            ], 
            "type" : "VEC3"
        }
    ], 
    "animations" : [
        {
            "channels" : [
                {
                    "sampler" : 0, 
                    "target" : {
                        "node" : 0, 
                        "path" : "scale"
                    }
                }, 
                {
                    "sampler" : 1, 
                    "target" : {
                        "node" : 1, 
                        "path" : "rotation"
                    }
                }, 
                {
                    "sampler" : 2, 
                    "target" : {
                        "node" : 1, 
                        "path" : "scale"
                    }
                }, 
                {
                    "sampler" : 3, 
                    "target" : {
                        "node" : 2, 
                        "path" : "translation"
                    }
                }, 
                {
                    "sampler" : 4, 
                    "target" : {
                        "node" : 2, 
                        "path" : "rotation"
                    }
                }, 
                {
                    "sampler" : 5, 
                    "target" : {
                        "node" : 2, 
                        "path" : "scale"
                    }
                }
            ], 
            "samplers" : [
                {
                    "input" : 12, 
                    "interpolation" : "CUBICSPLINE", 
                    "output" : 13
                }, 
                {
                    "input" : 14, 
                    "interpolation" : "LINEAR", 
                    "output" : 15
                }, 
                {
                    "input" : 16, 
                    "interpolation" : "CUBICSPLINE", 
                    "output" : 17
                }, 
                {
                    "input" : 18, 
                    "interpolation" : "LINEAR", 
                    "output" : 19
                }, 
                {
                    "input" : 20, 
                    "interpolation" : "LINEAR", 
                    "output" : 21
                }, 
                {
                    "input" : 22, 
                    "interpolation" : "CUBICSPLINE", 
                    "output" : 23
                }
            ]
        }
    ], 
    "asset" : {
        "generator" : "Khronos Blender glTF 2.0 exporter", 
        "version" : "2.0"
    }, 
    "bufferViews" : [
        {
            "buffer" : 0, 
            "byteLength" : 54912, 
            "byteOffset" : 0, 
            "target" : 34963
        }, 
        {
            "buffer" : 0, 
            "byteLength" : 73524, 
            "byteOffset" : 54912, 
            "target" : 34962
        }, 
        {
            "buffer" : 0, 
            "byteLength" : 73524, 
            "byteOffset" : 128436, 
            "target" : 34962
        }, 
        {
            "buffer" : 0, 
            "byteLength" : 137040, 
            "byteOffset" : 201960, 
            "target" : 34963
        }, 
        {
            "buffer" : 0, 
            "byteLength" : 183048, 
            "byteOffset" : 339000, 
            "target" : 34962
        }, 
        {
            "buffer" : 0, 
            "byteLength" : 183048, 
            "byteOffset" : 522048, 
            "target" : 34962
        }, 
        {
            "buffer" : 0, 
            "byteLength" : 50736, 
            "byteOffset" : 705096, 
            "target" : 34963
        }, 
        {
            "buffer" : 0, 
            "byteLength" : 68100, 
            "byteOffset" : 755832, 
            "target" : 34962
        }, 
        {
            "buffer" : 0, 
            "byteLength" : 68100, 
            "byteOffset" : 823932, 
            "target" : 34962
        }, 
        {
            "buffer" : 0, 
            "byteLength" : 57576, 
            "byteOffset" : 892032, 
            "target" : 34963
        }, 
        {
            "buffer" : 0, 
            "byteLength" : 76776, 
            "byteOffset" : 949608, 
            "target" : 34962
        }, 
        {
            "buffer" : 0, 
            "byteLength" : 76776, 
            "byteOffset" : 1026384, 
            "target" : 34962
        }, 
        {
            "buffer" : 0, 
            "byteLength" : 28, 
            "byteOffset" : 1103160
        }, 
        {
            "buffer" : 0, 
            "byteLength" : 252, 
            "byteOffset" : 1103188
        }, 
        {
            "buffer" : 0, 
            "byteLength" : 404, 
            "byteOffset" : 1103440
        }, 
        {
            "buffer" : 0, 
            "byteLength" : 1616, 
            "byteOffset" : 1103844
        }, 
        {
            "buffer" : 0, 
            "byteLength" : 40, 
            "byteOffset" : 1105460
        }, 
        {
            "buffer" : 0, 
            "byteLength" : 360, 
            "byteOffset" : 1105500
        }, 
        {
            "buffer" : 0, 
            "byteLength" : 404, 
            "byteOffset" : 1105860
        }, 
        {
            "buffer" : 0, 
            "byteLength" : 1212, 
            "byteOffset" : 1106264
        }, 
        {
            "buffer" : 0, 
            "byteLength" : 404, 
            "byteOffset" : 1107476
        }, 
        {
            "buffer" : 0, 
            "byteLength" : 1616, 
            "byteOffset" : 1107880
        }, 
        {
            "buffer" : 0, 
            "byteLength" : 40, 
            "byteOffset" : 1109496
        }, 
        {
            "buffer" : 0, 
            "byteLength" : 360, 
            "byteOffset" : 1109536
        }
    ], 
    "buffers" : [
        {
            "byteLength" : 1109896, 
            "uri" : "-ness.bin"
        }
    ], 
    "materials" : [
        {
            "name" : "BLUE", 
            "pbrMetallicRoughness" : {
                "baseColorFactor" : [
                    0.04516454406327819, 
                    0.18922394796049513, 
                    0.4221725526775799, 
                    1.0
                ], 
                "metallicFactor" : 0.0
            }
        }, 
        {
            "name" : "Material", 
            "pbrMetallicRoughness" : {
                "baseColorFactor" : [
                    0.04177363279124546, 
                    0.04177363279124546, 
                    0.04177363279124546, 
                    1.0
                ], 
                "metallicFactor" : 0.0
            }
        }, 
        {
            "name" : "Material.001", 
            "pbrMetallicRoughness" : {
                "baseColorFactor" : [
                    0.04177363279124546, 
                    0.04177363279124546, 
                    0.04177363279124546, 
                    1.0
                ], 
                "metallicFactor" : 0.0
            }
        }, 
        {
            "name" : "Material.007", 
            "pbrMetallicRoughness" : {
                "baseColorFactor" : [
                    0.640000066757203, 
                    0.01893110303478096, 
                    0.012593503484033097, 
                    1.0
                ], 
                "metallicFactor" : 0.0
            }
        }
    ], 
    "meshes" : [
        {
            "name" : "CUText.005", 
            "primitives" : [
                {
                    "attributes" : {
                        "NORMAL" : 2, 
                        "POSITION" : 1
                    }, 
                    "indices" : 0, 
                    "material" : 0
                }
            ]
        }, 
        {
            "name" : "CUText.004", 
            "primitives" : [
                {
                    "attributes" : {
                        "NORMAL" : 5, 
                        "POSITION" : 4
                    }, 
                    "indices" : 3, 
                    "material" : 1
                }
            ]
        }, 
        {
            "name" : "CUText.013", 
            "primitives" : [
                {
                    "attributes" : {
                        "NORMAL" : 8, 
                        "POSITION" : 7
                    }, 
                    "indices" : 6, 
                    "material" : 3
                }
            ]
        }, 
        {
            "name" : "CUText.014", 
            "primitives" : [
                {
                    "attributes" : {
                        "NORMAL" : 11, 
                        "POSITION" : 10
                    }, 
                    "indices" : 9, 
                    "material" : 2
                }
            ]
        }
    ], 
    "nodes" : [
        {
            "mesh" : 2, 
            "name" : "Text.000", 
            "rotation" : [
                0.7071068286895752, 
                0.0, 
                -0.0, 
                0.7071068286895752
            ]
        }, 
        {
            "mesh" : 1, 
            "name" : "Text.002", 
            "rotation" : [
                0.7071068286895752, 
                0.0, 
                -0.0, 
                0.7071068286895752
            ], 
            "translation" : [
                2.2757372856140137, 
                0.2067607045173645, 
                3.493787481545496e-09
            ]
        }, 
        {
            "mesh" : 0, 
            "name" : "Text.004", 
            "scale" : [
                0.0, 
                0.0, 
                0.0
            ], 
            "translation" : [
                2.2759618759155273, 
                0.22898830473423004, 
                0.028464073315262794
            ]
        }, 
        {
            "mesh" : 3, 
            "name" : "Text.005", 
            "rotation" : [
                0.7071068286895752, 
                0.0, 
                -0.0, 
                0.7071068286895752
            ]
        }
    ], 
    "scene" : 0, 
    "scenes" : [
        {
            "name" : "Scene", 
            "nodes" : [
                0, 
                2, 
                1, 
                3
            ]
        }
    ]
}
