{
    "accessors" : [
        {
            "bufferView" : 0, 
            "componentType" : 5123, 
            "count" : 56184, 
            "max" : [
                12529
            ], 
            "min" : [
                0
            ], 
            "type" : "SCALAR"
        }, 
        {
            "bufferView" : 1, 
            "componentType" : 5126, 
            "count" : 12530, 
            "max" : [
                0.5189986228942871, 
                0.06499681621789932, 
                0.22339071333408356
            ], 
            "min" : [
                -0.48561787605285645, 
                -0.0650031790137291, 
                -0.2090936154127121
            ], 
            "type" : "VEC3"
        }, 
        {
            "bufferView" : 2, 
            "componentType" : 5126, 
            "count" : 12530, 
            "max" : [
                0.999969482421875, 
                1.0, 
                1.0
            ], 
            "min" : [
                -1.0, 
                -1.0, 
                -1.0
            ], 
            "type" : "VEC3"
        }, 
        {
            "bufferView" : 3, 
            "componentType" : 5123, 
            "count" : 62640, 
            "max" : [
                13838
            ], 
            "min" : [
                0
            ], 
            "type" : "SCALAR"
        }, 
        {
            "bufferView" : 4, 
            "componentType" : 5126, 
            "count" : 13839, 
            "max" : [
                1.5989030599594116, 
                0.06499999761581421, 
                0.02274397388100624
            ], 
            "min" : [
                0.06549099087715149, 
                -0.06499999761581421, 
                -0.4097398817539215
            ], 
            "type" : "VEC3"
        }, 
        {
            "bufferView" : 5, 
            "componentType" : 5126, 
            "count" : 13839, 
            "max" : [
                1.0, 
                1.0, 
                1.0
            ], 
            "min" : [
                -1.0, 
                -1.0, 
                -1.0
            ], 
            "type" : "VEC3"
        }, 
        {
            "bufferView" : 6, 
            "componentType" : 5123, 
            "count" : 56184, 
            "max" : [
                12529
            ], 
            "min" : [
                0
            ], 
            "type" : "SCALAR"
        }, 
        {
            "bufferView" : 7, 
            "componentType" : 5126, 
            "count" : 12530, 
            "max" : [
                0.5189986228942871, 
                0.06499681621789932, 
                0.22339071333408356
            ], 
            "min" : [
                -0.48561787605285645, 
                -0.0650031790137291, 
                -0.2090936154127121
            ], 
            "type" : "VEC3"
        }, 
        {
            "bufferView" : 8, 
            "componentType" : 5126, 
            "count" : 12530, 
            "max" : [
                0.999969482421875, 
                1.0, 
                1.0
            ], 
            "min" : [
                -1.0, 
                -1.0, 
                -1.0
            ], 
            "type" : "VEC3"
        }, 
        {
            "bufferView" : 9, 
            "componentType" : 5126, 
            "count" : 8, 
            "max" : [
                4.583333333333333
            ], 
            "min" : [
                0.0
            ], 
            "type" : "SCALAR"
        }, 
        {
            "bufferView" : 10, 
            "componentType" : 5126, 
            "count" : 24, 
            "max" : [
                2.2473981380462646, 
                0.20064909756183624, 
                3.187766424161964e-06
            ], 
            "min" : [
                0.0, 
                0.0, 
                -0.0
            ], 
            "type" : "VEC3"
        }, 
        {
            "bufferView" : 11, 
            "componentType" : 5126, 
            "count" : 111, 
            "max" : [
                4.583333333333333
            ], 
            "min" : [
                0.0
            ], 
            "type" : "SCALAR"
        }, 
        {
            "bufferView" : 12, 
            "componentType" : 5126, 
            "count" : 111, 
            "max" : [
                0.7071067690849304, 
                0.03084355965256691, 
                0.030843567103147507, 
                0.7071067690849304
            ], 
            "min" : [
                0.7064337730407715, 
                -0.03084355778992176, 
                -0.030843565240502357, 
                0.7064337730407715
            ], 
            "type" : "VEC4"
        }, 
        {
            "bufferView" : 13, 
            "componentType" : 5126, 
            "count" : 11, 
            "max" : [
                4.583333333333333
            ], 
            "min" : [
                0.0
            ], 
            "type" : "SCALAR"
        }, 
        {
            "bufferView" : 14, 
            "componentType" : 5126, 
            "count" : 33, 
            "max" : [
                1.4126341342926025, 
                1.4126341342926025, 
                1.4126341342926025
            ], 
            "min" : [
                0.0, 
                0.0, 
                0.0
            ], 
            "type" : "VEC3"
        }, 
        {
            "bufferView" : 15, 
            "componentType" : 5126, 
            "count" : 5, 
            "max" : [
                4.583333333333333
            ], 
            "min" : [
                0.0
            ], 
            "type" : "SCALAR"
        }, 
        {
            "bufferView" : 16, 
            "componentType" : 5126, 
            "count" : 15, 
            "max" : [
                1.0, 
                1.0, 
                1.0
            ], 
            "min" : [
                0.0, 
                0.0, 
                0.0
            ], 
            "type" : "VEC3"
        }
    ], 
    "animations" : [
        {
            "channels" : [
                {
                    "sampler" : 0, 
                    "target" : {
                        "node" : 1, 
                        "path" : "translation"
                    }
                }, 
                {
                    "sampler" : 1, 
                    "target" : {
                        "node" : 1, 
                        "path" : "rotation"
                    }
                }, 
                {
                    "sampler" : 2, 
                    "target" : {
                        "node" : 1, 
                        "path" : "scale"
                    }
                }, 
                {
                    "sampler" : 3, 
                    "target" : {
                        "node" : 2, 
                        "path" : "scale"
                    }
                }
            ], 
            "samplers" : [
                {
                    "input" : 9, 
                    "interpolation" : "CUBICSPLINE", 
                    "output" : 10
                }, 
                {
                    "input" : 11, 
                    "interpolation" : "LINEAR", 
                    "output" : 12
                }, 
                {
                    "input" : 13, 
                    "interpolation" : "CUBICSPLINE", 
                    "output" : 14
                }, 
                {
                    "input" : 15, 
                    "interpolation" : "CUBICSPLINE", 
                    "output" : 16
                }
            ]
        }
    ], 
    "asset" : {
        "generator" : "Khronos Blender glTF 2.0 exporter", 
        "version" : "2.0"
    }, 
    "bufferViews" : [
        {
            "buffer" : 0, 
            "byteLength" : 112368, 
            "byteOffset" : 0, 
            "target" : 34963
        }, 
        {
            "buffer" : 0, 
            "byteLength" : 150360, 
            "byteOffset" : 112368, 
            "target" : 34962
        }, 
        {
            "buffer" : 0, 
            "byteLength" : 150360, 
            "byteOffset" : 262728, 
            "target" : 34962
        }, 
        {
            "buffer" : 0, 
            "byteLength" : 125280, 
            "byteOffset" : 413088, 
            "target" : 34963
        }, 
        {
            "buffer" : 0, 
            "byteLength" : 166068, 
            "byteOffset" : 538368, 
            "target" : 34962
        }, 
        {
            "buffer" : 0, 
            "byteLength" : 166068, 
            "byteOffset" : 704436, 
            "target" : 34962
        }, 
        {
            "buffer" : 0, 
            "byteLength" : 112368, 
            "byteOffset" : 870504, 
            "target" : 34963
        }, 
        {
            "buffer" : 0, 
            "byteLength" : 150360, 
            "byteOffset" : 982872, 
            "target" : 34962
        }, 
        {
            "buffer" : 0, 
            "byteLength" : 150360, 
            "byteOffset" : 1133232, 
            "target" : 34962
        }, 
        {
            "buffer" : 0, 
            "byteLength" : 32, 
            "byteOffset" : 1283592
        }, 
        {
            "buffer" : 0, 
            "byteLength" : 288, 
            "byteOffset" : 1283624
        }, 
        {
            "buffer" : 0, 
            "byteLength" : 444, 
            "byteOffset" : 1283912
        }, 
        {
            "buffer" : 0, 
            "byteLength" : 1776, 
            "byteOffset" : 1284356
        }, 
        {
            "buffer" : 0, 
            "byteLength" : 44, 
            "byteOffset" : 1286132
        }, 
        {
            "buffer" : 0, 
            "byteLength" : 396, 
            "byteOffset" : 1286176
        }, 
        {
            "buffer" : 0, 
            "byteLength" : 20, 
            "byteOffset" : 1286572
        }, 
        {
            "buffer" : 0, 
            "byteLength" : 180, 
            "byteOffset" : 1286592
        }
    ], 
    "buffers" : [
        {
            "byteLength" : 1286772, 
            "uri" : "-some.bin"
        }
    ], 
    "materials" : [
        {
            "name" : "BLUE", 
            "pbrMetallicRoughness" : {
                "baseColorFactor" : [
                    0.04516454406327819, 
                    0.18922394796049513, 
                    0.4221725526775799, 
                    1.0
                ], 
                "metallicFactor" : 0.0
            }
        }, 
        {
            "name" : "Material.002", 
            "pbrMetallicRoughness" : {
                "baseColorFactor" : [
                    0.04177353444358012, 
                    0.04177353444358012, 
                    0.04177353444358012, 
                    1.0
                ], 
                "metallicFactor" : 0.0
            }
        }
    ], 
    "meshes" : [
        {
            "name" : "CUText.002", 
            "primitives" : [
                {
                    "attributes" : {
                        "NORMAL" : 2, 
                        "POSITION" : 1
                    }, 
                    "indices" : 0, 
                    "material" : 1
                }
            ]
        }, 
        {
            "name" : "CUText", 
            "primitives" : [
                {
                    "attributes" : {
                        "NORMAL" : 5, 
                        "POSITION" : 4
                    }, 
                    "indices" : 3, 
                    "material" : 1
                }
            ]
        }, 
        {
            "name" : "CUText.001", 
            "primitives" : [
                {
                    "attributes" : {
                        "NORMAL" : 8, 
                        "POSITION" : 7
                    }, 
                    "indices" : 6, 
                    "material" : 0
                }
            ]
        }
    ], 
    "nodes" : [
        {
            "mesh" : 1, 
            "name" : "Text", 
            "rotation" : [
                0.7071068286895752, 
                0.0, 
                -0.0, 
                0.7071068286895752
            ]
        }, 
        {
            "mesh" : 2, 
            "name" : "Text.001", 
            "scale" : [
                0.0, 
                0.0, 
                0.0
            ], 
            "translation" : [
                2.2473981380462646, 
                0.20064909756183624, 
                3.187766424161964e-06
            ]
        }, 
        {
            "mesh" : 0, 
            "name" : "Text.002", 
            "rotation" : [
                0.7071068286895752, 
                0.0, 
                -0.0, 
                0.7071068286895752
            ], 
            "translation" : [
                2.2473981380462646, 
                0.20064909756183624, 
                3.187766424161964e-06
            ]
        }
    ], 
    "scene" : 0, 
    "scenes" : [
        {
            "name" : "Scene", 
            "nodes" : [
                2, 
                1, 
                0
            ]
        }
    ]
}
