{
    "accessors" : [
        {
            "bufferView" : 0, 
            "componentType" : 5123, 
            "count" : 20568, 
            "max" : [
                4634
            ], 
            "min" : [
                0
            ], 
            "type" : "SCALAR"
        }, 
        {
            "bufferView" : 1, 
            "componentType" : 5126, 
            "count" : 4635, 
            "max" : [
                2.7423994541168213, 
                0.06499999761581421, 
                0.015006584115326405
            ], 
            "min" : [
                2.387321949005127, 
                -0.06499999761581421, 
                -0.409740149974823
            ], 
            "type" : "VEC3"
        }, 
        {
            "bufferView" : 2, 
            "componentType" : 5126, 
            "count" : 4635, 
            "max" : [
                0.99993896484375, 
                1.0, 
                1.0
            ], 
            "min" : [
                -0.999969482421875, 
                -1.0, 
                -1.0
            ], 
            "type" : "VEC3"
        }, 
        {
            "bufferView" : 3, 
            "componentType" : 5123, 
            "count" : 25368, 
            "max" : [
                5698
            ], 
            "min" : [
                0
            ], 
            "type" : "SCALAR"
        }, 
        {
            "bufferView" : 4, 
            "componentType" : 5126, 
            "count" : 5699, 
            "max" : [
                2.186520576477051, 
                0.06499999761581421, 
                0.022741610184311867
            ], 
            "min" : [
                1.778031826019287, 
                -0.06499999761581421, 
                -0.40973961353302
            ], 
            "type" : "VEC3"
        }, 
        {
            "bufferView" : 5, 
            "componentType" : 5126, 
            "count" : 5699, 
            "max" : [
                0.999969482421875, 
                1.0, 
                0.999969482421875
            ], 
            "min" : [
                -0.999969482421875, 
                -1.0, 
                -1.0
            ], 
            "type" : "VEC3"
        }, 
        {
            "bufferView" : 6, 
            "componentType" : 5123, 
            "count" : 22740, 
            "max" : [
                5057
            ], 
            "min" : [
                0
            ], 
            "type" : "SCALAR"
        }, 
        {
            "bufferView" : 7, 
            "componentType" : 5126, 
            "count" : 5058, 
            "max" : [
                1.6229020357131958, 
                0.06499999761581421, 
                0.015000002458691597
            ], 
            "min" : [
                1.2229185104370117, 
                -0.06499999761581421, 
                -0.5568023920059204
            ], 
            "type" : "VEC3"
        }, 
        {
            "bufferView" : 8, 
            "componentType" : 5126, 
            "count" : 5058, 
            "max" : [
                1.0, 
                1.0, 
                1.0
            ], 
            "min" : [
                -1.0, 
                -1.0, 
                -1.0
            ], 
            "type" : "VEC3"
        }, 
        {
            "bufferView" : 9, 
            "componentType" : 5121, 
            "count" : 324, 
            "max" : [
                135
            ], 
            "min" : [
                0
            ], 
            "type" : "SCALAR"
        }, 
        {
            "bufferView" : 10, 
            "componentType" : 5126, 
            "count" : 136, 
            "max" : [
                1.0, 
                2.8987531661987305, 
                1.0
            ], 
            "min" : [
                -1.0, 
                -1.0, 
                -1.0
            ], 
            "type" : "VEC3"
        }, 
        {
            "bufferView" : 11, 
            "componentType" : 5126, 
            "count" : 136, 
            "max" : [
                1.0, 
                1.0, 
                1.0
            ], 
            "min" : [
                -1.0, 
                -1.0, 
                -1.0
            ], 
            "type" : "VEC3"
        }, 
        {
            "bufferView" : 12, 
            "componentType" : 5123, 
            "count" : 33072, 
            "max" : [
                7359
            ], 
            "min" : [
                0
            ], 
            "type" : "SCALAR"
        }, 
        {
            "bufferView" : 13, 
            "componentType" : 5126, 
            "count" : 7360, 
            "max" : [
                1.0321929454803467, 
                0.06499999761581421, 
                0.022741474211215973
            ], 
            "min" : [
                0.06549099087715149, 
                -0.06499999761581421, 
                -0.5645420551300049
            ], 
            "type" : "VEC3"
        }, 
        {
            "bufferView" : 14, 
            "componentType" : 5126, 
            "count" : 7360, 
            "max" : [
                1.0, 
                1.0, 
                0.999969482421875
            ], 
            "min" : [
                -1.0, 
                -1.0, 
                -0.999969482421875
            ], 
            "type" : "VEC3"
        }, 
        {
            "bufferView" : 15, 
            "componentType" : 5123, 
            "count" : 87036, 
            "max" : [
                19246
            ], 
            "min" : [
                0
            ], 
            "type" : "SCALAR"
        }, 
        {
            "bufferView" : 16, 
            "componentType" : 5126, 
            "count" : 19247, 
            "max" : [
                1.8176342248916626, 
                0.06499999761581421, 
                0.02274397388100624
            ], 
            "min" : [
                0.10806243866682053, 
                -0.06499999761581421, 
                -0.5645653605461121
            ], 
            "type" : "VEC3"
        }, 
        {
            "bufferView" : 17, 
            "componentType" : 5126, 
            "count" : 19247, 
            "max" : [
                0.999969482421875, 
                1.0, 
                1.0
            ], 
            "min" : [
                -1.0, 
                -1.0, 
                -1.0
            ], 
            "type" : "VEC3"
        }, 
        {
            "bufferView" : 18, 
            "componentType" : 5123, 
            "count" : 24852, 
            "max" : [
                5547
            ], 
            "min" : [
                0
            ], 
            "type" : "SCALAR"
        }, 
        {
            "bufferView" : 19, 
            "componentType" : 5126, 
            "count" : 5548, 
            "max" : [
                3.3516974449157715, 
                0.06499999761581421, 
                0.022741474211215973
            ], 
            "min" : [
                2.926945209503174, 
                -0.06499999761581421, 
                -0.5645420551300049
            ], 
            "type" : "VEC3"
        }, 
        {
            "bufferView" : 20, 
            "componentType" : 5126, 
            "count" : 5548, 
            "max" : [
                1.0, 
                1.0, 
                0.999969482421875
            ], 
            "min" : [
                -1.0, 
                -1.0, 
                -0.999969482421875
            ], 
            "type" : "VEC3"
        }, 
        {
            "bufferView" : 21, 
            "componentType" : 5126, 
            "count" : 30, 
            "max" : [
                2.4583333333333335
            ], 
            "min" : [
                1.25
            ], 
            "type" : "SCALAR"
        }, 
        {
            "bufferView" : 22, 
            "componentType" : 5126, 
            "count" : 30, 
            "max" : [
                0.7071067690849304, 
                0.0, 
                -0.0, 
                0.7071067690849304
            ], 
            "min" : [
                0.7071067690849304, 
                0.0, 
                -0.0, 
                0.7071067690849304
            ], 
            "type" : "VEC4"
        }, 
        {
            "bufferView" : 23, 
            "componentType" : 5126, 
            "count" : 50, 
            "max" : [
                3.2916666666666665
            ], 
            "min" : [
                1.25
            ], 
            "type" : "SCALAR"
        }, 
        {
            "bufferView" : 24, 
            "componentType" : 5126, 
            "count" : 50, 
            "max" : [
                1.0, 
                1.0, 
                1.1344666481018066
            ], 
            "min" : [
                1.0, 
                1.0, 
                0.7425984144210815
            ], 
            "type" : "VEC3"
        }
    ], 
    "animations" : [
        {
            "channels" : [
                {
                    "sampler" : 0, 
                    "target" : {
                        "node" : 4, 
                        "path" : "rotation"
                    }
                }, 
                {
                    "sampler" : 1, 
                    "target" : {
                        "node" : 4, 
                        "path" : "scale"
                    }
                }
            ], 
            "samplers" : [
                {
                    "input" : 21, 
                    "interpolation" : "LINEAR", 
                    "output" : 22
                }, 
                {
                    "input" : 23, 
                    "interpolation" : "LINEAR", 
                    "output" : 24
                }
            ]
        }
    ], 
    "asset" : {
        "generator" : "Khronos Blender glTF 2.0 exporter", 
        "version" : "2.0"
    }, 
    "bufferViews" : [
        {
            "buffer" : 0, 
            "byteLength" : 41136, 
            "byteOffset" : 0, 
            "target" : 34963
        }, 
        {
            "buffer" : 0, 
            "byteLength" : 55620, 
            "byteOffset" : 41136, 
            "target" : 34962
        }, 
        {
            "buffer" : 0, 
            "byteLength" : 55620, 
            "byteOffset" : 96756, 
            "target" : 34962
        }, 
        {
            "buffer" : 0, 
            "byteLength" : 50736, 
            "byteOffset" : 152376, 
            "target" : 34963
        }, 
        {
            "buffer" : 0, 
            "byteLength" : 68388, 
            "byteOffset" : 203112, 
            "target" : 34962
        }, 
        {
            "buffer" : 0, 
            "byteLength" : 68388, 
            "byteOffset" : 271500, 
            "target" : 34962
        }, 
        {
            "buffer" : 0, 
            "byteLength" : 45480, 
            "byteOffset" : 339888, 
            "target" : 34963
        }, 
        {
            "buffer" : 0, 
            "byteLength" : 60696, 
            "byteOffset" : 385368, 
            "target" : 34962
        }, 
        {
            "buffer" : 0, 
            "byteLength" : 60696, 
            "byteOffset" : 446064, 
            "target" : 34962
        }, 
        {
            "buffer" : 0, 
            "byteLength" : 324, 
            "byteOffset" : 506760, 
            "target" : 34963
        }, 
        {
            "buffer" : 0, 
            "byteLength" : 1632, 
            "byteOffset" : 507084, 
            "target" : 34962
        }, 
        {
            "buffer" : 0, 
            "byteLength" : 1632, 
            "byteOffset" : 508716, 
            "target" : 34962
        }, 
        {
            "buffer" : 0, 
            "byteLength" : 66144, 
            "byteOffset" : 510348, 
            "target" : 34963
        }, 
        {
            "buffer" : 0, 
            "byteLength" : 88320, 
            "byteOffset" : 576492, 
            "target" : 34962
        }, 
        {
            "buffer" : 0, 
            "byteLength" : 88320, 
            "byteOffset" : 664812, 
            "target" : 34962
        }, 
        {
            "buffer" : 0, 
            "byteLength" : 174072, 
            "byteOffset" : 753132, 
            "target" : 34963
        }, 
        {
            "buffer" : 0, 
            "byteLength" : 230964, 
            "byteOffset" : 927204, 
            "target" : 34962
        }, 
        {
            "buffer" : 0, 
            "byteLength" : 230964, 
            "byteOffset" : 1158168, 
            "target" : 34962
        }, 
        {
            "buffer" : 0, 
            "byteLength" : 49704, 
            "byteOffset" : 1389132, 
            "target" : 34963
        }, 
        {
            "buffer" : 0, 
            "byteLength" : 66576, 
            "byteOffset" : 1438836, 
            "target" : 34962
        }, 
        {
            "buffer" : 0, 
            "byteLength" : 66576, 
            "byteOffset" : 1505412, 
            "target" : 34962
        }, 
        {
            "buffer" : 0, 
            "byteLength" : 120, 
            "byteOffset" : 1571988
        }, 
        {
            "buffer" : 0, 
            "byteLength" : 480, 
            "byteOffset" : 1572108
        }, 
        {
            "buffer" : 0, 
            "byteLength" : 200, 
            "byteOffset" : 1572588
        }, 
        {
            "buffer" : 0, 
            "byteLength" : 600, 
            "byteOffset" : 1572788
        }
    ], 
    "buffers" : [
        {
            "byteLength" : 1573388, 
            "uri" : "-tient.bin"
        }
    ], 
    "materials" : [
        {
            "name" : "Material", 
            "pbrMetallicRoughness" : {
                "baseColorFactor" : [
                    0.04177363279124546, 
                    0.04177363279124546, 
                    0.04177363279124546, 
                    1.0
                ], 
                "metallicFactor" : 0.0
            }
        }, 
        {
            "name" : "Material.001", 
            "pbrMetallicRoughness" : {
                "baseColorFactor" : [
                    0.640000066757203, 
                    0.01893110303478096, 
                    0.012593503484033097, 
                    1.0
                ], 
                "metallicFactor" : 0.0
            }
        }, 
        {
            "name" : "Material.004", 
            "pbrMetallicRoughness" : {
                "baseColorFactor" : [
                    0.640000066757203, 
                    0.01893110303478096, 
                    0.012593503484033097, 
                    1.0
                ], 
                "metallicFactor" : 0.0
            }
        }, 
        {
            "name" : "Material.005", 
            "pbrMetallicRoughness" : {
                "baseColorFactor" : [
                    0.37375867923734596, 
                    0.1728259469989828, 
                    0.3502181343766768, 
                    1.0
                ], 
                "metallicFactor" : 0.0
            }
        }, 
        {
            "name" : "Material.006", 
            "pbrMetallicRoughness" : {
                "baseColorFactor" : [
                    0.04177363279124546, 
                    0.04177363279124546, 
                    0.04177363279124546, 
                    1.0
                ], 
                "metallicFactor" : 0.0
            }
        }, 
        {
            "name" : "Material.007", 
            "pbrMetallicRoughness" : {
                "baseColorFactor" : [
                    0.37375867923734596, 
                    0.1728259469989828, 
                    0.3502181343766768, 
                    1.0
                ], 
                "metallicFactor" : 0.0
            }
        }
    ], 
    "meshes" : [
        {
            "name" : "CUText.001", 
            "primitives" : [
                {
                    "attributes" : {
                        "NORMAL" : 2, 
                        "POSITION" : 1
                    }, 
                    "indices" : 0, 
                    "material" : 0
                }
            ]
        }, 
        {
            "name" : "CUText.006", 
            "primitives" : [
                {
                    "attributes" : {
                        "NORMAL" : 5, 
                        "POSITION" : 4
                    }, 
                    "indices" : 3, 
                    "material" : 2
                }
            ]
        }, 
        {
            "name" : "CUText", 
            "primitives" : [
                {
                    "attributes" : {
                        "NORMAL" : 8, 
                        "POSITION" : 7
                    }, 
                    "indices" : 6, 
                    "material" : 0
                }
            ]
        }, 
        {
            "name" : "Cube.002", 
            "primitives" : [
                {
                    "attributes" : {
                        "NORMAL" : 11, 
                        "POSITION" : 10
                    }, 
                    "indices" : 9, 
                    "material" : 5
                }
            ]
        }, 
        {
            "name" : "CUText.002", 
            "primitives" : [
                {
                    "attributes" : {
                        "NORMAL" : 14, 
                        "POSITION" : 13
                    }, 
                    "indices" : 12, 
                    "material" : 0
                }
            ]
        }, 
        {
            "name" : "CUText.003", 
            "primitives" : [
                {
                    "attributes" : {
                        "NORMAL" : 17, 
                        "POSITION" : 16
                    }, 
                    "indices" : 15, 
                    "material" : 3
                }
            ]
        }, 
        {
            "name" : "CUText.005", 
            "primitives" : [
                {
                    "attributes" : {
                        "NORMAL" : 20, 
                        "POSITION" : 19
                    }, 
                    "indices" : 18, 
                    "material" : 4
                }
            ]
        }
    ], 
    "nodes" : [
        {
            "mesh" : 3, 
            "name" : "Cube.000", 
            "scale" : [
                0.5554283261299133, 
                0.033479467034339905, 
                0.09532338380813599
            ], 
            "translation" : [
                1.1496633291244507, 
                -0.3225826919078827, 
                0.015696993097662926
            ]
        }, 
        {
            "mesh" : 2, 
            "name" : "Text", 
            "rotation" : [
                0.7071068286895752, 
                0.0, 
                -0.0, 
                0.7071068286895752
            ]
        }, 
        {
            "mesh" : 5, 
            "name" : "Text.001", 
            "rotation" : [
                0.7071068286895752, 
                0.0, 
                -0.0, 
                0.7071068286895752
            ], 
            "scale" : [
                0.515999972820282, 
                0.515999972820282, 
                0.515999972820282
            ], 
            "translation" : [
                0.6355764865875244, 
                -0.8173518180847168, 
                3.235261392120492e-09
            ]
        }, 
        {
            "mesh" : 0, 
            "name" : "Text.002", 
            "rotation" : [
                0.7071068286895752, 
                0.0, 
                -0.0, 
                0.7071068286895752
            ]
        }, 
        {
            "mesh" : 1, 
            "name" : "Text.003", 
            "rotation" : [
                0.7071068286895752, 
                0.0, 
                -0.0, 
                0.7071068286895752
            ]
        }, 
        {
            "mesh" : 6, 
            "name" : "Text.004", 
            "rotation" : [
                0.7071068286895752, 
                0.0, 
                -0.0, 
                0.7071068286895752
            ]
        }, 
        {
            "mesh" : 4, 
            "name" : "Text.006", 
            "rotation" : [
                0.7071068286895752, 
                0.0, 
                -0.0, 
                0.7071068286895752
            ]
        }
    ], 
    "scene" : 0, 
    "scenes" : [
        {
            "name" : "Scene", 
            "nodes" : [
                1, 
                2, 
                4, 
                0, 
                3, 
                6, 
                5
            ]
        }
    ]
}
