{
    "accessors" : [
        {
            "bufferView" : 0, 
            "componentType" : 5123, 
            "count" : 28788, 
            "max" : [
                6427
            ], 
            "min" : [
                0
            ], 
            "type" : "SCALAR"
        }, 
        {
            "bufferView" : 1, 
            "componentType" : 5126, 
            "count" : 6428, 
            "max" : [
                0.3270266056060791, 
                0.06499946862459183, 
                0.21106794476509094
            ], 
            "min" : [
                -0.6102533340454102, 
                -0.06500052660703659, 
                -0.21367879211902618
            ], 
            "type" : "VEC3"
        }, 
        {
            "bufferView" : 2, 
            "componentType" : 5126, 
            "count" : 6428, 
            "max" : [
                1.0, 
                1.0, 
                1.0
            ], 
            "min" : [
                -1.0, 
                -1.0, 
                -1.0
            ], 
            "type" : "VEC3"
        }, 
        {
            "bufferView" : 3, 
            "componentType" : 5123, 
            "count" : 4188, 
            "max" : [
                939
            ], 
            "min" : [
                0
            ], 
            "type" : "SCALAR"
        }, 
        {
            "bufferView" : 4, 
            "componentType" : 5126, 
            "count" : 940, 
            "max" : [
                0.04441086947917938, 
                0.06499999761581421, 
                0.34395959973335266
            ], 
            "min" : [
                -0.052152588963508606, 
                -0.06499999761581421, 
                -0.34395962953567505
            ], 
            "type" : "VEC3"
        }, 
        {
            "bufferView" : 5, 
            "componentType" : 5126, 
            "count" : 940, 
            "max" : [
                0.999725341796875, 
                1.0, 
                1.0
            ], 
            "min" : [
                -0.999725341796875, 
                -1.0, 
                -1.0
            ], 
            "type" : "VEC3"
        }, 
        {
            "bufferView" : 6, 
            "componentType" : 5123, 
            "count" : 16452, 
            "max" : [
                3671
            ], 
            "min" : [
                0
            ], 
            "type" : "SCALAR"
        }, 
        {
            "bufferView" : 7, 
            "componentType" : 5126, 
            "count" : 3672, 
            "max" : [
                0.19690445065498352, 
                0.06499999016523361, 
                0.236468106508255
            ], 
            "min" : [
                -0.19688042998313904, 
                -0.0650000050663948, 
                -0.18053534626960754
            ], 
            "type" : "VEC3"
        }, 
        {
            "bufferView" : 8, 
            "componentType" : 5126, 
            "count" : 3672, 
            "max" : [
                0.999969482421875, 
                1.0, 
                1.0
            ], 
            "min" : [
                -0.999969482421875, 
                -1.0, 
                -1.0
            ], 
            "type" : "VEC3"
        }, 
        {
            "bufferView" : 9, 
            "componentType" : 5123, 
            "count" : 16452, 
            "max" : [
                3632
            ], 
            "min" : [
                0
            ], 
            "type" : "SCALAR"
        }, 
        {
            "bufferView" : 10, 
            "componentType" : 5126, 
            "count" : 3633, 
            "max" : [
                0.19690540432929993, 
                0.06499999761581421, 
                0.23646807670593262
            ], 
            "min" : [
                -0.19687941670417786, 
                -0.06499999761581421, 
                -0.18053537607192993
            ], 
            "type" : "VEC3"
        }, 
        {
            "bufferView" : 11, 
            "componentType" : 5126, 
            "count" : 3633, 
            "max" : [
                0.999969482421875, 
                1.0, 
                1.0
            ], 
            "min" : [
                -0.999969482421875, 
                -1.0, 
                -1.0
            ], 
            "type" : "VEC3"
        }, 
        {
            "bufferView" : 12, 
            "componentType" : 5123, 
            "count" : 40980, 
            "max" : [
                9112
            ], 
            "min" : [
                0
            ], 
            "type" : "SCALAR"
        }, 
        {
            "bufferView" : 13, 
            "componentType" : 5126, 
            "count" : 9113, 
            "max" : [
                0.46184539794921875, 
                0.06499994546175003, 
                0.24206393957138062
            ], 
            "min" : [
                -0.5427768230438232, 
                -0.06500004976987839, 
                -0.33747413754463196
            ], 
            "type" : "VEC3"
        }, 
        {
            "bufferView" : 14, 
            "componentType" : 5126, 
            "count" : 9113, 
            "max" : [
                1.0, 
                1.0, 
                0.999969482421875
            ], 
            "min" : [
                -1.0, 
                -1.0, 
                -1.0
            ], 
            "type" : "VEC3"
        }, 
        {
            "bufferView" : 15, 
            "componentType" : 5123, 
            "count" : 74136, 
            "max" : [
                16506
            ], 
            "min" : [
                0
            ], 
            "type" : "SCALAR"
        }, 
        {
            "bufferView" : 16, 
            "componentType" : 5126, 
            "count" : 16507, 
            "max" : [
                0.8003082275390625, 
                0.06499982625246048, 
                0.3438389003276825
            ], 
            "min" : [
                -0.8426969051361084, 
                -0.06500016897916794, 
                -0.40134912729263306
            ], 
            "type" : "VEC3"
        }, 
        {
            "bufferView" : 17, 
            "componentType" : 5126, 
            "count" : 16507, 
            "max" : [
                1.0, 
                1.0, 
                1.0
            ], 
            "min" : [
                -1.0, 
                -1.0, 
                -1.0
            ], 
            "type" : "VEC3"
        }, 
        {
            "bufferView" : 18, 
            "componentType" : 5126, 
            "count" : 6, 
            "max" : [
                4.791666666666667
            ], 
            "min" : [
                0.0
            ], 
            "type" : "SCALAR"
        }, 
        {
            "bufferView" : 19, 
            "componentType" : 5126, 
            "count" : 18, 
            "max" : [
                0.6757442951202393, 
                0.1883246749639511, 
                5.387598775996594e-07
            ], 
            "min" : [
                0.0, 
                0.0, 
                -0.0
            ], 
            "type" : "VEC3"
        }, 
        {
            "bufferView" : 20, 
            "componentType" : 5126, 
            "count" : 6, 
            "max" : [
                4.791666666666667
            ], 
            "min" : [
                0.0
            ], 
            "type" : "SCALAR"
        }, 
        {
            "bufferView" : 21, 
            "componentType" : 5126, 
            "count" : 18, 
            "max" : [
                2.0462887287139893, 
                0.22163306176662445, 
                1.513249571871711e-06
            ], 
            "min" : [
                0.0, 
                0.0, 
                -0.0
            ], 
            "type" : "VEC3"
        }, 
        {
            "bufferView" : 22, 
            "componentType" : 5126, 
            "count" : 6, 
            "max" : [
                4.791666666666667
            ], 
            "min" : [
                0.0
            ], 
            "type" : "SCALAR"
        }, 
        {
            "bufferView" : 23, 
            "componentType" : 5126, 
            "count" : 18, 
            "max" : [
                0.8392835259437561, 
                1.0030553340911865, 
                1.5897642313689175e-08
            ], 
            "min" : [
                0.0, 
                0.0, 
                -0.0
            ], 
            "type" : "VEC3"
        }, 
        {
            "bufferView" : 24, 
            "componentType" : 5126, 
            "count" : 6, 
            "max" : [
                4.791666666666667
            ], 
            "min" : [
                0.0
            ], 
            "type" : "SCALAR"
        }, 
        {
            "bufferView" : 25, 
            "componentType" : 5126, 
            "count" : 18, 
            "max" : [
                0.8539631366729736, 
                0.0, 
                5.387598775996594e-07
            ], 
            "min" : [
                0.0, 
                -0.32345226407051086, 
                -0.0
            ], 
            "type" : "VEC3"
        }, 
        {
            "bufferView" : 26, 
            "componentType" : 5126, 
            "count" : 6, 
            "max" : [
                4.791666666666667
            ], 
            "min" : [
                0.0
            ], 
            "type" : "SCALAR"
        }, 
        {
            "bufferView" : 27, 
            "componentType" : 5126, 
            "count" : 18, 
            "max" : [
                2.0082101821899414, 
                1.0030553340911865, 
                9.030883596494732e-09
            ], 
            "min" : [
                0.0, 
                0.0, 
                -0.0
            ], 
            "type" : "VEC3"
        }
    ], 
    "animations" : [
        {
            "channels" : [
                {
                    "sampler" : 0, 
                    "target" : {
                        "node" : 0, 
                        "path" : "translation"
                    }
                }, 
                {
                    "sampler" : 1, 
                    "target" : {
                        "node" : 1, 
                        "path" : "translation"
                    }
                }, 
                {
                    "sampler" : 2, 
                    "target" : {
                        "node" : 2, 
                        "path" : "translation"
                    }
                }, 
                {
                    "sampler" : 3, 
                    "target" : {
                        "node" : 4, 
                        "path" : "translation"
                    }
                }, 
                {
                    "sampler" : 4, 
                    "target" : {
                        "node" : 5, 
                        "path" : "translation"
                    }
                }
            ], 
            "samplers" : [
                {
                    "input" : 18, 
                    "interpolation" : "CUBICSPLINE", 
                    "output" : 19
                }, 
                {
                    "input" : 20, 
                    "interpolation" : "CUBICSPLINE", 
                    "output" : 21
                }, 
                {
                    "input" : 22, 
                    "interpolation" : "CUBICSPLINE", 
                    "output" : 23
                }, 
                {
                    "input" : 24, 
                    "interpolation" : "CUBICSPLINE", 
                    "output" : 25
                }, 
                {
                    "input" : 26, 
                    "interpolation" : "CUBICSPLINE", 
                    "output" : 27
                }
            ]
        }
    ], 
    "asset" : {
        "generator" : "Khronos Blender glTF 2.0 exporter", 
        "version" : "2.0"
    }, 
    "bufferViews" : [
        {
            "buffer" : 0, 
            "byteLength" : 57576, 
            "byteOffset" : 0, 
            "target" : 34963
        }, 
        {
            "buffer" : 0, 
            "byteLength" : 77136, 
            "byteOffset" : 57576, 
            "target" : 34962
        }, 
        {
            "buffer" : 0, 
            "byteLength" : 77136, 
            "byteOffset" : 134712, 
            "target" : 34962
        }, 
        {
            "buffer" : 0, 
            "byteLength" : 8376, 
            "byteOffset" : 211848, 
            "target" : 34963
        }, 
        {
            "buffer" : 0, 
            "byteLength" : 11280, 
            "byteOffset" : 220224, 
            "target" : 34962
        }, 
        {
            "buffer" : 0, 
            "byteLength" : 11280, 
            "byteOffset" : 231504, 
            "target" : 34962
        }, 
        {
            "buffer" : 0, 
            "byteLength" : 32904, 
            "byteOffset" : 242784, 
            "target" : 34963
        }, 
        {
            "buffer" : 0, 
            "byteLength" : 44064, 
            "byteOffset" : 275688, 
            "target" : 34962
        }, 
        {
            "buffer" : 0, 
            "byteLength" : 44064, 
            "byteOffset" : 319752, 
            "target" : 34962
        }, 
        {
            "buffer" : 0, 
            "byteLength" : 32904, 
            "byteOffset" : 363816, 
            "target" : 34963
        }, 
        {
            "buffer" : 0, 
            "byteLength" : 43596, 
            "byteOffset" : 396720, 
            "target" : 34962
        }, 
        {
            "buffer" : 0, 
            "byteLength" : 43596, 
            "byteOffset" : 440316, 
            "target" : 34962
        }, 
        {
            "buffer" : 0, 
            "byteLength" : 81960, 
            "byteOffset" : 483912, 
            "target" : 34963
        }, 
        {
            "buffer" : 0, 
            "byteLength" : 109356, 
            "byteOffset" : 565872, 
            "target" : 34962
        }, 
        {
            "buffer" : 0, 
            "byteLength" : 109356, 
            "byteOffset" : 675228, 
            "target" : 34962
        }, 
        {
            "buffer" : 0, 
            "byteLength" : 148272, 
            "byteOffset" : 784584, 
            "target" : 34963
        }, 
        {
            "buffer" : 0, 
            "byteLength" : 198084, 
            "byteOffset" : 932856, 
            "target" : 34962
        }, 
        {
            "buffer" : 0, 
            "byteLength" : 198084, 
            "byteOffset" : 1130940, 
            "target" : 34962
        }, 
        {
            "buffer" : 0, 
            "byteLength" : 24, 
            "byteOffset" : 1329024
        }, 
        {
            "buffer" : 0, 
            "byteLength" : 216, 
            "byteOffset" : 1329048
        }, 
        {
            "buffer" : 0, 
            "byteLength" : 24, 
            "byteOffset" : 1329264
        }, 
        {
            "buffer" : 0, 
            "byteLength" : 216, 
            "byteOffset" : 1329288
        }, 
        {
            "buffer" : 0, 
            "byteLength" : 24, 
            "byteOffset" : 1329504
        }, 
        {
            "buffer" : 0, 
            "byteLength" : 216, 
            "byteOffset" : 1329528
        }, 
        {
            "buffer" : 0, 
            "byteLength" : 24, 
            "byteOffset" : 1329744
        }, 
        {
            "buffer" : 0, 
            "byteLength" : 216, 
            "byteOffset" : 1329768
        }, 
        {
            "buffer" : 0, 
            "byteLength" : 24, 
            "byteOffset" : 1329984
        }, 
        {
            "buffer" : 0, 
            "byteLength" : 216, 
            "byteOffset" : 1330008
        }
    ], 
    "buffers" : [
        {
            "byteLength" : 1330224, 
            "uri" : "-ual.bin"
        }
    ], 
    "materials" : [
        {
            "name" : "Material.001", 
            "pbrMetallicRoughness" : {
                "baseColorFactor" : [
                    0.06681131224053072, 
                    0.3895150481092191, 
                    0.00789228167969408, 
                    1.0
                ], 
                "metallicFactor" : 0.0
            }
        }, 
        {
            "name" : "Material.002", 
            "pbrMetallicRoughness" : {
                "baseColorFactor" : [
                    0.5013270929653508, 
                    0.016020344436471823, 
                    0.016020344436471823, 
                    1.0
                ], 
                "metallicFactor" : 0.0
            }
        }, 
        {
            "name" : "Material.003", 
            "pbrMetallicRoughness" : {
                "baseColorFactor" : [
                    0.04177363279124546, 
                    0.04177363279124546, 
                    0.04177363279124546, 
                    1.0
                ], 
                "metallicFactor" : 0.0
            }
        }
    ], 
    "meshes" : [
        {
            "name" : "CUText", 
            "primitives" : [
                {
                    "attributes" : {
                        "NORMAL" : 2, 
                        "POSITION" : 1
                    }, 
                    "indices" : 0, 
                    "material" : 2
                }
            ]
        }, 
        {
            "name" : "CUText.004", 
            "primitives" : [
                {
                    "attributes" : {
                        "NORMAL" : 5, 
                        "POSITION" : 4
                    }, 
                    "indices" : 3, 
                    "material" : 2
                }
            ]
        }, 
        {
            "name" : "CUText.005", 
            "primitives" : [
                {
                    "attributes" : {
                        "NORMAL" : 8, 
                        "POSITION" : 7
                    }, 
                    "indices" : 6, 
                    "material" : 0
                }
            ]
        }, 
        {
            "name" : "CUText.006", 
            "primitives" : [
                {
                    "attributes" : {
                        "NORMAL" : 11, 
                        "POSITION" : 10
                    }, 
                    "indices" : 9, 
                    "material" : 1
                }
            ]
        }, 
        {
            "name" : "CUText.007", 
            "primitives" : [
                {
                    "attributes" : {
                        "NORMAL" : 14, 
                        "POSITION" : 13
                    }, 
                    "indices" : 12, 
                    "material" : 2
                }
            ]
        }, 
        {
            "name" : "CUText.002", 
            "primitives" : [
                {
                    "attributes" : {
                        "NORMAL" : 17, 
                        "POSITION" : 16
                    }, 
                    "indices" : 15, 
                    "material" : 0
                }
            ]
        }
    ], 
    "nodes" : [
        {
            "mesh" : 0, 
            "name" : "Text", 
            "rotation" : [
                0.7071068286895752, 
                0.0, 
                -0.0, 
                0.7071068286895752
            ], 
            "translation" : [
                0.6757442951202393, 
                0.1883246749639511, 
                5.387598775996594e-07
            ]
        }, 
        {
            "mesh" : 4, 
            "name" : "Text.001", 
            "rotation" : [
                0.7071068286895752, 
                0.0, 
                -0.0, 
                0.7071068286895752
            ], 
            "translation" : [
                1.7462886571884155, 
                0.22163306176662445, 
                1.513249571871711e-06
            ]
        }, 
        {
            "mesh" : 2, 
            "name" : "Text.002", 
            "rotation" : [
                0.7071068286895752, 
                0.0, 
                -0.0, 
                0.7071068286895752
            ], 
            "scale" : [
                0.6524231433868408, 
                0.6524231433868408, 
                0.6524231433868408
            ], 
            "translation" : [
                0.8392835259437561, 
                1.0030553340911865, 
                1.5897642313689175e-08
            ]
        }, 
        {
            "mesh" : 1, 
            "name" : "Text.003", 
            "rotation" : [
                0.7010574340820312, 
                -0.09229597449302673, 
                -0.09229597449302673, 
                0.7010574340820312
            ], 
            "scale" : [
                0.6524231433868408, 
                0.6524231433868408, 
                0.6524231433868408
            ], 
            "translation" : [
                1.1523736715316772, 
                1.0353069305419922, 
                1.1841319036420828e-08
            ]
        }, 
        {
            "mesh" : 5, 
            "name" : "Text.004", 
            "rotation" : [
                0.7071068286895752, 
                0.0, 
                -0.0, 
                0.7071068286895752
            ], 
            "scale" : [
                0.36149001121520996, 
                0.36149001121520996, 
                0.36149001121520996
            ], 
            "translation" : [
                0.8539631366729736, 
                -0.32345226407051086, 
                5.387598775996594e-07
            ]
        }, 
        {
            "mesh" : 3, 
            "name" : "Text.005", 
            "rotation" : [
                0.7071068286895752, 
                0.0, 
                -0.0, 
                0.7071068286895752
            ], 
            "scale" : [
                0.6524231433868408, 
                0.6524231433868408, 
                0.6524231433868408
            ], 
            "translation" : [
                1.4654474258422852, 
                1.0030553340911865, 
                9.030883596494732e-09
            ]
        }
    ], 
    "scene" : 0, 
    "scenes" : [
        {
            "name" : "Scene", 
            "nodes" : [
                5, 
                2, 
                4, 
                3, 
                1, 
                0
            ]
        }
    ]
}
