{
    "accessors" : [
        {
            "bufferView" : 0, 
            "componentType" : 5123, 
            "count" : 12672, 
            "max" : [
                2820
            ], 
            "min" : [
                0
            ], 
            "type" : "SCALAR"
        }, 
        {
            "bufferView" : 1, 
            "componentType" : 5126, 
            "count" : 2821, 
            "max" : [
                0.212442547082901, 
                0.0650000050663948, 
                0.24515274167060852
            ], 
            "min" : [
                -0.17594872415065765, 
                -0.06499999016523361, 
                -0.3266470432281494
            ], 
            "type" : "VEC3"
        }, 
        {
            "bufferView" : 2, 
            "componentType" : 5126, 
            "count" : 2821, 
            "max" : [
                1.0, 
                1.0, 
                0.999969482421875
            ], 
            "min" : [
                -0.999969482421875, 
                -1.0, 
                -0.999908447265625
            ], 
            "type" : "VEC3"
        }, 
        {
            "bufferView" : 3, 
            "componentType" : 5123, 
            "count" : 34260, 
            "max" : [
                7608
            ], 
            "min" : [
                0
            ], 
            "type" : "SCALAR"
        }, 
        {
            "bufferView" : 4, 
            "componentType" : 5126, 
            "count" : 7609, 
            "max" : [
                0.18056237697601318, 
                4.137307405471802e-05, 
                0.2524155378341675
            ], 
            "min" : [
                -0.18381524085998535, 
                -0.1299586296081543, 
                -0.18006661534309387
            ], 
            "type" : "VEC3"
        }, 
        {
            "bufferView" : 5, 
            "componentType" : 5126, 
            "count" : 7609, 
            "max" : [
                0.999969482421875, 
                1.0, 
                0.999969482421875
            ], 
            "min" : [
                -1.0, 
                -1.0, 
                -0.999969482421875
            ], 
            "type" : "VEC3"
        }, 
        {
            "bufferView" : 6, 
            "componentType" : 5123, 
            "count" : 61776, 
            "max" : [
                13755
            ], 
            "min" : [
                0
            ], 
            "type" : "SCALAR"
        }, 
        {
            "bufferView" : 7, 
            "componentType" : 5126, 
            "count" : 13756, 
            "max" : [
                2.155561685562134, 
                0.06499999761581421, 
                0.015006584115326405
            ], 
            "min" : [
                0.022151699289679527, 
                -0.06499999761581421, 
                -0.5568023920059204
            ], 
            "type" : "VEC3"
        }, 
        {
            "bufferView" : 8, 
            "componentType" : 5126, 
            "count" : 13756, 
            "max" : [
                1.0, 
                1.0, 
                1.0
            ], 
            "min" : [
                -1.0, 
                -1.0, 
                -1.0
            ], 
            "type" : "VEC3"
        }, 
        {
            "bufferView" : 9, 
            "componentType" : 5126, 
            "count" : 9, 
            "max" : [
                3.75
            ], 
            "min" : [
                0.0
            ], 
            "type" : "SCALAR"
        }, 
        {
            "bufferView" : 10, 
            "componentType" : 5126, 
            "count" : 27, 
            "max" : [
                1.407473087310791, 
                0.2309609353542328, 
                3.493787481545496e-09
            ], 
            "min" : [
                0.0, 
                0.0, 
                -0.0
            ], 
            "type" : "VEC3"
        }, 
        {
            "bufferView" : 11, 
            "componentType" : 5126, 
            "count" : 91, 
            "max" : [
                3.75
            ], 
            "min" : [
                0.0
            ], 
            "type" : "SCALAR"
        }, 
        {
            "bufferView" : 12, 
            "componentType" : 5126, 
            "count" : 91, 
            "max" : [
                0.7082409262657166, 
                0.05752962827682495, 
                0.06528985500335693, 
                0.7081159353256226
            ], 
            "min" : [
                0.7009735703468323, 
                -0.05752963572740555, 
                -0.06528985500335693, 
                0.7009735703468323
            ], 
            "type" : "VEC4"
        }, 
        {
            "bufferView" : 13, 
            "componentType" : 5126, 
            "count" : 9, 
            "max" : [
                3.75
            ], 
            "min" : [
                0.0
            ], 
            "type" : "SCALAR"
        }, 
        {
            "bufferView" : 14, 
            "componentType" : 5126, 
            "count" : 27, 
            "max" : [
                1.0, 
                1.0, 
                1.0
            ], 
            "min" : [
                0.0, 
                0.0, 
                0.0
            ], 
            "type" : "VEC3"
        }, 
        {
            "bufferView" : 15, 
            "componentType" : 5126, 
            "count" : 8, 
            "max" : [
                3.75
            ], 
            "min" : [
                0.0
            ], 
            "type" : "SCALAR"
        }, 
        {
            "bufferView" : 16, 
            "componentType" : 5126, 
            "count" : 24, 
            "max" : [
                1.4074699878692627, 
                0.3655850887298584, 
                0.028464073315262794
            ], 
            "min" : [
                0.0, 
                -0.27398228645324707, 
                -0.0
            ], 
            "type" : "VEC3"
        }, 
        {
            "bufferView" : 17, 
            "componentType" : 5126, 
            "count" : 91, 
            "max" : [
                3.75
            ], 
            "min" : [
                0.0
            ], 
            "type" : "SCALAR"
        }, 
        {
            "bufferView" : 18, 
            "componentType" : 5126, 
            "count" : 91, 
            "max" : [
                0.7071067690849304, 
                0.0, 
                -0.0, 
                0.7071067690849304
            ], 
            "min" : [
                0.7071067690849304, 
                0.0, 
                -0.0, 
                0.7071067690849304
            ], 
            "type" : "VEC4"
        }, 
        {
            "bufferView" : 19, 
            "componentType" : 5126, 
            "count" : 8, 
            "max" : [
                3.75
            ], 
            "min" : [
                0.0
            ], 
            "type" : "SCALAR"
        }, 
        {
            "bufferView" : 20, 
            "componentType" : 5126, 
            "count" : 24, 
            "max" : [
                1.1793123483657837, 
                1.1793123483657837, 
                1.4461590051651
            ], 
            "min" : [
                0.0, 
                0.0, 
                0.0
            ], 
            "type" : "VEC3"
        }
    ], 
    "animations" : [
        {
            "channels" : [
                {
                    "sampler" : 0, 
                    "target" : {
                        "node" : 1, 
                        "path" : "translation"
                    }
                }, 
                {
                    "sampler" : 1, 
                    "target" : {
                        "node" : 1, 
                        "path" : "rotation"
                    }
                }, 
                {
                    "sampler" : 2, 
                    "target" : {
                        "node" : 1, 
                        "path" : "scale"
                    }
                }, 
                {
                    "sampler" : 3, 
                    "target" : {
                        "node" : 3, 
                        "path" : "translation"
                    }
                }, 
                {
                    "sampler" : 4, 
                    "target" : {
                        "node" : 3, 
                        "path" : "rotation"
                    }
                }, 
                {
                    "sampler" : 5, 
                    "target" : {
                        "node" : 3, 
                        "path" : "scale"
                    }
                }
            ], 
            "samplers" : [
                {
                    "input" : 9, 
                    "interpolation" : "CUBICSPLINE", 
                    "output" : 10
                }, 
                {
                    "input" : 11, 
                    "interpolation" : "LINEAR", 
                    "output" : 12
                }, 
                {
                    "input" : 13, 
                    "interpolation" : "CUBICSPLINE", 
                    "output" : 14
                }, 
                {
                    "input" : 15, 
                    "interpolation" : "CUBICSPLINE", 
                    "output" : 16
                }, 
                {
                    "input" : 17, 
                    "interpolation" : "LINEAR", 
                    "output" : 18
                }, 
                {
                    "input" : 19, 
                    "interpolation" : "CUBICSPLINE", 
                    "output" : 20
                }
            ]
        }
    ], 
    "asset" : {
        "generator" : "Khronos Blender glTF 2.0 exporter", 
        "version" : "2.0"
    }, 
    "bufferViews" : [
        {
            "buffer" : 0, 
            "byteLength" : 25344, 
            "byteOffset" : 0, 
            "target" : 34963
        }, 
        {
            "buffer" : 0, 
            "byteLength" : 33852, 
            "byteOffset" : 25344, 
            "target" : 34962
        }, 
        {
            "buffer" : 0, 
            "byteLength" : 33852, 
            "byteOffset" : 59196, 
            "target" : 34962
        }, 
        {
            "buffer" : 0, 
            "byteLength" : 68520, 
            "byteOffset" : 93048, 
            "target" : 34963
        }, 
        {
            "buffer" : 0, 
            "byteLength" : 91308, 
            "byteOffset" : 161568, 
            "target" : 34962
        }, 
        {
            "buffer" : 0, 
            "byteLength" : 91308, 
            "byteOffset" : 252876, 
            "target" : 34962
        }, 
        {
            "buffer" : 0, 
            "byteLength" : 123552, 
            "byteOffset" : 344184, 
            "target" : 34963
        }, 
        {
            "buffer" : 0, 
            "byteLength" : 165072, 
            "byteOffset" : 467736, 
            "target" : 34962
        }, 
        {
            "buffer" : 0, 
            "byteLength" : 165072, 
            "byteOffset" : 632808, 
            "target" : 34962
        }, 
        {
            "buffer" : 0, 
            "byteLength" : 36, 
            "byteOffset" : 797880
        }, 
        {
            "buffer" : 0, 
            "byteLength" : 324, 
            "byteOffset" : 797916
        }, 
        {
            "buffer" : 0, 
            "byteLength" : 364, 
            "byteOffset" : 798240
        }, 
        {
            "buffer" : 0, 
            "byteLength" : 1456, 
            "byteOffset" : 798604
        }, 
        {
            "buffer" : 0, 
            "byteLength" : 36, 
            "byteOffset" : 800060
        }, 
        {
            "buffer" : 0, 
            "byteLength" : 324, 
            "byteOffset" : 800096
        }, 
        {
            "buffer" : 0, 
            "byteLength" : 32, 
            "byteOffset" : 800420
        }, 
        {
            "buffer" : 0, 
            "byteLength" : 288, 
            "byteOffset" : 800452
        }, 
        {
            "buffer" : 0, 
            "byteLength" : 364, 
            "byteOffset" : 800740
        }, 
        {
            "buffer" : 0, 
            "byteLength" : 1456, 
            "byteOffset" : 801104
        }, 
        {
            "buffer" : 0, 
            "byteLength" : 32, 
            "byteOffset" : 802560
        }, 
        {
            "buffer" : 0, 
            "byteLength" : 288, 
            "byteOffset" : 802592
        }
    ], 
    "buffers" : [
        {
            "byteLength" : 802880, 
            "uri" : "mis-.bin"
        }
    ], 
    "materials" : [
        {
            "name" : "BLUE", 
            "pbrMetallicRoughness" : {
                "baseColorFactor" : [
                    0.04516454406327819, 
                    0.18922394796049513, 
                    0.4221725526775799, 
                    1.0
                ], 
                "metallicFactor" : 0.0
            }
        }, 
        {
            "name" : "Material", 
            "pbrMetallicRoughness" : {
                "baseColorFactor" : [
                    0.04177363279124546, 
                    0.04177363279124546, 
                    0.04177363279124546, 
                    1.0
                ], 
                "metallicFactor" : 0.0
            }
        }
    ], 
    "meshes" : [
        {
            "name" : "CUText.002", 
            "primitives" : [
                {
                    "attributes" : {
                        "NORMAL" : 2, 
                        "POSITION" : 1
                    }, 
                    "indices" : 0, 
                    "material" : 0
                }
            ]
        }, 
        {
            "name" : "CUText.005", 
            "primitives" : [
                {
                    "attributes" : {
                        "NORMAL" : 5, 
                        "POSITION" : 4
                    }, 
                    "indices" : 3, 
                    "material" : 1
                }
            ]
        }, 
        {
            "name" : "CUText.003", 
            "primitives" : [
                {
                    "attributes" : {
                        "NORMAL" : 8, 
                        "POSITION" : 7
                    }, 
                    "indices" : 6, 
                    "material" : 1
                }
            ]
        }
    ], 
    "nodes" : [
        {
            "name" : "Text.001", 
            "rotation" : [
                0.7071068286895752, 
                0.0, 
                -0.0, 
                0.7071068286895752
            ], 
            "translation" : [
                -0.029114579781889915, 
                1.0993027687072754, 
                -0.16153840720653534
            ]
        }, 
        {
            "mesh" : 1, 
            "name" : "Text.002", 
            "rotation" : [
                0.7071068286895752, 
                0.0, 
                -0.0, 
                0.7071068286895752
            ], 
            "translation" : [
                1.407473087310791, 
                0.2309609353542328, 
                3.493787481545496e-09
            ]
        }, 
        {
            "name" : "Text.003", 
            "rotation" : [
                0.7071068286895752, 
                0.0, 
                -0.0, 
                0.7071068286895752
            ], 
            "translation" : [
                -0.17374734580516815, 
                0.04490554332733154, 
                -0.0896262601017952
            ]
        }, 
        {
            "mesh" : 0, 
            "name" : "Text.004", 
            "scale" : [
                0.0, 
                0.0, 
                0.0
            ], 
            "translation" : [
                1.4074699878692627, 
                0.22898830473423004, 
                0.028464073315262794
            ]
        }, 
        {
            "mesh" : 2, 
            "name" : "Text.005", 
            "rotation" : [
                0.7071068286895752, 
                0.0, 
                -0.0, 
                0.7071068286895752
            ]
        }
    ], 
    "scene" : 0, 
    "scenes" : [
        {
            "name" : "Scene", 
            "nodes" : [
                3, 
                2, 
                1, 
                0, 
                4
            ]
        }
    ]
}
