{
    "accessors" : [
        {
            "bufferView" : 0, 
            "componentType" : 5123, 
            "count" : 12672, 
            "max" : [
                2113
            ], 
            "min" : [
                0
            ], 
            "type" : "SCALAR"
        }, 
        {
            "bufferView" : 1, 
            "componentType" : 5126, 
            "count" : 2114, 
            "max" : [
                0.9530917406082153, 
                1.0050663948059082, 
                0.8413951992988586
            ], 
            "min" : [
                -0.9428776502609253, 
                -1.0, 
                -0.9761262536048889
            ], 
            "type" : "VEC3"
        }, 
        {
            "bufferView" : 2, 
            "componentType" : 5126, 
            "count" : 2114, 
            "max" : [
                0.99951171875, 
                1.0, 
                0.999176025390625
            ], 
            "min" : [
                -0.9983825087547302, 
                -1.0, 
                -0.999359130859375
            ], 
            "type" : "VEC3"
        }, 
        {
            "bufferView" : 3, 
            "componentType" : 5123, 
            "count" : 12288, 
            "max" : [
                2047
            ], 
            "min" : [
                0
            ], 
            "type" : "SCALAR"
        }, 
        {
            "bufferView" : 4, 
            "componentType" : 5126, 
            "count" : 2048, 
            "max" : [
                0.9759325385093689, 
                1.0, 
                0.9759325385093689
            ], 
            "min" : [
                -0.9759324789047241, 
                -1.000000238418579, 
                -0.9759325385093689
            ], 
            "type" : "VEC3"
        }, 
        {
            "bufferView" : 5, 
            "componentType" : 5126, 
            "count" : 2048, 
            "max" : [
                1.0, 
                1.0, 
                1.0
            ], 
            "min" : [
                -1.0, 
                -1.0, 
                -1.0
            ], 
            "type" : "VEC3"
        }, 
        {
            "bufferView" : 6, 
            "componentType" : 5123, 
            "count" : 28380, 
            "max" : [
                6318
            ], 
            "min" : [
                0
            ], 
            "type" : "SCALAR"
        }, 
        {
            "bufferView" : 7, 
            "componentType" : 5126, 
            "count" : 6319, 
            "max" : [
                1.0190268754959106, 
                0.06499999761581421, 
                0.02274298295378685
            ], 
            "min" : [
                0.06549099087715149, 
                -0.06499999761581421, 
                -0.4097398817539215
            ], 
            "type" : "VEC3"
        }, 
        {
            "bufferView" : 8, 
            "componentType" : 5126, 
            "count" : 6319, 
            "max" : [
                1.0, 
                1.0, 
                1.0
            ], 
            "min" : [
                -1.0, 
                -1.0, 
                -1.0
            ], 
            "type" : "VEC3"
        }, 
        {
            "bufferView" : 9, 
            "componentType" : 5123, 
            "count" : 54828, 
            "max" : [
                12198
            ], 
            "min" : [
                0
            ], 
            "type" : "SCALAR"
        }, 
        {
            "bufferView" : 10, 
            "componentType" : 5126, 
            "count" : 12199, 
            "max" : [
                0.4609644412994385, 
                0.06500336527824402, 
                0.20453107357025146
            ], 
            "min" : [
                -0.4809609651565552, 
                -0.0649966299533844, 
                -0.2279510796070099
            ], 
            "type" : "VEC3"
        }, 
        {
            "bufferView" : 11, 
            "componentType" : 5126, 
            "count" : 12199, 
            "max" : [
                0.999969482421875, 
                1.0, 
                1.0
            ], 
            "min" : [
                -1.0, 
                -1.0, 
                -1.0
            ], 
            "type" : "VEC3"
        }, 
        {
            "bufferView" : 12, 
            "componentType" : 5123, 
            "count" : 38400, 
            "max" : [
                6401
            ], 
            "min" : [
                0
            ], 
            "type" : "SCALAR"
        }, 
        {
            "bufferView" : 13, 
            "componentType" : 5126, 
            "count" : 6402, 
            "max" : [
                0.24903513491153717, 
                0.12651093304157257, 
                0.36439448595046997
            ], 
            "min" : [
                -1.7001962661743164, 
                -1.8735029697418213, 
                -1.6455464363098145
            ], 
            "type" : "VEC3"
        }, 
        {
            "bufferView" : 14, 
            "componentType" : 5126, 
            "count" : 6402, 
            "max" : [
                0.999969482421875, 
                1.0, 
                0.999969482421875
            ], 
            "min" : [
                -0.999969482421875, 
                -1.0, 
                -0.999969482421875
            ], 
            "type" : "VEC3"
        }, 
        {
            "bufferView" : 15, 
            "componentType" : 5121, 
            "count" : 72, 
            "max" : [
                45
            ], 
            "min" : [
                0
            ], 
            "type" : "SCALAR"
        }, 
        {
            "bufferView" : 16, 
            "componentType" : 5126, 
            "count" : 46, 
            "max" : [
                1.0, 
                1.0, 
                1.0
            ], 
            "min" : [
                -2.7845098972320557, 
                -2.7845098972320557, 
                -1.0
            ], 
            "type" : "VEC3"
        }, 
        {
            "bufferView" : 17, 
            "componentType" : 5126, 
            "count" : 46, 
            "max" : [
                1.0, 
                1.0, 
                1.0
            ], 
            "min" : [
                -0.7071068286895752, 
                -0.7071068286895752, 
                -1.0
            ], 
            "type" : "VEC3"
        }, 
        {
            "bufferView" : 18, 
            "componentType" : 5126, 
            "count" : 56, 
            "max" : [
                2.2916666666666665
            ], 
            "min" : [
                0.0
            ], 
            "type" : "SCALAR"
        }, 
        {
            "bufferView" : 19, 
            "componentType" : 5126, 
            "count" : 56, 
            "max" : [
                0.7071011662483215, 
                0.06640928983688354, 
                0.06660474836826324, 
                0.707094132900238
            ], 
            "min" : [
                0.703985333442688, 
                -0.026047373190522194, 
                -0.02585015818476677, 
                0.7039589881896973
            ], 
            "type" : "VEC4"
        }, 
        {
            "bufferView" : 20, 
            "componentType" : 5126, 
            "count" : 7, 
            "max" : [
                2.2916666666666665
            ], 
            "min" : [
                0.0
            ], 
            "type" : "SCALAR"
        }, 
        {
            "bufferView" : 21, 
            "componentType" : 5126, 
            "count" : 21, 
            "max" : [
                1.7085306644439697, 
                0.18178710341453552, 
                -0.0
            ], 
            "min" : [
                0.0, 
                0.0, 
                -3.3600165352254407e-06
            ], 
            "type" : "VEC3"
        }, 
        {
            "bufferView" : 22, 
            "componentType" : 5126, 
            "count" : 56, 
            "max" : [
                2.2916666666666665
            ], 
            "min" : [
                0.0
            ], 
            "type" : "SCALAR"
        }, 
        {
            "bufferView" : 23, 
            "componentType" : 5126, 
            "count" : 56, 
            "max" : [
                0.7071067690849304, 
                0.030843568965792656, 
                0.030843574553728104, 
                0.7071067690849304
            ], 
            "min" : [
                0.7064337730407715, 
                -0.03084355778992176, 
                -0.030843565240502357, 
                0.7064337730407715
            ], 
            "type" : "VEC4"
        }, 
        {
            "bufferView" : 24, 
            "componentType" : 5126, 
            "count" : 7, 
            "max" : [
                2.2916666666666665
            ], 
            "min" : [
                0.0
            ], 
            "type" : "SCALAR"
        }, 
        {
            "bufferView" : 25, 
            "componentType" : 5126, 
            "count" : 21, 
            "max" : [
                1.149999976158142, 
                1.149999976158142, 
                1.149999976158142
            ], 
            "min" : [
                0.0, 
                0.0, 
                0.0
            ], 
            "type" : "VEC3"
        }
    ], 
    "animations" : [
        {
            "channels" : [
                {
                    "sampler" : 0, 
                    "target" : {
                        "node" : 3, 
                        "path" : "rotation"
                    }
                }, 
                {
                    "sampler" : 1, 
                    "target" : {
                        "node" : 5, 
                        "path" : "translation"
                    }
                }, 
                {
                    "sampler" : 2, 
                    "target" : {
                        "node" : 5, 
                        "path" : "rotation"
                    }
                }, 
                {
                    "sampler" : 3, 
                    "target" : {
                        "node" : 5, 
                        "path" : "scale"
                    }
                }
            ], 
            "samplers" : [
                {
                    "input" : 18, 
                    "interpolation" : "LINEAR", 
                    "output" : 19
                }, 
                {
                    "input" : 20, 
                    "interpolation" : "CUBICSPLINE", 
                    "output" : 21
                }, 
                {
                    "input" : 22, 
                    "interpolation" : "LINEAR", 
                    "output" : 23
                }, 
                {
                    "input" : 24, 
                    "interpolation" : "CUBICSPLINE", 
                    "output" : 25
                }
            ]
        }
    ], 
    "asset" : {
        "generator" : "Khronos Blender glTF 2.0 exporter", 
        "version" : "2.0"
    }, 
    "bufferViews" : [
        {
            "buffer" : 0, 
            "byteLength" : 25344, 
            "byteOffset" : 0, 
            "target" : 34963
        }, 
        {
            "buffer" : 0, 
            "byteLength" : 25368, 
            "byteOffset" : 25344, 
            "target" : 34962
        }, 
        {
            "buffer" : 0, 
            "byteLength" : 25368, 
            "byteOffset" : 50712, 
            "target" : 34962
        }, 
        {
            "buffer" : 0, 
            "byteLength" : 24576, 
            "byteOffset" : 76080, 
            "target" : 34963
        }, 
        {
            "buffer" : 0, 
            "byteLength" : 24576, 
            "byteOffset" : 100656, 
            "target" : 34962
        }, 
        {
            "buffer" : 0, 
            "byteLength" : 24576, 
            "byteOffset" : 125232, 
            "target" : 34962
        }, 
        {
            "buffer" : 0, 
            "byteLength" : 56760, 
            "byteOffset" : 149808, 
            "target" : 34963
        }, 
        {
            "buffer" : 0, 
            "byteLength" : 75828, 
            "byteOffset" : 206568, 
            "target" : 34962
        }, 
        {
            "buffer" : 0, 
            "byteLength" : 75828, 
            "byteOffset" : 282396, 
            "target" : 34962
        }, 
        {
            "buffer" : 0, 
            "byteLength" : 109656, 
            "byteOffset" : 358224, 
            "target" : 34963
        }, 
        {
            "buffer" : 0, 
            "byteLength" : 146388, 
            "byteOffset" : 467880, 
            "target" : 34962
        }, 
        {
            "buffer" : 0, 
            "byteLength" : 146388, 
            "byteOffset" : 614268, 
            "target" : 34962
        }, 
        {
            "buffer" : 0, 
            "byteLength" : 76800, 
            "byteOffset" : 760656, 
            "target" : 34963
        }, 
        {
            "buffer" : 0, 
            "byteLength" : 76824, 
            "byteOffset" : 837456, 
            "target" : 34962
        }, 
        {
            "buffer" : 0, 
            "byteLength" : 76824, 
            "byteOffset" : 914280, 
            "target" : 34962
        }, 
        {
            "buffer" : 0, 
            "byteLength" : 72, 
            "byteOffset" : 991104, 
            "target" : 34963
        }, 
        {
            "buffer" : 0, 
            "byteLength" : 552, 
            "byteOffset" : 991176, 
            "target" : 34962
        }, 
        {
            "buffer" : 0, 
            "byteLength" : 552, 
            "byteOffset" : 991728, 
            "target" : 34962
        }, 
        {
            "buffer" : 0, 
            "byteLength" : 224, 
            "byteOffset" : 992280
        }, 
        {
            "buffer" : 0, 
            "byteLength" : 896, 
            "byteOffset" : 992504
        }, 
        {
            "buffer" : 0, 
            "byteLength" : 28, 
            "byteOffset" : 993400
        }, 
        {
            "buffer" : 0, 
            "byteLength" : 252, 
            "byteOffset" : 993428
        }, 
        {
            "buffer" : 0, 
            "byteLength" : 224, 
            "byteOffset" : 993680
        }, 
        {
            "buffer" : 0, 
            "byteLength" : 896, 
            "byteOffset" : 993904
        }, 
        {
            "buffer" : 0, 
            "byteLength" : 28, 
            "byteOffset" : 994800
        }, 
        {
            "buffer" : 0, 
            "byteLength" : 252, 
            "byteOffset" : 994828
        }
    ], 
    "buffers" : [
        {
            "byteLength" : 995080, 
            "uri" : "-ous.bin"
        }
    ], 
    "materials" : [
        {
            "name" : "Material", 
            "pbrMetallicRoughness" : {
                "baseColorFactor" : [
                    0.0417770451572097, 
                    0.0417770451572097, 
                    0.0417770451572097, 
                    1.0
                ], 
                "metallicFactor" : 0.0
            }
        }, 
        {
            "name" : "Material.001", 
            "pbrMetallicRoughness" : {
                "baseColorFactor" : [
                    0.640000066757203, 
                    0.04544352956777109, 
                    0.0379543369703641, 
                    1.0
                ], 
                "metallicFactor" : 0.0
            }
        }, 
        {
            "name" : "Material.004", 
            "pbrMetallicRoughness" : {
                "baseColorFactor" : [
                    0.640000066757203, 
                    0.439398533692934, 
                    0.3008135363580813, 
                    1.0
                ], 
                "metallicFactor" : 0.0
            }
        }
    ], 
    "meshes" : [
        {
            "name" : "Cube.001", 
            "primitives" : [
                {
                    "attributes" : {
                        "NORMAL" : 2, 
                        "POSITION" : 1
                    }, 
                    "indices" : 0, 
                    "material" : 2
                }
            ]
        }, 
        {
            "name" : "circle", 
            "primitives" : [
                {
                    "attributes" : {
                        "NORMAL" : 5, 
                        "POSITION" : 4
                    }, 
                    "indices" : 3, 
                    "material" : 1
                }
            ]
        }, 
        {
            "name" : "CUText", 
            "primitives" : [
                {
                    "attributes" : {
                        "NORMAL" : 8, 
                        "POSITION" : 7
                    }, 
                    "indices" : 6, 
                    "material" : 0
                }
            ]
        }, 
        {
            "name" : "CUText.001", 
            "primitives" : [
                {
                    "attributes" : {
                        "NORMAL" : 11, 
                        "POSITION" : 10
                    }, 
                    "indices" : 9, 
                    "material" : 0
                }
            ]
        }, 
        {
            "name" : "Cube.003", 
            "primitives" : [
                {
                    "attributes" : {
                        "NORMAL" : 14, 
                        "POSITION" : 13
                    }, 
                    "indices" : 12, 
                    "material" : 2
                }
            ]
        }, 
        {
            "name" : "Cube", 
            "primitives" : [
                {
                    "attributes" : {
                        "NORMAL" : 17, 
                        "POSITION" : 16
                    }, 
                    "indices" : 15, 
                    "material" : 1
                }
            ]
        }
    ], 
    "nodes" : [
        {
            "mesh" : 5, 
            "name" : "arrow", 
            "rotation" : [
                -1.633275381607291e-08, 
                9.682960211421232e-08, 
                -0.7365963459014893, 
                0.6763326525688171
            ], 
            "scale" : [
                0.06740675866603851, 
                0.06740675866603851, 
                0.004888991825282574
            ], 
            "translation" : [
                0.5807668566703796, 
                0.5552894473075867, 
                -0.021127058193087578
            ]
        }, 
        {
            "mesh" : 1, 
            "name" : "circle", 
            "rotation" : [
                0.7071068286895752, 
                0.0, 
                -0.0, 
                0.7071068286895752
            ], 
            "scale" : [
                0.2872786521911621, 
                0.04150440916419029, 
                0.2872786521911621
            ], 
            "translation" : [
                0.19338423013687134, 
                1.051924467086792, 
                -0.04111846163868904
            ]
        }, 
        {
            "mesh" : 0, 
            "name" : "face", 
            "rotation" : [
                0.7071068286895752, 
                0.0, 
                -0.0, 
                0.7071068286895752
            ], 
            "scale" : [
                0.15391072630882263, 
                0.03771274536848068, 
                0.2476569265127182
            ], 
            "translation" : [
                0.09459280222654343, 
                1.051924467086792, 
                -0.038845498114824295
            ]
        }, 
        {
            "mesh" : 4, 
            "name" : "finger", 
            "rotation" : [
                0.7066308856010437, 
                -0.026047371327877045, 
                -0.02585015632212162, 
                0.7066301703453064
            ], 
            "scale" : [
                0.08463265001773834, 
                0.026023345068097115, 
                0.12516719102859497
            ], 
            "translation" : [
                0.4105132818222046, 
                0.8672881722450256, 
                -0.01837058924138546
            ]
        }, 
        {
            "mesh" : 2, 
            "name" : "Text", 
            "rotation" : [
                0.7071068286895752, 
                0.0, 
                -0.0, 
                0.7071068286895752
            ]
        }, 
        {
            "mesh" : 3, 
            "name" : "Text.001", 
            "rotation" : [
                0.7071068286895752, 
                0.0, 
                -0.0, 
                0.7071068286895752
            ], 
            "translation" : [
                1.7085306644439697, 
                0.18178710341453552, 
                -3.3600165352254407e-06
            ]
        }
    ], 
    "scene" : 0, 
    "scenes" : [
        {
            "name" : "Scene", 
            "nodes" : [
                5, 
                0, 
                3, 
                2, 
                1, 
                4
            ]
        }
    ]
}
