{
    "accessors" : [
        {
            "bufferView" : 0, 
            "componentType" : 5123, 
            "count" : 8220, 
            "max" : [
                1812
            ], 
            "min" : [
                0
            ], 
            "type" : "SCALAR"
        }, 
        {
            "bufferView" : 1, 
            "componentType" : 5126, 
            "count" : 1813, 
            "max" : [
                0.23209965229034424, 
                0.06499999761581421, 
                0.285703182220459
            ], 
            "min" : [
                -0.23213136196136475, 
                -0.06499999761581421, 
                -0.2861150801181793
            ], 
            "type" : "VEC3"
        }, 
        {
            "bufferView" : 2, 
            "componentType" : 5126, 
            "count" : 1813, 
            "max" : [
                0.999969482421875, 
                1.0, 
                0.999969482421875
            ], 
            "min" : [
                -0.999969482421875, 
                -1.0, 
                -0.999969482421875
            ], 
            "type" : "VEC3"
        }, 
        {
            "bufferView" : 3, 
            "componentType" : 5123, 
            "count" : 16452, 
            "max" : [
                3674
            ], 
            "min" : [
                0
            ], 
            "type" : "SCALAR"
        }, 
        {
            "bufferView" : 4, 
            "componentType" : 5126, 
            "count" : 3675, 
            "max" : [
                2.7602062225341797, 
                0.06499999761581421, 
                0.015003792941570282
            ], 
            "min" : [
                2.3664212226867676, 
                -0.06499999761581421, 
                -0.40199965238571167
            ], 
            "type" : "VEC3"
        }, 
        {
            "bufferView" : 5, 
            "componentType" : 5126, 
            "count" : 3675, 
            "max" : [
                0.999969482421875, 
                1.0, 
                1.0
            ], 
            "min" : [
                -0.999969482421875, 
                -1.0, 
                -1.0
            ], 
            "type" : "VEC3"
        }, 
        {
            "bufferView" : 6, 
            "componentType" : 5123, 
            "count" : 28212, 
            "max" : [
                6283
            ], 
            "min" : [
                0
            ], 
            "type" : "SCALAR"
        }, 
        {
            "bufferView" : 7, 
            "componentType" : 5126, 
            "count" : 6284, 
            "max" : [
                2.158660411834717, 
                0.06499999761581421, 
                0.022741682827472687
            ], 
            "min" : [
                1.778031826019287, 
                -0.06499999761581421, 
                -0.40973857045173645
            ], 
            "type" : "VEC3"
        }, 
        {
            "bufferView" : 8, 
            "componentType" : 5126, 
            "count" : 6284, 
            "max" : [
                1.0, 
                1.0, 
                0.999969482421875
            ], 
            "min" : [
                -0.999969482421875, 
                -1.0, 
                -0.999969482421875
            ], 
            "type" : "VEC3"
        }, 
        {
            "bufferView" : 9, 
            "componentType" : 5123, 
            "count" : 16452, 
            "max" : [
                3681
            ], 
            "min" : [
                0
            ], 
            "type" : "SCALAR"
        }, 
        {
            "bufferView" : 10, 
            "componentType" : 5126, 
            "count" : 3682, 
            "max" : [
                0.44070136547088623, 
                0.06499999761581421, 
                0.015003792941570282
            ], 
            "min" : [
                0.04691648855805397, 
                -0.06499999761581421, 
                -0.40199965238571167
            ], 
            "type" : "VEC3"
        }, 
        {
            "bufferView" : 11, 
            "componentType" : 5126, 
            "count" : 3682, 
            "max" : [
                0.999969482421875, 
                1.0, 
                1.0
            ], 
            "min" : [
                -0.999969482421875, 
                -1.0, 
                -1.0
            ], 
            "type" : "VEC3"
        }, 
        {
            "bufferView" : 12, 
            "componentType" : 5123, 
            "count" : 28212, 
            "max" : [
                6322
            ], 
            "min" : [
                0
            ], 
            "type" : "SCALAR"
        }, 
        {
            "bufferView" : 13, 
            "componentType" : 5126, 
            "count" : 6323, 
            "max" : [
                0.9989078640937805, 
                0.06499999761581421, 
                0.022741682827472687
            ], 
            "min" : [
                0.6182795166969299, 
                -0.06499999761581421, 
                -0.40973857045173645
            ], 
            "type" : "VEC3"
        }, 
        {
            "bufferView" : 14, 
            "componentType" : 5126, 
            "count" : 6323, 
            "max" : [
                1.0, 
                1.0, 
                0.999969482421875
            ], 
            "min" : [
                -1.0, 
                -1.0, 
                -0.999969482421875
            ], 
            "type" : "VEC3"
        }, 
        {
            "bufferView" : 15, 
            "componentType" : 5126, 
            "count" : 5, 
            "max" : [
                4.583333333333333
            ], 
            "min" : [
                0.0
            ], 
            "type" : "SCALAR"
        }, 
        {
            "bufferView" : 16, 
            "componentType" : 5126, 
            "count" : 15, 
            "max" : [
                1.593837022781372, 
                0.8953685760498047, 
                2.4568585388351494e-08
            ], 
            "min" : [
                0.0, 
                0.0, 
                -0.0
            ], 
            "type" : "VEC3"
        }, 
        {
            "bufferView" : 17, 
            "componentType" : 5126, 
            "count" : 111, 
            "max" : [
                4.583333333333333
            ], 
            "min" : [
                0.0
            ], 
            "type" : "SCALAR"
        }, 
        {
            "bufferView" : 18, 
            "componentType" : 5126, 
            "count" : 111, 
            "max" : [
                0.7010573744773865, 
                0.09229595959186554, 
                0.09229595959186554, 
                0.7010573744773865
            ], 
            "min" : [
                0.7010573744773865, 
                0.09229595959186554, 
                0.09229595959186554, 
                0.7010573744773865
            ], 
            "type" : "VEC4"
        }, 
        {
            "bufferView" : 19, 
            "componentType" : 5126, 
            "count" : 5, 
            "max" : [
                4.583333333333333
            ], 
            "min" : [
                0.0
            ], 
            "type" : "SCALAR"
        }, 
        {
            "bufferView" : 20, 
            "componentType" : 5126, 
            "count" : 15, 
            "max" : [
                1.0, 
                1.0, 
                1.0
            ], 
            "min" : [
                0.0, 
                0.0, 
                0.0
            ], 
            "type" : "VEC3"
        }, 
        {
            "bufferView" : 21, 
            "componentType" : 5126, 
            "count" : 111, 
            "max" : [
                4.583333333333333
            ], 
            "min" : [
                0.0
            ], 
            "type" : "SCALAR"
        }, 
        {
            "bufferView" : 22, 
            "componentType" : 5126, 
            "count" : 111, 
            "max" : [
                0.20000000298023224, 
                0.0, 
                -0.0
            ], 
            "min" : [
                -0.15000000596046448, 
                0.0, 
                -0.0
            ], 
            "type" : "VEC3"
        }, 
        {
            "bufferView" : 23, 
            "componentType" : 5126, 
            "count" : 111, 
            "max" : [
                4.583333333333333
            ], 
            "min" : [
                0.0
            ], 
            "type" : "SCALAR"
        }, 
        {
            "bufferView" : 24, 
            "componentType" : 5126, 
            "count" : 111, 
            "max" : [
                0.15000000596046448, 
                0.0, 
                -0.0
            ], 
            "min" : [
                -0.20000000298023224, 
                0.0, 
                -0.0
            ], 
            "type" : "VEC3"
        }, 
        {
            "bufferView" : 25, 
            "componentType" : 5126, 
            "count" : 111, 
            "max" : [
                4.583333333333333
            ], 
            "min" : [
                0.0
            ], 
            "type" : "SCALAR"
        }, 
        {
            "bufferView" : 26, 
            "componentType" : 5126, 
            "count" : 111, 
            "max" : [
                0.20000000298023224, 
                0.0, 
                -0.0
            ], 
            "min" : [
                -0.15000000596046448, 
                0.0, 
                -0.0
            ], 
            "type" : "VEC3"
        }, 
        {
            "bufferView" : 27, 
            "componentType" : 5126, 
            "count" : 111, 
            "max" : [
                4.583333333333333
            ], 
            "min" : [
                0.0
            ], 
            "type" : "SCALAR"
        }, 
        {
            "bufferView" : 28, 
            "componentType" : 5126, 
            "count" : 111, 
            "max" : [
                0.15000000596046448, 
                0.0, 
                -0.0
            ], 
            "min" : [
                -0.20000000298023224, 
                0.0, 
                -0.0
            ], 
            "type" : "VEC3"
        }
    ], 
    "animations" : [
        {
            "channels" : [
                {
                    "sampler" : 0, 
                    "target" : {
                        "node" : 0, 
                        "path" : "translation"
                    }
                }, 
                {
                    "sampler" : 1, 
                    "target" : {
                        "node" : 0, 
                        "path" : "rotation"
                    }
                }, 
                {
                    "sampler" : 2, 
                    "target" : {
                        "node" : 0, 
                        "path" : "scale"
                    }
                }, 
                {
                    "sampler" : 3, 
                    "target" : {
                        "node" : 1, 
                        "path" : "translation"
                    }
                }, 
                {
                    "sampler" : 4, 
                    "target" : {
                        "node" : 2, 
                        "path" : "translation"
                    }
                }, 
                {
                    "sampler" : 5, 
                    "target" : {
                        "node" : 3, 
                        "path" : "translation"
                    }
                }, 
                {
                    "sampler" : 6, 
                    "target" : {
                        "node" : 4, 
                        "path" : "translation"
                    }
                }
            ], 
            "samplers" : [
                {
                    "input" : 15, 
                    "interpolation" : "CUBICSPLINE", 
                    "output" : 16
                }, 
                {
                    "input" : 17, 
                    "interpolation" : "LINEAR", 
                    "output" : 18
                }, 
                {
                    "input" : 19, 
                    "interpolation" : "CUBICSPLINE", 
                    "output" : 20
                }, 
                {
                    "input" : 21, 
                    "interpolation" : "LINEAR", 
                    "output" : 22
                }, 
                {
                    "input" : 23, 
                    "interpolation" : "LINEAR", 
                    "output" : 24
                }, 
                {
                    "input" : 25, 
                    "interpolation" : "LINEAR", 
                    "output" : 26
                }, 
                {
                    "input" : 27, 
                    "interpolation" : "LINEAR", 
                    "output" : 28
                }
            ]
        }
    ], 
    "asset" : {
        "generator" : "Khronos Blender glTF 2.0 exporter", 
        "version" : "2.0"
    }, 
    "bufferViews" : [
        {
            "buffer" : 0, 
            "byteLength" : 16440, 
            "byteOffset" : 0, 
            "target" : 34963
        }, 
        {
            "buffer" : 0, 
            "byteLength" : 21756, 
            "byteOffset" : 16440, 
            "target" : 34962
        }, 
        {
            "buffer" : 0, 
            "byteLength" : 21756, 
            "byteOffset" : 38196, 
            "target" : 34962
        }, 
        {
            "buffer" : 0, 
            "byteLength" : 32904, 
            "byteOffset" : 59952, 
            "target" : 34963
        }, 
        {
            "buffer" : 0, 
            "byteLength" : 44100, 
            "byteOffset" : 92856, 
            "target" : 34962
        }, 
        {
            "buffer" : 0, 
            "byteLength" : 44100, 
            "byteOffset" : 136956, 
            "target" : 34962
        }, 
        {
            "buffer" : 0, 
            "byteLength" : 56424, 
            "byteOffset" : 181056, 
            "target" : 34963
        }, 
        {
            "buffer" : 0, 
            "byteLength" : 75408, 
            "byteOffset" : 237480, 
            "target" : 34962
        }, 
        {
            "buffer" : 0, 
            "byteLength" : 75408, 
            "byteOffset" : 312888, 
            "target" : 34962
        }, 
        {
            "buffer" : 0, 
            "byteLength" : 32904, 
            "byteOffset" : 388296, 
            "target" : 34963
        }, 
        {
            "buffer" : 0, 
            "byteLength" : 44184, 
            "byteOffset" : 421200, 
            "target" : 34962
        }, 
        {
            "buffer" : 0, 
            "byteLength" : 44184, 
            "byteOffset" : 465384, 
            "target" : 34962
        }, 
        {
            "buffer" : 0, 
            "byteLength" : 56424, 
            "byteOffset" : 509568, 
            "target" : 34963
        }, 
        {
            "buffer" : 0, 
            "byteLength" : 75876, 
            "byteOffset" : 565992, 
            "target" : 34962
        }, 
        {
            "buffer" : 0, 
            "byteLength" : 75876, 
            "byteOffset" : 641868, 
            "target" : 34962
        }, 
        {
            "buffer" : 0, 
            "byteLength" : 20, 
            "byteOffset" : 717744
        }, 
        {
            "buffer" : 0, 
            "byteLength" : 180, 
            "byteOffset" : 717764
        }, 
        {
            "buffer" : 0, 
            "byteLength" : 444, 
            "byteOffset" : 717944
        }, 
        {
            "buffer" : 0, 
            "byteLength" : 1776, 
            "byteOffset" : 718388
        }, 
        {
            "buffer" : 0, 
            "byteLength" : 20, 
            "byteOffset" : 720164
        }, 
        {
            "buffer" : 0, 
            "byteLength" : 180, 
            "byteOffset" : 720184
        }, 
        {
            "buffer" : 0, 
            "byteLength" : 444, 
            "byteOffset" : 720364
        }, 
        {
            "buffer" : 0, 
            "byteLength" : 1332, 
            "byteOffset" : 720808
        }, 
        {
            "buffer" : 0, 
            "byteLength" : 444, 
            "byteOffset" : 722140
        }, 
        {
            "buffer" : 0, 
            "byteLength" : 1332, 
            "byteOffset" : 722584
        }, 
        {
            "buffer" : 0, 
            "byteLength" : 444, 
            "byteOffset" : 723916
        }, 
        {
            "buffer" : 0, 
            "byteLength" : 1332, 
            "byteOffset" : 724360
        }, 
        {
            "buffer" : 0, 
            "byteLength" : 444, 
            "byteOffset" : 725692
        }, 
        {
            "buffer" : 0, 
            "byteLength" : 1332, 
            "byteOffset" : 726136
        }
    ], 
    "buffers" : [
        {
            "byteLength" : 727468, 
            "uri" : "vc-cvRead.bin"
        }
    ], 
    "materials" : [
        {
            "name" : "Material.001", 
            "pbrMetallicRoughness" : {
                "baseColorFactor" : [
                    0.04177363279124546, 
                    0.04177363279124546, 
                    0.04177363279124546, 
                    1.0
                ], 
                "metallicFactor" : 0.0
            }
        }, 
        {
            "name" : "Material.003", 
            "pbrMetallicRoughness" : {
                "baseColorFactor" : [
                    0.03808404860025716, 
                    0.38158934684975954, 
                    0.021287077982531155, 
                    1.0
                ], 
                "metallicFactor" : 0.0
            }
        }, 
        {
            "name" : "Material.004", 
            "pbrMetallicRoughness" : {
                "baseColorFactor" : [
                    0.055415988794207394, 
                    0.09512649320254463, 
                    0.38158934684975954, 
                    1.0
                ], 
                "metallicFactor" : 0.0
            }
        }
    ], 
    "meshes" : [
        {
            "name" : "CUText.001", 
            "primitives" : [
                {
                    "attributes" : {
                        "NORMAL" : 2, 
                        "POSITION" : 1
                    }, 
                    "indices" : 0, 
                    "material" : 0
                }
            ]
        }, 
        {
            "name" : "CUText.008", 
            "primitives" : [
                {
                    "attributes" : {
                        "NORMAL" : 5, 
                        "POSITION" : 4
                    }, 
                    "indices" : 3, 
                    "material" : 1
                }
            ]
        }, 
        {
            "name" : "CUText.007", 
            "primitives" : [
                {
                    "attributes" : {
                        "NORMAL" : 8, 
                        "POSITION" : 7
                    }, 
                    "indices" : 6, 
                    "material" : 2
                }
            ]
        }, 
        {
            "name" : "CUText", 
            "primitives" : [
                {
                    "attributes" : {
                        "NORMAL" : 11, 
                        "POSITION" : 10
                    }, 
                    "indices" : 9, 
                    "material" : 1
                }
            ]
        }, 
        {
            "name" : "CUText.006", 
            "primitives" : [
                {
                    "attributes" : {
                        "NORMAL" : 14, 
                        "POSITION" : 13
                    }, 
                    "indices" : 12, 
                    "material" : 2
                }
            ]
        }
    ], 
    "nodes" : [
        {
            "mesh" : 0, 
            "name" : "Slash", 
            "scale" : [
                0.0, 
                0.0, 
                0.0
            ], 
            "translation" : [
                1.593837022781372, 
                0.8953685760498047, 
                2.4568585388351494e-08
            ]
        }, 
        {
            "mesh" : 3, 
            "name" : "Text", 
            "rotation" : [
                0.7071068286895752, 
                0.0, 
                -0.0, 
                0.7071068286895752
            ], 
            "translation" : [
                0.20000000298023224, 
                0.0, 
                -0.0
            ]
        }, 
        {
            "mesh" : 1, 
            "name" : "Text.001", 
            "rotation" : [
                0.7071068286895752, 
                0.0, 
                -0.0, 
                0.7071068286895752
            ], 
            "translation" : [
                -0.20000000298023224, 
                0.0, 
                -0.0
            ]
        }, 
        {
            "mesh" : 4, 
            "name" : "Text.002", 
            "rotation" : [
                0.7071068286895752, 
                0.0, 
                -0.0, 
                0.7071068286895752
            ], 
            "translation" : [
                0.20000000298023224, 
                0.0, 
                -0.0
            ]
        }, 
        {
            "mesh" : 2, 
            "name" : "Text.003", 
            "rotation" : [
                0.7071068286895752, 
                0.0, 
                -0.0, 
                0.7071068286895752
            ], 
            "translation" : [
                -0.20000000298023224, 
                0.0, 
                -0.0
            ]
        }
    ], 
    "scene" : 0, 
    "scenes" : [
        {
            "name" : "Scene", 
            "nodes" : [
                2, 
                4, 
                3, 
                0, 
                1
            ]
        }
    ]
}
