{
    "accessors" : [
        {
            "bufferView" : 0, 
            "componentType" : 5123, 
            "count" : 45012, 
            "max" : [
                9984
            ], 
            "min" : [
                0
            ], 
            "type" : "SCALAR"
        }, 
        {
            "bufferView" : 1, 
            "componentType" : 5126, 
            "count" : 9985, 
            "max" : [
                0.4441314935684204, 
                -2.436339855194092e-06, 
                0.24124068021774292
            ], 
            "min" : [
                -0.5488837957382202, 
                -0.1300024390220642, 
                -0.3460443615913391
            ], 
            "type" : "VEC3"
        }, 
        {
            "bufferView" : 2, 
            "componentType" : 5126, 
            "count" : 9985, 
            "max" : [
                1.0, 
                1.0, 
                1.0
            ], 
            "min" : [
                -1.0, 
                -1.0, 
                -1.0
            ], 
            "type" : "VEC3"
        }, 
        {
            "bufferView" : 3, 
            "componentType" : 5123, 
            "count" : 30960, 
            "max" : [
                6923
            ], 
            "min" : [
                0
            ], 
            "type" : "SCALAR"
        }, 
        {
            "bufferView" : 4, 
            "componentType" : 5126, 
            "count" : 6924, 
            "max" : [
                0.36329251527786255, 
                -2.436339855194092e-06, 
                0.20298871397972107
            ], 
            "min" : [
                -0.6142423152923584, 
                -0.1300024390220642, 
                -0.368813693523407
            ], 
            "type" : "VEC3"
        }, 
        {
            "bufferView" : 5, 
            "componentType" : 5126, 
            "count" : 6924, 
            "max" : [
                1.0, 
                1.0, 
                1.0
            ], 
            "min" : [
                -1.0, 
                -1.0, 
                -1.0
            ], 
            "type" : "VEC3"
        }, 
        {
            "bufferView" : 6, 
            "componentType" : 5123, 
            "count" : 78936, 
            "max" : [
                17630
            ], 
            "min" : [
                0
            ], 
            "type" : "SCALAR"
        }, 
        {
            "bufferView" : 7, 
            "componentType" : 5126, 
            "count" : 17631, 
            "max" : [
                0.8140769600868225, 
                0.06499999761581421, 
                0.3481404185295105
            ], 
            "min" : [
                -0.8289281129837036, 
                -0.06499999761581421, 
                -0.39704763889312744
            ], 
            "type" : "VEC3"
        }, 
        {
            "bufferView" : 8, 
            "componentType" : 5126, 
            "count" : 17631, 
            "max" : [
                1.0, 
                1.0, 
                0.999969482421875
            ], 
            "min" : [
                -1.0, 
                -1.0, 
                -1.0
            ], 
            "type" : "VEC3"
        }, 
        {
            "bufferView" : 9, 
            "componentType" : 5126, 
            "count" : 5, 
            "max" : [
                2.7083333333333335
            ], 
            "min" : [
                0.0
            ], 
            "type" : "SCALAR"
        }, 
        {
            "bufferView" : 10, 
            "componentType" : 5126, 
            "count" : 15, 
            "max" : [
                0.6757442951202393, 
                0.1883246749639511, 
                5.387598775996594e-07
            ], 
            "min" : [
                0.0, 
                0.0, 
                -0.0
            ], 
            "type" : "VEC3"
        }, 
        {
            "bufferView" : 11, 
            "componentType" : 5126, 
            "count" : 5, 
            "max" : [
                2.7083333333333335
            ], 
            "min" : [
                0.0
            ], 
            "type" : "SCALAR"
        }, 
        {
            "bufferView" : 12, 
            "componentType" : 5126, 
            "count" : 15, 
            "max" : [
                2.0462887287139893, 
                0.22163306176662445, 
                1.513249571871711e-06
            ], 
            "min" : [
                0.0, 
                0.0, 
                -0.0
            ], 
            "type" : "VEC3"
        }, 
        {
            "bufferView" : 13, 
            "componentType" : 5126, 
            "count" : 5, 
            "max" : [
                2.7083333333333335
            ], 
            "min" : [
                0.0
            ], 
            "type" : "SCALAR"
        }, 
        {
            "bufferView" : 14, 
            "componentType" : 5126, 
            "count" : 15, 
            "max" : [
                0.8539631366729736, 
                0.0, 
                5.387598775996594e-07
            ], 
            "min" : [
                0.0, 
                -0.32345226407051086, 
                -0.0
            ], 
            "type" : "VEC3"
        }
    ], 
    "animations" : [
        {
            "channels" : [
                {
                    "sampler" : 0, 
                    "target" : {
                        "node" : 0, 
                        "path" : "translation"
                    }
                }, 
                {
                    "sampler" : 1, 
                    "target" : {
                        "node" : 1, 
                        "path" : "translation"
                    }
                }, 
                {
                    "sampler" : 2, 
                    "target" : {
                        "node" : 2, 
                        "path" : "translation"
                    }
                }
            ], 
            "samplers" : [
                {
                    "input" : 9, 
                    "interpolation" : "CUBICSPLINE", 
                    "output" : 10
                }, 
                {
                    "input" : 11, 
                    "interpolation" : "CUBICSPLINE", 
                    "output" : 12
                }, 
                {
                    "input" : 13, 
                    "interpolation" : "CUBICSPLINE", 
                    "output" : 14
                }
            ]
        }
    ], 
    "asset" : {
        "generator" : "Khronos Blender glTF 2.0 exporter", 
        "version" : "2.0"
    }, 
    "bufferViews" : [
        {
            "buffer" : 0, 
            "byteLength" : 90024, 
            "byteOffset" : 0, 
            "target" : 34963
        }, 
        {
            "buffer" : 0, 
            "byteLength" : 119820, 
            "byteOffset" : 90024, 
            "target" : 34962
        }, 
        {
            "buffer" : 0, 
            "byteLength" : 119820, 
            "byteOffset" : 209844, 
            "target" : 34962
        }, 
        {
            "buffer" : 0, 
            "byteLength" : 61920, 
            "byteOffset" : 329664, 
            "target" : 34963
        }, 
        {
            "buffer" : 0, 
            "byteLength" : 83088, 
            "byteOffset" : 391584, 
            "target" : 34962
        }, 
        {
            "buffer" : 0, 
            "byteLength" : 83088, 
            "byteOffset" : 474672, 
            "target" : 34962
        }, 
        {
            "buffer" : 0, 
            "byteLength" : 157872, 
            "byteOffset" : 557760, 
            "target" : 34963
        }, 
        {
            "buffer" : 0, 
            "byteLength" : 211572, 
            "byteOffset" : 715632, 
            "target" : 34962
        }, 
        {
            "buffer" : 0, 
            "byteLength" : 211572, 
            "byteOffset" : 927204, 
            "target" : 34962
        }, 
        {
            "buffer" : 0, 
            "byteLength" : 20, 
            "byteOffset" : 1138776
        }, 
        {
            "buffer" : 0, 
            "byteLength" : 180, 
            "byteOffset" : 1138796
        }, 
        {
            "buffer" : 0, 
            "byteLength" : 20, 
            "byteOffset" : 1138976
        }, 
        {
            "buffer" : 0, 
            "byteLength" : 180, 
            "byteOffset" : 1138996
        }, 
        {
            "buffer" : 0, 
            "byteLength" : 20, 
            "byteOffset" : 1139176
        }, 
        {
            "buffer" : 0, 
            "byteLength" : 180, 
            "byteOffset" : 1139196
        }
    ], 
    "buffers" : [
        {
            "byteLength" : 1139376, 
            "uri" : "-iot.bin"
        }
    ], 
    "materials" : [
        {
            "name" : "Material.001", 
            "pbrMetallicRoughness" : {
                "baseColorFactor" : [
                    0.06681131224053072, 
                    0.3895150481092191, 
                    0.00789228167969408, 
                    1.0
                ], 
                "metallicFactor" : 0.0
            }
        }, 
        {
            "name" : "Material.003", 
            "pbrMetallicRoughness" : {
                "baseColorFactor" : [
                    0.04177363279124546, 
                    0.04177363279124546, 
                    0.04177363279124546, 
                    1.0
                ], 
                "metallicFactor" : 0.0
            }
        }
    ], 
    "meshes" : [
        {
            "name" : "CUText.007", 
            "primitives" : [
                {
                    "attributes" : {
                        "NORMAL" : 2, 
                        "POSITION" : 1
                    }, 
                    "indices" : 0, 
                    "material" : 1
                }
            ]
        }, 
        {
            "name" : "CUText.013", 
            "primitives" : [
                {
                    "attributes" : {
                        "NORMAL" : 5, 
                        "POSITION" : 4
                    }, 
                    "indices" : 3, 
                    "material" : 1
                }
            ]
        }, 
        {
            "name" : "CUText.011", 
            "primitives" : [
                {
                    "attributes" : {
                        "NORMAL" : 8, 
                        "POSITION" : 7
                    }, 
                    "indices" : 6, 
                    "material" : 0
                }
            ]
        }
    ], 
    "nodes" : [
        {
            "mesh" : 1, 
            "name" : "Text", 
            "rotation" : [
                0.7071068286895752, 
                0.0, 
                -0.0, 
                0.7071068286895752
            ], 
            "translation" : [
                0.6757442951202393, 
                0.1883246749639511, 
                5.387598775996594e-07
            ]
        }, 
        {
            "mesh" : 0, 
            "name" : "Text.001", 
            "rotation" : [
                0.7071068286895752, 
                0.0, 
                -0.0, 
                0.7071068286895752
            ], 
            "translation" : [
                1.7462886571884155, 
                0.22163306176662445, 
                1.513249571871711e-06
            ]
        }, 
        {
            "mesh" : 2, 
            "name" : "Text.004", 
            "rotation" : [
                0.7071068286895752, 
                0.0, 
                -0.0, 
                0.7071068286895752
            ], 
            "scale" : [
                0.36149001121520996, 
                0.36149001121520996, 
                0.36149001121520996
            ], 
            "translation" : [
                0.8539631366729736, 
                -0.32345226407051086, 
                5.387598775996594e-07
            ]
        }
    ], 
    "scene" : 0, 
    "scenes" : [
        {
            "name" : "Scene", 
            "nodes" : [
                2, 
                1, 
                0
            ]
        }
    ]
}
