{
    "accessors" : [
        {
            "bufferView" : 0, 
            "componentType" : 5123, 
            "count" : 20160, 
            "max" : [
                4453
            ], 
            "min" : [
                0
            ], 
            "type" : "SCALAR"
        }, 
        {
            "bufferView" : 1, 
            "componentType" : 5126, 
            "count" : 4454, 
            "max" : [
                2.178779363632202, 
                0.06499999761581421, 
                0.02274298295378685
            ], 
            "min" : [
                1.7788059711456299, 
                -0.06499999761581421, 
                -0.4097398817539215
            ], 
            "type" : "VEC3"
        }, 
        {
            "bufferView" : 2, 
            "componentType" : 5126, 
            "count" : 4454, 
            "max" : [
                1.0, 
                1.0, 
                1.0
            ], 
            "min" : [
                -1.0, 
                -1.0, 
                -1.0
            ], 
            "type" : "VEC3"
        }, 
        {
            "bufferView" : 3, 
            "componentType" : 5121, 
            "count" : 324, 
            "max" : [
                135
            ], 
            "min" : [
                0
            ], 
            "type" : "SCALAR"
        }, 
        {
            "bufferView" : 4, 
            "componentType" : 5126, 
            "count" : 136, 
            "max" : [
                1.0, 
                2.8987531661987305, 
                1.0
            ], 
            "min" : [
                -1.0, 
                -1.0, 
                -1.0
            ], 
            "type" : "VEC3"
        }, 
        {
            "bufferView" : 5, 
            "componentType" : 5126, 
            "count" : 136, 
            "max" : [
                1.0, 
                1.0, 
                1.0
            ], 
            "min" : [
                -1.0, 
                -1.0, 
                -1.0
            ], 
            "type" : "VEC3"
        }, 
        {
            "bufferView" : 6, 
            "componentType" : 5123, 
            "count" : 120048, 
            "max" : [
                26682
            ], 
            "min" : [
                0
            ], 
            "type" : "SCALAR"
        }, 
        {
            "bufferView" : 7, 
            "componentType" : 5126, 
            "count" : 26683, 
            "max" : [
                3.3222758769989014, 
                0.06499999761581421, 
                0.02274397388100624
            ], 
            "min" : [
                0.06549099087715149, 
                -0.06499999761581421, 
                -0.5568023920059204
            ], 
            "type" : "VEC3"
        }, 
        {
            "bufferView" : 8, 
            "componentType" : 5126, 
            "count" : 26683, 
            "max" : [
                1.0, 
                1.0, 
                1.0
            ], 
            "min" : [
                -1.0, 
                -1.0, 
                -1.0
            ], 
            "type" : "VEC3"
        }, 
        {
            "bufferView" : 9, 
            "componentType" : 5123, 
            "count" : 87036, 
            "max" : [
                19246
            ], 
            "min" : [
                0
            ], 
            "type" : "SCALAR"
        }, 
        {
            "bufferView" : 10, 
            "componentType" : 5126, 
            "count" : 19247, 
            "max" : [
                1.8176342248916626, 
                0.06499999761581421, 
                0.02274397388100624
            ], 
            "min" : [
                0.10806243866682053, 
                -0.06499999761581421, 
                -0.5645653605461121
            ], 
            "type" : "VEC3"
        }, 
        {
            "bufferView" : 11, 
            "componentType" : 5126, 
            "count" : 19247, 
            "max" : [
                0.999969482421875, 
                1.0, 
                1.0
            ], 
            "min" : [
                -1.0, 
                -1.0, 
                -1.0
            ], 
            "type" : "VEC3"
        }, 
        {
            "bufferView" : 12, 
            "componentType" : 5126, 
            "count" : 30, 
            "max" : [
                1.2083333333333333
            ], 
            "min" : [
                0.0
            ], 
            "type" : "SCALAR"
        }, 
        {
            "bufferView" : 13, 
            "componentType" : 5126, 
            "count" : 30, 
            "max" : [
                0.7071067690849304, 
                0.0, 
                -0.0, 
                0.7071067690849304
            ], 
            "min" : [
                0.7071067690849304, 
                0.0, 
                -0.0, 
                0.7071067690849304
            ], 
            "type" : "VEC4"
        }, 
        {
            "bufferView" : 14, 
            "componentType" : 5126, 
            "count" : 45, 
            "max" : [
                1.8333333333333333
            ], 
            "min" : [
                0.0
            ], 
            "type" : "SCALAR"
        }, 
        {
            "bufferView" : 15, 
            "componentType" : 5126, 
            "count" : 45, 
            "max" : [
                1.0, 
                1.0, 
                1.1344666481018066
            ], 
            "min" : [
                1.0, 
                1.0, 
                0.7425984144210815
            ], 
            "type" : "VEC3"
        }
    ], 
    "animations" : [
        {
            "channels" : [
                {
                    "sampler" : 0, 
                    "target" : {
                        "node" : 3, 
                        "path" : "rotation"
                    }
                }, 
                {
                    "sampler" : 1, 
                    "target" : {
                        "node" : 3, 
                        "path" : "scale"
                    }
                }
            ], 
            "samplers" : [
                {
                    "input" : 12, 
                    "interpolation" : "LINEAR", 
                    "output" : 13
                }, 
                {
                    "input" : 14, 
                    "interpolation" : "LINEAR", 
                    "output" : 15
                }
            ]
        }
    ], 
    "asset" : {
        "generator" : "Khronos Blender glTF 2.0 exporter", 
        "version" : "2.0"
    }, 
    "bufferViews" : [
        {
            "buffer" : 0, 
            "byteLength" : 40320, 
            "byteOffset" : 0, 
            "target" : 34963
        }, 
        {
            "buffer" : 0, 
            "byteLength" : 53448, 
            "byteOffset" : 40320, 
            "target" : 34962
        }, 
        {
            "buffer" : 0, 
            "byteLength" : 53448, 
            "byteOffset" : 93768, 
            "target" : 34962
        }, 
        {
            "buffer" : 0, 
            "byteLength" : 324, 
            "byteOffset" : 147216, 
            "target" : 34963
        }, 
        {
            "buffer" : 0, 
            "byteLength" : 1632, 
            "byteOffset" : 147540, 
            "target" : 34962
        }, 
        {
            "buffer" : 0, 
            "byteLength" : 1632, 
            "byteOffset" : 149172, 
            "target" : 34962
        }, 
        {
            "buffer" : 0, 
            "byteLength" : 240096, 
            "byteOffset" : 150804, 
            "target" : 34963
        }, 
        {
            "buffer" : 0, 
            "byteLength" : 320196, 
            "byteOffset" : 390900, 
            "target" : 34962
        }, 
        {
            "buffer" : 0, 
            "byteLength" : 320196, 
            "byteOffset" : 711096, 
            "target" : 34962
        }, 
        {
            "buffer" : 0, 
            "byteLength" : 174072, 
            "byteOffset" : 1031292, 
            "target" : 34963
        }, 
        {
            "buffer" : 0, 
            "byteLength" : 230964, 
            "byteOffset" : 1205364, 
            "target" : 34962
        }, 
        {
            "buffer" : 0, 
            "byteLength" : 230964, 
            "byteOffset" : 1436328, 
            "target" : 34962
        }, 
        {
            "buffer" : 0, 
            "byteLength" : 120, 
            "byteOffset" : 1667292
        }, 
        {
            "buffer" : 0, 
            "byteLength" : 480, 
            "byteOffset" : 1667412
        }, 
        {
            "buffer" : 0, 
            "byteLength" : 180, 
            "byteOffset" : 1667892
        }, 
        {
            "buffer" : 0, 
            "byteLength" : 540, 
            "byteOffset" : 1668072
        }
    ], 
    "buffers" : [
        {
            "byteLength" : 1668612, 
            "uri" : "-ssion.bin"
        }
    ], 
    "materials" : [
        {
            "name" : "Material", 
            "pbrMetallicRoughness" : {
                "baseColorFactor" : [
                    0.04177363279124546, 
                    0.04177363279124546, 
                    0.04177363279124546, 
                    1.0
                ], 
                "metallicFactor" : 0.0
            }
        }, 
        {
            "name" : "Material.005", 
            "pbrMetallicRoughness" : {
                "baseColorFactor" : [
                    0.37375867923734596, 
                    0.1728259469989828, 
                    0.3502181343766768, 
                    1.0
                ], 
                "metallicFactor" : 0.0
            }
        }
    ], 
    "meshes" : [
        {
            "name" : "CUText.001", 
            "primitives" : [
                {
                    "attributes" : {
                        "NORMAL" : 2, 
                        "POSITION" : 1
                    }, 
                    "indices" : 0, 
                    "material" : 0
                }
            ]
        }, 
        {
            "name" : "Cube.001", 
            "primitives" : [
                {
                    "attributes" : {
                        "NORMAL" : 5, 
                        "POSITION" : 4
                    }, 
                    "indices" : 3, 
                    "material" : 1
                }
            ]
        }, 
        {
            "name" : "CUText", 
            "primitives" : [
                {
                    "attributes" : {
                        "NORMAL" : 8, 
                        "POSITION" : 7
                    }, 
                    "indices" : 6, 
                    "material" : 0
                }
            ]
        }, 
        {
            "name" : "CUText.002", 
            "primitives" : [
                {
                    "attributes" : {
                        "NORMAL" : 11, 
                        "POSITION" : 10
                    }, 
                    "indices" : 9, 
                    "material" : 1
                }
            ]
        }
    ], 
    "nodes" : [
        {
            "mesh" : 1, 
            "name" : "Cube.001", 
            "scale" : [
                0.8536995053291321, 
                0.033479467034339905, 
                0.09532338380813599
            ], 
            "translation" : [
                1.384653925895691, 
                -0.20650818943977356, 
                0.015696993097662926
            ]
        }, 
        {
            "mesh" : 2, 
            "name" : "Text", 
            "rotation" : [
                0.7071068286895752, 
                0.0, 
                -0.0, 
                0.7071068286895752
            ]
        }, 
        {
            "mesh" : 3, 
            "name" : "Text.001", 
            "rotation" : [
                0.7071068286895752, 
                0.0, 
                -0.0, 
                0.7071068286895752
            ], 
            "scale" : [
                0.515999972820282, 
                0.515999972820282, 
                0.515999972820282
            ], 
            "translation" : [
                0.901766836643219, 
                -0.6184434294700623, 
                3.235261392120492e-09
            ]
        }, 
        {
            "mesh" : 0, 
            "name" : "Text.002", 
            "rotation" : [
                0.7071068286895752, 
                0.0, 
                -0.0, 
                0.7071068286895752
            ], 
            "translation" : [
                0.5792791843414307, 
                0.0, 
                -0.0
            ]
        }
    ], 
    "scene" : 0, 
    "scenes" : [
        {
            "name" : "Scene", 
            "nodes" : [
                1, 
                0, 
                2, 
                3
            ]
        }
    ]
}
