{
    "accessors" : [
        {
            "bufferView" : 0, 
            "componentType" : 5123, 
            "count" : 33072, 
            "max" : [
                7359
            ], 
            "min" : [
                0
            ], 
            "type" : "SCALAR"
        }, 
        {
            "bufferView" : 1, 
            "componentType" : 5126, 
            "count" : 7360, 
            "max" : [
                1.0321929454803467, 
                0.06499999761581421, 
                0.022741474211215973
            ], 
            "min" : [
                0.06549099087715149, 
                -0.06499999761581421, 
                -0.5645420551300049
            ], 
            "type" : "VEC3"
        }, 
        {
            "bufferView" : 2, 
            "componentType" : 5126, 
            "count" : 7360, 
            "max" : [
                1.0, 
                1.0, 
                0.999969482421875
            ], 
            "min" : [
                -1.0, 
                -1.0, 
                -0.999969482421875
            ], 
            "type" : "VEC3"
        }, 
        {
            "bufferView" : 3, 
            "componentType" : 5123, 
            "count" : 87036, 
            "max" : [
                19246
            ], 
            "min" : [
                0
            ], 
            "type" : "SCALAR"
        }, 
        {
            "bufferView" : 4, 
            "componentType" : 5126, 
            "count" : 19247, 
            "max" : [
                1.8176342248916626, 
                0.06499999761581421, 
                0.02274397388100624
            ], 
            "min" : [
                0.10806243866682053, 
                -0.06499999761581421, 
                -0.5645653605461121
            ], 
            "type" : "VEC3"
        }, 
        {
            "bufferView" : 5, 
            "componentType" : 5126, 
            "count" : 19247, 
            "max" : [
                0.999969482421875, 
                1.0, 
                1.0
            ], 
            "min" : [
                -1.0, 
                -1.0, 
                -1.0
            ], 
            "type" : "VEC3"
        }, 
        {
            "bufferView" : 6, 
            "componentType" : 5123, 
            "count" : 26292, 
            "max" : [
                5817
            ], 
            "min" : [
                0
            ], 
            "type" : "SCALAR"
        }, 
        {
            "bufferView" : 7, 
            "componentType" : 5126, 
            "count" : 5818, 
            "max" : [
                -0.406541109085083, 
                0.06499999761581421, 
                0.20799246430397034
            ], 
            "min" : [
                -0.7987722158432007, 
                -0.06499999761581421, 
                -0.22448933124542236
            ], 
            "type" : "VEC3"
        }, 
        {
            "bufferView" : 8, 
            "componentType" : 5126, 
            "count" : 5818, 
            "max" : [
                0.999969482421875, 
                1.0, 
                0.999969482421875
            ], 
            "min" : [
                -1.0, 
                -1.0, 
                -1.0
            ], 
            "type" : "VEC3"
        }, 
        {
            "bufferView" : 9, 
            "componentType" : 5123, 
            "count" : 22740, 
            "max" : [
                5057
            ], 
            "min" : [
                0
            ], 
            "type" : "SCALAR"
        }, 
        {
            "bufferView" : 10, 
            "componentType" : 5126, 
            "count" : 5058, 
            "max" : [
                1.6229020357131958, 
                0.06499999761581421, 
                0.015000002458691597
            ], 
            "min" : [
                1.2229185104370117, 
                -0.06499999761581421, 
                -0.5568023920059204
            ], 
            "type" : "VEC3"
        }, 
        {
            "bufferView" : 11, 
            "componentType" : 5126, 
            "count" : 5058, 
            "max" : [
                1.0, 
                1.0, 
                1.0
            ], 
            "min" : [
                -1.0, 
                -1.0, 
                -1.0
            ], 
            "type" : "VEC3"
        }, 
        {
            "bufferView" : 12, 
            "componentType" : 5123, 
            "count" : 26292, 
            "max" : [
                5817
            ], 
            "min" : [
                0
            ], 
            "type" : "SCALAR"
        }, 
        {
            "bufferView" : 13, 
            "componentType" : 5126, 
            "count" : 5818, 
            "max" : [
                -0.406541109085083, 
                0.06499999761581421, 
                0.20799246430397034
            ], 
            "min" : [
                -0.7987722158432007, 
                -0.06499999761581421, 
                -0.22448933124542236
            ], 
            "type" : "VEC3"
        }, 
        {
            "bufferView" : 14, 
            "componentType" : 5126, 
            "count" : 5818, 
            "max" : [
                0.999969482421875, 
                1.0, 
                0.999969482421875
            ], 
            "min" : [
                -1.0, 
                -1.0, 
                -1.0
            ], 
            "type" : "VEC3"
        }, 
        {
            "bufferView" : 15, 
            "componentType" : 5121, 
            "count" : 324, 
            "max" : [
                135
            ], 
            "min" : [
                0
            ], 
            "type" : "SCALAR"
        }, 
        {
            "bufferView" : 16, 
            "componentType" : 5126, 
            "count" : 136, 
            "max" : [
                1.0, 
                2.8987531661987305, 
                1.0
            ], 
            "min" : [
                -1.0, 
                -1.0, 
                -1.0
            ], 
            "type" : "VEC3"
        }, 
        {
            "bufferView" : 17, 
            "componentType" : 5126, 
            "count" : 136, 
            "max" : [
                1.0, 
                1.0, 
                1.0
            ], 
            "min" : [
                -1.0, 
                -1.0, 
                -1.0
            ], 
            "type" : "VEC3"
        }, 
        {
            "bufferView" : 18, 
            "componentType" : 5126, 
            "count" : 60, 
            "max" : [
                2.4583333333333335
            ], 
            "min" : [
                0.0
            ], 
            "type" : "SCALAR"
        }, 
        {
            "bufferView" : 19, 
            "componentType" : 5126, 
            "count" : 60, 
            "max" : [
                2.5762600898742676, 
                0.522508978843689, 
                -0.0
            ], 
            "min" : [
                2.5762600898742676, 
                0.10436436533927917, 
                -0.0
            ], 
            "type" : "VEC3"
        }, 
        {
            "bufferView" : 20, 
            "componentType" : 5126, 
            "count" : 35, 
            "max" : [
                1.4166666666666665
            ], 
            "min" : [
                0.0
            ], 
            "type" : "SCALAR"
        }, 
        {
            "bufferView" : 21, 
            "componentType" : 5126, 
            "count" : 35, 
            "max" : [
                0.7071067690849304, 
                0.0, 
                -0.0, 
                0.7071067690849304
            ], 
            "min" : [
                0.7071067690849304, 
                0.0, 
                -0.0, 
                0.7071067690849304
            ], 
            "type" : "VEC4"
        }, 
        {
            "bufferView" : 22, 
            "componentType" : 5126, 
            "count" : 60, 
            "max" : [
                2.4583333333333335
            ], 
            "min" : [
                0.0
            ], 
            "type" : "SCALAR"
        }, 
        {
            "bufferView" : 23, 
            "componentType" : 5126, 
            "count" : 60, 
            "max" : [
                1.0, 
                1.0, 
                1.196179986000061
            ], 
            "min" : [
                0.0, 
                0.0, 
                0.0
            ], 
            "type" : "VEC3"
        }, 
        {
            "bufferView" : 24, 
            "componentType" : 5126, 
            "count" : 35, 
            "max" : [
                1.4166666666666665
            ], 
            "min" : [
                0.0
            ], 
            "type" : "SCALAR"
        }, 
        {
            "bufferView" : 25, 
            "componentType" : 5126, 
            "count" : 35, 
            "max" : [
                2.5762600898742676, 
                0.522508978843689, 
                -0.0
            ], 
            "min" : [
                1.997849941253662, 
                0.10436436533927917, 
                -0.0
            ], 
            "type" : "VEC3"
        }, 
        {
            "bufferView" : 26, 
            "componentType" : 5126, 
            "count" : 35, 
            "max" : [
                1.4166666666666665
            ], 
            "min" : [
                0.0
            ], 
            "type" : "SCALAR"
        }, 
        {
            "bufferView" : 27, 
            "componentType" : 5126, 
            "count" : 35, 
            "max" : [
                0.7071067690849304, 
                0.0, 
                -0.0, 
                0.7071067690849304
            ], 
            "min" : [
                0.7071067690849304, 
                0.0, 
                -0.0, 
                0.7071067690849304
            ], 
            "type" : "VEC4"
        }, 
        {
            "bufferView" : 28, 
            "componentType" : 5126, 
            "count" : 35, 
            "max" : [
                1.4166666666666665
            ], 
            "min" : [
                0.0
            ], 
            "type" : "SCALAR"
        }, 
        {
            "bufferView" : 29, 
            "componentType" : 5126, 
            "count" : 35, 
            "max" : [
                1.0, 
                1.0, 
                1.3861773014068604
            ], 
            "min" : [
                0.0, 
                0.0, 
                0.0
            ], 
            "type" : "VEC3"
        }
    ], 
    "animations" : [
        {
            "channels" : [
                {
                    "sampler" : 0, 
                    "target" : {
                        "node" : 2, 
                        "path" : "translation"
                    }
                }, 
                {
                    "sampler" : 1, 
                    "target" : {
                        "node" : 2, 
                        "path" : "rotation"
                    }
                }, 
                {
                    "sampler" : 2, 
                    "target" : {
                        "node" : 2, 
                        "path" : "scale"
                    }
                }, 
                {
                    "sampler" : 3, 
                    "target" : {
                        "node" : 3, 
                        "path" : "translation"
                    }
                }, 
                {
                    "sampler" : 4, 
                    "target" : {
                        "node" : 3, 
                        "path" : "rotation"
                    }
                }, 
                {
                    "sampler" : 5, 
                    "target" : {
                        "node" : 3, 
                        "path" : "scale"
                    }
                }
            ], 
            "samplers" : [
                {
                    "input" : 18, 
                    "interpolation" : "LINEAR", 
                    "output" : 19
                }, 
                {
                    "input" : 20, 
                    "interpolation" : "LINEAR", 
                    "output" : 21
                }, 
                {
                    "input" : 22, 
                    "interpolation" : "LINEAR", 
                    "output" : 23
                }, 
                {
                    "input" : 24, 
                    "interpolation" : "LINEAR", 
                    "output" : 25
                }, 
                {
                    "input" : 26, 
                    "interpolation" : "LINEAR", 
                    "output" : 27
                }, 
                {
                    "input" : 28, 
                    "interpolation" : "LINEAR", 
                    "output" : 29
                }
            ]
        }
    ], 
    "asset" : {
        "generator" : "Khronos Blender glTF 2.0 exporter", 
        "version" : "2.0"
    }, 
    "bufferViews" : [
        {
            "buffer" : 0, 
            "byteLength" : 66144, 
            "byteOffset" : 0, 
            "target" : 34963
        }, 
        {
            "buffer" : 0, 
            "byteLength" : 88320, 
            "byteOffset" : 66144, 
            "target" : 34962
        }, 
        {
            "buffer" : 0, 
            "byteLength" : 88320, 
            "byteOffset" : 154464, 
            "target" : 34962
        }, 
        {
            "buffer" : 0, 
            "byteLength" : 174072, 
            "byteOffset" : 242784, 
            "target" : 34963
        }, 
        {
            "buffer" : 0, 
            "byteLength" : 230964, 
            "byteOffset" : 416856, 
            "target" : 34962
        }, 
        {
            "buffer" : 0, 
            "byteLength" : 230964, 
            "byteOffset" : 647820, 
            "target" : 34962
        }, 
        {
            "buffer" : 0, 
            "byteLength" : 52584, 
            "byteOffset" : 878784, 
            "target" : 34963
        }, 
        {
            "buffer" : 0, 
            "byteLength" : 69816, 
            "byteOffset" : 931368, 
            "target" : 34962
        }, 
        {
            "buffer" : 0, 
            "byteLength" : 69816, 
            "byteOffset" : 1001184, 
            "target" : 34962
        }, 
        {
            "buffer" : 0, 
            "byteLength" : 45480, 
            "byteOffset" : 1071000, 
            "target" : 34963
        }, 
        {
            "buffer" : 0, 
            "byteLength" : 60696, 
            "byteOffset" : 1116480, 
            "target" : 34962
        }, 
        {
            "buffer" : 0, 
            "byteLength" : 60696, 
            "byteOffset" : 1177176, 
            "target" : 34962
        }, 
        {
            "buffer" : 0, 
            "byteLength" : 52584, 
            "byteOffset" : 1237872, 
            "target" : 34963
        }, 
        {
            "buffer" : 0, 
            "byteLength" : 69816, 
            "byteOffset" : 1290456, 
            "target" : 34962
        }, 
        {
            "buffer" : 0, 
            "byteLength" : 69816, 
            "byteOffset" : 1360272, 
            "target" : 34962
        }, 
        {
            "buffer" : 0, 
            "byteLength" : 324, 
            "byteOffset" : 1430088, 
            "target" : 34963
        }, 
        {
            "buffer" : 0, 
            "byteLength" : 1632, 
            "byteOffset" : 1430412, 
            "target" : 34962
        }, 
        {
            "buffer" : 0, 
            "byteLength" : 1632, 
            "byteOffset" : 1432044, 
            "target" : 34962
        }, 
        {
            "buffer" : 0, 
            "byteLength" : 240, 
            "byteOffset" : 1433676
        }, 
        {
            "buffer" : 0, 
            "byteLength" : 720, 
            "byteOffset" : 1433916
        }, 
        {
            "buffer" : 0, 
            "byteLength" : 140, 
            "byteOffset" : 1434636
        }, 
        {
            "buffer" : 0, 
            "byteLength" : 560, 
            "byteOffset" : 1434776
        }, 
        {
            "buffer" : 0, 
            "byteLength" : 240, 
            "byteOffset" : 1435336
        }, 
        {
            "buffer" : 0, 
            "byteLength" : 720, 
            "byteOffset" : 1435576
        }, 
        {
            "buffer" : 0, 
            "byteLength" : 140, 
            "byteOffset" : 1436296
        }, 
        {
            "buffer" : 0, 
            "byteLength" : 420, 
            "byteOffset" : 1436436
        }, 
        {
            "buffer" : 0, 
            "byteLength" : 140, 
            "byteOffset" : 1436856
        }, 
        {
            "buffer" : 0, 
            "byteLength" : 560, 
            "byteOffset" : 1436996
        }, 
        {
            "buffer" : 0, 
            "byteLength" : 140, 
            "byteOffset" : 1437556
        }, 
        {
            "buffer" : 0, 
            "byteLength" : 420, 
            "byteOffset" : 1437696
        }
    ], 
    "buffers" : [
        {
            "byteLength" : 1438116, 
            "uri" : "-tia.bin"
        }
    ], 
    "materials" : [
        {
            "name" : "Material", 
            "pbrMetallicRoughness" : {
                "baseColorFactor" : [
                    0.04177363279124546, 
                    0.04177363279124546, 
                    0.04177363279124546, 
                    1.0
                ], 
                "metallicFactor" : 0.0
            }
        }, 
        {
            "name" : "Material.001", 
            "pbrMetallicRoughness" : {
                "baseColorFactor" : [
                    0.04177363279124546, 
                    0.04177363279124546, 
                    0.04177363279124546, 
                    1.0
                ], 
                "metallicFactor" : 0.0
            }
        }, 
        {
            "name" : "Material.002", 
            "pbrMetallicRoughness" : {
                "baseColorFactor" : [
                    0.04177363279124546, 
                    0.04177363279124546, 
                    0.04177363279124546, 
                    1.0
                ], 
                "metallicFactor" : 0.0
            }
        }, 
        {
            "name" : "Material.007", 
            "pbrMetallicRoughness" : {
                "baseColorFactor" : [
                    0.640000066757203, 
                    0.01893110303478096, 
                    0.012593503484033097, 
                    1.0
                ], 
                "metallicFactor" : 0.0
            }
        }, 
        {
            "name" : "Material.008", 
            "pbrMetallicRoughness" : {
                "baseColorFactor" : [
                    0.37375867923734596, 
                    0.1728259469989828, 
                    0.3502181343766768, 
                    1.0
                ], 
                "metallicFactor" : 0.0
            }
        }, 
        {
            "name" : "Material.009", 
            "pbrMetallicRoughness" : {
                "baseColorFactor" : [
                    0.37375867923734596, 
                    0.1728259469989828, 
                    0.3502181343766768, 
                    1.0
                ], 
                "metallicFactor" : 0.0
            }
        }
    ], 
    "meshes" : [
        {
            "name" : "CUText.004", 
            "primitives" : [
                {
                    "attributes" : {
                        "NORMAL" : 2, 
                        "POSITION" : 1
                    }, 
                    "indices" : 0, 
                    "material" : 1
                }
            ]
        }, 
        {
            "name" : "CUText.000", 
            "primitives" : [
                {
                    "attributes" : {
                        "NORMAL" : 5, 
                        "POSITION" : 4
                    }, 
                    "indices" : 3, 
                    "material" : 4
                }
            ]
        }, 
        {
            "name" : "CUText.003", 
            "primitives" : [
                {
                    "attributes" : {
                        "NORMAL" : 8, 
                        "POSITION" : 7
                    }, 
                    "indices" : 6, 
                    "material" : 2
                }
            ]
        }, 
        {
            "name" : "CUText.007", 
            "primitives" : [
                {
                    "attributes" : {
                        "NORMAL" : 11, 
                        "POSITION" : 10
                    }, 
                    "indices" : 9, 
                    "material" : 0
                }
            ]
        }, 
        {
            "name" : "CUText.002", 
            "primitives" : [
                {
                    "attributes" : {
                        "NORMAL" : 14, 
                        "POSITION" : 13
                    }, 
                    "indices" : 12, 
                    "material" : 3
                }
            ]
        }, 
        {
            "name" : "Cube.001", 
            "primitives" : [
                {
                    "attributes" : {
                        "NORMAL" : 17, 
                        "POSITION" : 16
                    }, 
                    "indices" : 15, 
                    "material" : 5
                }
            ]
        }
    ], 
    "nodes" : [
        {
            "mesh" : 5, 
            "name" : "Cube.001", 
            "scale" : [
                0.5554283261299133, 
                0.033479467034339905, 
                0.09532338380813599
            ], 
            "translation" : [
                1.1496633291244507, 
                -0.2281491756439209, 
                0.015696993097662926
            ]
        }, 
        {
            "mesh" : 1, 
            "name" : "Text.002", 
            "rotation" : [
                0.7071068286895752, 
                0.0, 
                -0.0, 
                0.7071068286895752
            ], 
            "scale" : [
                0.515999972820282, 
                0.515999972820282, 
                0.515999972820282
            ], 
            "translation" : [
                0.6355764865875244, 
                -0.6442237496376038, 
                3.235261392120492e-09
            ]
        }, 
        {
            "mesh" : 4, 
            "name" : "Text.003", 
            "scale" : [
                0.0, 
                0.0, 
                0.0
            ], 
            "translation" : [
                2.5762600898742676, 
                0.18501000106334686, 
                -0.0
            ]
        }, 
        {
            "mesh" : 2, 
            "name" : "Text.004", 
            "rotation" : [
                0.7071068286895752, 
                0.0, 
                -0.0, 
                0.7071068286895752
            ], 
            "translation" : [
                2.5762553215026855, 
                0.18501000106334686, 
                -0.0
            ]
        }, 
        {
            "mesh" : 0, 
            "name" : "Text.005", 
            "rotation" : [
                0.7071068286895752, 
                0.0, 
                -0.0, 
                0.7071068286895752
            ]
        }, 
        {
            "mesh" : 3, 
            "name" : "Text.013", 
            "rotation" : [
                0.7071068286895752, 
                0.0, 
                -0.0, 
                0.7071068286895752
            ]
        }
    ], 
    "scene" : 0, 
    "scenes" : [
        {
            "name" : "Scene", 
            "nodes" : [
                3, 
                2, 
                4, 
                0, 
                1, 
                5
            ]
        }
    ]
}
